<?xml version="1.0" encoding="utf-8"?>
<!-- Generator: Adobe Illustrator 26.0.3, SVG Export Plug-In . SVG Version: 6.00 Build 0)  -->
<svg version="1.1" id="Layer_1" xmlns="http://www.w3.org/2000/svg" xmlns:xlink="http://www.w3.org/1999/xlink" x="0px" y="0px"
	 viewBox="0 0 284.8 89.9" style="enable-background:new 0 0 284.8 89.9;" xml:space="preserve">
<style type="text/css">
	.st0{fill:none;stroke:#000000;stroke-width:0.9;stroke-linecap:round;stroke-linejoin:round;stroke-miterlimit:2.613;}
	.st1{fill:none;stroke:#000000;stroke-width:0.9;stroke-linecap:round;stroke-linejoin:round;}
</style>
<g id="Challenger_604_1_" transform="translate(0.45 0.454)">
	<path id="Path_142" class="st0" d="M128.4,70.9L107,67.7 M161.6,70.7c-10.8,1.8-22.4,1.3-33.5-0.6 M137.1,71.1l1.9,3h-8.9l-2.5-4.6
		l-24.2-2.2L99,55.9h5.2l9.3,10.7 M161.2,70.9c4.1-2.6-7.8-2.5-11.7-3.7 M186.9,68.3c1.4-2-47.1-0.1-73.7-2.4 M197.1,75.2
		c14.8-1.8,8.9-7.3-13.4-8.3 M143.1,84.2c0,0.5-0.4,0.9-0.9,0.9s-0.9-0.4-0.9-0.9s0.4-0.9,0.9-0.9h0
		C142.7,83.3,143.1,83.7,143.1,84.2L143.1,84.2z M144.6,84.1c0,1.3-1.1,2.4-2.4,2.4s-2.4-1.1-2.4-2.4s1.1-2.4,2.4-2.4h0
		C143.5,81.7,144.6,82.8,144.6,84.1L144.6,84.1z M242.8,75.3c13-0.3,25.9-2.6,38.2-6.9c3.2-1.8,3.8-3,1.8-4.9
		c-7-4.7-14.3-9-21.8-12.8c-14-10-27-15.8-43.5-14.2l-94,0.6c-31.6,0.6-57.9,4-88.5,8.2l-14,2.2l0.2,10C48,65,90.1,73,121.1,76
		c9.9,1.7,24.4,1.9,40.2,1.2c15.1,0.9,27.6,0.7,34.8-2.2 M243,75.3h-47.1"/>
	<path id="Path_143" class="st1" d="M149.4,74.8v5.4l-6-0.5l1.5-5.1L149.4,74.8z"/>
	<path id="Path_144" class="st0" d="M149.4,74.8v5.4l-6-0.5l1.5-5.1L149.4,74.8z"/>
	<path id="Path_145" class="st0" d="M29.9,3.4l-1.4-2.2L16.1,2l-0.7,1.2 M7.6,6.4l24,38.9 M43.5,44L19.6,9.3l-10,0.2 M89.3,38.5v-1
		l1.8-0.5l0.2-2.2l-20-1.4L44.1,6.5c-5.6-8.9-25.2-7.4-37.9-3 M111.4,64.4h9.3v-7.3 M110.9,63.7v-4.9 M78.9,54.1V43 M109.4,48.8
		h-7.1 M100.2,48.8h-7.3 M100.4,56V39.1 M102.1,55.8V38.6 M109.3,58.6V38.4 M70.4,50.5c-7.2-0.8-7.2-1.6,0-2.4 M92.8,56
		c-7.4-0.8-14.8-2-22-3.7c-0.8-2.4-0.8-5,0-7.4c7.2-1.7,14.6-2.9,22-3.6 M92.7,57.4V40c9-2.2,18.8-2.1,29.4,0.2v15.9
		C115,59,104.6,59.3,92.7,57.4L92.7,57.4z M192.4,50.1v3.4c0,0.4-0.3,0.8-0.8,0.8c0,0,0,0,0,0h-1.7c-0.4,0-0.8-0.3-0.8-0.8
		c0,0,0,0,0,0v-3.4c0-0.4,0.3-0.8,0.8-0.8c0,0,0,0,0,0h1.7C192,49.3,192.4,49.6,192.4,50.1C192.4,50.1,192.4,50.1,192.4,50.1z
		 M181.9,50.1v3.4c0,0.4-0.3,0.8-0.8,0.8c0,0,0,0,0,0h-1.7c-0.4,0-0.8-0.3-0.8-0.8c0,0,0,0,0,0v-3.4c0-0.4,0.3-0.8,0.8-0.8
		c0,0,0,0,0,0h1.7C181.5,49.3,181.9,49.7,181.9,50.1z M171,50.1v3.4c0,0.4-0.3,0.8-0.8,0.8c0,0,0,0,0,0h-1.7c-0.4,0-0.8-0.3-0.8-0.8
		c0,0,0,0,0,0v-3.4c0-0.4,0.3-0.8,0.8-0.8c0,0,0,0,0,0h1.7C170.6,49.3,171,49.6,171,50.1C171,50.1,171,50.1,171,50.1z M160.3,50.1
		v3.4c0,0.4-0.3,0.8-0.8,0.8c0,0,0,0,0,0h-1.7c-0.4,0-0.8-0.3-0.8-0.8c0,0,0,0,0,0v-3.4c0-0.4,0.3-0.8,0.8-0.8c0,0,0,0,0,0h1.7
		C159.9,49.3,160.3,49.7,160.3,50.1L160.3,50.1z M149.5,50.1v3.4c0,0.4-0.3,0.8-0.8,0.8c0,0,0,0,0,0H147c-0.4,0-0.8-0.3-0.8-0.8
		c0,0,0,0,0,0v-3.4c0-0.4,0.3-0.8,0.8-0.8c0,0,0,0,0,0h1.7C149.1,49.3,149.5,49.6,149.5,50.1C149.5,50.1,149.5,50.1,149.5,50.1z
		 M203.3,50.1v3.4c0,0.4-0.3,0.8-0.8,0.8c0,0,0,0,0,0h-1.7c-0.4,0-0.8-0.3-0.8-0.8c0,0,0,0,0,0v-3.4c0-0.4,0.3-0.8,0.8-0.8
		c0,0,0,0,0,0h1.7C202.9,49.3,203.3,49.7,203.3,50.1z M223.2,39.4V64c0,1-0.9,1.9-1.9,1.9h-9.8c-1,0-1.9-0.9-1.9-1.9V39.4
		c0-1,0.9-1.9,1.9-1.9h9.8C222.3,37.5,223.2,38.4,223.2,39.4z M146.5,82.1l0.9-0.4 M147.9,83.2l-0.5-1.6 M149,81.8l-1.6-0.1v-1.4
		 M150.6,78.4l-0.8-0.8l0.4-2.4 M149.1,75l2,0.1l-0.3,3.3l-1.3,0.7 M146.9,83.6c2.1,0.1,2.2-1.4,2.1-3.2"/>
	<path id="Path_146" class="st0" d="M250.5,74.8l-1,6.2l0.9,0.3l1.4-6.7L250.5,74.8z M254.9,82.4h-1.1v-8h1.1V82.4z M254.2,85.6
		c0,0.4-0.4,0.8-0.8,0.8c-0.4,0-0.8-0.4-0.8-0.8c0-0.4,0.4-0.8,0.8-0.8l0,0C253.8,84.8,254.2,85.1,254.2,85.6
		C254.2,85.6,254.2,85.6,254.2,85.6z M255.2,85.6c0,1-0.8,1.8-1.8,1.8c-1,0-1.8-0.8-1.8-1.8c0-1,0.8-1.8,1.8-1.8l0,0
		C254.4,83.8,255.2,84.6,255.2,85.6C255.2,85.6,255.2,85.6,255.2,85.6z M256.8,85.6c0,1.9-1.5,3.4-3.4,3.4s-3.4-1.5-3.4-3.4
		c0-1.9,1.5-3.4,3.4-3.4l0,0C255.3,82.2,256.8,83.7,256.8,85.6C256.8,85.6,256.8,85.6,256.8,85.6z M262.3,73.4
		c0.9,2.4,0.2,3.4-3.3,3.5 M259.1,76.9l0.4,1.6l15.3-3l-0.9-4.8 M274.7,70.3V58.2 M247.3,45.8c-0.8-0.8-0.9-1,0.7-1h2.4
		c0.7,0,8.8,5.6,9.1,5.8c0.1,0.1-6.4,0.1-6.6,0.1C252.8,50.7,247.5,46,247.3,45.8z M235.1,46v3.8c0,0.5,0.4,1,0.9,1c0,0,0.1,0,0.1,0
		h14.7c0.6,0,0.4-0.8,0.1-1l-4.4-3.8c-0.3-0.2-0.6-1-1-1h-9.4C235.5,45,235.1,45.5,235.1,46L235.1,46z M251,44.3h-16.1
		c-0.2,0-0.7,0.3-0.7,0.7v5.6c0,0.4,0.3,0.7,0.7,0.7c0,0,0,0,0,0h27.4 M30.1,9.5C20.8,9.3,10.6,8.2,5.2,5.6 M0,4.4
		c4.5,0.6,8.8,2.2,13.2,0C8.8,2.2,4.5,3.8,0,4.4z M9.8,5.6c35.5,0.6,35.5-3.2,0-2.2 M30.8,6l-1.3,1.7L16.3,7.2l-1.5-1.5"/>
	<path id="Path_147" class="st1" d="M253.7,82.2c-1.9-0.2-3.6,1.1-3.8,3c0,0.1,0,0.2,0,0.3c-0.5-0.7-1.3-1.1-2.1-1.2v-0.7l5.9-4.1
		V82.2z"/>
	<path id="Path_148" class="st0" d="M253.7,82.2c-1.9-0.2-3.6,1.1-3.8,3c0,0.1,0,0.2,0,0.3c-0.5-0.7-1.3-1.1-2.1-1.2v-0.7l5.9-4.1
		V82.2z"/>
	<path id="Path_149" class="st1" d="M250.5,83l-1.3,0.8l0.4,0.4L250.5,83z"/>
	<path id="Path_150" class="st0" d="M250.5,83l-1.3,0.8l0.4,0.4L250.5,83z"/>
	<path id="Path_151" class="st1" d="M252.4,81.6l-2.7,1.4l2.5-2.2L252.4,81.6z"/>
	<path id="Path_152" class="st0" d="M252.4,81.6l-2.7,1.4l2.5-2.2L252.4,81.6z"/>
	<path id="Path_153" class="st0" d="M136.3,74l-1.9-3.3 M122.9,76.4c-2.9-0.2-5.8-0.8-8.5-2 M255,78.1l0.3-1.8l1-2.2 M254.9,78.3
		l0.9-0.6l1.8-3.7"/>
	<path id="Path_154" class="st0" d="M146.8,84.2c0,2.5-2.1,4.6-4.6,4.6s-4.6-2.1-4.6-4.6c0-2.5,2.1-4.6,4.6-4.6c2.5,0,4.6,2,4.6,4.5
		C146.8,84.1,146.8,84.2,146.8,84.2z M21.2,52.8c3-0.3,3.1-0.9-0.1-0.5"/>
</g>
</svg>
