<?xml version="1.0" encoding="utf-8"?>
<!-- Generator: Adobe Illustrator 26.0.3, SVG Export Plug-In . SVG Version: 6.00 Build 0)  -->
<svg version="1.1" id="Layer_1" xmlns="http://www.w3.org/2000/svg" xmlns:xlink="http://www.w3.org/1999/xlink" x="0px" y="0px"
	 viewBox="0 0 218.8 76.9" style="enable-background:new 0 0 218.8 76.9;" xml:space="preserve">
<style type="text/css">
	.st0{fill:none;stroke:#000000;stroke-width:0.9;stroke-linecap:round;stroke-linejoin:round;}
</style>
<g id="Embraer_Phenom_1_" transform="translate(0.45 0.45)">
	<line id="Line_138" class="st0" x1="51.4" y1="22.6" x2="51.5" y2="22.6"/>
	<path id="Path_660" class="st0" d="M34,1.6c-0.1,0.1-0.2,0.1-0.4,0.2c-0.5,0.1-1,0.2-1.5,0.2H13"/>
	<path id="Path_661" class="st0" d="M34,1.6c0.1-0.1,0.2-0.2,0.2-0.3c0-0.2-0.2-0.3-0.6-0.5c-0.5-0.1-1-0.2-1.5-0.2h-0.8"/>
	<path id="Path_662" class="st0" d="M31.3,0.6C30.6,0.2,29.1,0,26.8,0H7.2C5.8,0,4.9,0.3,4.7,0.6"/>
	<path id="Path_663" class="st0" d="M51.5,22.6L35.9,5.8L35,3c0-0.2-0.1-0.4-0.2-0.6C34.6,2,34.4,1.7,34,1.6"/>
	<path id="Path_664" class="st0" d="M20,6.5h1.4l16.3,24.9l-0.9,0.8"/>
	<path id="Path_665" class="st0" d="M4.7,0.6c-0.9,0-1.9,0.1-2.8,0.2C0.6,0.9,0,1.1,0,1.3s0.6,0.3,1.9,0.5C2.7,1.9,3.5,1.9,4.5,2"/>
	<path id="Path_666" class="st0" d="M13,0.6c1.1,0.5,1.1,0.9,0,1.4"/>
	<path id="Path_667" class="st0" d="M4.5,2c0.2,0.7,0.7,1.3,1.3,1.6l2.4,0.8c1.1,0.5,2.2,1.2,3,2.1l0,0"/>
	<path id="Path_668" class="st0" d="M13,2H4.5"/>
	<path id="Path_669" class="st0" d="M4.7,0.6H13"/>
	<path id="Path_670" class="st0" d="M11.3,6.5c0.1,0.2,0.3,0.4,0.4,0.6c0.2,0.2,0.3,0.5,0.4,0.7c0.4,0.8,0.8,1.6,1.3,2.4l13,24.3"/>
	<line id="Line_139" class="st0" x1="11.3" y1="6.5" x2="20" y2="6.5"/>
	<line id="Line_140" class="st0" x1="31.3" y1="0.6" x2="13" y2="0.6"/>
	<path id="Path_671" class="st0" d="M27.2,43.3l-0.7-0.1c-1.1-0.3-2-1-2.6-2c-0.1-0.1-0.1-0.2-0.2-0.3c-0.8-1.3-1.2-2.7-1.3-4.2
		c-0.2-0.8,0.3-1.7,1.2-1.9c0.1,0,0.3,0,0.4,0l8.6-0.7c0.8-0.1,1.5-0.1,2.2-0.2"/>
	<path id="Path_672" class="st0" d="M34.7,33.8c0.2,0,0.3,0,0.5-0.1c0.7,0,1.3-0.1,2-0.3c0.1,0,0.3,0,0.4-0.1
		c0.6-0.1,1.2-0.2,1.7-0.3c5.9-0.9,12.2-1.6,18.8-2.1"/>
	<line id="Line_141" class="st0" x1="36.8" y1="32.2" x2="34.7" y2="33.8"/>
	<path id="Path_673" class="st0" d="M57.5,50.1l-26.6-0.6c-0.7,0-1.4-0.4-1.6-1.1l-2.1-5.1"/>
	<path id="Path_674" class="st0" d="M66,30.6c0.2-0.1,0.3-0.2,0.5-0.3c7.4-1.3,14.8-2.2,22.3-2.6"/>
	<path id="Path_675" class="st0" d="M58.1,31.1c1.8-0.1,3.7-0.3,5.5-0.4c0.8,0,1.6-0.1,2.3-0.1"/>
	<path id="Path_676" class="st0" d="M96,39.9c-0.2,0-0.3,0.1-0.5,0.1c-7.7,0.4-17.4-0.4-29.1-2.5c-0.4-0.2-0.7-0.5-0.8-0.9
		c-0.1-0.3-0.1-0.6-0.2-1c-0.2-1.1-0.2-2.1,0-3.2c0-0.4,0.1-0.8,0.2-1.2l0.3-0.6"/>
	<line id="Line_142" class="st0" x1="27.2" y1="43.3" x2="57.5" y2="50.1"/>
	<line id="Line_143" class="st0" x1="58.1" y1="31.1" x2="51.5" y2="22.6"/>
	<line id="Line_144" class="st0" x1="20" y1="6.5" x2="36.8" y2="32.2"/>
	<path id="Path_677" class="st0" d="M209.7,56.2l4-0.1c0.5-0.1,1-0.1,1.5-0.2c1.5-0.4,2.4-1.1,2.7-2.1c0.2-1.5-0.6-2.9-1.9-3.6
		c-2.6-1.8-11.8-5.5-27.5-11c-0.8-0.3-1.6-0.6-2.4-1c-0.2-0.1-0.3-0.1-0.5-0.2"/>
	<path id="Path_678" class="st0" d="M190,59.5h19.7v-3.3"/>
	<path id="Path_679" class="st0" d="M96,27.9c0.9,0.2,1.6,0.8,2,1.6c0.1,0.7,0.2,1.5,0.3,2.2c0.2,1.5,0.2,3.1,0,4.6L98,38.4
		c-0.4,0.8-1.1,1.4-2,1.6"/>
	<path id="Path_680" class="st0" d="M95.6,27.8c0.1,0,0.3,0,0.4,0.1"/>
	<path id="Path_681" class="st0" d="M88.7,27.8c2.4-0.1,4.7-0.1,6.8,0h0.1"/>
	<line id="Line_145" class="st0" x1="106.2" y1="27.8" x2="95.6" y2="27.8"/>
	<line id="Line_146" class="st0" x1="96" y1="27.9" x2="96" y2="39.9"/>
	<path id="Path_682" class="st0" d="M102.6,51.4c0.9-0.5,1.9-0.8,2.9-0.9h6.4c1.9-0.2,3.8,0.3,5.5,1.2l0.4,0.2"/>
	<path id="Path_683" class="st0" d="M97.6,57l4.1-4.8c0.2-0.2,0.4-0.5,0.6-0.6l0.2-0.2"/>
	<path id="Path_684" class="st0" d="M95.8,58c-0.2-0.3-0.2-0.7-0.1-1h1.9"/>
	<path id="Path_685" class="st0" d="M97.6,57h6.6l8.7,1.4c0.7,0.2,1,0.5,0.9,0.9"/>
	<line id="Line_147" class="st0" x1="86.2" y1="58.3" x2="95.8" y2="58"/>
	<path id="Path_686" class="st0" d="M106.2,27.8c1.3-0.6,2.8-0.9,4.2-0.9c0.8-0.1,1.6,0.2,2.2,0.8"/>
	<path id="Path_687" class="st0" d="M122.1,39.7h1.7c0.9,0,1.8-0.7,1.8-1.6c0-0.1,0-0.1,0-0.2v-2.2c0-0.5-0.2-0.9-0.5-1.3
		c-0.3-0.3-0.8-0.5-1.3-0.5h-1.7c-0.5,0-0.9,0.2-1.3,0.5c-0.4,0.3-0.6,0.8-0.5,1.3v2.2c0,0.5,0.2,0.9,0.5,1.3
		C121.1,39.5,121.6,39.7,122.1,39.7"/>
	<path id="Path_688" class="st0" d="M108.5,34.4c-0.3,0.4-0.5,0.8-0.5,1.3v2.2c0,0.5,0.2,0.9,0.5,1.3c0.3,0.3,0.8,0.5,1.3,0.5h1.6
		c0.9,0,1.8-0.7,1.8-1.6c0-0.1,0-0.1,0-0.2v-2.2c0-0.5-0.2-0.9-0.5-1.3c-0.3-0.3-0.8-0.5-1.3-0.5h-1.6
		C109.3,33.9,108.8,34.1,108.5,34.4"/>
	<path id="Path_689" class="st0" d="M127.5,27.8l-0.1-1c0.5,0.1,1,0.5,1.1,1"/>
	<line id="Line_148" class="st0" x1="128.5" y1="27.8" x2="127.5" y2="27.8"/>
	<line id="Line_149" class="st0" x1="136.2" y1="27.8" x2="134.2" y2="27.8"/>
	<path id="Path_690" class="st0" d="M132.5,23.3h1.2l2.5,4.5"/>
	<path id="Path_691" class="st0" d="M132.7,23.8h-2.2c-0.2-0.1-0.2-0.3,0-0.5h2"/>
	<line id="Line_150" class="st0" x1="134.2" y1="27.8" x2="132.7" y2="23.8"/>
	<line id="Line_151" class="st0" x1="132.7" y1="23.8" x2="132.5" y2="23.3"/>
	<path id="Path_692" class="st0" d="M131.6,33.9c-0.5,0-0.9,0.2-1.3,0.5c-0.3,0.4-0.5,0.8-0.5,1.3v2.2c0,0.5,0.2,0.9,0.5,1.3
		c0.3,0.3,0.8,0.5,1.3,0.5h1.6c0.5,0,0.9-0.2,1.3-0.5c0.3-0.3,0.5-0.8,0.5-1.3v-2.2c0-0.5-0.2-0.9-0.5-1.3c-0.3-0.4-0.8-0.6-1.3-0.5
		H131.6"/>
	<line id="Line_152" class="st0" x1="134.2" y1="27.8" x2="128.5" y2="27.8"/>
	<line id="Line_153" class="st0" x1="130.2" y1="57.8" x2="130.8" y2="58.1"/>
	<line id="Line_154" class="st0" x1="127.5" y1="27.8" x2="112.6" y2="27.8"/>
	<line id="Line_155" class="st0" x1="130.2" y1="57.8" x2="117.8" y2="51.9"/>
	<line id="Line_156" class="st0" x1="109.7" y1="67.8" x2="109" y2="66.1"/>
	<path id="Path_693" class="st0" d="M112.5,68.6c-0.3,0-0.5,0.1-0.8,0.1c-0.8,0.3-1.6-0.1-2-0.8l-0.1-0.1"/>
	<path id="Path_694" class="st0" d="M107,61.2c2.3,0.3,4.7-0.2,6.6-1.5c0.1-0.1,0.2-0.2,0.2-0.4"/>
	<path id="Path_695" class="st0" d="M113.8,59.3c1.1,0.1,2.1,0.9,2.4,2l0.8,2.1"/>
	<path id="Path_696" class="st0" d="M119,70.4c-0.6,0.2-1.3,0-1.7-0.5c-0.7-0.7-1.7-1.2-2.7-1.3"/>
	<path id="Path_697" class="st0" d="M118.3,70.5c0.2,0.1,0.5,0,0.7-0.1"/>
	<path id="Path_698" class="st0" d="M119,70.4c0.3-0.2,0.3-0.6,0.2-1.3l-2.2-5.7"/>
	<path id="Path_699" class="st0" d="M114.7,68.6c0.2,0.6,0.4,1.2,0.4,1.8c0,1.2-0.5,2.4-1.4,3.2c-0.8,0.9-2,1.4-3.2,1.4
		c-1.2,0-2.4-0.5-3.2-1.4c-0.9-0.8-1.3-2-1.3-3.2c0-1.2,0.5-2.3,1.3-3.2c0.5-0.5,1.1-0.9,1.8-1.1"/>
	<path id="Path_700" class="st0" d="M112.5,68.6c0.5,0.5,0.7,1.1,0.7,1.8c0,0.7-0.3,1.4-0.8,1.9c-0.5,0.5-1.2,0.8-1.9,0.8
		c-0.7,0-1.4-0.3-1.9-0.8c-1-1-1.1-2.7,0-3.8c0,0,0,0,0,0c0.3-0.3,0.7-0.6,1.1-0.7"/>
	<path id="Path_701" class="st0" d="M114.7,68.6c-0.7-0.1-1.5-0.1-2.2,0"/>
	<path id="Path_702" class="st0" d="M117.1,63.4c3.5,0,6.9-0.5,10.3-1.3c0.5-0.1,1-0.3,1.5-0.5"/>
	<path id="Path_703" class="st0" d="M128.8,61.6c1.1-0.4,2-1.2,2.6-2.3c0.2-0.5-0.1-1-1.1-1.6"/>
	<path id="Path_704" class="st0" d="M95.8,58c0.8,1.3,4.1,2.3,10,3c0.4,0,0.8,0.1,1.2,0.1"/>
	<line id="Line_157" class="st0" x1="107" y1="61.2" x2="107.2" y2="61.7"/>
	<path id="Path_705" class="st0" d="M107.2,61.7c-7.1-0.7-14.1-1.8-21-3.4"/>
	<line id="Line_158" class="st0" x1="109" y1="66.1" x2="107.2" y2="61.7"/>
	<line id="Line_159" class="st0" x1="112.6" y1="27.8" x2="106.2" y2="27.8"/>
	<path id="Path_706" class="st0" d="M142.1,27.8l-0.1-1c0.6,0,1.1,0.4,1.2,1"/>
	<line id="Line_160" class="st0" x1="143.2" y1="27.8" x2="142.1" y2="27.8"/>
	<path id="Path_707" class="st0" d="M148.4,31v20.9c-0.1,0.9,0.5,1.7,1.4,1.8c0.1,0,0.3,0,0.4,0h6.7c0.9,0.1,1.7-0.5,1.8-1.4
		c0-0.1,0-0.3,0-0.4V31c0.1-0.9-0.5-1.7-1.4-1.8c-0.1,0-0.3,0-0.4,0h-6.7c-0.9-0.1-1.7,0.5-1.8,1.4C148.4,30.7,148.4,30.9,148.4,31"
		/>
	<path id="Path_708" class="st0" d="M144.8,35.7c0-0.5-0.2-0.9-0.5-1.3c-0.3-0.3-0.8-0.5-1.3-0.5h-1.6c-0.5,0-0.9,0.2-1.3,0.5
		c-0.3,0.4-0.5,0.8-0.5,1.3v2.2c0,0.5,0.2,0.9,0.5,1.3c0.3,0.3,0.8,0.5,1.3,0.5h1.6c0.5,0,0.9-0.2,1.3-0.5c0.3-0.4,0.5-0.8,0.5-1.3
		L144.8,35.7"/>
	<path id="Path_709" class="st0" d="M176.5,38.7c-3.8-0.1-7.9-0.3-12.2-0.7c-0.9-0.2-1.5-0.5-1.6-1.1v-0.5c-0.1-0.8,0-1.7,0.1-2.5
		c0.3-0.9,1.2-1.5,2.8-1.6l9.9-0.6"/>
	<path id="Path_710" class="st0" d="M163.4,34.6c-0.1-1,0.8-1.5,2.4-1.7l3.7-0.2l4.7,5l-9.1-0.5c-1,0.1-1.6-0.3-1.6-1.2v-1.4"/>
	<path id="Path_711" class="st0" d="M145,58.3c0.8-0.1,1.6-0.3,2.4-0.4c0.5-0.1,1-0.2,1.6-0.3c2.9-0.6,5.9-1,8.9-1H168"/>
	<path id="Path_712" class="st0" d="M117.8,51.9c13.9-0.3,23.7,0.6,29.7,2.7c2.6,1.2,1.8,2.4-2.5,3.8"/>
	<path id="Path_713" class="st0" d="M175.5,31.6c-1.5-0.8-3.1-1.5-4.8-2c-3.1-1.1-6.5-1.7-9.8-1.8h-17.7"/>
	<path id="Path_714" class="st0" d="M185.7,37.9c-1.4,0.4-2.8,0.7-4.3,0.7h-4.8"/>
	<line id="Line_161" class="st0" x1="176.5" y1="38.7" x2="170.2" y2="32"/>
	<path id="Path_715" class="st0" d="M175.5,31.6l1.2,0.6"/>
	<path id="Path_716" class="st0" d="M176.7,32.2l-4.9,0.3l5.3,5.2c2.5,0.3,5,0.1,7.5-0.4"/>
	<path id="Path_717" class="st0" d="M184.5,37.3c0.4,0.2,0.7,0.4,1.1,0.7"/>
	<path id="Path_718" class="st0" d="M176.7,32.2c2.5,1.4,5,2.9,7.3,4.6c0.2,0.1,0.4,0.3,0.6,0.4"/>
	<line id="Line_162" class="st0" x1="168" y1="56.7" x2="169.5" y2="56.7"/>
	<line id="Line_163" class="st0" x1="169.5" y1="56.7" x2="186.6" y2="56.7"/>
	<path id="Path_719" class="st0" d="M167.2,61.1h-1.3"/>
	<path id="Path_720" class="st0" d="M165.9,61.1h-1.6c-0.1,0-0.1,0-0.1,0.1l-0.1,0.1c0,0.1,0,0.1,0.1,0.1l0.1,0.1h2.8
		c0.1,0,0.1,0,0.1-0.1v0l0.1-0.1c0-0.1,0-0.1-0.1-0.1l0,0l0,0"/>
	<line id="Line_164" class="st0" x1="189.1" y1="62" x2="189.2" y2="63.5"/>
	<line id="Line_165" class="st0" x1="188.8" y1="59.6" x2="189.1" y2="62"/>
	<path id="Path_721" class="st0" d="M189.2,63.5h-0.1c-0.2,0-0.3,0.2-0.3,0.4v0.5c0,0.2,0.2,0.4,0.4,0.3h0.1"/>
	<line id="Line_166" class="st0" x1="187.5" y1="59.7" x2="188.8" y2="61.3"/>
	<path id="Path_722" class="st0" d="M189.3,67l-1.4-1.7c-0.2-0.3-0.3-0.7-0.1-1l1.3-2.3"/>
	<path id="Path_723" class="st0" d="M189.7,68.1L189.7,68.1c-0.2,0-0.4-0.1-0.5-0.3v-0.1"/>
	<path id="Path_724" class="st0" d="M188.9,61.4l-1.5,2.6l0,0c-0.2,0.5-0.2,1.1,0.2,1.6l0,0l1.7,2"/>
	<line id="Line_167" class="st0" x1="190" y1="59.4" x2="190" y2="59.5"/>
	<path id="Path_725" class="st0" d="M190.3,62.6l1.4-0.1c0.1,0,0.2-0.1,0.3-0.1c0.1-0.1,0.1-0.2,0.1-0.3v-0.3c0-0.1-0.1-0.2-0.1-0.3
		c-0.1-0.1-0.2-0.1-0.3-0.1l-1.5,0.1"/>
	<line id="Line_168" class="st0" x1="190.3" y1="62.6" x2="190.2" y2="61.6"/>
	<line id="Line_169" class="st0" x1="190.4" y1="63.4" x2="190.3" y2="62.6"/>
	<path id="Path_726" class="st0" d="M190.5,64.6h0.1c0.3,0,0.3-0.2,0.3-0.4l-0.1-0.5c0-0.2-0.2-0.3-0.4-0.3h-0.1"/>
	<line id="Line_170" class="st0" x1="190.2" y1="61.6" x2="190" y2="59.5"/>
	<line id="Line_171" class="st0" x1="189.3" y1="64.7" x2="190.5" y2="64.6"/>
	<path id="Path_727" class="st0" d="M190.7,66.8L190.7,66.8c0.2,0,0.4,0.1,0.5,0.3v0.4c0,0.2-0.1,0.4-0.3,0.4l0,0"/>
	<line id="Line_172" class="st0" x1="189.7" y1="68.1" x2="190.9" y2="67.9"/>
	<line id="Line_173" class="st0" x1="190.7" y1="66.8" x2="189.6" y2="66.9"/>
	<path id="Path_728" class="st0" d="M189.6,66.9L189.6,66.9c-0.1,0-0.2,0.1-0.3,0.1"/>
	<line id="Line_174" class="st0" x1="190.5" y1="64.6" x2="190.7" y2="66.8"/>
	<line id="Line_175" class="st0" x1="189.6" y1="66.9" x2="189.3" y2="64.7"/>
	<path id="Path_729" class="st0" d="M191.1,69.9l0.1,1.2c0,0.5-0.1,0.8-0.5,0.9c-0.3,0-0.5-0.3-0.6-0.8L190,70"/>
	<line id="Line_176" class="st0" x1="190.9" y1="68.4" x2="191.1" y2="69.9"/>
	<line id="Line_177" class="st0" x1="189.9" y1="70" x2="189.7" y2="68.5"/>
	<path id="Path_730" class="st0" d="M191.1,69.9c0.4,0.1,0.8,0.3,1.1,0.6c0.4,0.4,0.7,1,0.7,1.6c0,0.6-0.2,1.2-0.7,1.6
		c-0.4,0.4-1,0.7-1.6,0.7c-0.6,0-1.2-0.2-1.6-0.7c-0.4-0.4-0.7-1-0.7-1.6c0-0.6,0.2-1.2,0.7-1.6c0.2-0.3,0.6-0.4,0.9-0.5"/>
	<path id="Path_731" class="st0" d="M190.9,68.4c0.9,0.1,1.8,0.5,2.4,1.1c0.7,0.7,1.1,1.7,1.1,2.7c0,1-0.4,2-1.1,2.7
		c-0.7,0.7-1.7,1.1-2.7,1.1c-1,0-2-0.4-2.7-1.1c-0.7-0.7-1.1-1.7-1.1-2.7c0-1,0.4-2,1.1-2.7c0.5-0.5,1.1-0.8,1.8-1"/>
	<path id="Path_732" class="st0" d="M190,59.5h-3.4v-2.8"/>
	<line id="Line_178" class="st0" x1="189.2" y1="63.5" x2="190.4" y2="63.4"/>
	<path id="Path_733" class="st0" d="M189.2,67.7c0-0.3,0-0.5,0.1-0.6"/>
	<line id="Line_179" class="st0" x1="189.7" y1="68.5" x2="189.7" y2="68.1"/>
	<line id="Line_180" class="st0" x1="190.9" y1="67.9" x2="190.9" y2="68.4"/>
	<line id="Line_181" class="st0" x1="167.2" y1="61.1" x2="169.5" y2="56.7"/>
	<line id="Line_182" class="st0" x1="165.9" y1="61.1" x2="168" y2="56.7"/>
	<line id="Line_183" class="st0" x1="142.1" y1="27.8" x2="136.2" y2="27.8"/>
	<path id="Path_734" class="st0" d="M128.8,61.6c5.4-1.2,10.8-2.3,16.2-3.3"/>
	<line id="Line_184" class="st0" x1="186.6" y1="56.7" x2="209.7" y2="56.2"/>
	<path id="Path_735" class="st0" d="M86.2,58.3c-9.7-2.2-19.3-4.9-28.7-8.2"/>
	<line id="Line_185" class="st0" x1="88.7" y1="27.8" x2="51.5" y2="22.6"/>
	<path id="Path_736" class="st0" d="M57.5,50.1c10.5-2.4,25.5-2,45.1,1.4"/>
</g>
</svg>
