<?xml version="1.0" encoding="utf-8"?>
<!-- Generator: Adobe Illustrator 26.0.3, SVG Export Plug-In . SVG Version: 6.00 Build 0)  -->
<svg version="1.1" id="Layer_1" xmlns="http://www.w3.org/2000/svg" xmlns:xlink="http://www.w3.org/1999/xlink" x="0px" y="0px"
	 viewBox="0 0 280.8 88.3" style="enable-background:new 0 0 280.8 88.3;" xml:space="preserve">
<style type="text/css">
	.st0{fill:none;stroke:#000000;stroke-width:0.9;stroke-linecap:round;stroke-linejoin:round;stroke-miterlimit:2.613;}
</style>
<g id="CessnaCitation_1_" transform="translate(0.45 0.45)">
	<path id="Path_422" class="st0" d="M105.9,43.6c4.7-0.1,9.7-0.1,15.1-0.1h101c15.6-0.1,18.9,2.6,30.2,9.2c1.9,1.2,4,2.1,6.2,2.7
		c6.4,1.8,12.6,4,18.6,6.7c6,2.8,1.7,6.5-3.1,6.5 M131.1,77.1c-9.4,0.2-18.8-0.2-28.2-1.2C72.3,72.1,42.1,65.7,12.6,57
		c-3.3-1-2-6.5,3.1-7c31.5-2.9,50.4-5.1,76.3-6 M251.3,69.9c-29.9,2.1-60.1,3.4-90.1,5.4 M12.2,56.9l0.3-5.7 M138.9,81.5
		c0.4,0,0.7-0.3,0.7-0.7c0-0.1,0-0.2,0-0.2l-1.4-6.2c-0.1-0.5-0.6-0.9-1.1-0.9h-5.8c-0.4,0-0.7,0.3-0.7,0.7c0,0.1,0,0.2,0,0.2
		l1.4,6.2c0.1,0.5,0.6,0.9,1.1,0.9H138.9z M129.5,82.7c0.4,0,0.7-0.3,0.7-0.7c0-0.4-0.3-0.7-0.7-0.7c-0.4,0-0.7,0.3-0.7,0.7l0,0
		C128.8,82.4,129.1,82.7,129.5,82.7C129.5,82.7,129.5,82.7,129.5,82.7z M127.8,77.1c-2.1,0.8-3.6,2.7-3.6,5c0,2.9,2.4,5.3,5.3,5.3
		c2.9,0,5.3-2.4,5.3-5.3v-0.6 M131.8,80.2c-0.6-0.7-1.5-1.1-2.4-1.1c-1.7,0-3,1.3-3,3s1.3,3,3,3c1.7,0,3-1.3,3-3
		c0-0.3,0-0.5-0.1-0.8 M135.1,81.5l1,1.4c0.2,0.2,0.5,0.3,0.8,0.2l2.4-1.6 M134.7,82.9l1.1-0.5 M138.9,77.5
		c10.2,0.1,18-0.7,22.8-2.3c2.7-0.9,3.8-2,2.5-3.4c-1-0.8-2.1-1.4-3.2-2 M138.9,76.3c10.2,0.1,18-0.5,22.8-1.9
		c1.1-0.2,2.2-0.8,3-1.6 M122,66.7l34.8,7.6c4.4,1,8.7-3.7,1.4-6c-0.2-0.1-0.4,0.1-0.5,0.3l-0.2,0.8c0,0.2-0.2,0.3-0.4,0.3
		c-11.9-1.8-23.8-3.4-35.7-4.8 M124.3,65.9c0-1.7-17.2-1.2-17.2-0.4S124.3,67.8,124.3,65.9z M121.2,66.8c0.6-0.1,0.7-1.7-0.1-1.8
		 M117.2,66.8c0.6-0.1,0.6-1.9,0.1-2 M113.3,66.6c-0.6-0.1-0.6-1.7,0-1.7 M160.4,71.3c-0.2-0.4-1-0.2-0.9,0.3s-0.2,0.9-0.6,1.4
		c-0.4,0.3,0.1,0.9,0.5,0.7C160.5,73,160.8,72.2,160.4,71.3z M66.9,58.8c-0.2,0-0.3-0.1-0.4-0.2c-0.1-0.1-0.1-0.3-0.1-0.4l0.9-4.1
		v-0.3L66,50.1c-0.1-0.3,0.1-0.6,0.4-0.7c0,0,0,0,0,0c14.1-4.2,28.6-7,44.9-5.3c0.4,0,0.7,0.4,0.8,0.8l1.1,12.7
		c0,0.3-0.2,0.7-0.5,0.8C101.8,63.6,85.2,61.9,66.9,58.8z M105.8,60.6l-1.1-17.1 M111.1,59l-0.9-15.1 M77.7,60.4l-0.8-14 M77.4,54.4
		l27.9-1.9 M67.3,54.5l9.4-1.1c0.1,0,0.2-0.1,0.2-0.3v-0.8c0-0.1-0.1-0.3-0.3-0.2l-9.5,0.5 M67.2,55.3h-1.5c-0.2,0-0.3-0.1-0.3-0.3
		v-0.4c0-0.1,0.1-0.2,0.2-0.2l1.8-0.7 M273.9,67.3l-14.4,1.4l-1,0.8l-7.1,0.5c-0.1,0-0.3,0.1-0.3,0.2c0,0,0,0.1,0,0.1v2.1
		c0,0.1,0.1,0.3,0.2,0.3c0,0,0.1,0,0.1,0c7.4-0.5,14.7-1.1,22.1-1.9c0.2,0,0.4-0.3,0.4-0.5v-9.5 M250.6,51.7l1.8,2.5
		c0.1,0.1,0.2,0.2,0.4,0.2h3 M255.2,54.4v8.7c0,0.7,0.6,1.3,1.3,1.3h8.5c0.7,0,1.3-0.6,1.3-1.3v-5.3 M251.9,53.5l-5.8,0.3
		c-0.1,0-0.2,0-0.2-0.1l-5.1-4.9c-0.2-0.2-0.1-0.5,0.2-0.6l3-0.4 M239.2,54.2c-0.2,0-0.4-0.1-0.5-0.3l-2.6-4.8
		c-0.1-0.3,0-0.6,0.2-0.7c0.1,0,0.2-0.1,0.3-0.1h1.8c0.2,0,0.3,0.1,0.4,0.2l4.6,4.6c0.2,0.2,0.2,0.6,0,0.8c-0.1,0.1-0.2,0.1-0.4,0.1
		L239.2,54.2L239.2,54.2z M233.1,48.9c-0.2,0-0.4,0.2-0.4,0.4v4.4c0,0.2,0.2,0.4,0.4,0.4h3.1c0.2,0,0.4-0.2,0.4-0.5
		c0-0.1,0-0.1,0-0.1l-2.3-4.4c-0.1-0.2-0.2-0.2-0.4-0.2L233.1,48.9z M246.5,70.2c-19.6-8.9-61.2-8.3-84.5-8.2L54.8,62.3
		c-2.5,0-7.5,0.7-5.1,4.2 M82.7,61v8.5c0,0.7,0.6,1.3,1.3,1.3h11.6c0.7,0,1.3-0.6,1.3-1.3v-7.9 M103.4,73.5c0.4,0,0.7-0.3,0.7-0.7
		c0,0,0,0,0,0v-4.7c0-0.4-0.3-0.7-0.7-0.7c0,0,0,0,0,0h-5.5c-0.4,0-0.7,0.3-0.7,0.7c0,0,0,0,0,0v4.7c0,0.4,0.3,0.7,0.7,0.7
		c0,0,0,0,0,0H103.4z M107.1,65.5l2.7,8.7c0.1,0.4,0.4,0.6,0.8,0.6c6.7-0.3,13.5,0,20.2,1 M125.6,75.1v-0.4c0-0.2,0.1-0.3,0.3-0.3h2
		c0.2,0,0.3,0.1,0.3,0.3v0.7 M111.9,66.4l10.6,7c0.1,0.1,0.1,0.2,0.1,0.3c0,0.1-0.1,0.1-0.2,0.1h-12.6 M123.1,74.9l-0.9-1
		 M109.1,71.7h10.8 M108.4,69.7h8.4 M107.8,67.8h6 M252.1,82.7c0.9,0,1.7-0.8,1.7-1.7s-0.8-1.7-1.7-1.7c-0.9,0-1.7,0.8-1.7,1.7
		C250.4,81.9,251.2,82.7,252.1,82.7z M252.1,84.2c1.8,0,3.2-1.4,3.2-3.2s-1.4-3.2-3.2-3.2c-1.8,0-3.2,1.4-3.2,3.2
		C248.9,82.7,250.4,84.2,252.1,84.2z M252.1,72.5V74c0,0.2,0.2,0.4,0.4,0.4h1.3c0.2,0,0.4-0.2,0.4-0.4v-1.6 M252.5,74.4v1.5
		c0,0.1,0.1,0.3,0.2,0.3c0,0,0.1,0,0.1,0h0.7c0.1,0,0.3-0.1,0.3-0.2c0,0,0-0.1,0-0.1v-1.5 M253.7,78.2v-2.1 M252.5,77.8V76
		 M244.4,70.4L249,72c0.4,0.2,0.9,0.2,1.4,0.2h0.8 M239.1,70.7l9.6,2.6c0.1,0,0.3,0,0.3-0.2c0-0.1,0.1-0.2,0.2-0.2h0.3
		c0.1,0,0.2,0,0.2,0.1l0.1,0.2c0,0.1,0.1,0.1,0.2,0.1h2 M254.9,76.4c0.1,0,0.3-0.1,0.3-0.2c0,0,0-0.1,0-0.1v-1.2
		c0-0.1-0.1-0.3-0.2-0.3c0,0-0.1,0-0.1,0h-0.4c-0.1,0-0.3,0.1-0.3,0.2c0,0,0,0.1,0,0.1v1.2c0,0.1,0.1,0.3,0.2,0.3c0,0,0.1,0,0.1,0
		H254.9z M253.7,77.1c0.4,0.1,0.8,0.3,1.2,0.6c0.2,0.3-0.5,0.8-0.6,0.9 M252.5,77.5c-1-0.3-1.9-0.7-2.8-1.1c-0.9-0.5-0.6-1,0.2-1.4
		c0.7-0.4,1.4-0.6,2.2-0.8 M252.5,76.7c-0.4-0.2-0.8-0.3-1.4-0.6c-1-0.5,0.5-0.8,1.3-1 M219.4,71.9V64 M206.9,72.6v-9.7 M206.9,67.6
		h12.5 M207.6,62.9V48.6c0-1.3,1.1-2.4,2.4-2.4h6.4c1.3,0,2.4,1.1,2.4,2.4v15.3 M211.5,63.2v-2.5c0-0.3,0.2-0.4,0.2-0.6v-2.5
		c0-0.3,0.2-0.6,0.6-0.6c0,0,0,0,0,0h1.5c0.3,0,0.6,0.2,0.6,0.6c0,0,0,0,0,0v2.5c0,0.3,0.2,0.3,0.2,0.6v2.8 M211.5,61.2h3.1
		 M214.5,59.9h-2.8 M211.5,62.4h3.1 M204,54.3c0.4,0,0.8-0.2,0.9-0.6c0.5-1.3,0.5-2.9,0-4.2c-0.1-0.4-0.5-0.6-0.9-0.6h-1.3
		c-0.4,0-0.8,0.2-0.9,0.6c-0.6,1.3-0.6,2.9,0,4.2c0.1,0.4,0.5,0.6,0.9,0.6H204z M193,54.3c0.4,0,0.8-0.2,0.9-0.6
		c0.5-1.3,0.5-2.9,0-4.2c-0.1-0.4-0.5-0.6-0.9-0.6h-1.3c-0.4,0-0.8,0.2-0.9,0.6c-0.6,1.3-0.6,2.9,0,4.2c0.1,0.4,0.5,0.6,0.9,0.6H193
		z M182.2,54.3c0.4,0,0.8-0.2,0.9-0.6c0.5-1.3,0.5-2.9,0-4.2c-0.1-0.4-0.5-0.6-0.9-0.6h-1.3c-0.4,0-0.8,0.2-0.9,0.6
		c-0.6,1.3-0.6,2.9,0,4.2c0.1,0.4,0.5,0.6,0.9,0.6H182.2z M171.2,54.3c0.4,0,0.8-0.2,0.9-0.6c0.5-1.3,0.5-2.9,0-4.2
		c-0.1-0.4-0.5-0.6-0.9-0.6h-1.3c-0.4,0-0.8,0.2-0.9,0.6c-0.6,1.3-0.6,2.9,0,4.2c0.1,0.4,0.5,0.6,0.9,0.6H171.2z M160.2,54.3
		c0.4,0,0.8-0.2,0.9-0.6c0.5-1.3,0.5-2.9,0-4.2c-0.1-0.4-0.5-0.6-0.9-0.6h-1.3c-0.4,0-0.8,0.2-0.9,0.6c-0.6,1.3-0.6,2.9,0,4.2
		c0.1,0.4,0.5,0.6,0.9,0.6H160.2z M149.3,54.3c0.4,0,0.8-0.2,0.9-0.6c0.5-1.3,0.5-2.9,0-4.2c-0.1-0.4-0.5-0.6-0.9-0.6H148
		c-0.4,0-0.8,0.2-0.9,0.6c-0.6,1.3-0.6,2.9,0,4.2c0.1,0.4,0.5,0.6,0.9,0.6H149.3z M135.8,54.3c0.4,0,0.8-0.2,0.9-0.6
		c0.5-1.3,0.5-2.9,0-4.2c-0.1-0.4-0.5-0.6-0.9-0.6h-1.4c-0.4,0-0.8,0.2-0.9,0.6c-0.6,1.3-0.6,2.9,0,4.2c0.1,0.4,0.5,0.6,0.9,0.6
		H135.8z M4.5,36.1c0-0.5,42.3-3.2,42.8,0C47.7,39.3,4.5,36.6,4.5,36.1z M20.4,37.3c-2.3-0.5-2.4-1.8,0.5-2.3 M11.4,47.8
		c0,0.2,0.1,0.3,0.3,0.3c1.2,0,3.2-0.1,3.1-1.1c0-0.9-2-1-3.2-1c-0.2,0-0.3,0.1-0.3,0.3L11.4,47.8L11.4,47.8z M12.2,48.1v-2
		 M9.3,35.6L0,1.4h21.5c0.5,0,1,0.2,1.4,0.6l35.6,37.4c1.9,2.1,4.7,3.2,7.5,3.2h2c0.4,0,0.7,0.1,1,0.3c1.9,1.2,4.1,1.8,6.3,1.8
		 M12.2,46.1l-2.6-9.4 M13.4,50.6l-0.7-2.5 M15.9,1.4V0.5c0-0.3,0.2-0.5,0.4-0.5c0,0,0,0,0.1,0h1.1C17.8,0,18,0.2,18,0.4
		c0,0,0,0,0,0.1v0.9 M14.5,1.4V1.1c0-0.2,0.1-0.3,0.3-0.3h1 M24.7,37.4l3.7,7.5H11.9 M7.5,1.4l2.6,5.4c0.1,0.2,0,0.3-0.2,0.4
		L9.2,7.5C9,7.6,9,7.7,9,7.9l0.1,0.2c0.1,0.1,0.2,0.2,0.4,0.2L10.3,8c0.2,0,0.3,0.1,0.4,0.2l5.9,12.3c0.1,0.1,0,0.3-0.1,0.4
		l-0.9,0.4c-0.1,0.1-0.2,0.2-0.1,0.4l0.2,0.5c0.1,0.1,0.2,0.2,0.4,0.1l0.9-0.4c0.1-0.1,0.3,0,0.4,0.1l3.2,6.6c0.1,0.2,0,0.3-0.1,0.4
		L19,29.6c-0.1,0.1-0.2,0.2-0.2,0.4l1.4,3.1c0.1,0.2,0.2,0.2,0.4,0.2l1.5-0.7c0.1-0.1,0.3,0,0.4,0.1l1,2 M13,35.3L7.9,23.6
		c-0.1-0.3-0.4-0.5-0.7-0.5H6 M17.2,45l-3.5-8"/>
</g>
</svg>
