<?xml version="1.0" encoding="utf-8"?>
<!-- Generator: Adobe Illustrator 26.0.3, SVG Export Plug-In . SVG Version: 6.00 Build 0)  -->
<svg version="1.1" id="Layer_1" xmlns="http://www.w3.org/2000/svg" xmlns:xlink="http://www.w3.org/1999/xlink" x="0px" y="0px"
	 viewBox="0 0 401.7 103.8" style="enable-background:new 0 0 401.7 103.8;" xml:space="preserve">
<style type="text/css">
	.st0{fill:none;stroke:#000000;stroke-width:0.9;stroke-linecap:round;stroke-linejoin:round;stroke-miterlimit:10;}
	.st1{fill:none;stroke:#000000;stroke-width:0.9;stroke-linecap:round;stroke-linejoin:round;}
	.st2{fill:none;stroke:#000000;stroke-width:0.9;stroke-linecap:round;stroke-linejoin:round;stroke-miterlimit:20;}
</style>
<g id="Global_express_5000_1_" transform="translate(-11.75 -125.743)">
	<path id="Path_423" class="st0" d="M218,215.7c2,1.4,3.1,3.8,3.1,6.2c0,3.2-2,6-4.9,7.2h-5.5c-4-1.5-6-5.9-4.5-9.9
		c0.5-1.4,1.4-2.6,2.6-3.5"/>
	<path id="Path_424" class="st1" d="M218,215.7c2,1.4,3.1,3.8,3.1,6.2c0,3.2-2,6-4.9,7.2h-5.5c-4-1.5-6-5.9-4.5-9.9
		c0.5-1.4,1.4-2.6,2.6-3.5"/>
	<path id="Path_425" class="st0" d="M215.7,221.8c0-1.2-0.9-2.1-2.1-2.1s-2.1,0.9-2.1,2.1c0,1.2,0.9,2.1,2.1,2.1
		C214.8,223.9,215.7,223,215.7,221.8"/>
	<path id="Path_426" class="st1" d="M215.7,221.8c0-1.2-0.9-2.1-2.1-2.1s-2.1,0.9-2.1,2.1c0,1.2,0.9,2.1,2.1,2.1
		C214.8,223.9,215.7,223,215.7,221.8z"/>
	<path id="Path_427" class="st0" d="M367.9,181c-0.3,0-0.5,0.1-0.5,0.4l1.3,4.5c0.1,0.3,0.2,0.4,0.4,0.4H381l-5.3-5.4h-7.8"/>
	<path id="Path_428" class="st0" d="M391.1,186.3l-8.2-5.3h-5.1l5.3,5.3H391.1"/>
	<path id="Path_429" class="st1" d="M31,132.5c0.2,0.7,0.6,1.3,1.1,1.7l12.8,3.1L73.7,181c0-0.2,21.8-2.4,21.8-2.4l1.5-0.3
		c25.8-2.8,31.1-3,43.4-4.2v-3.3"/>
	<path id="Path_430" class="st1" d="M140.5,170.8V169c-15.4-1.3-16.4-1.3-26.3-9.6l-30.4-27.6c0,0-3.4-5.4-13.6-5.6
		c-10.1-0.1-14.5,0.4-37.7,4.6c0,0-1.7,0.4-1.4,1.7"/>
	<path id="Path_431" class="st1" d="M46.5,139l20.1,2.9l28.1,33.3L91,179"/>
	<path id="Path_432" class="st0" d="M13.9,137.8l-1.7,0.4c0,0,6.9,0.6,25.3-0.3c16.1-0.8,38.9-2.9,38.9-2.9c1.8-0.1,3.6-0.5,5.2-1.2
		"/>
	<path id="Path_433" class="st2" d="M13.9,137.8l-1.7,0.4c0,0,6.9,0.6,25.3-0.3c16.1-0.8,38.9-2.9,38.9-2.9c1.8-0.1,3.6-0.5,5.2-1.2
		"/>
	<path id="Path_434" class="st0" d="M81.6,133.8c0.5-0.3,0.9-0.6,0.9-1.1c0-0.9-2.7-1.9-5.4-1.9c0,0-16.3-2.6-44.5,2.4l-18.8,4.6"/>
	<path id="Path_435" class="st2" d="M81.6,133.8c0.5-0.3,0.9-0.6,0.9-1.1c0-0.9-2.7-1.9-5.4-1.9c0,0-16.3-2.6-44.5,2.4l-18.8,4.6"/>
	<path id="Path_436" class="st1" d="M101,184.8v3.8c-3.6,0-7.2-0.3-10.7-1L101,184.8z"/>
	<line id="Line_41" class="st1" x1="100.7" y1="185.3" x2="92.1" y2="187.5"/>
	<path id="Path_437" class="st1" d="M298.1,209.5c1-0.4,2-0.7,3.1-0.9c1.1-0.3,0.3-1.4-0.8-2.1c-0.6-0.4-12.9-10.9-27.5-10.9
		c0,0-54.3,0.3-86,4.1c-20.8,2.5-29.9,3.2-29.9,3.2s-4.8,0.9-6.9,2.2c0,0-2.4,1.6,5.4,3.1"/>
	<path id="Path_438" class="st1" d="M284.5,205c0.7,0.8,0.3,1.6-2.6,2.4c-3.7,1.1-20.7,4.8-20.7,4.8s-3.2,1-18.5,1"/>
	<path id="Path_439" class="st1" d="M183.6,204.9l47.3-3.5c-0.9-0.1,28.8-1.5,31.7-1.1c3.7,0.5,7,2.7,7.5,5.1 M284.5,205
		c-0.8-0.7-1.8-1.3-2.8-1.6c-3.8-1.6-9.3-2.7-19.1-3.2"/>
	<path id="Path_440" class="st1" d="M182.6,204.9l5.2,7c14.3-1.5,22.7,0.4,29.6,0.4s20.9,2,38.9,0.4c11.4-1,14.7-4.4,14-7.3"/>
	<path id="Path_441" class="st0" d="M136,198.2l91,2.5c0,0,3.6,0,9,0.6c2.8,0.3,4.1,1.1,4.3,2"/>
	<path id="Path_442" class="st1" d="M136,198.2l91,2.5c0,0,3.6,0,9,0.6c2.8,0.3,4.1,1.1,4.3,2"/>
	<path id="Path_443" class="st0" d="M240.2,203.3c0.3,1-0.8,2-2.2,2.4c-3.1,0.7-6.2,1.1-9.4,1.1h-16.9c-3.3,0-17.8-3.1-29.1-1.8
		l-12.3-2.6l-34.3-2.6v-1.7"/>
	<path id="Path_444" class="st1" d="M240.2,203.3c0.3,1-0.8,2-2.2,2.4c-3.1,0.7-6.2,1.1-9.4,1.1h-16.9c-3.3,0-17.8-3.1-29.1-1.8
		l-12.3-2.6l-34.3-2.6v-1.7"/>
	<path id="Path_445" class="st0" d="M47.1,137.3c0,0,15,3.4,24.3,2.2"/>
	<path id="Path_446" class="st1" d="M47.1,137.3c0,0,15,3.4,24.3,2.2"/>
	<path id="Path_447" class="st1" d="M413,200.4c0,0.8-0.8,1.4-1.4,1.8c-9.8,6.5-35.2,7.4-35.2,7.4h-78.1c0,0-34.4,5.7-42.9,5.8
		c-7.2,0.1-40.4,0-59.1,0c-4.2-0.1-8.5-0.4-12.7-1c-10-2.1-27.8-6.5-30.7-6.9c-44.8-7-74.2-15.2-93.1-19v-5.8c0.1,0,0.6-0.1,1.2-0.2
		"/>
	<path id="Path_448" class="st1" d="M95,178.8c39.5-4.9,69.5-6.1,69.5-6.1h189c20.9,0,28.6,7.9,28.6,7.9l9.8,6.4
		c13.5,6.3,20,11.8,20,11.8c0.7,0.7,1,1,1,1.7"/>
	<path id="Path_449" class="st1" d="M73.7,181.1c-5.4,0.6-10.4,1.1-12.7,1.4 M95,178.8c0,0-11.5,1.2-21.3,2.3"/>
	<path id="Path_450" class="st0" d="M165.3,187.1l-0.8-13.4c0,0,0-1-2.1-1.6s-22.4-5.5-67,6.3v10.5"/>
	<path id="Path_451" class="st1" d="M165.3,187.1l-0.8-13.4c0,0,0-1-2.1-1.6s-22.4-5.5-67,6.3v10.5"/>
	<path id="Path_452" class="st0" d="M95.3,188.9v2c0,0,25.4,7.3,48,5.5c0,0,19-1.4,20.9-4.3c0,0,1.1-0.4,1.2-2.5l-0.1-2.4"/>
	<path id="Path_453" class="st1" d="M95.3,188.9v2c0,0,25.4,7.3,48,5.5c0,0,19-1.4,20.9-4.3c0,0,1.1-0.4,1.2-2.5l-0.1-2.4"/>
	<path id="Path_454" class="st0" d="M127.5,198.4l-10.7-18.5h4.5l20.5,18.4c1.2,1.2,2.7,2.1,4.4,2.4l-17.3-1.2
		C129,199.4,128.1,199.5,127.5,198.4"/>
	<path id="Path_455" class="st1" d="M127.5,198.4l-10.7-18.5h4.5l20.5,18.4c1.2,1.2,2.7,2.1,4.4,2.4l-17.3-1.2
		C129,199.4,128.1,199.5,127.5,198.4z"/>
	<path id="Path_456" class="st1" d="M51.2,131.2l-23.1,5.3h-7.9"/>
	<rect id="Rectangle_1" x="376.5" y="214.6" class="st0" width="1.5" height="3.4"/>
	<rect id="Rectangle_2" x="376.5" y="214.6" class="st1" width="1.5" height="3.4"/>
	<rect id="Rectangle_3" x="376.5" y="217.4" class="st0" width="1.6" height="5.8"/>
	<rect id="Rectangle_4" x="376.5" y="217.4" class="st1" width="1.6" height="5.8"/>
	
		<rect id="Rectangle_5" x="369.2" y="214.7" transform="matrix(0.3595 -0.9331 0.9331 0.3595 39.4329 487.1782)" class="st0" width="10.8" height="0.4"/>
	
		<rect id="Rectangle_6" x="369.2" y="214.7" transform="matrix(0.3595 -0.9331 0.9331 0.3595 39.4329 487.1782)" class="st1" width="10.8" height="0.4"/>
	<rect id="Rectangle_7" x="376.7" y="209.8" class="st0" width="1" height="4.8"/>
	<rect id="Rectangle_8" x="376.7" y="209.8" class="st1" width="1" height="4.8"/>
	<path id="Path_457" class="st0" d="M376.6,227.2c-1.2,0-2.1-0.9-2.1-2.1c0-1.2,0.9-2.1,2.1-2.1c1.2,0,2.1,0.9,2.1,2.1
		C378.7,226.2,377.7,227.2,376.6,227.2"/>
	<path id="Path_458" class="st0" d="M371.3,222.7L371.3,222.7l4.2-3.3c0-0.2,0.2-0.3,0.4-0.3c0.2,0,0.4,0.2,0.4,0.4
		c0,0.2-0.2,0.4-0.4,0.4l-4.4,3l3.8,1.9h0.1c0.3,0,0.5,0.2,0.5,0.5c0,0.2-0.3,0.4-0.5,0.4c-0.2,0-0.3-0.1-0.4-0.2l-3.7-2.3h-0.1
		c-0.1,0-0.3-0.1-0.3-0.2c0,0,0-0.1,0-0.1C371,222.9,371.1,222.7,371.3,222.7"/>
	<path id="Path_459" class="st1" d="M371.3,222.7L371.3,222.7l4.2-3.3c0-0.2,0.2-0.3,0.4-0.3c0.2,0,0.4,0.2,0.4,0.4
		c0,0.2-0.2,0.4-0.4,0.4l-4.4,3l3.8,1.9h0.1c0.3,0,0.5,0.2,0.5,0.5c0,0.2-0.3,0.4-0.5,0.4c-0.2,0-0.3-0.1-0.4-0.2l-3.7-2.3h-0.1
		c-0.1,0-0.3-0.1-0.3-0.2c0,0,0-0.1,0-0.1C371,222.9,371.1,222.7,371.3,222.7z"/>
	<path id="Path_460" class="st0" d="M375.7,228.5c-1.4-0.5-2.4-1.9-2.3-3.4c0-2,1.6-3.6,3.6-3.6s3.6,1.6,3.6,3.6
		c0,1.5-0.9,2.8-2.3,3.4H375.7"/>
	<path id="Path_461" class="st1" d="M375.7,228.5c-1.4-0.5-2.4-1.9-2.3-3.4c0-2,1.6-3.6,3.6-3.6s3.6,1.6,3.6,3.6
		c0,1.5-0.9,2.8-2.3,3.4H375.7z"/>
	<path id="Path_462" class="st0" d="M379.2,225.1c0-1.2-1-2.2-2.2-2.2c-1.2,0-2.2,1-2.2,2.2c0,1.2,1,2.2,2.2,2.2
		C378.2,227.3,379.2,226.3,379.2,225.1"/>
	<circle id="Ellipse_3" class="st1" cx="377" cy="225.1" r="2.2"/>
	<path id="Path_463" class="st0" d="M378,225.1c0-0.6-0.4-1-1-1s-1,0.4-1,1s0.4,1,1,1S378,225.7,378,225.1"/>
	<path id="Path_464" class="st1" d="M378,225.1c0-0.6-0.4-1-1-1s-1,0.4-1,1s0.4,1,1,1S378,225.7,378,225.1z"/>
	<path id="Path_465" class="st1" d="M193.7,199.2c0.4,0,0.8-0.3,0.8-0.8c0,0,0,0,0,0v-9.3c0-0.4-0.3-0.8-0.8-0.8c0,0,0,0,0,0h-12.2
		c-0.4,0-0.8,0.3-0.8,0.8c0,0,0,0,0,0v9.3c0,0.4,0.3,0.8,0.8,0.8c0,0,0,0,0,0H193.7z M354.3,203.5c0.4,0,0.8-0.3,0.8-0.8
		c0,0,0,0,0,0v-25.4c0-0.4-0.3-0.8-0.8-0.8c0,0,0,0,0,0H345c-0.4,0-0.8,0.3-0.8,0.8c0,0,0,0,0,0v25.4c0,0.4,0.3,0.8,0.8,0.8
		c0,0,0,0,0,0H354.3z"/>
	<path id="Path_466" class="st0" d="M332,184.5c0-0.4,0.3-0.8,0.8-0.8c0,0,0,0,0,0h2.3c0.4,0,0.8,0.3,0.8,0.8c0,0,0,0,0,0v3.6
		c0,0.4-0.3,0.8-0.8,0.8c0,0,0,0,0,0h-2.3c-0.4,0-0.8-0.3-0.8-0.8c0,0,0,0,0,0V184.5"/>
	<path id="Path_467" class="st0" d="M317.6,184.5c0-0.4,0.3-0.8,0.8-0.8c0,0,0,0,0,0h2.3c0.4,0,0.8,0.3,0.8,0.8c0,0,0,0,0,0v3.6
		c0,0.4-0.3,0.8-0.8,0.8c0,0,0,0,0,0h-2.3c-0.4,0-0.8-0.3-0.8-0.8c0,0,0,0,0,0V184.5"/>
	<path id="Path_468" class="st0" d="M303.2,184.6c0-0.4,0.3-0.8,0.8-0.8c0,0,0,0,0,0h2.3c0.4,0,0.8,0.3,0.8,0.8c0,0,0,0,0,0v3.6
		c0,0.4-0.3,0.8-0.8,0.8c0,0,0,0,0,0H304c-0.4,0-0.8-0.3-0.8-0.8c0,0,0,0,0,0V184.6"/>
	<path id="Path_469" class="st0" d="M288.7,184.6c0-0.4,0.3-0.8,0.8-0.8c0,0,0,0,0,0h2.3c0.4,0,0.8,0.3,0.8,0.8c0,0,0,0,0,0v3.6
		c0,0.4-0.3,0.8-0.8,0.8c0,0,0,0,0,0h-2.3c-0.4,0-0.8-0.3-0.8-0.8c0,0,0,0,0,0V184.6"/>
	<path id="Path_470" class="st0" d="M274.3,184.6c0-0.4,0.3-0.8,0.8-0.8c0,0,0,0,0,0h2.3c0.4,0,0.8,0.3,0.8,0.8c0,0,0,0,0,0v3.6
		c0,0.4-0.3,0.8-0.8,0.8c0,0,0,0,0,0h-2.3c-0.4,0-0.8-0.3-0.8-0.8c0,0,0,0,0,0V184.6"/>
	<path id="Path_471" class="st0" d="M259.9,184.6c0-0.4,0.3-0.8,0.8-0.8c0,0,0,0,0,0h2.3c0.4,0,0.8,0.3,0.8,0.8c0,0,0,0,0,0v3.6
		c0,0.4-0.3,0.8-0.8,0.8c0,0,0,0,0,0h-2.3c-0.4,0-0.8-0.3-0.8-0.8c0,0,0,0,0,0L259.9,184.6"/>
	<path id="Path_472" class="st1" d="M258.5,182.8c0-0.8,0.6-1.4,1.3-1.4c0,0,0,0,0.1,0h4c0.8,0,1.4,0.6,1.4,1.3c0,0,0,0,0,0.1v8.8
		c0,0.8-0.6,1.4-1.3,1.4c0,0,0,0-0.1,0h-4c-0.8,0-1.4-0.6-1.4-1.3c0,0,0,0,0-0.1V182.8z"/>
	<path id="Path_473" class="st0" d="M245.5,184.6c0-0.4,0.3-0.8,0.8-0.8c0,0,0,0,0,0h2.3c0.4,0,0.8,0.3,0.8,0.8c0,0,0,0,0,0v3.6
		c0,0.4-0.3,0.8-0.8,0.8c0,0,0,0,0,0h-2.3c-0.4,0-0.8-0.3-0.8-0.8c0,0,0,0,0,0V184.6"/>
	<path id="Path_474" class="st0" d="M231.1,184.6c0-0.4,0.3-0.8,0.8-0.8c0,0,0,0,0,0h2.3c0.4,0,0.8,0.3,0.8,0.8c0,0,0,0,0,0v3.6
		c0,0.4-0.3,0.8-0.8,0.8c0,0,0,0,0,0h-2.3c-0.4,0-0.8-0.3-0.8-0.8c0,0,0,0,0,0V184.6"/>
	<path id="Path_475" class="st0" d="M216.6,184.6c0-0.4,0.3-0.8,0.8-0.8c0,0,0,0,0,0h2.3c0.4,0,0.8,0.3,0.8,0.8c0,0,0,0,0,0v3.6
		c0,0.4-0.3,0.8-0.8,0.8c0,0,0,0,0,0h-2.3c-0.4,0-0.8-0.3-0.8-0.8c0,0,0,0,0,0V184.6"/>
	<path id="Path_476" class="st0" d="M202.2,184.6c0-0.4,0.3-0.8,0.8-0.8c0,0,0,0,0,0h2.3c0.4,0,0.8,0.3,0.8,0.8c0,0,0,0,0,0v3.6
		c0,0.4-0.3,0.8-0.8,0.8c0,0,0,0,0,0H203c-0.4,0-0.8-0.3-0.8-0.8c0,0,0,0,0,0V184.6"/>
</g>
</svg>
