<?xml version="1.0" encoding="utf-8"?>
<!-- Generator: Adobe Illustrator 26.0.3, SVG Export Plug-In . SVG Version: 6.00 Build 0)  -->
<svg version="1.1" id="Layer_1" xmlns="http://www.w3.org/2000/svg" xmlns:xlink="http://www.w3.org/1999/xlink" x="0px" y="0px"
	 viewBox="0 0 422.9 111.1" style="enable-background:new 0 0 422.9 111.1;" xml:space="preserve">
<style type="text/css">
	.st0{fill:none;stroke:#000000;stroke-width:0.848;stroke-linecap:round;stroke-linejoin:round;stroke-miterlimit:1.415;}
</style>
<g id="Component_1_1" transform="translate(0.456 0.568)">
	<path id="Path_100" class="st0" d="M179.7,94l2.6,0.4l7.2,0.8l3.6,0.3l10,0.8l9.6-0.3l0.3,4.6l-1.2,0.1v3.9l-0.8,0.2l0.1,1.1
		l-0.1,0.6l-0.2,0.6v0.1h4.3l-0.2-1.8l0.1-0.6l0.2-0.6l0.5-1l0.8-0.9l0.9-0.7l1.1-0.4l0.7-0.2l0.2-2v-0.6l-3.7,0.2l1-2.4H232v1.4
		l10.4,1.8v2.4l11.9,1.5l6.1,0.2h6l6-0.5l0.6-7.1l18.7-1.9h67l19-1.1l-0.1,7.9l-1.7,0.5l-0.8,0.7l-0.8,1.6v1l1.3,2.4l1.8,0.7
		l1.8-0.3l0.8-0.5l0.7-0.7l0.4-0.8l0.1-1.9l-0.4-0.9l-0.5-0.7l-0.7-0.6l-0.9-0.4l0.7-3.9l5.1-4.1l2.4-0.8l3.8-0.7l2.6-0.4l6.3-1.6
		l6.2-1.9l6.1-2.4l3.8-1.8l1.8-1.1l1.7-1.2l1.6-1.3l1.2-2.3l-0.6-1.7l-1.6-1.7l-2.9-2.1l-1.7-0.9l-1.7-0.7l0,0l-2.8-2.6l-3-2.3
		l-3.4-1.9l-3.5-1.5l-3.7-1l-9.5-2.2l-9.5-1.5l-9.6-0.8H97.2L89.1,56l-3.2-0.4l-3.1-0.7l-3.1-1l-2.9-1.2L74,51.2l-2.7-1.7l-2.6-2
		L24.9,3l-1.2-1l-1.4-0.9l-1.5-0.6l-1.5-0.4L17.7,0H9.2L9.1,0.1H9v0.1H8.9v0.1H8.8v0.3H8.7v0.1h0.1V1h0.1L8.7,0.9L8.6,0.7L8.5,0.6
		L8.4,0.4L8.2,0.3L8.1,0.2L7.9,0.1H7.8L7.6,0H0.1l24.1,56.4L24,56.2h-3l-5.4,0.4l-2.1-0.4l-0.7,0.2l0.7-0.2l-2.7-0.3l-2.7-0.1
		l2.7,0.1l2.7,0.3l-2.7-0.3l-2.7-0.1L5.3,56l-2.6,0.5L5.3,56l2.8-0.2L5.3,56l-2.6,0.5L5.3,56l2.8-0.2L5.3,56l-2.6,0.5L0,57.2L6.8,59
		l-0.5,2.3v0.4l0.1,0.2l0.1,0.2L7.2,63l26.6,7.5l26.3,9.1l9.9,3l10,2.6l5.2,1.3l5,1l5.1,1.1l18.4,2.9l7.4,0.8l5.2,0.5l10.4,0.7
		l5.2,0.1h35.3L179.7,94z"/>
	<path id="Path_101" class="st0" d="M380.4,101.9l0.5,0.6l0.1,0.1l0.3,0.7v0.2l0.1,0.8v0.1l-0.1,0.7c0,0.1-0.1,0.2-0.1,0.3l-0.3,0.5
		c-0.1,0.1-0.1,0.2-0.2,0.3l-0.5,0.5c-0.1,0-0.1,0.1-0.2,0.1l-0.6,0.3c-0.1,0-0.2,0.1-0.3,0.1l-0.6,0.2h-1.2l-0.5-0.1
		c-0.1-0.1-0.3-0.1-0.4-0.2l-0.4-0.3c-0.1-0.1-0.2-0.2-0.3-0.2l-0.4-0.4c-0.1-0.1-0.1-0.2-0.2-0.3l-0.3-0.5c0-0.1-0.1-0.2-0.1-0.4
		l-0.1-0.4v-0.5l0,0v-0.5c0-0.1,0-0.2,0.1-0.3l0.2-0.6c0.1-0.1,0.1-0.2,0.2-0.3l0.3-0.5l0.3-0.3l0.4-0.3c0.1-0.1,0.2-0.2,0.4-0.2
		l0.4-0.2l0.2-0.1h1.8l0.1,0.1l0.6,0.3c0.1,0,0.1,0.1,0.2,0.1L380.4,101.9z"/>
	<circle id="Ellipse_2" class="st0" cx="377.5" cy="104.4" r="1.7"/>
	<path id="Path_102" class="st0" d="M206.3,109.9L206.3,109.9c-0.8,0.2-1.7,0.1-2.5-0.3c-0.8-0.5-1.4-1.2-1.9-2
		c-0.7-0.8-0.8-3.9,0.5-5.2c0.1-0.1,0.1-0.2,0.2-0.2l0,0c0.8-0.9,2-1.5,3.2-1.6v0.1h0.4c2.6,0,4.8,2.1,4.8,4.8c0,1.8-1,3.4-2.5,4.2
		C207.9,110.1,207.2,109.9,206.3,109.9z"/>
	<path id="Path_103" class="st0" d="M208.5,105.3c0-1.2-1-2.2-2.1-2.2c-1.2,0-2.2,1-2.2,2.2s1,2.2,2.2,2.2
		C207.5,107.4,208.5,106.5,208.5,105.3z"/>
	<path id="Path_104" class="st0" d="M220,110.1L220,110.1c-1.9,0-3.8-0.2-4.6-1.9c-0.8-1.8-0.6-3.9,0.5-5.5c0.1-0.1,0.1-0.2,0.2-0.3
		l0,0c0.8-0.9,2-1.5,3.2-1.7v0.1h0.4c2.8,0.1,4.9,2.3,4.9,5.1C224.6,108.8,222.7,110.1,220,110.1z"/>
	<path id="Path_105" class="st0" d="M222,105.7c0-1.2-1-2.2-2.2-2.2c-1.2,0-2.2,1-2.2,2.2c0,0,0,0,0,0c0,1.2,1,2.2,2.2,2.2
		C221,107.9,222,106.9,222,105.7C222,105.7,222,105.7,222,105.7z"/>
	<path id="Path_106" class="st0" d="M217.1,95l5.8-5.6l1.7,0.1l-7.4,6.9l-1,1l-0.4,1.2l3.6-0.5l0.2,1.2l-0.2,1.6l-0.3,0.3
		c-2.9-0.2-4.4,3.1-4,6.1l-4.2-0.3c0.1-0.5,0.2-0.9,0.2-1.4c0-2.1-1.4-4-3.5-4.6l4.7-0.3l2.7-14.6l2.8,0.8l-0.8,4.7l2.7-3.9l0.9,0.6
		l-4.4,6.4L217.1,95z"/>
	<path id="Path_107" class="st0" d="M410.6,67.5l2.6,2.6l-3.5-0.4l-0.7-0.8v0.8l-3,0.7h-5.9v-2.3l1.6-1.7h5l0.5,0.5h2.5L410.6,67.5z
		"/>
	<path id="Path_108" class="st0" d="M381,92.8l4.5-0.9l-2.6,2.5h-0.3l-2.2,2.6l-0.2,0.7h-0.9l-0.1,0.8h3.2l-0.1,0.7l-3-0.1l-0.4,1.7
		h-1.6l0.1-3.1h-1V96h1v-2.3l-0.9-0.7l1.8-0.1l1.7-0.2l-0.3,3.3l0.6-0.1l1.9-1.9L381,92.8z"/>
	<path id="Path_109" class="st0" d="M372.8,69c0.1-0.6,0.6-1,1.1-1c0.5,0,1,0.5,1,1.1h0.1v0.7h-0.1c-0.1,0.6-0.6,1-1.1,1
		c-0.5,0-1-0.5-1-1.1V69z"/>
	<path id="Path_110" class="st0" d="M369.4,69c0.1-0.6,0.6-1,1.1-1c0.5,0,1,0.5,1,1.1l0,0v0.7l0,0c-0.1,0.6-0.6,1-1.1,1
		c-0.5,0-1-0.5-1-1.1l0,0V69z"/>
	<path id="Path_111" class="st0" d="M320.6,69c0.1-1.5,2.2-1.1,2.1,0.1h0.1v0.7h-0.1c-0.1,1.5-2.2,1.1-2.1-0.1l0,0V69z"/>
	<path id="Path_112" class="st0" d="M317.1,69c0.1-0.6,0.6-1,1.1-1c0.5,0,1,0.5,1,1.1l0,0v0.7l0,0c-0.1,0.6-0.6,1-1.1,1
		c-0.5,0-1-0.5-1-1.1l0,0V69z"/>
	<path id="Path_113" class="st0" d="M285.6,69c0.1-0.6,0.6-1,1.1-1c0.5,0,1,0.5,1,1.1l0,0v0.7l0,0c-0.1,1.5-2.3,1.1-2.1-0.1h-0.1
		L285.6,69z"/>
	<path id="Path_114" class="st0" d="M282,69c0.1-1.5,2.2-1.1,2.1,0.1l0,0v0.7l0,0c0,0.6-0.5,1-1.1,1s-1-0.5-1-1.1l0,0l0,0V69z"/>
	<path id="Path_115" class="st0" d="M266.4,69.1v0.7l0,0c-0.1,0.6-0.6,1-1.1,1c-0.5,0-1-0.5-1-1.1h-0.1V69h0.1
		C264.3,67.6,266.4,67.8,266.4,69.1z"/>
	<path id="Path_116" class="st0" d="M260.7,69c0.1-1.5,2.2-1.1,2.1,0.1l0,0v0.7l0,0c-0.1,0.6-0.6,1-1.1,1c-0.5,0-1-0.5-1-1.1h-0.1
		L260.7,69z"/>
	<path id="Path_117" class="st0" d="M257.2,69c0.1-0.6,0.6-1,1.2-0.9c0.5,0.1,0.9,0.5,0.9,1l0,0v0.7l0,0c-0.1,0.6-0.6,1-1.1,1
		c-0.5,0-1-0.5-1-1.1V69z"/>
	<path id="Path_118" class="st0" d="M94.4,68.1v0.7h-0.1c0,0.6-0.5,1-1.1,1c-0.6,0-1-0.5-1-1.1l0,0V68l0,0c0-0.6,0.5-1.1,1.2-1.1
		C94,67,94.4,67.5,94.4,68.1z"/>
	<path id="Path_119" class="st0" d="M179.7,94l2.6,0.4l7.2,0.8l3.6,0.3l10,0.8l9.6-0.3l0.3,4.6l-1.2,0.1v3.9l-0.8,0.2l0.1,1.1
		l-0.1,0.6l-0.2,0.6v0.1h4.3l-0.2-1.8l0.1-0.6l0.2-0.6l0.5-1l0.8-0.9l0.9-0.7l1.1-0.4l0.7-0.2l0.2-2v-0.6l-3.7,0.2l1-2.4H232v1.4
		l10.4,1.8v2.4l11.9,1.5l6.1,0.2h6l6-0.5l0.6-7.1l18.7-1.9h67l19-1.1l-0.1,7.9l-1.7,0.5l-0.8,0.7l-0.8,1.6v1l1.3,2.4l1.8,0.7
		l1.8-0.3l0.8-0.5l0.7-0.7l0.4-0.8l0.1-1.9l-0.4-0.9l-0.5-0.7l-0.7-0.6l-0.9-0.4l0.7-3.9l5.1-4.1l2.4-0.8l3.8-0.7l2.6-0.4l6.3-1.6
		l6.2-1.9l6.1-2.4l3.8-1.8l1.8-1.1l1.7-1.2l1.6-1.3l1.2-2.3l-0.6-1.7l-1.6-1.7l-2.9-2.1l-1.7-0.9l-1.7-0.7l0,0l-2.8-2.6l-3-2.3
		l-3.4-1.9l-3.5-1.5l-3.7-1l-9.5-2.2l-9.5-1.5l-9.6-0.8H97.2L89.1,56l-3.2-0.4l-3.1-0.7l-3.1-1l-2.9-1.2L74,51.2l-2.7-1.7l-2.6-2
		L24.9,3l-1.2-1l-1.4-0.9l-1.5-0.6l-1.5-0.4L17.7,0H9.2L9.1,0.1H9v0.1H8.9v0.1H8.8v0.3H8.7v0.1h0.1V1h0.1L8.7,0.9L8.6,0.7L8.5,0.6
		L8.4,0.4L8.2,0.3L8.1,0.2L7.9,0.1H7.8L7.6,0H0.1l24.1,56.4L24,56.2h-3l-5.4,0.4l-2.1-0.4l-0.7,0.2l0.7-0.2l-2.7-0.3l-2.7-0.1
		l2.7,0.1l2.7,0.3l-2.7-0.3l-2.7-0.1L5.3,56l-2.6,0.5L5.3,56l2.8-0.2L5.3,56l-2.6,0.5L5.3,56l2.8-0.2L5.3,56l-2.6,0.5L0,57.2L6.8,59
		l-0.5,2.3v0.4l0.1,0.2l0.1,0.2L7.2,63l26.6,7.5l26.3,9.1l9.9,3l10,2.6l5.2,1.3l5,1l5.1,1.1l18.4,2.9l7.4,0.8l5.2,0.5l10.4,0.7
		l5.2,0.1h35.3L179.7,94"/>
	<path id="Path_120" class="st0" d="M92.2,68v0.7 M94.4,68.1v0.7 M92.2,68.7L92.2,68.7c0,0.6,0.4,1,1,1.1c0.5,0,1-0.4,1-0.9
		c0,0,0-0.1,0-0.1 M94.3,68L94.3,68c0-0.6-0.4-1-1-1.1c-0.5,0-1,0.4-1,0.9c0,0,0,0.1,0,0.1 M404.5,70.4v-4 M400.1,68.1l1.6-1.7
		 M400.1,68.1v2.3h6l3-0.6V69 M401.7,66.4h5.1l0.5,0.5 M409.1,66.4h-2.4l3.1,3.3l3.3,0.4 M379.1,62.5L379.1,62.5
		c-0.4,0-0.7,0.2-0.7,0.6v0.2 M379.4,75.3v-1.7c0-3.4-0.3-6.8-1-10.2 M379.4,75.2L379.4,75.2c0,0.6,0.4,1,0.9,1.1 M386.6,76.4
		c0.4,0,0.8-0.3,0.8-0.8c0,0,0,0,0,0 M386.3,62.9c-0.1-0.3-0.4-0.4-0.7-0.4h-0.2 M387.4,75.6v-1.1c0-3.9-0.4-7.7-1.1-11.5
		 M379.1,62.5h6.3 M166.9,86c-1.2,0.8-1.6,2.4-0.8,3.7c0.2,0.3,0.5,0.6,0.9,0.8 M167.1,90.6l1.5,0.8l1.5,0.7l1.6,0.6l0.7,0.2
		 M291.6,93.7l0.8-0.2 M292.9,91.2l-4.4-4.4l-5-3.7l-5.4-2.9l-5.8-2.1l-6.1-1.2l-6.2-0.2 M80.6,62.3c0,1.1-0.1,2.2-0.1,3.3
		c0,2.5,0.1,5.1,0.3,7.6 M81.1,61.4c-0.3,0.1-0.5,0.4-0.5,0.7 M88.5,62v-0.1c0-0.3-0.2-0.6-0.6-0.6c0,0,0,0,0,0h-0.1 M88.5,62
		c-0.1,1.3-0.2,2.7-0.2,4c0,2.4,0.2,4.9,0.6,7.3 M81,61.3h6.7 M7.2,63l0.4,0.1l1.1,0.3l2.6,0.7 M308.8,76.4h0.3l0.1-0.1l0,0v-0.2
		l0.1-0.1v-0.1l0,0v-0.1 M301.3,75.8v0.1l0,0V76l0.1,0.1v0.1l0,0l0.1,0.1h0.4 M301.9,62.7h-0.3l-0.1,0.1h-0.1v0.1l0,0l-0.1,0.1v0.1
		l0,0v0.2 M309.4,63.4v-0.2l0,0v-0.1l-0.1-0.1l0,0v-0.1h-0.1v-0.1h-0.3 M308.8,76.4h-6.9 M301.3,75.8V63.4 M301.9,62.7h6.9
		 M309.4,63.4v12.4 M380.4,76.4h6.2 M21.9,56.2h19.4 M21.9,56.2H21 M359.1,93.6l19.4-0.9 M378.5,92.8l9.1-1l9-1.8l8.8-2.6l8.5-3.4
		l2.6-1.3l2.5-1.6l2.3-1.8 M41.3,56.2h51 M413.9,84V70.8 M24.8,3l41.6,42.3 M24.8,56.2h16.5 M11.2,64.2l22.6,6.3 M215.9,97.9l2.1-2
		 M216.4,94.9h0.6l1,1 M220.5,88.6l-3.8,5.6 M379.1,95.3l0.3-1.7 M379.9,92.9l-0.5,3.2 M380.9,92.7l1,1 M379.9,96.6L379.9,96.6
		l0.1,0.1l0.1-0.1l-0.1-0.1L379.9,96.6L379.9,96.6 M383.2,92.5l-1.2,1.3 M382.8,94.5l-0.8-0.8 M384.9,92.2l-2.2,2.3 M382.6,94.3
		l-2,2 M382.2,93.9l-2,2.1 M379.7,97c0.1,0.1,0.2,0.1,0.3,0.1c0.3,0,0.6-0.3,0.6-0.6c0-0.3-0.3-0.6-0.6-0.6c0,0,0,0,0,0
		c-0.1,0-0.2,0-0.3,0.1 M379.6,97H379 M379.7,96.1H379 M382.3,99.1v-0.7 M382.3,99.1l-3.1-0.1l-0.1-0.1 M379.2,98.5v0.4l-1.7-0.1
		 M382.3,98.4l-3.1-0.1l-0.1,0.2 M378.9,100.7v-1.8 M378.9,98.5l0.2-5.6 M379.2,98.9v-0.4 M379.2,98.9l-1.7-0.1 M379.2,98.5
		l-1.6-0.1 M377.5,100.6l0.2-7.7 M182.3,62.7h7.1 M181.6,69.1v-5.8 M190,63.3v7 M182.3,62.7L182.3,62.7l-0.2,0.1H182l-0.1,0.1h-0.1
		V63l0,0v0.3 M190,63.3v-0.2l-0.1-0.1v-0.1h-0.1v-0.1h-0.2v-0.1h-0.1"/>
	<path id="Path_121" class="st0" d="M180.7,73.6l-2.2-0.7 M206.5,77.7c3.8,0.5,7.7,0.8,11.5,0.8h2.6 M201.2,76
		c1.9,0.1,3.8,0.2,5.8,0.2h2.6 M217.2,91.6l2.4-3.6 M215,87.9l2.3,0.5 M193.6,81.4c-0.8,0.1-1.3,0.7-1.3,1.5c0,0.4,0.2,0.8,0.5,1.1
		 M192.8,84c1.9,0.7,3.8,1,5.8,1 M198.6,85.1h12.2 M222.6,89.3l9.3,0.8 M202.9,81.7c1.9,1.2,3.9,2.1,6.1,2.7 M222.6,89.3
		c-4.2-2.5-8.8-4.1-13.6-4.9 M219.2,79c2.8,0.4,5.7,0.6,8.6,0.6c4.8,0,9.7-0.5,14.4-1.6 M187,80.3c-6.9,1.3-13.6,3.2-20.1,5.8
		 M189.7,80.6c10.3,1.7,20.9,1,30.9-2.1 M180.2,78.6c3.8,1.3,7.9,2,11.9,2c6.1,0,12.1-1.5,17.4-4.4 M172.6,75.7
		c-0.3,0.2-0.6,0.6-0.6,1c0,0.4,0.2,0.8,0.6,1 M172.6,77.7c11.4,1.8,23,0.6,33.8-3.4 M190.3,73.2c-1.1-0.1-2.2-0.1-3.3-0.1
		c-4.9,0-9.8,0.9-14.4,2.6 M190.4,73.2c4.5,0.7,9,1.1,13.5,1.1h2.6 M273.1,96l3.7-0.3l3.7-0.4l3.7-0.5l3.7-0.5l3.7-0.6 M225.3,92.9
		c-0.1,0.1-0.2,0.2-0.2,0.4c0,0.2,0.1,0.3,0.2,0.4 M231.9,90.1c-2.4,0.5-4.6,1.5-6.6,2.8 M217.4,96.5h14.8 M225.2,93.6
		c2,1.3,4.3,2.3,6.6,2.8 M245.7,78.6c-0.5-0.6-1.3-0.9-2.1-0.9c-0.5,0-1,0.1-1.4,0.3 M245.8,78.5c1.4,0.6,2.8,1.1,4.3,1.5 M267,83.4
		l-3.4-0.9l-3.4-0.8l-3.4-0.7l-3.4-0.6l-3.4-0.5 M267.7,78.4c-0.7-0.1-1.3-0.1-2-0.1c-0.5,0-1,0-1.5,0.1 M270.3,83.8
		c0.2-0.5,0.4-1,0.4-1.6c0-1.8-1.3-3.4-3-3.8 M272.6,84.3c-4.2-0.6-8.4-1-12.6-1c-5.9,0-11.8,0.6-17.5,1.9 M273.6,85.7
		c-0.1-0.6-0.5-1.1-1-1.4 M272.7,102l1-16.4 M242.4,99.4l-10.2-1.9 M242.3,87.1L232.2,89 M232.2,97.5V89 M242.6,101.8V85.2
		 M260,76.8L239.9,77 M208.4,73.4l9.2,1.3l9.3,1.1l9.3,0.9l9.3,0.7l9.3,0.6l9.3,0.4 M215.1,86.3l-2.7,14.8 M217.8,87.4l-2.1,11.2
		 M224.6,89.6l-6.6,6.3 M222.7,89.5l-5.7,5.4 M21,56.2l-5.4,0.4 M8.9,1l32.4,55 M165.1,66.2c0.5,0.4,1.1,0.6,1.7,0.7 M208.4,73.4
		l-37.5-5.8 M165,66.2l-13.6-9.8 M146.8,57.1l4.1,8.6 M156.8,67.2c7.3,1.9,14.7,3.4,21.8,5.7 M49.4,62l-33.3-5.3l-2.7-0.5l-2.7-0.3
		H8l-2.7,0.2l-2.7,0.5L0,57.3l19.1,5.2l6,1.1l6.1,0.7l6.1,0.3l6.1-0.1l6.1-0.5 M50.4,63v-0.1c0-0.1,0-0.1-0.1-0.2 M49.5,63.7
		c0.4,0,0.8-0.3,1-0.7 M50.4,62.7c-0.2-0.4-0.6-0.7-1-0.8 M80.8,73.1c0.1,0.5,0.6,0.9,1.1,1 M60,79.6l5,1.6l5,1.4l5,1.4l5.1,1.3
		l5.1,1.2l5.1,1.1l5.1,1.1l5.1,0.9l5.1,0.8l5.2,0.8l5.2,0.6l5.2,0.6l5.2,0.5l5.2,0.4l5.2,0.3l5.2,0.2 M88.3,74.4
		c0.3-0.1,0.5-0.4,0.5-0.7v-0.2 M81.8,74.2l6.6,0.2 M33.8,70.5L60,79.6l0,0 M177.2,93.6h-35.4 M359.1,93.6h-67.7 M293.3,93.3
		c0.3-0.1,0.5-0.4,0.5-0.7c0-0.3-0.2-0.5-0.4-0.7 M293.3,91.8l-0.5-0.6 M293.3,93.2l-1,0.3 M285.5,69v0.7 M287.6,69.1v0.7
		 M285.6,69.7L285.6,69.7c0,0.6,0.4,1,1,1.1c0.5,0,1-0.4,1-0.9c0,0,0-0.1,0-0.1 M287.6,69.1L287.6,69.1c0-0.6-0.4-1-1-1.1
		c-0.5,0-1,0.4-1,0.9c0,0,0,0.1,0,0.1 M282,69v0.7 M284.1,69.1v0.7 M282,69.7L282,69.7c0,0.6,0.4,1,1,1.1c0.5,0,1-0.4,1-0.9
		c0,0,0-0.1,0-0.1 M284.1,69.1L284.1,69.1c0-0.6-0.4-1-1-1.1c-0.5,0-1,0.4-1,0.9c0,0,0,0.1,0,0.1 M292.7,69c0.1-0.6,0.6-1,1.1-1
		c0.5,0,1,0.5,1,1.1l0,0v0.7l0,0c-0.1,1.5-2.3,1.1-2.1-0.1h-0.1L292.7,69z M289.1,69c0.1-1.5,2.2-1.1,2.1,0.1l0,0v0.7l0,0
		c0,0.6-0.5,1-1.1,1s-1-0.5-1-1.1l0,0V69z M292.6,69v0.7 M294.7,69.1v0.7 M292.7,69.7L292.7,69.7c0,0.6,0.4,1,1,1.1
		c0.5,0,1-0.4,1-0.9c0,0,0-0.1,0-0.1 M294.7,69.1L294.7,69.1c0-0.6-0.4-1-1-1.1c-0.5,0-1,0.4-1,0.9c0,0,0,0.1,0,0.1 M289.1,69v0.7
		 M291.2,69.1v0.7 M289.1,69.7L289.1,69.7c0,0.6,0.4,1,1,1.1c0.5,0,1-0.4,1-0.9c0,0,0-0.1,0-0.1 M291.2,69.1L291.2,69.1
		c0-0.6-0.4-1-1-1.1c-0.5,0-1,0.4-1,0.9c0,0,0,0.1,0,0.1 M271.4,69c0.1-0.6,0.6-1,1.1-1c0.5,0,1,0.5,1,1.1l0,0v0.7l0,0
		c-0.1,1.5-2.3,1.1-2.1-0.1h-0.1L271.4,69z M267.8,69c0.1-1.5,2.2-1.1,2.1,0.1l0,0v0.7l0,0c0,0.6-0.5,1-1.1,1s-1-0.5-1-1.1l0,0V69z
		 M271.3,69v0.7 M273.4,69.1v0.7 M271.4,69.7L271.4,69.7c0,0.6,0.4,1,1,1.1c0.5,0,1-0.4,1-0.9c0,0,0-0.1,0-0.1 M273.4,69.1
		L273.4,69.1c0-0.6-0.4-1-1-1.1c-0.5,0-1,0.4-1,0.9c0,0,0,0.1,0,0.1 M267.8,69v0.7 M269.9,69.1v0.7 M267.8,69.7L267.8,69.7
		c0,0.6,0.4,1,1,1.1c0.5,0,1-0.4,1-0.9c0,0,0-0.1,0-0.1 M269.9,69.1L269.9,69.1c0-0.6-0.4-1-1-1.1c-0.5,0-1,0.4-1,0.9
		c0,0,0,0.1,0,0.1 M278.4,69c0.1-0.6,0.6-1,1.1-1c0.5,0,1,0.5,1,1.1l0,0v0.7l0,0c-0.1,1.5-2.3,1.1-2.1-0.1h-0.1L278.4,69z M274.8,69
		c0.1-1.5,2.2-1.1,2.1,0.1l0,0v0.7l0,0c0,0.6-0.5,1-1.1,1s-1-0.5-1-1.1l0,0V69z M278.3,69v0.7 M280.4,69.1v0.7 M278.4,69.7
		L278.4,69.7c0,0.6,0.4,1,1,1.1c0.5,0,1-0.4,1-0.9c0,0,0-0.1,0-0.1 M280.4,69.1L280.4,69.1c0-0.6-0.4-1-1-1.1c-0.5,0-1,0.4-1,0.9
		c0,0,0,0.1,0,0.1 M274.8,69v0.7 M276.9,69.1v0.7 M274.8,69.7L274.8,69.7c0,0.6,0.4,1,1,1.1c0.5,0,1-0.4,1-0.9c0,0,0-0.1,0-0.1
		 M276.9,69.1L276.9,69.1c0-0.6-0.4-1-1-1.1c-0.5,0-1,0.4-1,0.9c0,0,0,0.1,0,0.1 M204.1,69c0.1-0.6,0.6-1,1.1-1c0.5,0,1,0.5,1,1.1
		l0,0v0.7l0,0c-0.1,1.5-2.3,1.1-2.1-0.1H204L204.1,69z M200.5,69c0.1-1.5,2.2-1.1,2.1,0.1l0,0v0.7l0,0c0,0.6-0.5,1-1.1,1
		s-1-0.5-1-1.1l0,0l0,0V69z M204,69v0.7 M206.1,69.1v0.7 M204.1,69.7L204.1,69.7c0,0.6,0.4,1,1,1.1c0.5,0,1-0.4,1-0.9
		c0,0,0-0.1,0-0.1 M206.1,69.1L206.1,69.1c0-0.6-0.4-1-1-1.1c-0.5,0-1,0.4-1,0.9c0,0,0,0.1,0,0.1 M200.5,69v0.7 M202.6,69.1v0.7
		 M200.5,69.7L200.5,69.7c0,0.6,0.4,1,1,1.1c0.5,0,1-0.4,1-0.9c0,0,0-0.1,0-0.1 M202.6,69.1L202.6,69.1c0-0.6-0.4-1-1-1.1
		c-0.5,0-1,0.4-1,0.9c0,0,0,0.1,0,0.1 M211.2,69c0.1-0.6,0.6-1,1.1-1c0.5,0,1,0.5,1,1.1l0,0v0.7l0,0c-0.1,1.5-2.3,1.1-2.1-0.1h-0.1
		L211.2,69z M207.6,69c0.1-1.5,2.2-1.1,2.1,0.1l0,0v0.7l0,0c0,0.6-0.5,1-1.1,1s-1-0.5-1-1.1l0,0V69z M211.1,69v0.7 M213.2,69.1v0.7
		 M211.2,69.7L211.2,69.7c0,0.6,0.4,1,1,1.1c0.5,0,1-0.4,1-0.9c0,0,0-0.1,0-0.1 M213.2,69.1L213.2,69.1c0-0.6-0.4-1-1-1.1
		c-0.5,0-1,0.4-1,0.9c0,0,0,0.1,0,0.1 M207.6,69v0.7 M209.7,69.1v0.7 M207.6,69.7L207.6,69.7c0,0.6,0.4,1,1,1.1c0.5,0,1-0.4,1-0.9
		c0,0,0-0.1,0-0.1 M209.7,69.1L209.7,69.1c0-0.6-0.4-1-1-1.1c-0.5,0-1,0.4-1,0.9c0,0,0,0.1,0,0.1 M218.4,69c0.1-0.6,0.6-1,1.1-1
		c0.5,0,1,0.5,1,1.1l0,0v0.7l0,0c-0.1,1.5-2.3,1.1-2.1-0.1h-0.1L218.4,69z M214.8,69c0.1-1.5,2.2-1.1,2.1,0.1l0,0v0.7l0,0
		c0,0.6-0.5,1-1.1,1s-1-0.5-1-1.1l0,0V69z M218.3,69v0.7 M220.4,69.1v0.7 M218.4,69.7L218.4,69.7c0,0.6,0.4,1,1,1.1
		c0.5,0,1-0.4,1-0.9c0,0,0-0.1,0-0.1 M220.4,69.1L220.4,69.1c0-0.6-0.4-1-1-1.1c-0.5,0-1,0.4-1,0.9c0,0,0,0.1,0,0.1 M214.8,69v0.7
		 M216.9,69.1v0.7 M214.8,69.7L214.8,69.7c0,0.6,0.4,1,1,1.1c0.5,0,1-0.4,1-0.9c0,0,0-0.1,0-0.1 M216.9,69.1L216.9,69.1
		c0-0.6-0.4-1-1-1.1c-0.5,0-1,0.4-1,0.9c0,0,0,0.1,0,0.1 M129.5,69c0.1-0.6,0.6-1,1.1-1c0.5,0,1,0.5,1,1.1l0,0v0.7l0,0
		c-0.1,1.5-2.3,1.1-2.1-0.1h-0.1L129.5,69L129.5,69z M125.9,69c0.1-1.5,2.2-1.1,2.1,0.1l0,0v0.7l0,0c0,0.6-0.5,1-1.1,1s-1-0.5-1-1.1
		l0,0V69z M129.4,69v0.7 M131.5,69.1v0.7 M129.5,69.7L129.5,69.7c0,0.6,0.4,1,1,1.1c0.5,0,1-0.4,1-0.9c0,0,0-0.1,0-0.1 M131.5,69.1
		L131.5,69.1c0-0.6-0.4-1-1-1.1c-0.5,0-1,0.4-1,0.9c0,0,0,0.1,0,0.1 M125.9,69v0.7 M128,69.1v0.7 M125.9,69.7L125.9,69.7
		c0,0.6,0.4,1,1,1.1c0.5,0,1-0.4,1-0.9c0,0,0-0.1,0-0.1 M128,69.1L128,69.1c0-0.6-0.4-1-1-1.1c-0.5,0-1,0.4-1,0.9c0,0,0,0.1,0,0.1
		 M136.6,69c0.1-0.6,0.6-1,1.1-1c0.5,0,1,0.5,1,1.1l0,0v0.7l0,0c-0.1,1.5-2.3,1.1-2.1-0.1h-0.1L136.6,69z M133,69
		c0.1-1.5,2.2-1.1,2.1,0.1l0,0v0.7l0,0c0,0.6-0.5,1-1.1,1s-1-0.5-1-1.1l0,0V69z M136.5,69v0.7 M138.6,69.1v0.7 M136.6,69.7
		L136.6,69.7c0,0.6,0.4,1,1,1.1c0.5,0,1-0.4,1-0.9c0,0,0-0.1,0-0.1 M138.6,69.1L138.6,69.1c0-0.6-0.4-1-1-1.1c-0.5,0-1,0.4-1,0.9
		c0,0,0,0.1,0,0.1 M133,69v0.7 M135.1,69.1v0.7 M133,69.7L133,69.7c0,0.6,0.4,1,1,1.1c0.5,0,1-0.4,1-0.9c0,0,0-0.1,0-0.1
		 M135.1,69.1L135.1,69.1c0-0.6-0.4-1-1-1.1c-0.5,0-1,0.4-1,0.9c0,0,0,0.1,0,0.1 M143.8,69c0.1-0.6,0.6-1,1.1-1c0.5,0,1,0.5,1,1.1
		l0,0v0.7l0,0c-0.1,1.5-2.3,1.1-2.1-0.1h-0.1L143.8,69z M140.2,69c0.1-1.5,2.2-1.1,2.1,0.1l0,0v0.7l0,0c0,0.6-0.5,1-1.1,1
		s-1-0.5-1-1.1l0,0V69z M143.7,69v0.7 M145.8,69.1v0.7 M143.8,69.7L143.8,69.7c0,0.6,0.4,1,1,1.1c0.5,0,1-0.4,1-0.9c0,0,0-0.1,0-0.1
		 M145.8,69.1L145.8,69.1c0-0.6-0.4-1-1-1.1c-0.5,0-1,0.4-1,0.9c0,0,0,0.1,0,0.1 M140.2,69v0.7 M142.3,69.1v0.7 M140.2,69.7
		L140.2,69.7c0,0.6,0.4,1,1,1.1c0.5,0,1-0.4,1-0.9c0,0,0-0.1,0-0.1 M142.3,69.1L142.3,69.1c0-0.6-0.4-1-1-1.1c-0.5,0-1,0.4-1,0.9
		c0,0,0,0.1,0,0.1 M264.2,69v0.7 M266.4,69.1v0.7 M264.3,69.7L264.3,69.7c0,0.6,0.4,1,1,1.1c0.5,0,1-0.4,1-0.9c0,0,0-0.1,0-0.1
		 M266.3,69.1L266.3,69.1c0-0.6-0.4-1-1-1.1c-0.5,0-1,0.4-1,0.9c0,0,0,0.1,0,0.1 M260.7,69v0.7 M262.8,69.1v0.7 M260.7,69.7
		L260.7,69.7c0,0.6,0.4,1,1,1.1c0.5,0,1-0.4,1-0.9c0,0,0-0.1,0-0.1 M262.8,69.1L262.8,69.1c0-0.6-0.4-1-1-1.1c-0.5,0-1,0.4-1,0.9
		c0,0,0,0.1,0,0.1 M257.2,69v0.7 M259.3,69.1v0.7 M257.2,69.7L257.2,69.7c0,0.6,0.4,1,1,1.1c0.5,0,1-0.4,1-0.9c0,0,0-0.1,0-0.1
		 M259.3,69.1L259.3,69.1c0-0.6-0.4-1-1-1.1c-0.5,0-1,0.4-1,0.9c0,0,0,0.1,0,0.1 M369.4,69v0.7 M371.5,69.1v0.7 M369.4,69.7
		L369.4,69.7c0,0.6,0.4,1,1,1.1c0.5,0,1-0.4,1-0.9c0,0,0-0.1,0-0.1 M371.5,69.1L371.5,69.1c0-0.6-0.4-1-1-1.1c-0.5,0-1,0.4-1,0.9
		c0,0,0,0.1,0,0.1 M372.8,69v0.7 M374.9,69.1v0.7 M372.8,69.7L372.8,69.7c0,0.6,0.4,1,1,1.1c0.5,0,1-0.4,1-0.9c0,0,0-0.1,0-0.1
		 M374.9,69.1L374.9,69.1c0-0.6-0.4-1-1-1.1c-0.5,0-1,0.4-1,0.9c0,0,0,0.1,0,0.1 M320.6,69v0.7 M322.7,69.1v0.7 M320.6,69.7
		L320.6,69.7c0,0.6,0.4,1,1,1.1c0.5,0,1-0.4,1-0.9c0,0,0-0.1,0-0.1 M322.7,69.1L322.7,69.1c0-0.6-0.4-1-1-1.1c-0.5,0-1,0.4-1,0.9
		c0,0,0,0.1,0,0.1 M317.1,69v0.7 M319.2,69.1v0.7 M317.1,69.7L317.1,69.7c0,0.6,0.4,1,1,1.1c0.5,0,1-0.4,1-0.9c0,0,0-0.1,0-0.1
		 M319.2,69.1L319.2,69.1c0-0.6-0.4-1-1-1.1c-0.5,0-1,0.4-1,0.9c0,0,0,0.1,0,0.1 M327.8,69c0.1-1.5,2.2-1.1,2.1,0.1h0.1v0.7h-0.1
		c-0.1,1.5-2.2,1.1-2.1-0.1l0,0V69z M324.3,69c0.1-0.6,0.6-1,1.1-1c0.5,0,1,0.5,1,1.1l0,0v0.7l0,0c-0.1,0.6-0.6,1-1.1,1
		c-0.5,0-1-0.5-1-1.1l0,0V69z M327.8,69v0.7 M329.9,69.1v0.7 M327.8,69.7L327.8,69.7c0,0.6,0.4,1,1,1.1c0.5,0,1-0.4,1-0.9
		c0,0,0-0.1,0-0.1 M329.9,69.1L329.9,69.1c0-0.6-0.4-1-1-1.1c-0.5,0-1,0.4-1,0.9c0,0,0,0.1,0,0.1 M324.3,69v0.7 M326.4,69.1v0.7
		 M324.3,69.7L324.3,69.7c0,0.6,0.4,1,1,1.1c0.5,0,1-0.4,1-0.9c0,0,0-0.1,0-0.1 M326.4,69.1L326.4,69.1c0-0.6-0.4-1-1-1.1
		c-0.5,0-1,0.4-1,0.9c0,0,0,0.1,0,0.1 M335.1,69c0.1-1.5,2.2-1.1,2.1,0.1h0.1v0.7h-0.1c-0.1,1.5-2.2,1.1-2.1-0.1l0,0V69z M331.6,69
		c0.1-0.6,0.6-1,1.1-1c0.5,0,1,0.5,1,1.1l0,0v0.7l0,0c-0.1,0.6-0.6,1-1.1,1c-0.5,0-1-0.5-1-1.1l0,0V69z M335.1,69v0.7 M337.2,69.1
		v0.7 M335.1,69.7L335.1,69.7c0,0.6,0.4,1,1,1.1c0.5,0,1-0.4,1-0.9c0,0,0-0.1,0-0.1 M337.2,69.1L337.2,69.1c0-0.6-0.4-1-1-1.1
		c-0.5,0-1,0.4-1,0.9c0,0,0,0.1,0,0.1 M331.6,69v0.7 M333.7,69.1v0.7 M331.6,69.7L331.6,69.7c0,0.6,0.4,1,1,1.1c0.5,0,1-0.4,1-0.9
		c0,0,0-0.1,0-0.1 M333.7,69.1L333.7,69.1c0-0.6-0.4-1-1-1.1c-0.5,0-1,0.4-1,0.9c0,0,0,0.1,0,0.1 M342.3,69c0.1-1.5,2.2-1.1,2.1,0.1
		h0.1v0.7h-0.1c-0.1,1.5-2.2,1.1-2.1-0.1l0,0L342.3,69L342.3,69z M338.8,69c0.1-0.6,0.6-1,1.1-1c0.5,0,1,0.5,1,1.1l0,0v0.7l0,0
		c-0.1,0.6-0.6,1-1.1,1c-0.5,0-1-0.5-1-1.1l0,0V69z M342.3,69v0.7 M344.4,69.1v0.7 M342.3,69.7L342.3,69.7c0,0.6,0.4,1,1,1.1
		c0.5,0,1-0.4,1-0.9c0,0,0-0.1,0-0.1 M344.4,69.1L344.4,69.1c0-0.6-0.4-1-1-1.1c-0.5,0-1,0.4-1,0.9c0,0,0,0.1,0,0.1 M338.8,69v0.7
		 M340.9,69.1v0.7 M338.8,69.7L338.8,69.7c0,0.6,0.4,1,1,1.1c0.5,0,1-0.4,1-0.9c0,0,0-0.1,0-0.1 M340.9,69.1L340.9,69.1
		c0-0.6-0.4-1-1-1.1c-0.5,0-1,0.4-1,0.9c0,0,0,0.1,0,0.1"/>
	<path id="Path_122" class="st0" d="M397.1,61l-9.5-2.2l-9.5-1.5l-9.7-0.8h-9.7 M377.7,100.8v-7.9 M378.9,101.1l0.3-2.6l0.3-5.6
		 M379.4,97l5.1-4.1 M196.7,95.7c3.1,0.4,6.3,0.6,9.4,0.6c2.2,0,4.4-0.1,6.6-0.3 M420.9,79.7c0.7-0.6,1.1-1.4,1.1-2.3
		c0-0.8-0.3-1.5-0.9-2 M379.4,93.1L381,93 M212.7,96l0.3,4.5 M216.3,96l-1.1,3.1 M215.1,100l0.1-4.1 M196.7,95.7l-3.6-0.2l-3.6-0.3
		l-3.6-0.4l-3.6-0.4l-10-1.4 M413.5,70.3c-4.4-4.7-10.1-8-16.4-9.3 M421.1,75.4c-2.1-2.3-4.7-4-7.6-5.1 M6.8,59l-0.4,2.2 M6.3,61.3
		v0.4l0.1,0.2l0.1,0.2L7.2,63 M0.1,0l24,56.4 M150.9,65.7l5.8,1.5 M166.7,66.9l4.2,0.7"/>
	<path id="Path_123" class="st0" d="M377.5,104.8c0.2,0,0.4-0.2,0.4-0.4c0-0.2-0.2-0.4-0.4-0.4s-0.4,0.2-0.4,0.4v0
		C377.1,104.6,377.2,104.8,377.5,104.8C377.5,104.8,377.5,104.8,377.5,104.8z M377.5,106.1c0.9,0,1.7-0.8,1.7-1.7s-0.8-1.7-1.7-1.7
		c-0.9,0-1.7,0.8-1.7,1.7c0,0.9,0.7,1.7,1.5,1.7C377.4,106.1,377.4,106.1,377.5,106.1z"/>
	<path id="Path_124" class="st0" d="M242.6,101.8l5.7,0.9l6,0.6l6.1,0.2h6l5.7-0.4"/>
	<path id="Path_125" class="st0" d="M377.6,100.8c-1.9,0.1-3.3,1.6-3.3,3.5c0,1.9,1.6,3.5,3.5,3.5s3.5-1.6,3.5-3.5
		c0-1.6-1.1-3-2.6-3.3"/>
	<path id="Path_126" class="st0" d="M272.1,103.1l0.2-0.2l0.2-0.2l0.1-0.3l0.1-0.4"/>
	<line id="Line_5" class="st0" x1="378.9" y1="100.7" x2="377.5" y2="100.6"/>
	<path id="Path_127" class="st0" d="M379.7,107.2c0.9-0.7,1.4-1.7,1.4-2.8c0-2-1.6-3.6-3.6-3.6s-3.6,1.6-3.6,3.6
		c0,1.1,0.5,2.1,1.4,2.8"/>
	<line id="Line_6" class="st0" x1="97.2" y1="56.5" x2="358.7" y2="56.5"/>
	<path id="Path_128" class="st0" d="M24.9,3c-1.9-1.9-4.5-3-7.2-3"/>
	<path id="Path_129" class="st0" d="M151.4,56.4c-0.4-0.1-0.9-0.1-1.3-0.1c-1.1,0-2.3,0.3-3.3,0.8"/>
	<path id="Path_130" class="st0" d="M66.4,45.3l2.3,2.2l2.6,2l2.7,1.7l2.8,1.5l2.9,1.2l3.1,1l3.1,0.7l3.2,0.4l8.1,0.5"/>
	<path id="Path_131" class="st0" d="M8.9,1L8.7,0.9L8.6,0.7L8.5,0.6L8.4,0.4L8.2,0.3L8.1,0.2L7.9,0.1H7.8L7.6,0"/>
	<path id="Path_132" class="st0" d="M16.8,0H9.2L9.1,0.1H9v0.1H8.9v0.1H8.8v0.3H8.7v0.1h0.1V1h0.1"/>
	<line id="Line_7" class="st0" x1="7.6" y1="0" x2="0.1" y2="0"/>
	<line id="Line_8" class="st0" x1="16.8" y1="0" x2="17.7" y2="0"/>
	<path id="Path_133" class="st0" d="M216.6,109.6l-0.8-0.9l-0.6-1l-0.3-1.2v-1.1l0.3-1.2l0.5-1l0.8-0.9l0.9-0.7l1.1-0.4l1.2-0.2
		l1.2,0.2l1.1,0.4l1,0.7l0.7,0.9l0.5,1l0.3,1.2v1.1l-0.3,1.2l-0.6,1l-0.8,0.9H216.6"/>
	<path id="Path_134" class="st0" d="M203.9,109.8l-0.9-0.7l-0.7-0.9l-0.6-1l-0.2-1.1v-1.2l0.2-1.1l0.6-1l0.7-0.9l1-0.6l1-0.5
		l1.2-0.1l1.1,0.1l1.1,0.4l1,0.6l0.8,0.9l0.5,1l0.3,1.1l0.1,1.1l-0.3,1.2l-0.5,1l-0.7,0.9l-0.9,0.7L203.9,109.8"/>
	<path id="Path_135" class="st0" d="M215.9,99c0.1,0,0.2-0.1,0.2-0.2c0-0.1-0.1-0.1-0.1-0.2 M215.9,99h-0.6 M216,98.7l-1-0.5"/>
	<path id="Path_136" class="st0" d="M219.5,99.7c0.2,0,0.3-0.1,0.3-0.3c0-0.2-0.1-0.3-0.3-0.3c-0.2,0-0.3,0.1-0.3,0.3
		C219.1,99.5,219.3,99.7,219.5,99.7z M219.4,98.7c0.2,0,0.3-0.1,0.3-0.3c0-0.2-0.1-0.3-0.3-0.3c-0.2,0-0.3,0.1-0.3,0.3
		C219.1,98.6,219.2,98.7,219.4,98.7z"/>
	<path id="Path_137" class="st0" d="M216.7,96.2l-1.6,3.9 M209.9,96.5h3.3 M215.7,99l-0.4,2.4 M219.1,99l-1,0.9 M219,98.6l-1.1,1
		 M219,98.6l-3.2,0.5 M219.1,98.2l-3.1,0.5 M219.1,99.4l-0.1-1 M219.8,99.4l-0.1-1.1"/>
	<path id="Path_138" class="st0" d="M219.7,108.2c1.3,0,2.3-1,2.3-2.3c0-1.3-1-2.3-2.3-2.3c-1.3,0-2.3,1-2.3,2.3
		C217.4,107.2,218.4,108.2,219.7,108.2z M219.7,107.7c1,0,1.9-0.9,1.9-1.9c0-1-0.9-1.9-1.9-1.9c-1,0-1.9,0.9-1.9,1.9
		c0,1,0.8,1.9,1.8,1.9C219.6,107.7,219.7,107.7,219.7,107.7z M219.7,106.5c0.3,0,0.6-0.3,0.6-0.6s-0.3-0.6-0.6-0.6
		c-0.3,0-0.6,0.3-0.6,0.6c0,0.3,0.2,0.6,0.4,0.6C219.6,106.5,219.6,106.5,219.7,106.5L219.7,106.5z"/>
	<path id="Path_139" class="st0" d="M216.6,109.6c-2-1.7-2.3-4.7-0.6-6.8s4.7-2.3,6.8-0.6s2.3,4.7,0.6,6.8c-0.2,0.2-0.4,0.4-0.6,0.6
		"/>
	<path id="Path_140" class="st0" d="M206.3,107.8c1.3,0,2.3-1,2.3-2.3c0-1.3-1-2.3-2.3-2.3c-1.3,0-2.3,1-2.3,2.3
		c-0.1,1.2,0.9,2.2,2.1,2.3C206.2,107.8,206.2,107.8,206.3,107.8z M206.3,107.4c1,0,1.9-0.9,1.9-1.9s-0.9-1.9-1.9-1.9
		c-1,0-1.9,0.9-1.9,1.9v0c0,1,0.8,1.9,1.8,1.9C206.2,107.4,206.3,107.4,206.3,107.4z M206.3,106.2c0.3,0,0.6-0.3,0.6-0.6
		s-0.3-0.6-0.6-0.6c-0.3,0-0.6,0.3-0.6,0.6C205.6,105.9,205.9,106.2,206.3,106.2z"/>
	<path id="Path_141" class="st0" d="M214.4,100.7h0.7 M213,100.6l-1.2,0.1 M210.3,104.6h1.5 M214.4,104.6h1.7 M215.1,100.7v-0.6
		 M214.4,104.6v-3.9 M211.8,100.7v3.9 M210.3,107.2h5.8 M210.3,104.6c-0.7-2.1-3-3.3-5.2-2.6c-2.1,0.7-3.3,3-2.6,5.2
		c0.6,1.7,2.1,2.8,3.9,2.8c1.8,0,3.4-1.1,3.9-2.8 M216.1,107.1c0.7,2.1,3,3.3,5.2,2.6s3.3-3,2.6-5.2s-3-3.3-5.2-2.6
		c-1.2,0.4-2.2,1.4-2.6,2.6 M212.3,104.8H211 M213.7,105.9l1.4-4 M219.8,99.7L219.8,99.7l-0.1,0.2v0.3 M219.6,101v-0.9 M219.2,101
		v-1.4 M218.1,100l-0.4-0.5 M216,101.9l-0.4,0.1 M218.1,100l-2.2,1.8 M217.7,99.5l-2.2,1.9 M215.6,102c0.1,0,0.2-0.1,0.2-0.2
		c0-0.1,0-0.2-0.1-0.2 M212.3,106.5h-1.4 M215.6,101.9h-1.2 M215.7,101.5l-1.1-0.4 M214.7,102.9l-2.4-0.4 M211.2,103.5
		c0.1,0.1,0.2,0.2,0.4,0.2c0.3,0,0.5-0.2,0.5-0.5s-0.2-0.5-0.5-0.5h-0.2 M215,104.8h-0.9 M214.9,106.5h-1.3 M213.7,105.8l-0.1,1.5
		 M212.3,105.8l0.2,1.5 M215.1,107.2h-4.3 M211.2,103.4l-0.8-0.3 M211.5,102.7l-2.1-0.8 M213.4,101.9l-1.1-0.3H209 M212.7,99.7
		l-0.3,1l-4.5,0.4 M212.3,105.7l0.1-4.5 M212.3,105.7L212.3,105.7c0,0.4,0.3,0.8,0.7,0.8c0.4,0,0.7-0.2,0.7-0.6 M208.9,109.5
		c1.4-0.9,2.2-2.5,2.2-4.2c-0.1-2.7-2.3-4.7-5-4.6s-4.7,2.3-4.6,5c0.1,1.6,0.9,3,2.2,3.8"/>
</g>
</svg>
