<?xml version="1.0" encoding="utf-8"?>
<!-- Generator: Adobe Illustrator 26.0.3, SVG Export Plug-In . SVG Version: 6.00 Build 0)  -->
<svg version="1.1" id="Layer_1" xmlns="http://www.w3.org/2000/svg" xmlns:xlink="http://www.w3.org/1999/xlink" x="0px" y="0px"
	 viewBox="0 0 284.3 83.9" style="enable-background:new 0 0 284.3 83.9;" xml:space="preserve">
<style type="text/css">
	.st0{fill:none;stroke:#000000;stroke-width:0.9;}
</style>
<g id="Chalenger_300_1_" transform="translate(0.113 0.436)">
	<g id="Group_11" transform="translate(-70.5 -135.165)">
		<path id="Path_598" class="st0" d="M218.6,209.7c8.8,0.2,16.7,0,23.1,0.1c18.3,0.4,40.2-5.7,40.2-5.7l29.8,0.7
			c14.7,0.3,24.3-0.3,30.6-1.2c11.6-1.7,11.9-4.5,11.9-4.5c0.1-2.9-17.9-13.1-17.9-13.1l-11-7.7c0,0-6.4-5.2-20.9-5.5l-111.1-2.5
			c0,0-1.9,0.1-5.1,0.3 M198.3,208.3c4.2,0.5,8.4,0.8,12.4,1 M108.8,176.2l-2,0.3c0,0-2,0.1-1,2c1,2,2.5,4.5,2.5,4.5
			s0.6,1.5,3.6,2.4c14.8,4.9,29.8,8.9,45.1,11.9c1.2,0.3,7.8,2.6,7.8,2.6c7.6,3.1,15.6,5.4,23.7,6.9 M138.9,173.6
			c-13.3,0.9-25.1,1.9-30.1,2.6"/>
		<path id="Path_599" class="st0" d="M324,184.2l-11.7-1.1l0.1-4.6l7.2,0.2L324,184.2z"/>
		<path id="Path_600" class="st0" d="M325.5,184.4l10,1l-9.9-6.9c-1.5,0.3-3.1,0.4-4.6,0.2L325.5,184.4"/>
	</g>
	<g id="Group_12" transform="translate(-70.5 -135.165)">
		<path id="Path_601" class="st0" d="M200.4,196.8c0.4,0,0.8-0.3,0.8-0.8c0,0,0,0,0,0l0.2-8.9c0-0.4-0.3-0.8-0.8-0.8c0,0,0,0,0,0
			l-6.7-0.2c-0.4,0-0.8,0.3-0.8,0.8c0,0,0,0,0,0l-0.2,8.9c0,0.4,0.3,0.8,0.8,0.8c0,0,0,0,0,0L200.4,196.8z M300.8,201.9
			c0.4,0,0.8-0.3,0.8-0.8c0,0,0,0,0,0l0.5-23.5c0-0.4-0.3-0.8-0.8-0.8c0,0,0,0,0,0l-8.6-0.2c-0.4,0-0.8,0.3-0.8,0.8c0,0,0,0,0,0
			l-0.5,23.5c0,0.4,0.3,0.8,0.8,0.8c0,0,0,0,0,0L300.8,201.9z M179.6,198.7c-1.9-0.3-7.5-1.2-7.5-1.2c-1.6-0.3-2.2-0.8-2.5-1.3
			 M169.6,196.2c-0.2-0.5-0.2-1.1,0-1.6c0-0.6-0.2-1.2-0.5-1.7l-7.9-14.1l4.3,0.1l14.8,15.9c1.4,1.4,3.3,2.2,5.3,2.2
			c0,0,54.2,2.1,59.6,2.5s8.5,0.8,8.5,4c0,1.6-2,3-7.4,3.6c-4,0.5-10,0.5-18.4-0.2c-3.4-0.3-6.5-0.5-9.1-0.7 M172.5,186.3
			c11.3-0.4,13.9-2.3,13.9-2.3s2.1-1,2.2-2.4l-0.3-12.3c-0.1-1.2-2.1-1.4-3.9-1.7s-8.5-0.4-9.3-0.4s-11.1,0.5-15.7,0.9
			c-2.4,0.2-4.9,0.6-7.2,1.3l-13.4,3.4l0.3,9c3.3,1,12.9,2.7,12.9,2.7l5.7,0.7c0,0,3.4,0.5,7.3,0.8 M201.3,195.7h8.4l42.7,1
			c7.8,0.3,15.5,1.5,23,3.5c1.9,0.6,3.8,1,5.8,1.4c4.2,1.2,0.7,2.5,0.7,2.5 M181.9,195.8c3.8,0,7.6-0.1,11.2-0.1 M157.9,197.5
			c-2.1-0.6,0-0.8,0-0.8c2.7-0.3,7-0.6,12-0.7 M89.7,148.3l8.7,1.8l2.8-2.1l20.1,25.3l-2.4,1.9 M87.8,145.6
			c20.1,3.9,26.1,2.6,28.1,2.4s7.4-0.9,7.4-0.9 M78,145.8c-1.1-0.4,5.7-1.6,5.7-1.6 M80.2,144.1l14.9-3.4 M84.2,145.8l26.3-2.6
			c0,0,8.9-0.9,1.7-2.1c-8.9-0.9-17.8-0.7-26.6,0.5l-15.1,3.9C75.1,145.9,79.6,146,84.2,145.8z M87.7,145.7l20.7,30.5h0.4
			c3.3-0.4,16-1.5,30.1-2.5 M157.2,168.1l-5.5-0.4c-3.5-0.1-6.9-1.3-9.7-3.5L123.3,147l-3.8-5c0,0-3.7-6.7-14.2-6.8
			c-7.5-0.1-13.3-0.3-30.3,4.4c0,0-1.4,0.3-0.7,1.4l1.1,1.5c0.5,0.6,1.2,0.9,1.9,1"/>
	</g>
	<path id="Path_602" class="st0" d="M175.2,45.7c-0.4,0-0.8,0.3-0.8,0.8c0,0,0,0,0,0l-0.1,4.3c0,0.4,0.3,0.8,0.8,0.8c0,0,0,0,0,0h2
		c0.4,0,0.8-0.3,0.8-0.8c0,0,0,0,0,0l0.1-4.3c0-0.4-0.3-0.8-0.8-0.8c0,0,0,0,0,0H175.2"/>
	<path id="Path_603" class="st0" d="M208,46.5c-0.4,0-0.8,0.3-0.8,0.8c0,0,0,0,0,0l-0.1,4.3c0,0.4,0.3,0.8,0.8,0.8c0,0,0,0,0,0h2
		c0.4,0,0.8-0.3,0.8-0.8c0,0,0,0,0,0l0.1-4.3c0-0.4-0.3-0.8-0.8-0.8c0,0,0,0,0,0H208"/>
	<path id="Path_604" class="st0" d="M197.1,46.2c-0.4,0-0.8,0.3-0.8,0.8c0,0,0,0,0,0l-0.1,4.3c0,0.4,0.3,0.8,0.8,0.8c0,0,0,0,0,0h2
		c0.4,0,0.8-0.3,0.8-0.8c0,0,0,0,0,0l0.1-4.3c0-0.4-0.3-0.8-0.8-0.8c0,0,0,0,0,0H197.1"/>
	<path id="Path_605" class="st0" d="M186.2,46c-0.4,0-0.8,0.3-0.8,0.8c0,0,0,0,0,0l-0.1,4.3c0,0.4,0.3,0.8,0.8,0.8c0,0,0,0,0,0
		l2,0.1c0.4,0,0.8-0.3,0.8-0.8c0,0,0,0,0,0l0.1-4.3c0-0.4-0.3-0.8-0.8-0.8c0,0,0,0,0,0L186.2,46"/>
	<path id="Path_606" class="st0" d="M164.4,45.5c-0.4,0-0.8,0.3-0.8,0.8c0,0,0,0,0,0l-0.1,4.3c0,0.4,0.3,0.8,0.8,0.8c0,0,0,0,0,0h2
		c0.4,0,0.8-0.3,0.8-0.8c0,0,0,0,0,0l0.1-4.3c0-0.4-0.3-0.8-0.8-0.8c0,0,0,0,0,0H164.4"/>
	<path id="Path_607" class="st0" d="M153.4,45.2c-0.4,0-0.8,0.3-0.8,0.8c0,0,0,0,0,0l-0.1,4.3c0,0.4,0.3,0.8,0.8,0.8c0,0,0,0,0,0h2
		c0.4,0,0.8-0.3,0.8-0.8c0,0,0,0,0,0l0.1-4.3c0-0.4-0.3-0.8-0.8-0.8c0,0,0,0,0,0H153.4"/>
	<path id="Path_608" class="st0" d="M251.2,73.2v1.5h2.9V73 M250,70.2v3l19.3-0.8V69"/>
	<path id="Path_609" class="st0" d="M253.3,74.7l0.3,4l-1.3,0.1l-0.2-4.1"/>
	<path id="Path_610" class="st0" d="M140.3,76.5c-0.4,0.6-0.6,1.4-0.6,2.1c0,2.2,1.7,3.9,3.9,4c2.2,0,3.9-1.8,3.9-4c0,0,0,0,0,0
		v-0.1 M141.3,78.5L141.3,78.5c0,1.3,1,2.4,2.3,2.4c0,0,0,0,0,0c1.2,0,2.3-1,2.3-2.2c0,0,0,0,0-0.1v-0.1 M140.3,71.5v7h10l-2.2-3.1
		v-4.6 M148.1,70.8l-3.9-0.1 M252.2,75.9c-1.9,0.5-3,2.5-2.5,4.5c0.5,1.9,2.5,3,4.5,2.5c1.6-0.4,2.6-1.9,2.6-3.5
		c0-1.9-1.4-3.4-3.3-3.6 M252.3,77.4c-0.8,0.3-1.3,1.1-1.3,2c0,1.2,1,2.2,2.2,2.2c1.2,0,2.2-1,2.2-2.2c0-1.1-0.8-2-1.8-2.2"/>
	<path id="Path_611" class="st0" d="M68.7,44c0,0-4.9,1.9-5.7,2.3c1.9-0.1,3.9,0,5.8,0.2L68.7,44"/>
	<path id="Path_612" class="st0" d="M68.7,44c0,0-4.9,1.9-5.7,2.3c1.9-0.1,3.9,0,5.8,0.2L68.7,44z"/>
	<path id="Path_613" class="st0" d="M128.9,65.4c-5.2,1.9-10.7,3-16.2,3.2c-1.8,0-3.6-0.3-5.3-0.8c-1.4-0.6-2.7-1.4-4-2.2l4.6-1.3
		h0.3"/>
	<path id="Path_614" class="st0" d="M108.2,64.2l6.7,0.1c0,0,10.2,0.9,15.1,0.8c-0.4,0.1-0.7,0.3-1.1,0.4"/>
	<path id="Path_615" class="st0" d="M138.9,66.5c-4.1,1.6-9.8,4-22.1,4.3c-1.2,0-2.3-0.2-3.4-0.7c-1-0.5-2-1.1-2.8-1.5"/>
	<path id="Path_616" class="st0" d="M126.9,65.6c4.1,0.5,8.3,0.8,12.5,0.8c-0.2,0.1-0.4,0.1-0.5,0.2"/>
	<path id="Path_617" class="st0" d="M151.9,68c-3.9,1.8-16,5.3-28.7,5.1c-1.2,0-2.3-0.2-3.4-0.7c-1-0.5-2.1-1.1-2.8-1.5"/>
	<path id="Path_618" class="st0" d="M136.8,67.5c4.6,0.3,12.2,0.7,15.4,0.3c-0.1,0.1-0.2,0.1-0.4,0.2"/>
</g>
</svg>
