<?xml version="1.0" encoding="utf-8"?>
<!-- Generator: Adobe Illustrator 26.0.3, SVG Export Plug-In . SVG Version: 6.00 Build 0)  -->
<svg version="1.1" id="Layer_1" xmlns="http://www.w3.org/2000/svg" xmlns:xlink="http://www.w3.org/1999/xlink" x="0px" y="0px"
	 viewBox="0 0 258.2 61.2" style="enable-background:new 0 0 258.2 61.2;" xml:space="preserve">
<style type="text/css">
	.st0{fill:none;stroke:#000000;stroke-width:0.75;}
</style>
<g id="Component_2_1" transform="translate(0.039 0.375)">
	<line id="Line_42" class="st0" x1="71.9" y1="32.4" x2="71.9" y2="32.4"/>
	<line id="Line_43" class="st0" x1="71.9" y1="32.4" x2="72" y2="32.4"/>
	<line id="Line_44" class="st0" x1="72" y1="32.4" x2="72.1" y2="32.4"/>
	<line id="Line_45" class="st0" x1="72.1" y1="32.4" x2="72.2" y2="32.4"/>
	<line id="Line_46" class="st0" x1="72.2" y1="32.4" x2="72.2" y2="32.4"/>
	<line id="Line_47" class="st0" x1="72" y1="31.2" x2="66.8" y2="32.1"/>
	<line id="Line_48" class="st0" x1="66.8" y1="32.1" x2="71.9" y2="32.4"/>
	<path id="Path_550" class="st0" d="M84.9,43.8l-0.1,0.1v0.2l-0.1,0.1l-0.1,0.1l-0.1,0.1l-0.2,0.1H84"/>
	<line id="Line_49" class="st0" x1="84" y1="44.5" x2="73.3" y2="42.5"/>
	<path id="Path_551" class="st0" d="M73.3,42.5l-0.1-0.1l-0.1-0.1l-0.2-0.1l-0.1-0.1v-0.2l-0.1-0.1"/>
	<line id="Line_50" class="st0" x1="72.7" y1="41.8" x2="72.7" y2="35.6"/>
	<path id="Path_552" class="st0" d="M72.7,35.6v-0.2"/>
	<line id="Line_51" class="st0" x1="84.8" y1="38.2" x2="84.9" y2="43.8"/>
	<path id="Path_553" class="st0" d="M91.2,48.8l-3.1-0.7l-3.5-0.8l-4.2-0.9l-4.6-1l-4-1l-3.9-0.8l-3.7-0.9l-4.9-1l-3.5-0.8L51.7,40
		l-4.4-1.1"/>
	<path id="Path_554" class="st0" d="M233.8,34.2l3.4,1l3.5,1l3.4,1.1l3.3,1.1l3.5,1.1l0.9,0.4l1,0.3l0.9,0.4l0.9,0.4l1,0.5l0,0
		l0.4,0.2l0.4,0.3l0.5,0.3l0.4,0.4l0.1,0.2l0.2,0.2l0.1,0.2v0.3l0.1,0.3l-0.1,0.3v0.2l-0.1,0.3l-0.2,0.2l-0.1,0.2l-0.4,0.3l-0.4,0.2
		l-0.3,0.2l-0.3,0.1h-0.2l-0.8,0.3l-0.9,0.2l-1,0.2l-0.9,0.2l-1.9,0.3l-2,0.3l-2,0.2l-2,0.1l-2,0.2l-4.6,0.3l-4.6,0.2l-4.6,0.2
		l-4.6,0.1l-4.6,0.1l-4.6,0.1h-9.2l-41.8,0.2l-2.9,0.3l-2.5,0.3l-2.8,0.3l-3,0.3l-2.3,0.2l-2.4,0.3l-4.5,0.4"/>
	<line id="Line_52" class="st0" x1="143.2" y1="51.2" x2="139.3" y2="51.6"/>
	<line id="Line_53" class="st0" x1="139.3" y1="51.6" x2="131.2" y2="52.2"/>
	<line id="Line_54" class="st0" x1="131.2" y1="52.2" x2="126.3" y2="52.5"/>
	<line id="Line_55" class="st0" x1="126.3" y1="52.5" x2="125.6" y2="52.5"/>
	<line id="Line_56" class="st0" x1="116.5" y1="52.3" x2="114.8" y2="52.2"/>
	<line id="Line_57" class="st0" x1="114.8" y1="52.2" x2="112" y2="52"/>
	<line id="Line_58" class="st0" x1="112" y1="52" x2="108.2" y2="51.6"/>
	<line id="Line_59" class="st0" x1="108.2" y1="51.6" x2="104.7" y2="51.1"/>
	<line id="Line_60" class="st0" x1="104.7" y1="51.1" x2="100.6" y2="50.5"/>
	<line id="Line_61" class="st0" x1="100.6" y1="50.5" x2="97.4" y2="50"/>
	<line id="Line_62" class="st0" x1="97.4" y1="50" x2="95" y2="49.5"/>
	<line id="Line_63" class="st0" x1="95" y1="49.5" x2="91.2" y2="48.8"/>
	<line id="Line_64" class="st0" x1="91.2" y1="48.8" x2="88.1" y2="48.1"/>
	<line id="Line_65" class="st0" x1="88.1" y1="48.1" x2="84.6" y2="47.3"/>
	<line id="Line_66" class="st0" x1="84.6" y1="47.3" x2="80.4" y2="46.4"/>
	<line id="Line_67" class="st0" x1="80.4" y1="46.4" x2="75.8" y2="45.4"/>
	<line id="Line_68" class="st0" x1="75.8" y1="45.4" x2="71.8" y2="44.4"/>
	<line id="Line_69" class="st0" x1="71.8" y1="44.4" x2="67.9" y2="43.6"/>
	<line id="Line_70" class="st0" x1="67.9" y1="43.6" x2="64.2" y2="42.7"/>
	<line id="Line_71" class="st0" x1="64.2" y1="42.7" x2="59.3" y2="41.7"/>
	<line id="Line_72" class="st0" x1="59.3" y1="41.7" x2="55.8" y2="40.9"/>
	<line id="Line_73" class="st0" x1="55.8" y1="40.9" x2="51.7" y2="40"/>
	<line id="Line_74" class="st0" x1="51.7" y1="40" x2="47.3" y2="38.9"/>
	<line id="Line_75" class="st0" x1="47.3" y1="38.9" x2="46.2" y2="39.1"/>
	<line id="Line_76" class="st0" x1="46.2" y1="39.1" x2="42.4" y2="39.6"/>
	<path id="Path_555" class="st0" d="M42.4,39.6l-4.6,0.7h-1.9"/>
	<line id="Line_77" class="st0" x1="35.9" y1="40.3" x2="33.6" y2="40.3"/>
	<line id="Line_78" class="st0" x1="22.7" y1="29.1" x2="16.1" y2="17.7"/>
	<line id="Line_79" class="st0" x1="16.1" y1="17.7" x2="9.1" y2="5.7"/>
	<path id="Path_556" class="st0" d="M9.1,5.7L8.3,4.3L6.6,4.1"/>
	<line id="Line_80" class="st0" x1="6.6" y1="4.1" x2="4.4" y2="3.8"/>
	<path id="Path_557" class="st0" d="M4.4,3.8L3.1,3.6H2.9L0,3.3"/>
	<line id="Line_81" class="st0" x1="0" y1="3.3" x2="2.5" y2="3.2"/>
	<line id="Line_82" class="st0" x1="2.4" y1="2.7" x2="2.4" y2="0.7"/>
	<path id="Path_558" class="st0" d="M2.4,0.7V0.5l0.1-0.1l0.1-0.2l0.1-0.1h4.5"/>
	<line id="Line_83" class="st0" x1="7.2" y1="0" x2="27.8" y2="0"/>
	<line id="Line_84" class="st0" x1="27.8" y1="0" x2="29.2" y2="0"/>
	<line id="Line_85" class="st0" x1="29.2" y1="0" x2="29.8" y2="0"/>
	<path id="Path_559" class="st0" d="M70.7,25.6l-0.4,0.2v0.3l6-0.3"/>
	<line id="Line_86" class="st0" x1="109.4" y1="24.2" x2="109.7" y2="24.2"/>
	<path id="Path_560" class="st0" d="M109.7,24.2h0.7"/>
	<line id="Line_87" class="st0" x1="110.4" y1="24.2" x2="110.8" y2="24.2"/>
	<line id="Line_88" class="st0" x1="110.8" y1="24.2" x2="111.1" y2="24.2"/>
	<line id="Line_89" class="st0" x1="111.1" y1="24.2" x2="111.5" y2="24.2"/>
	<path id="Path_561" class="st0" d="M111.5,24.2h0.9l0.5-0.1h1.2"/>
	<path id="Path_562" class="st0" d="M114.1,24.1h0.7l90.5-0.3"/>
	<path id="Path_563" class="st0" d="M205.3,23.8h3.7l2.7,0.3l1.8,0.3l0.5,0.1l0.7,0.3l0.5,0.2l0.5,0.1l0.8,0.4l1.6,0.8"/>
	<line id="Line_90" class="st0" x1="218.1" y1="26.3" x2="218.1" y2="26.3"/>
	<line id="Line_91" class="st0" x1="218.1" y1="26.3" x2="228.6" y2="32.5"/>
	<path id="Path_564" class="st0" d="M233.8,34.2l-1.6-0.4l-0.7-0.2l-0.8-0.3l-0.6-0.2l-0.8-0.3l-0.7-0.3"/>
	<path id="Path_565" class="st0" d="M204.4,40.4h-11.5l-0.1-14.5l11.4-0.2L204.4,40.4z"/>
	<line id="Line_92" class="st0" x1="221.1" y1="48.8" x2="221.1" y2="48.8"/>
	<line id="Line_93" class="st0" x1="226.2" y1="48.7" x2="226.2" y2="48.7"/>
	<path id="Path_566" class="st0" d="M228.2,32.7h-3.8l-1.9,0.1l-1.6,0.1h-3.4l-2-0.1l-1.5-0.1h-1.2l-1.3-0.1l-1.1-0.1h-0.8l-0.3-0.1
		H209l-0.2-0.1h-0.1l-0.2-0.1l-0.1-0.1l-0.1-0.2l-0.1-0.1l-0.1-0.2v-2.9l0.1-0.2l0,0v-0.1l0.1-0.1h0.1l0.1-0.1l0.1-0.1h0.1l0.1-0.1
		h0.7l0.2-0.1h0.3l2.2-0.3l1.9-0.2l1.6-0.2l1-0.1l1-0.2h0.6l0.1-0.1h0.3l0.1,0.1h0.1L219,27h0.1l0.1,0.1l0.1,0.1l0.9,0.4l1,0.6
		l1.2,0.7l1.1,0.7l1.1,0.6l0.8,0.5l1.2,0.6l0.6,0.3l0.6,0.5l0.3,0.1l0.1,0.1v0.1h0.1v0.1h0.1v0.1h-0.1v0.1H228.2z"/>
	<line id="Line_94" class="st0" x1="132.6" y1="52.2" x2="132.6" y2="52.1"/>
	<line id="Line_95" class="st0" x1="135.3" y1="52" x2="135.3" y2="52"/>
	<line id="Line_96" class="st0" x1="136.8" y1="51.9" x2="136.8" y2="51.8"/>
	<line id="Line_97" class="st0" x1="194.9" y1="23.8" x2="194.9" y2="23.8"/>
	<line id="Line_98" class="st0" x1="178" y1="23.8" x2="178" y2="23.8"/>
	<line id="Line_99" class="st0" x1="185.8" y1="23.8" x2="185.8" y2="23.8"/>
	<line id="Line_100" class="st0" x1="187.3" y1="23.8" x2="187.3" y2="23.8"/>
	<path id="Path_567" class="st0" d="M2.5,3.2L6,3l0.3-0.1l6.9-0.2"/>
	<line id="Line_101" class="st0" x1="13.2" y1="2.7" x2="16.8" y2="2.5"/>
	<line id="Line_102" class="st0" x1="16.9" y1="4.1" x2="14" y2="4"/>
	<line id="Line_103" class="st0" x1="14" y1="4" x2="12.1" y2="4"/>
	<line id="Line_104" class="st0" x1="12.1" y1="4" x2="9.9" y2="3.9"/>
	<line id="Line_105" class="st0" x1="9.9" y1="3.9" x2="6.5" y2="3.8"/>
	<line id="Line_106" class="st0" x1="6.5" y1="3.8" x2="0" y2="3.3"/>
	<line id="Line_107" class="st0" x1="0" y1="3.3" x2="2.5" y2="3.2"/>
	<path id="Path_568" class="st0" d="M29.8,0l15.1,16.9h1.6"/>
	<path id="Path_569" class="st0" d="M66.5,26.3H67l0.6-0.1h0.5l0.6-0.1l0.5-0.1l0.5-0.1l0.6-0.1"/>
	<path id="Path_570" class="st0" d="M2.4,0.7V3l0.1,0.1v0.1"/>
	<path id="Path_571" class="st0" d="M3.1,3.6L2.9,3.5L2.7,3.4V3.3L2.5,3.2"/>
	<line id="Line_108" class="st0" x1="29.3" y1="28.4" x2="14.8" y2="5.8"/>
	<line id="Line_109" class="st0" x1="22.7" y1="29.1" x2="70.3" y2="26.1"/>
	<line id="Line_110" class="st0" x1="46.2" y1="39.1" x2="42.4" y2="39.6"/>
	<line id="Line_111" class="st0" x1="35.9" y1="40.3" x2="33.6" y2="40.3"/>
	<path id="Path_572" class="st0" d="M33.6,40.3l-12-0.1l0.9-6.9l3.4,0.5l3.4,0.3"/>
	<line id="Line_112" class="st0" x1="29.3" y1="34.1" x2="32.8" y2="34.4"/>
	<line id="Line_113" class="st0" x1="32.8" y1="34.4" x2="37" y2="34.9"/>
	<line id="Line_114" class="st0" x1="37" y1="34.9" x2="41.8" y2="35.3"/>
	<line id="Line_115" class="st0" x1="41.8" y1="35.3" x2="45.3" y2="35.7"/>
	<line id="Line_116" class="st0" x1="45.3" y1="35.7" x2="47.8" y2="36.1"/>
	<line id="Line_117" class="st0" x1="47.8" y1="36.1" x2="49.2" y2="36.2"/>
	<line id="Line_118" class="st0" x1="49.2" y1="36.2" x2="51.5" y2="36.6"/>
	<line id="Line_119" class="st0" x1="51.5" y1="36.6" x2="53.8" y2="36.9"/>
	<line id="Line_120" class="st0" x1="53.8" y1="36.9" x2="55.4" y2="37.2"/>
	<line id="Line_121" class="st0" x1="55.4" y1="37.2" x2="55.9" y2="37.2"/>
	<path id="Path_573" class="st0" d="M55.9,37.2l2.2,0.3l-10.8,1.4"/>
	<path id="Path_574" class="st0" d="M16.1,17.8h1.6l6.5,10.9l-1.6,0.1L16.1,17.8z"/>
	<path id="Path_575" class="st0" d="M9.2,5.8h7.5l1.4,2l-1.3,1.1l0.3,0.5l1.8-0.5l3.7,5.5l-1.5,1.2l0.4,0.6l1.9-0.6l3.7,5.7
		l-1.5,1.2l0.4,0.6l1.9-0.6l4,6h-0.2l-0.1-0.2l-7.3,0.4l-6.6-11h-1.6L9.2,5.8z"/>
	<line id="Line_122" class="st0" x1="71.9" y1="29.6" x2="72" y2="29.5"/>
	<line id="Line_123" class="st0" x1="71.9" y1="29.6" x2="71.9" y2="31"/>
	<line id="Line_124" class="st0" x1="71.9" y1="32.5" x2="72" y2="32.6"/>
	<line id="Line_125" class="st0" x1="71.9" y1="32.5" x2="71.9" y2="31.1"/>
	<line id="Line_126" class="st0" x1="80" y1="31.8" x2="80.1" y2="37.3"/>
	<line id="Line_127" class="st0" x1="70.1" y1="23.5" x2="70.8" y2="25.6"/>
	<line id="Line_128" class="st0" x1="3.9" y1="0" x2="8.2" y2="0"/>
	<line id="Line_129" class="st0" x1="8.2" y1="0" x2="8.2" y2="0"/>
	<line id="Line_130" class="st0" x1="6.6" y1="0" x2="6.6" y2="0"/>
	<line id="Line_131" class="st0" x1="4.2" y1="0" x2="4.3" y2="0"/>
	<line id="Line_132" class="st0" x1="4" y1="0" x2="4" y2="0"/>
	<line id="Line_133" class="st0" x1="2.4" y1="2.1" x2="2.3" y2="2.1"/>
	<path id="Path_576" class="st0" d="M93.4,38.8c0,0-3.1-0.1-4.5-0.1c-1.4-0.1-3.7-0.3-5.5-0.6c-1.7-0.3-5.6-1.3-7.6-1.8
		c-1.9-0.5-5.2-1.5-5.2-1.5l1.8-3.1L72,31.2l0.3-0.8l-1.7-3.1l7.8-2.1c2-0.5,7.5-1.3,11.1-1.7c3.6-0.3,8.2-0.4,10.9-0.4
		c2.5-0.1,5.1,0.1,7.6,0.4c1.1,0.3,2.2,0.2,2.1,2.1c0,1.9,0.1,8.9,0.1,9.4c0,0.6-1.5,1.5-2.3,1.9c-0.8,0.3-4.4,1.1-5.7,1.4L99,38.7"
		/>
	<line id="Line_134" class="st0" x1="79.9" y1="24.8" x2="80" y2="30.3"/>
	<line id="Line_135" class="st0" x1="109" y1="23.8" x2="109.3" y2="36.1"/>
	<path id="Path_577" class="st0" d="M80.8,30.2c0,0-7.2,0.1-7.5,0.1s-1.2,0.3-1.2,0.7c0,0.5,0.6,0.8,1.2,0.8s7.2,0.1,7.4,0.1
		c0.3,0,1.1-0.3,1.1-0.8C82,30.6,81.5,30.2,80.8,30.2z"/>
	<path id="Path_578" class="st0" d="M16.9,4.1c0,0,3,0.1,3.7,0.1s3.2,0,4-0.1c0.8,0,2.8-0.2,3.8-0.3c0.9-0.1,1.7-0.2,2.6-0.4
		c0.4-0.1,1.2-0.7-0.6-1c-1.2-0.1-2.5-0.2-3.7-0.2h-5.8c-1.4,0-2.8,0.1-4.2,0.2"/>
	<path id="Path_579" class="st0" d="M22.5,33.5c-0.1,0-0.3,0-0.4-0.1c-0.1-0.1-1.9-3.1-2.1-3.6c-0.3-0.5,0.1-0.5,0.2-0.5h0.4
		l2.2-0.1"/>
	<path id="Path_580" class="st0" d="M29.8,0h0.8c0.4,0.1,0.8,0.3,1.1,0.6c0.4,0.4,0.8,0.8,1.1,1.2c0.3,0.4,12.8,14.1,13.4,14.7
		c0.8,0.9,1.6,1.7,2.5,2.5c0.8,0.7,1.6,1.3,2.5,1.9c0.8,0.5,1.6,0.9,2.5,1.1c0.8,0.2,2.8,0.4,3.6,0.5s13.3,1,13.3,1l0.6,1.8l0.1,0.2
		l-0.2,0.1l-0.3,0.1"/>
	<path id="Path_581" class="st0" d="M163.6,49.1c0,0-3.6-1.2-4.7-1.6c-1.1-0.5-3.3-1.8-4.6-2.3c-2.2-0.7-4.4-1.3-6.7-1.6
		c-2.1-0.2-15.9-1.4-24.8-1.4c-9,0-16.1,0.6-19.4,0.8"/>
	<path id="Path_582" class="st0" d="M96.4,45.7c-0.7,0.6-1.3,1.3-1.8,2c-0.1,0.6-0.2,1.2-0.2,1.8"/>
	<path id="Path_583" class="st0" d="M120.7,55.7c0.3,0.3,0.5,0.7,0.5,1.2c0,0.9-0.7,1.6-1.6,1.6s-1.6-0.7-1.6-1.6c0,0,0,0,0,0
		c0-0.4,0.2-0.8,0.4-1.1"/>
	<path id="Path_584" class="st0" d="M122.8,55.7c0.1,0.4,0.2,0.8,0.2,1.2c0,1.9-1.4,3.5-3.3,3.5c-0.1,0-0.1,0-0.2,0
		c-1.9,0-3.5-1.5-3.5-3.5c0,0,0,0,0,0c0.1-0.4,0.2-0.9,0.3-1.3"/>
	<circle id="Ellipse_4" class="st0" cx="119.6" cy="56.9" r="0.6"/>
	<circle id="Ellipse_5" class="st0" cx="233.7" cy="55.9" r="1.6"/>
	<circle id="Ellipse_6" class="st0" cx="233.7" cy="55.9" r="2.8"/>
	<circle id="Ellipse_7" class="st0" cx="233.8" cy="55.9" r="0.9"/>
	<path id="Path_585" class="st0" d="M162.4,34.8L162.4,34.8c-0.9,0-1.7-0.8-1.7-1.7v-1.9c0-0.9,0.8-1.7,1.7-1.7l0,0
		c0.9,0,1.7,0.8,1.7,1.7v1.9C164.1,34,163.3,34.8,162.4,34.8z"/>
	<path id="Path_586" class="st0" d="M171.4,34.8L171.4,34.8c-0.9,0-1.7-0.8-1.7-1.7v-1.9c0-0.9,0.8-1.7,1.7-1.7l0,0
		c0.9,0,1.7,0.8,1.7,1.7v1.9C173.1,34,172.4,34.8,171.4,34.8C171.4,34.8,171.4,34.8,171.4,34.8z"/>
	<path id="Path_587" class="st0" d="M180.4,34.9L180.4,34.9c-0.9,0-1.7-0.8-1.7-1.7v-1.9c0-0.9,0.8-1.7,1.7-1.7l0,0
		c0.9,0,1.7,0.8,1.7,1.7v1.9C182.1,34.1,181.3,34.9,180.4,34.9z"/>
	<path id="Path_588" class="st0" d="M189.2,34.9L189.2,34.9c-0.9,0-1.7-0.8-1.7-1.7v-1.9c0-0.9,0.8-1.7,1.7-1.7l0,0
		c0.9,0,1.7,0.8,1.7,1.7v1.9C190.9,34.1,190.2,34.9,189.2,34.9C189.2,34.9,189.2,34.9,189.2,34.9z"/>
	<path id="Path_589" class="st0" d="M153.5,34.8L153.5,34.8c-0.9,0-1.7-0.8-1.7-1.7v-1.9c0-0.9,0.8-1.7,1.7-1.7l0,0
		c0.9,0,1.7,0.8,1.7,1.7v1.9C155.2,34,154.5,34.8,153.5,34.8C153.5,34.8,153.5,34.8,153.5,34.8z"/>
	<path id="Path_590" class="st0" d="M145.9,34.8L145.9,34.8c-0.9,0-1.7-0.8-1.7-1.7v-1.9c0-0.9,0.8-1.7,1.7-1.7l0,0
		c0.9,0,1.7,0.8,1.7,1.7v1.9C147.6,34,146.8,34.8,145.9,34.8z"/>
	<path id="Path_591" class="st0" d="M137.9,34.8L137.9,34.8c-0.9,0-1.7-0.8-1.7-1.7v-1.9c0-0.9,0.8-1.7,1.7-1.7l0,0
		c0.9,0,1.7,0.8,1.7,1.7v1.9C139.6,34,138.8,34.8,137.9,34.8z"/>
	<path id="Path_592" class="st0" d="M130.5,34.7L130.5,34.7c-0.9,0-1.7-0.8-1.7-1.7v-1.9c0-0.9,0.8-1.7,1.7-1.7l0,0
		c0.9,0,1.7,0.8,1.7,1.7V33C132.2,33.9,131.4,34.7,130.5,34.7z"/>
	<path id="Path_593" class="st0" d="M246.4,47.7"/>
	<path id="Path_594" class="st0" d="M246.4,47.7l0.3,2.4l-14.8,0.7l-0.2-2.3"/>
	<line id="Line_136" class="st0" x1="233.2" y1="50.8" x2="233.3" y2="53.1"/>
	<line id="Line_137" class="st0" x1="233.8" y1="50.8" x2="233.9" y2="53"/>
	<path id="Path_595" class="st0" d="M117.6,48.2l-1.1,1.6l-0.1,6l9.4-0.2l-0.4-5l-0.5-0.6l-0.4-1.6"/>
	<path id="Path_596" class="st0" d="M96.5,44.7l-5.3-10.3h2.6c0.9,0,1.5,0.9,2.3,1.6c1,1,2.1,2.2,2.3,2.4s3.5,3.3,5.4,5
		c1,0.9,2.2,1.6,3.4,2.2c1.8,0.6,3.7,0.9,5.6,0.9c4.3,0,12.1-0.5,12.1-0.5l9.7-0.3l5.8-0.1c0.7,0,1.3,0.1,2,0.2L143,46
		c0.4,0.1,0.7,0.3,0.8,0.7c0.2,0.5,0.1,1-0.5,1.1c-4.6,1-16.6,0.5-16.9,0.5c-0.4,0-16.7-0.3-16.7-0.3l-13.3-2.2
		c-0.3,0-0.5-0.4-0.3-0.6c0.6-1.2,1.5-2.2,2.7-2.8"/>
	<path id="Path_597" class="st0" d="M92.3,34.4c0.1,0.1,6.6,8.1,6.6,8.1"/>
</g>
</svg>
