<svg width="219" height="77" viewBox="0 0 219 77" fill="none" xmlns="http://www.w3.org/2000/svg">
<g clip-path="url(#clip0_2205_198)">
<path d="M0.578125 3.35323C0.578125 3.35323 23.845 2.28934 28.9332 2.92536C32.252 3.35323 33.4431 4.98376 33.4431 4.98376C33.4431 4.98376 34.9465 7.29657 28.2624 7.75913C21.5784 8.2217 16.8719 8.40672 10.6157 7.34283C4.35957 6.27894 0.578125 5.40007 0.578125 5.40007V3.35323Z" stroke="black" stroke-width="1.1564" stroke-miterlimit="10"/>
<path d="M207.532 48.7419C207.532 48.7419 207.601 48.7419 207.636 48.6725C208.156 48.2909 208.087 47.8746 207.462 47.7937C206.838 47.7127 206.202 48.4066 206.202 48.4066C205.894 48.7186 205.659 49.0953 205.515 49.5094C205.371 49.9235 205.321 50.3645 205.369 50.8003C205.473 52.4309 205.543 52.9281 206.063 53.1941C206.583 53.4601 206.514 52.9975 206.514 52.6968C206.514 52.3962 206.375 51.6329 206.41 51.2166V50.835C206.434 50.4258 206.547 50.0267 206.741 49.6653C206.935 49.3039 207.204 48.9889 207.532 48.7419Z" stroke="black" stroke-width="1.1564" stroke-miterlimit="10"/>
<path d="M209.76 49.8984L208.962 49.9678H206.719" stroke="black" stroke-width="1.1564" stroke-miterlimit="10"/>
<path d="M211.827 42.5312C219.101 44.925 218.222 46.0005 218.222 46.0005C218.222 46.0005 218.048 48.5446 211.445 49.6431" stroke="black" stroke-width="1.1564" stroke-miterlimit="10"/>
<path d="M28.0547 8.17578L35.5366 17.9011C35.5366 17.9011 37.2481 20.0289 44.1403 20.9772C51.0324 21.9254 87.4476 27.5224 87.4476 27.5224H159.006C159.006 27.5224 161.099 27.2911 166.21 30.3325C173.692 34.7731 177.15 37.2709 177.15 37.2709C177.15 37.2709 198.196 38.4273 208.754 41.5612L210.362 42.0584" stroke="black" stroke-width="1.1564" stroke-miterlimit="10"/>
<path d="M200.289 43.8971C200.289 43.3305 201.099 43.2148 201.099 43.2148C201.099 43.2148 203.296 43.5965 203.296 45.4583C203.296 47.3201 200.925 47.4704 200.925 47.4704C200.925 47.4704 200.289 47.5861 200.289 47.1235" stroke="black" stroke-width="1.1564" stroke-miterlimit="10"/>
<path d="M206.473 52.9746C206.334 53.0556 201.928 56.6288 186.965 56.9642C172.001 57.2996 157.257 57.2764 157.257 57.2764L144.848 57.5424C144.751 57.5495 144.657 57.5768 144.571 57.6226C144.486 57.6684 144.411 57.7317 144.351 57.8084C144.074 58.2941 142.466 59.2886 133.805 59.4389" stroke="black" stroke-width="1.1564" stroke-miterlimit="10"/>
<path d="M126.533 59.4277H123.422" stroke="black" stroke-width="1.1564" stroke-miterlimit="10"/>
<path d="M109.116 57.9933C109.116 57.9933 92.0704 57.045 85.132 55.5648C78.1935 54.0846 63.4609 49.8984 63.4609 49.8984" stroke="black" stroke-width="1.1564" stroke-miterlimit="10"/>
<path d="M43.1206 45.6423L19.0674 41.8031L7.53802 10.638L6 6.49805" stroke="black" stroke-width="1.1564" stroke-miterlimit="10"/>
<path d="M30.7828 43.6658V40.8904L14.5237 10.0723L7.53906 10.6389" stroke="black" stroke-width="1.1564" stroke-miterlimit="10"/>
<path d="M39.875 40.8906L76.5099 49.899C76.5099 49.899 78.1173 50.7779 76.5099 50.9282C74.9025 51.0786 44.836 48.1528 44.836 48.1528L39.875 40.8906Z" stroke="black" stroke-width="1.1564" stroke-miterlimit="10"/>
<path d="M208.445 41.457V49.9335" stroke="black" stroke-width="1.1564" stroke-miterlimit="10"/>
<path d="M159.422 57.2656V60.226H180.677V57.2656" stroke="black" stroke-width="1.1564" stroke-miterlimit="10"/>
<path d="M179.281 65.1738V66.2724" stroke="black" stroke-width="1.1564" stroke-miterlimit="10"/>
<path d="M179.281 62.8965V64.0298" stroke="black" stroke-width="1.1564" stroke-miterlimit="10"/>
<path d="M179.281 60.2246V61.7164" stroke="black" stroke-width="1.1564" stroke-miterlimit="10"/>
<path d="M180.438 65.1738V66.2724" stroke="black" stroke-width="1.1564" stroke-miterlimit="10"/>
<path d="M180.438 62.8965V64.0298" stroke="black" stroke-width="1.1564" stroke-miterlimit="10"/>
<path d="M180.438 60.2246V61.566" stroke="black" stroke-width="1.1564" stroke-miterlimit="10"/>
<path d="M176.305 60.2246L178.617 62.2021" stroke="black" stroke-width="1.1564" stroke-miterlimit="10"/>
<path d="M177.633 60.2246L179.275 61.566" stroke="black" stroke-width="1.1564" stroke-miterlimit="10"/>
<path d="M180.679 62.8959H178.968C178.862 62.8899 178.764 62.843 178.692 62.7653C178.621 62.6875 178.583 62.585 178.586 62.4796V62.0979C178.583 61.9925 178.621 61.89 178.692 61.8122C178.764 61.7345 178.862 61.6876 178.968 61.6816H180.679C180.732 61.6831 180.785 61.6951 180.833 61.7168C180.882 61.7386 180.926 61.7697 180.962 61.8083C180.999 61.847 181.027 61.8925 181.046 61.9422C181.065 61.9919 181.074 62.0448 181.072 62.0979V62.4796C181.074 62.5327 181.065 62.5857 181.046 62.6354C181.027 62.685 180.999 62.7305 180.962 62.7692C180.926 62.8079 180.882 62.8389 180.833 62.8607C180.785 62.8824 180.732 62.8944 180.679 62.8959Z" stroke="black" stroke-width="1.1564" stroke-miterlimit="10"/>
<path d="M180.815 65.1737H178.86C178.827 65.1722 178.794 65.1641 178.764 65.15C178.733 65.1358 178.706 65.1158 178.684 65.0911C178.661 65.0664 178.644 65.0374 178.632 65.006C178.621 64.9745 178.616 64.9411 178.617 64.9077V64.2601C178.616 64.2267 178.621 64.1933 178.632 64.1618C178.644 64.1304 178.661 64.1015 178.684 64.0768C178.706 64.0521 178.733 64.032 178.764 64.0179C178.794 64.0037 178.827 63.9956 178.86 63.9941H180.815C180.849 63.9941 180.883 64.001 180.915 64.0146C180.946 64.0281 180.975 64.0478 180.999 64.0727C181.023 64.0976 181.041 64.127 181.053 64.1592C181.065 64.1914 181.071 64.2257 181.069 64.2601V64.9308C181.061 64.9945 181.032 65.0534 180.985 65.0977C180.939 65.142 180.879 65.1688 180.815 65.1737Z" stroke="black" stroke-width="1.1564" stroke-miterlimit="10"/>
<path d="M181.07 62.1328L183.198 63.2661L181.07 64.7116" stroke="black" stroke-width="1.1564" stroke-miterlimit="10"/>
<path d="M180.158 70.6088C180.426 70.6088 180.643 70.3707 180.643 70.0769C180.643 69.7831 180.426 69.5449 180.158 69.5449C179.889 69.5449 179.672 69.7831 179.672 70.0769C179.672 70.3707 179.889 70.6088 180.158 70.6088Z" stroke="black" stroke-width="1.1564" stroke-miterlimit="10"/>
<path d="M180.153 74.1831C182.235 74.1831 183.923 72.3452 183.923 70.0779C183.923 67.8106 182.235 65.9727 180.153 65.9727C178.071 65.9727 176.383 67.8106 176.383 70.0779C176.383 72.3452 178.071 74.1831 180.153 74.1831Z" stroke="black" stroke-width="1.1564" stroke-miterlimit="10"/>
<path d="M180.159 72.0545C181.162 72.0545 181.975 71.1692 181.975 70.0771C181.975 68.9849 181.162 68.0996 180.159 68.0996C179.157 68.0996 178.344 68.9849 178.344 70.0771C178.344 71.1692 179.157 72.0545 180.159 72.0545Z" stroke="black" stroke-width="1.1564" stroke-miterlimit="10"/>
<path d="M111.359 39.2949H115.199L124.855 43.7124C124.855 43.7124 133.308 43.6314 133.308 45.7592C133.308 47.2394 113.314 45.4123 113.314 45.4123L113.452 43.7818L111.359 39.2949Z" stroke="black" stroke-width="1.1564" stroke-miterlimit="10"/>
<path d="M133.203 45.3418L143.171 53.9686C143.171 53.9686 144.212 55.7494 141.807 56.5127C139.175 57.1848 136.502 57.6793 133.804 57.9929" stroke="black" stroke-width="1.1564" stroke-miterlimit="10"/>
<path d="M111.359 50.9629L113.348 45.4121" stroke="black" stroke-width="1.1564" stroke-miterlimit="10"/>
<path d="M110.242 54.0378L111.121 51.6094" stroke="black" stroke-width="1.1564" stroke-miterlimit="10"/>
<path d="M109.047 57.3462L109.96 54.7559" stroke="black" stroke-width="1.1564" stroke-miterlimit="10"/>
<path d="M108.805 58.0281L108.943 57.6465" stroke="black" stroke-width="1.1564" stroke-miterlimit="10"/>
<path d="M120.073 45.9434L118.523 51.3438" stroke="black" stroke-width="1.1564" stroke-miterlimit="10"/>
<path d="M130.688 46.3242L139.927 56.9978" stroke="black" stroke-width="1.1564" stroke-miterlimit="10"/>
<path d="M126.257 55.0684H133.808L133.519 64.5277L131.391 66.9215C131.391 66.9215 129.506 62.8625 126.188 63.8108L126.361 59.3586" stroke="black" stroke-width="1.1564" stroke-miterlimit="10"/>
<path d="M126.984 71.3958C128.299 71.3958 129.366 70.2413 129.366 68.8171C129.366 67.3928 128.299 66.2383 126.984 66.2383C125.668 66.2383 124.602 67.3928 124.602 68.8171C124.602 70.2413 125.668 71.3958 126.984 71.3958Z" stroke="black" stroke-width="1.1564" stroke-miterlimit="10"/>
<path d="M126.981 73.8364C129.53 73.8364 131.595 71.5894 131.595 68.8176C131.595 66.0458 129.53 63.7988 126.981 63.7988C124.433 63.7988 122.367 66.0458 122.367 68.8176C122.367 71.5894 124.433 73.8364 126.981 73.8364Z" stroke="black" stroke-width="1.1564" stroke-miterlimit="10"/>
<path d="M110.977 50.9629L126.218 51.4948C126.095 52.1316 125.741 52.7007 125.225 53.0932C124.709 53.4858 124.066 53.6742 123.419 53.6226C120.899 53.6226 113.012 53.3567 113.012 53.3567C112.468 53.2145 111.981 52.9086 111.617 52.4804C111.253 52.0522 111.029 51.5224 110.977 50.9629Z" stroke="black" stroke-width="1.1564" stroke-miterlimit="10"/>
<path d="M109.688 54.0039L126.814 54.3855C126.814 54.3855 125.38 56.9296 123.345 57.0106C121.309 57.0915 112.047 56.814 111.665 56.7446C111.171 56.4409 110.742 56.0423 110.402 55.572C110.063 55.1016 109.82 54.5686 109.688 54.0039Z" stroke="black" stroke-width="1.1564" stroke-miterlimit="10"/>
<path d="M108.805 57.2754L124.185 57.5414C124.185 57.5414 123.56 60.5365 121.745 60.5365C119.929 60.5365 111.777 60.3861 111.777 60.3861C111.777 60.3861 109.753 60.2358 108.805 57.2754Z" stroke="black" stroke-width="1.1564" stroke-miterlimit="10"/>
<path d="M202.567 43.8613H196.866C197.203 43.921 197.504 44.108 197.706 44.3837C197.909 44.6593 197.997 45.0024 197.953 45.3415C197.984 45.6979 197.883 46.0532 197.67 46.3406C197.457 46.6281 197.147 46.8279 196.797 46.9027H202.579" stroke="black" stroke-width="1.1564" stroke-miterlimit="10"/>
<path d="M196.866 43.8613C196.866 43.8613 195.224 43.9307 195.258 45.3762C195.293 46.8217 196.831 46.8564 196.831 46.8564" stroke="black" stroke-width="1.1564" stroke-miterlimit="10"/>
<path d="M167.436 31.0957H164.926C164.926 31.0957 164.336 31.3617 164.926 31.8474C165.516 32.3331 172.2 37.3172 172.2 37.3172C172.2 37.3172 173.171 37.9647 173.599 37.5484C174.227 37.079 174.893 36.6613 175.588 36.2995" stroke="black" stroke-width="1.1564" stroke-miterlimit="10"/>
<path d="M168.837 35.8359L167.75 38.912H170.063C170.441 38.9196 170.811 38.8016 171.115 38.5766L171.601 38.2297C171.644 38.2057 171.68 38.1705 171.706 38.1278C171.731 38.0851 171.744 38.0364 171.744 37.9869C171.744 37.9373 171.731 37.8886 171.706 37.8459C171.68 37.8032 171.644 37.768 171.601 37.744L168.837 35.8359Z" stroke="black" stroke-width="1.1564" stroke-miterlimit="10"/>
<path d="M167.993 35.2693L164.524 32.7599C163.94 32.3423 163.241 32.116 162.523 32.1123H161.367C160.882 32.0997 160.401 32.207 159.967 32.4246C159.47 32.6443 158.984 32.9912 158.984 33.4884C158.984 34.2054 158.984 35.5353 158.984 36.2985C158.981 36.6534 159.051 37.0052 159.19 37.3316C159.33 37.658 159.535 37.952 159.794 38.195C160.343 38.6768 161.052 38.9365 161.783 38.9235H166.501L167.993 35.2693Z" stroke="black" stroke-width="1.1564" stroke-miterlimit="10"/>
<path d="M104.333 40.0916C105.566 40.0916 106.565 38.7818 106.565 37.1659C106.565 35.5501 105.566 34.2402 104.333 34.2402C103.101 34.2402 102.102 35.5501 102.102 37.1659C102.102 38.7818 103.101 40.0916 104.333 40.0916Z" stroke="black" stroke-width="1.1564" stroke-miterlimit="10"/>
<path d="M119.294 40.0916C120.527 40.0916 121.526 38.7818 121.526 37.1659C121.526 35.5501 120.527 34.2402 119.294 34.2402C118.062 34.2402 117.062 35.5501 117.062 37.1659C117.062 38.7818 118.062 40.0916 119.294 40.0916Z" stroke="black" stroke-width="1.1564" stroke-miterlimit="10"/>
<path d="M129.888 40.0916C131.121 40.0916 132.12 38.7818 132.12 37.1659C132.12 35.5501 131.121 34.2402 129.888 34.2402C128.655 34.2402 127.656 35.5501 127.656 37.1659C127.656 38.7818 128.655 40.0916 129.888 40.0916Z" stroke="black" stroke-width="1.1564" stroke-miterlimit="10"/>
<path d="M139.927 40.0916C141.16 40.0916 142.159 38.7818 142.159 37.1659C142.159 35.5501 141.16 34.2402 139.927 34.2402C138.695 34.2402 137.695 35.5501 137.695 37.1659C137.695 38.7818 138.695 40.0916 139.927 40.0916Z" stroke="black" stroke-width="1.1564" stroke-miterlimit="10"/>
<path d="M111.086 50.9615L111.19 46.6365H110.277V29.834C110.277 29.834 89.022 29.9496 88.6057 29.834V52.488C88.6057 52.488 88.1547 53.6444 89.9355 53.7716C91.7164 53.8988 94.168 53.7716 94.168 53.7716" stroke="black" stroke-width="1.1564" stroke-miterlimit="10"/>
<path d="M110.278 46.6367C110.278 46.6367 101.709 47.7931 97.6618 50.395C93.6144 52.9969 94.1926 54.6159 94.1926 54.6159C94.1926 54.6159 94.1926 56.2811 96.4245 56.5124C98.6563 56.7437 108.833 57.5763 108.833 57.5763" stroke="black" stroke-width="1.1564" stroke-miterlimit="10"/>
<path d="M153.097 53.3668H145.788C145.608 53.3594 145.43 53.3164 145.266 53.2403C145.102 53.1641 144.954 53.0564 144.832 52.9232C144.709 52.79 144.614 52.634 144.552 52.4641C144.49 52.2941 144.462 52.1136 144.47 51.9329V31.2795C144.454 30.9133 144.584 30.5557 144.831 30.2849C145.078 30.0141 145.422 29.852 145.788 29.834H153.097C153.279 29.8414 153.458 29.8847 153.624 29.9614C153.789 30.0381 153.938 30.1467 154.061 30.281C154.185 30.4152 154.281 30.5725 154.343 30.7439C154.406 30.9152 154.434 31.0972 154.427 31.2795V51.956C154.436 52.3191 154.301 52.6711 154.052 52.9354C153.803 53.1996 153.46 53.3547 153.097 53.3668Z" stroke="black" stroke-width="1.1564" stroke-miterlimit="10"/>
<path d="M211.695 45.3761C211.695 44.9597 212.701 25.3934 212.701 25.3934C212.701 25.3934 212.921 24.237 211.799 24.3295C210.678 24.422 210.227 26.5267 210.227 26.5267C210.227 26.5267 210.227 36.4139 210.227 36.7146C210.227 37.2118 210.608 45.0754 210.608 45.0754C210.608 45.0754 210.504 45.9427 211.024 45.8386C211.165 45.8195 211.299 45.7677 211.415 45.6874C211.532 45.607 211.628 45.5004 211.695 45.3761Z" stroke="black" stroke-width="1.1564" stroke-miterlimit="10"/>
<path d="M211.41 48.8348C211.41 48.8348 211.792 64.9319 211.179 65.7067C210.566 66.4815 210.347 66.5393 209.572 66.204C209.121 66.0074 209.259 64.3075 209.19 63.2783C209.155 62.8357 209.155 62.391 209.19 61.9484L209.896 48.8695C209.896 48.8695 209.815 48.6035 210.693 48.6035C211.572 48.6035 211.41 48.8348 211.41 48.8348Z" stroke="black" stroke-width="1.1564" stroke-miterlimit="10"/>
<path d="M127.124 69.3139H126.766C126.723 69.3124 126.681 69.3025 126.643 69.2849C126.604 69.2672 126.569 69.2421 126.54 69.2109C126.511 69.1798 126.488 69.1432 126.474 69.1034C126.459 69.0635 126.452 69.0211 126.453 68.9785V68.5969C126.45 68.5099 126.481 68.425 126.539 68.3602C126.597 68.2955 126.679 68.2559 126.766 68.25H127.113C127.199 68.2559 127.281 68.2955 127.339 68.3602C127.397 68.425 127.428 68.5099 127.425 68.5969V68.9785C127.428 69.0625 127.398 69.1445 127.342 69.2071C127.286 69.2696 127.208 69.308 127.124 69.3139Z" stroke="black" stroke-width="1.1564" stroke-miterlimit="10"/>
<path d="M7.10938 4.79807C7.10938 4.79807 22.5936 3.08659 25.4962 4.68243C28.3988 6.27827 23.646 6.27827 23.646 6.27827C23.646 6.27827 10.5786 5.95447 7.10938 4.79807Z" stroke="black" stroke-width="1.1564" stroke-miterlimit="10"/>
<path d="M124.79 56.5469L124.016 58.1774" stroke="black" stroke-width="1.1564" stroke-miterlimit="10"/>
</g>
<defs>
<clipPath id="clip0_2205_198">
<rect width="218.838" height="76.9" fill="white"/>
</clipPath>
</defs>
</svg>
