<svg width="415" height="115" viewBox="0 0 415 115" fill="none" xmlns="http://www.w3.org/2000/svg">
<g clip-path="url(#clip0_2205_181)">
<path d="M138.25 73.271C138.25 73.271 148.95 73.271 154.85 72.271C160.65 71.271 161.05 69.771 161.05 69.571C161.05 69.371 161.55 54.771 161.65 51.471C161.75 48.171 145.05 47.671 132.05 47.471C122.05 47.371 93.35 50.571 92.35 50.871C91.35 51.071 91.15 51.571 91.15 51.571L90.75 64.571C90.75 64.571 107.45 69.371 109.45 69.571C111.55 69.671 118.95 71.371 118.95 71.371" stroke="black" stroke-width="0.9" stroke-miterlimit="1.415" stroke-linecap="round" stroke-linejoin="round"/>
<path d="M48.9531 58.6719L91.2531 54.6719" stroke="black" stroke-width="0.9" stroke-miterlimit="1.415" stroke-linecap="round" stroke-linejoin="round"/>
<path d="M161.85 52.8719L197.85 53.5719C196.65 53.4719 259.45 55.6719 263.45 56.2719C264.45 56.3719 328.65 58.8719 329.95 58.8719C331.15 58.8719 360.05 60.7719 361.25 60.9719C367.95 61.8719 373.55 62.2719 378.65 65.3719C382.255 67.7566 385.605 70.5042 388.65 73.5719C393.507 75.4191 398.249 77.5563 402.85 79.9719C408.25 83.0719 413.85 86.4719 414.05 87.7719C414.15 88.4719 412.45 89.6719 410.85 90.2719C403.634 93.2068 396.013 95.0276 388.25 95.6719C382.35 96.1719 351.75 94.8719 348.85 94.6719C342.15 94.2719 303.35 95.0719 303.35 95.0719C298.45 95.6719 280.25 98.2719 278.15 98.4719C276.85 98.5719 256.05 100.372 244.15 99.5719C241.55 99.3719 222.45 98.3719 220.65 98.3719C218.85 98.3719 192.35 96.1719 191.25 96.0719C190.15 95.9719 178.35 94.6719 170.75 92.5719C167.35 91.5719 121.45 82.6719 119.35 82.2719C117.25 81.8719 66.75 68.7719 64.85 68.2719C61.85 67.3719 50.55 63.6719 49.35 63.1719L47.75 59.0719L50.75 58.2719L33.65 13.3719C32.7776 12.8178 31.8362 12.3807 30.85 12.0719C29.85 11.7719 25.35 10.0719 22.75 9.17188" stroke="black" stroke-width="0.9" stroke-miterlimit="1.415" stroke-linecap="round" stroke-linejoin="round"/>
<path d="M15.8531 6.47151C15.5531 6.07151 15.4531 6.17151 15.4531 5.57151C15.4566 5.11799 15.6184 4.67993 15.9106 4.33302C16.2027 3.98611 16.6068 3.75213 17.0531 3.67151C18.0531 3.57151 50.7531 -0.228491 59.8531 0.571509C68.9531 1.27151 73.8531 2.1715 76.0531 8.0715C78.2531 13.8715 78.7531 16.7715 79.6531 17.7715C80.5531 18.7715 97.4531 41.2715 101.253 42.9715C105.053 44.6715 119.553 47.3715 119.553 47.3715L121.953 47.7715" stroke="black" stroke-width="0.9" stroke-miterlimit="1.415" stroke-linecap="round" stroke-linejoin="round"/>
<path d="M378.95 103.872H379.45L379.65 104.372M372.65 95.972C372.73 95.972 372.807 95.9954 372.873 96.0394C372.938 96.0833 372.99 96.1458 373.02 96.2189C373.05 96.292 373.058 96.3724 373.043 96.45C373.027 96.5276 372.989 96.5989 372.933 96.6548C372.877 96.7108 372.806 96.7489 372.728 96.7643C372.651 96.7797 372.57 96.7718 372.497 96.7415C372.424 96.7113 372.362 96.66 372.318 96.5942C372.274 96.5284 372.25 96.4511 372.25 96.372C372.257 96.2682 372.302 96.1705 372.375 96.0969C372.449 96.0234 372.547 95.979 372.65 95.972ZM372.65 95.972L381.85 95.672C381.961 95.6911 382.064 95.7378 382.152 95.8077C382.239 95.8777 382.308 95.9686 382.35 96.072C382.35 96.272 382.15 96.572 381.95 96.572L372.75 96.872C372.647 96.865 372.549 96.8206 372.475 96.747C372.402 96.6735 372.357 96.5758 372.35 96.472C372.15 96.272 372.35 96.072 372.65 95.972ZM381.75 67.572H377.45C375.65 67.572 376.65 68.272 376.65 68.272L383.25 73.872H389.55M381.35 109.272C381.726 109.272 382.094 109.383 382.406 109.592C382.718 109.801 382.962 110.098 383.106 110.445C383.25 110.792 383.287 111.174 383.214 111.543C383.141 111.911 382.96 112.25 382.694 112.515C382.428 112.781 382.09 112.962 381.721 113.035C381.353 113.109 380.971 113.071 380.623 112.927C380.276 112.784 379.979 112.54 379.771 112.228C379.562 111.915 379.45 111.548 379.45 111.172C379.442 110.92 379.485 110.669 379.578 110.435C379.67 110.201 379.81 109.988 379.988 109.81C380.166 109.631 380.379 109.492 380.613 109.399C380.848 109.307 381.099 109.263 381.35 109.272ZM381.25 107.772C381.903 107.772 382.541 107.966 383.084 108.328C383.627 108.691 384.049 109.206 384.299 109.809C384.549 110.412 384.614 111.076 384.487 111.716C384.36 112.356 384.045 112.944 383.584 113.405C383.122 113.867 382.534 114.181 381.894 114.309C381.254 114.436 380.591 114.371 379.988 114.121C379.385 113.871 378.869 113.448 378.507 112.905C378.144 112.363 377.95 111.725 377.95 111.072C377.946 110.637 378.028 110.206 378.192 109.804C378.356 109.401 378.599 109.035 378.907 108.728C379.214 108.421 379.58 108.178 379.982 108.014C380.385 107.849 380.816 107.767 381.25 107.772ZM381.35 106.372L381.75 107.672L380.45 107.772V106.472L381.35 106.372ZM376.95 96.072C377.029 96.0765 377.102 96.1096 377.158 96.1649C377.213 96.2202 377.246 96.2939 377.25 96.372C377.256 96.4127 377.253 96.4543 377.24 96.4934C377.227 96.5324 377.205 96.5679 377.176 96.5971C377.146 96.6262 377.111 96.6481 377.072 96.6611C377.033 96.6741 376.991 96.6778 376.95 96.672C376.872 96.6675 376.799 96.6344 376.743 96.5791C376.688 96.5238 376.655 96.4501 376.65 96.372C376.75 96.172 376.85 96.072 376.95 96.072ZM381.75 95.872C381.81 95.872 381.868 95.8896 381.917 95.9225C381.966 95.9555 382.005 96.0024 382.028 96.0572C382.05 96.112 382.056 96.1723 382.045 96.2305C382.033 96.2887 382.005 96.3421 381.963 96.3841C381.921 96.4261 381.867 96.4546 381.809 96.4662C381.751 96.4778 381.69 96.4718 381.636 96.4491C381.581 96.4264 381.534 96.388 381.501 96.3386C381.468 96.2893 381.45 96.2313 381.45 96.172C381.55 95.972 381.65 95.872 381.75 95.872ZM379.85 104.772L380.25 106.372L382.15 106.272L381.75 104.772H379.85ZM379.85 104.072V104.672L381.65 104.572L381.55 103.772L379.85 104.072ZM381.65 103.972L379.55 104.172L379.25 101.372L381.35 100.972L381.65 103.972ZM368.15 67.372C366.75 67.272 367.05 68.772 367.05 68.772C367.05 68.772 368.95 71.372 369.85 72.372C370.85 73.372 371.15 73.272 371.35 73.272C371.45 73.272 378.65 73.472 379.55 73.472C380.55 73.472 380.85 73.172 380.75 72.872C380.75 72.572 375.95 68.572 375.35 67.972C374.797 67.5749 374.131 67.3647 373.45 67.372C373.45 67.372 369.75 67.472 368.15 67.372Z" stroke="black" stroke-width="0.9" stroke-linecap="round" stroke-linejoin="round"/>
<path d="M377.255 111.571C374.355 110.671 379.655 105.671 379.655 105.671M379.655 105.671L371.555 96.3715L371.955 95.2715C371.955 95.2715 378.055 95.3715 378.355 95.3715C378.555 95.4715 382.555 95.3715 382.955 95.3715C383.355 95.3715 374.355 95.7715 374.355 95.7715C374.355 95.7715 373.255 95.6715 373.255 96.1715C373.155 96.6715 374.855 98.0715 375.055 98.2715C375.255 98.5715 380.955 104.171 380.955 104.171L379.655 105.671ZM380.155 99.5715C380.855 99.5715 381.355 99.8715 381.355 100.471C381.355 101.071 380.755 101.271 380.055 101.271C379.355 101.271 378.855 101.071 378.855 100.471C378.855 99.7715 379.455 99.5715 380.155 99.5715ZM381.955 104.971C383.055 104.971 383.955 105.171 383.955 105.771C383.955 106.271 382.955 106.471 381.855 106.471C380.655 106.471 379.855 106.271 379.855 105.771C379.755 105.271 380.855 104.971 381.955 104.971Z" stroke="black" stroke-width="0.9" stroke-linecap="round" stroke-linejoin="round"/>
<path d="M379.955 96.8711L379.555 99.0711L380.855 99.1711L380.955 96.8711H379.955Z" stroke="black" stroke-width="0.9" stroke-linecap="round" stroke-linejoin="round"/>
<path d="M195.556 96.4719L195.356 101.572L189.456 104.072L189.756 106.472C189.756 106.472 206.856 106.772 207.056 106.672C207.256 106.572 207.356 99.3719 207.356 98.8719C207.252 98.3531 207.084 97.8493 206.856 97.3719M244.156 86.0719C245.204 86.7961 246.348 87.3685 247.556 87.7719C249.956 88.6719 250.056 90.2719 249.456 91.4719C248.856 92.6719 244.656 92.8719 244.656 92.8719C242.556 92.9719 144.656 78.2719 144.656 78.2719C142.476 78.0284 140.368 77.3482 138.456 76.2719C135.756 74.5719 117.956 57.0719 117.956 57.0719M280.156 93.6719C277.856 94.3719 270.556 95.0719 269.456 95.2719C267.656 95.5719 236.356 96.3719 233.856 96.1719C231.356 96.0719 215.656 94.7719 213.756 94.7719C211.856 94.7719 199.456 93.2719 199.456 93.2719C199.456 93.2719 128.856 76.8719 125.656 76.5719C122.456 76.2719 121.356 74.4719 121.356 74.4719L104.656 50.2719C104.656 50.2719 107.256 50.1719 108.556 50.1719C109.856 50.1719 111.556 51.8719 111.556 51.8719L142.456 76.6719C142.456 76.6719 229.256 86.1719 230.256 86.1719C231.256 86.1719 251.756 85.7719 253.156 85.8719C254.456 85.9719 265.456 86.2719 266.656 86.2719C267.856 86.2719 276.156 87.5719 277.456 87.7719C278.756 87.8719 283.656 89.4719 283.656 90.6719C283.556 91.7719 281.656 93.2719 280.156 93.6719Z" stroke="black" stroke-width="0.9" stroke-miterlimit="1.415" stroke-linecap="round" stroke-linejoin="round"/>
<path d="M200.452 107.071C200.452 108.026 200.072 108.942 199.397 109.617C198.722 110.292 197.806 110.671 196.852 110.671C195.897 110.671 194.981 110.292 194.306 109.617C193.631 108.942 193.252 108.026 193.252 107.071M203.752 107.171C203.752 108.948 203.046 110.652 201.789 111.909C200.533 113.165 198.829 113.871 197.052 113.871C195.245 113.803 193.535 113.034 192.284 111.728C191.034 110.421 190.341 108.68 190.352 106.871" stroke="black" stroke-width="0.9" stroke-linecap="round" stroke-linejoin="round"/>
<path d="M140.453 86.1707C142.053 85.3707 151.853 82.2707 151.853 82.2707M170.653 79.7707C170.653 79.7707 175.953 79.0707 177.553 78.8707C179.153 78.6707 203.953 78.4707 205.553 78.4707C207.153 78.4707 256.953 79.4707 256.953 79.4707C256.953 79.4707 274.953 79.4707 286.253 80.0707C293.397 80.4817 300.491 81.519 307.453 83.1707C307.453 83.1707 307.253 91.8707 306.553 92.2707C305.853 92.6707 285.053 97.4707 285.053 97.4707" stroke="black" stroke-width="0.9" stroke-miterlimit="1.415" stroke-linecap="round" stroke-linejoin="round"/>
<path d="M341.455 89.5707C341.444 89.8277 341.486 90.0842 341.576 90.3249C341.667 90.5657 341.805 90.7858 341.982 90.9723C342.159 91.1588 342.372 91.3078 342.608 91.4106C342.843 91.5134 343.097 91.5678 343.355 91.5707L351.855 91.7707C352.112 91.7678 352.366 91.7134 352.602 91.6106C352.837 91.5078 353.05 91.3588 353.227 91.1723C353.405 90.9858 353.543 90.7657 353.633 90.5249C353.724 90.2842 353.765 90.0277 353.755 89.7707L354.155 65.1707C354.165 64.9137 354.124 64.6572 354.033 64.4165C353.943 64.1757 353.805 63.9556 353.627 63.7691C353.45 63.5826 353.237 63.4336 353.002 63.3308C352.766 63.228 352.512 63.1736 352.255 63.1707L343.755 62.9707C343.497 62.9736 343.243 63.028 343.008 63.1308C342.772 63.2336 342.559 63.3826 342.382 63.5691C342.205 63.7556 342.067 63.9757 341.976 64.2165C341.886 64.4572 341.844 64.7137 341.855 64.9707L341.455 89.5707Z" stroke="black" stroke-width="0.9" stroke-linecap="round" stroke-linejoin="round"/>
<path d="M65.0547 67.8711L65.6547 57.1711M149.855 72.8711L150.755 48.3711M159.155 71.0711L160.055 49.8711M147.155 73.3711L147.055 76.7711M162.055 78.5711C162.055 78.5711 162.155 71.9711 162.355 69.6711C162.555 67.3711 161.055 67.4711 161.055 67.4711M198.255 64.0711C201.255 64.0711 203.755 65.9711 203.755 68.2711C203.755 70.5711 201.355 72.4711 198.255 72.4711C195.255 72.4711 192.755 70.5711 192.755 68.2711C192.855 65.8711 195.255 64.0711 198.255 64.0711ZM216.455 64.7711C219.455 64.7711 221.955 66.6711 221.955 68.9711C221.955 71.2711 219.555 73.1711 216.455 73.1711C213.455 73.1711 210.955 71.2711 210.955 68.9711C211.055 66.6711 213.455 64.7711 216.455 64.7711ZM234.655 65.6711C237.655 65.6711 240.155 67.5711 240.155 69.8711C240.155 72.1711 237.755 74.0711 234.655 74.0711C231.655 74.0711 229.155 72.1711 229.155 69.8711C229.155 67.5711 231.655 65.6711 234.655 65.6711ZM253.155 66.3711C256.155 66.3711 258.655 68.2711 258.655 70.5711C258.655 72.8711 256.255 74.7711 253.155 74.7711C250.155 74.7711 247.655 72.8711 247.655 70.5711C247.655 68.1711 250.155 66.3711 253.155 66.3711ZM271.055 67.0711C274.055 67.0711 276.555 68.9711 276.555 71.2711C276.555 73.5711 274.155 75.4711 271.055 75.4711C268.055 75.4711 265.555 73.5711 265.555 71.2711C265.555 68.9711 268.055 67.0711 271.055 67.0711ZM289.455 67.7711C292.455 67.7711 294.955 69.6711 294.955 71.9711C294.955 74.2711 292.455 76.1711 289.455 76.1711C286.455 76.1711 283.955 74.2711 283.955 71.9711C283.955 69.6711 286.455 67.8711 289.455 67.7711ZM307.855 68.5711C310.855 68.5711 313.355 70.4711 313.355 72.7711C313.355 75.0711 310.955 76.9711 307.855 76.9711C304.855 76.9711 302.355 75.0711 302.355 72.7711C302.355 70.4711 304.855 68.5711 307.855 68.5711ZM326.055 69.2711C329.055 69.2711 331.555 71.1711 331.555 73.4711C331.555 75.7711 329.155 77.6711 326.055 77.6711C323.055 77.6711 320.555 75.7711 320.555 73.4711C320.555 71.1711 323.055 69.2711 326.055 69.2711Z" stroke="black" stroke-width="0.9" stroke-miterlimit="1.415" stroke-linecap="round" stroke-linejoin="round"/>
<path d="M100.552 67.2707L80.8516 65.6707L81.4516 58.9707L90.8516 57.4707" stroke="black" stroke-width="0.9" stroke-miterlimit="1.415" stroke-linecap="round" stroke-linejoin="round"/>
<path d="M79.7531 55.5723C79.7531 55.5723 72.2531 47.6723 67.8531 41.8723C63.4531 36.0723 50.7531 10.7723 50.7531 10.7723M49.3531 7.57227L46.3531 1.07227M90.1531 38.0723L93.6531 35.3723M80.0531 18.1723L77.2531 20.6723L98.9531 49.8723M65.7531 8.57226L55.5531 7.57227C51.8531 7.77227 13.0531 6.17226 12.0531 6.17226C11.0531 6.17226 0.453125 7.17226 0.453125 7.17226C0.453125 7.17226 20.0531 8.87227 21.7531 8.97227C42.1531 10.2723 63.8531 11.7723 67.5531 11.5723C67.9531 11.6723 65.7531 8.57226 65.7531 8.57226Z" stroke="black" stroke-width="0.9" stroke-miterlimit="1.415" stroke-linecap="round" stroke-linejoin="round"/>
<path d="M228.45 65.2723C228.45 64.8723 229.35 64.5723 230.45 64.5723L239.35 64.7723C240.45 64.7723 241.35 65.1723 241.35 65.5723L241.15 74.4723C241.15 74.8723 240.25 75.1723 239.15 75.1723L230.25 74.9723C229.15 74.9723 228.25 74.5723 228.25 74.1723L228.45 65.2723ZM246.75 65.7723C246.75 65.3723 247.65 65.0723 248.75 65.0723L257.55 65.2723C258.65 65.2723 259.45 65.6723 259.45 66.0723L259.25 74.9723C259.25 75.3723 258.35 75.6723 257.25 75.6723L248.45 75.4723C247.35 75.4723 246.45 75.0723 246.55 74.6723L246.75 65.7723Z" stroke="black" stroke-width="0.9" stroke-linecap="round" stroke-linejoin="round"/>
</g>
<defs>
<clipPath id="clip0_2205_181">
<rect width="414.508" height="114.821" fill="white"/>
</clipPath>
</defs>
</svg>
