<?xml version="1.0" encoding="UTF-8"?>
<svg id="Capa_1" data-name="Capa 1" xmlns="http://www.w3.org/2000/svg" viewBox="0 0 890.58 265.93">
  <defs>
    <style>
      .cls-1 {
        fill: #010101;
      }
    </style>
  </defs>
  <path class="cls-1" d="M808.51,32.53h28.94V7.18h20.53v25.35h28.94v19.5h-28.94v25.35h-20.53v-25.35h-28.94v-19.5Zm7.39,151.17h73.07v21.55h-98.72V118.64h96.67v21.55h-71.02v11.49h57.98v19.5h-57.98v12.52Zm-29.15-97.08h-97.7V0h25.66V65.07h72.04v21.55Zm-61.89,61.47c0-5.13-3.28-7.9-11.18-7.9h-43.72v15.8h43.72c7.9,0,11.18-2.77,11.18-7.9m-17.55,28.94h-37.35v28.22h-25.66V118.64h68.35c26.17,0,38.9,12.83,38.9,29.15,0,11.7-7.08,20.42-19.81,24.84l26.07,32.64h-28.74l-21.76-28.22Zm-130.54-111.97h73.07v21.55h-98.73V0h96.67V21.55h-71.02v11.49h57.98v19.5h-57.98v12.52Zm2.87,101.19v-47.62h25.66v48.64c0,26.48-17.65,40.03-53.57,40.03s-53.57-13.55-53.57-40.03v-48.64h25.66v47.62c0,12.93,8,18.47,27.92,18.47s27.91-5.54,27.91-18.47m-103.14-79.64h-23.09L401.07,0h28.94l35.3,59.32L500.62,0h28.22l-52.34,86.62Zm-29.05,59.11c-19.7-6.77-30.38-8.52-43.31-8.52-16.32,0-19.91,2.67-19.91,6.36,0,2.67,2.05,4.21,8.83,4.82l37.46,3.18c25.86,2.15,34.89,12.73,34.89,26.79,0,16.62-18.06,28.94-54.7,28.94-16.63,0-38.79-3.49-58.29-9.95l13.55-21.14c19.29,7.08,37.77,10.26,51.21,10.26,17.65,0,21.55-2.77,21.55-6.26,0-2.77-1.95-4.92-9.65-5.64l-36.43-3.39c-24.73-2.26-34.07-11.6-34.07-25.66,0-14.88,14.06-28.94,50.6-28.94,15.91,0,32.63,3.08,50.8,9.75l-12.52,19.4Zm-87.03-94.31l-15.39-26.68-15.39,26.68h30.79Zm-44.54,153.84h-25.66V118.64h25.66v86.62Zm56.44-133.31h-54.6l-8.52,14.68h-27.71L333.85,0h23.09l52.34,86.62h-28.43l-8.52-14.68ZM232.86,29.45c0-5.13-3.28-7.9-11.19-7.9h-43.72v15.8h43.72c7.9,0,11.19-2.77,11.19-7.9m-54.9,154.25h73.07v21.55h-98.73V118.64h96.68v21.55h-71.02v11.49h57.98v19.5h-57.98v12.52Zm37.36-125.31h-37.36v28.22h-25.66V0h68.35c26.17,0,38.9,12.83,38.9,29.15,0,11.7-7.08,20.42-19.81,24.84l26.07,32.64h-28.74l-21.76-28.22ZM118.43,205.26H20.73V118.64h25.66v65.07H118.43v21.55ZM0,0H118.43V21.55h-46.39V86.62h-25.66V21.55H0V0Z"/>
  <path class="cls-1" d="M876.27,265.43h14.32v-7.05h-7.14v-23.36h-7.18v30.41Zm-35.9-5.91c-1.35,0-1.77-.89-1.77-3.25v-12.29c0-2.37,.42-3.29,1.77-3.29s1.77,.84,1.77,3.29v12.29c0,2.45-.42,3.25-1.77,3.25m0,6.38c3.55,0,6.34-1.22,7.86-3.89,.72-1.35,1.14-3.04,1.14-5.19v-13.18c0-6.21-3.67-9.08-9-9.08s-9,2.87-9,9.08v13.18c0,6.38,3.51,9.08,9,9.08m-47.81-.46v-13.6l-.17-3,.51,1.73,5.49,14.87h6.08v-30.41h-6.25v13.81l.13,2.75-.46-1.69-5.36-14.87h-6.21v30.41h6.25Zm-3.38-31.97h3.93c0-1.14,.25-1.65,.72-1.65,.84,0,1.73,.76,2.87,1.31,.55,.34,1.22,.46,1.94,.46,2.83,0,3.84-1.52,3.84-6.72h-3.97c0,1.06-.17,1.48-.8,1.48s-1.52-.72-2.7-1.22c-.55-.3-1.27-.42-1.99-.42-2.87,0-3.84,1.65-3.84,6.76m-39.91,22.85l1.18-7.35,.3-3.8,.3,3.8,1.22,7.35h-3Zm3.93,5.79l.55,3.34h6.93l-6.5-30.41h-6.84l-6.38,30.41h6.88l.55-3.34h4.81Zm-45.82-21.29h1.44c1.35,0,1.98,.68,1.98,2.11v4.9c0,1.48-.68,2.24-2.03,2.24h-1.39v-9.25Zm0,15.29h1.77c6.17,0,8.62-3,8.62-8.11v-5.36c0-5.15-2.45-7.6-8.62-7.6h-8.57v30.41h6.8v-9.33Zm-41.85,9.84c5.87,0,8.62-2.62,8.62-7.77v-3.13c0-3.13-1.35-5.03-3.17-6.38-.89-.68-1.86-1.27-2.75-1.77-2.15-1.18-4.05-2.07-4.05-3.76v-1.01c0-1.35,.38-1.94,1.44-1.94,1.14,0,1.44,.46,1.44,1.94v2.83h6.76v-3.29c0-4.69-2.79-7.14-8.15-7.14s-8.45,2.37-8.45,7.64v1.56c0,3,1.27,4.86,3.04,6.21,.84,.68,1.77,1.27,2.66,1.77,2.2,1.22,4.22,2.32,4.22,4.31v1.9c0,1.18-.25,1.9-1.44,1.9-1.31,0-1.6-.72-1.6-1.9v-4.18h-7.14v4.31c0,5.28,2.24,7.9,8.57,7.9m-34.54-.51v-6.5h-8.02v-5.66h7.05v-6.34h-7.05v-5.66h7.9v-6.25h-14.74v30.41h14.87Zm-85.39,0v-13.6l-.17-3,.51,1.73,5.49,14.87h6.08v-30.41h-6.25v13.81l.13,2.75-.46-1.69-5.36-14.87h-6.21v30.41h6.25Zm-32.82,0v-6.5h-8.02v-5.66h7.05v-6.34h-7.05v-5.66h7.9v-6.25h-14.74v30.41h14.87Z"/>
</svg>