<svg width="40" height="40" viewBox="0 0 40 40" fill="none" xmlns="http://www.w3.org/2000/svg">
<path d="M19.9861 39.1339H19.9C9.13781 39.1339 0.381836 30.3754 0.381836 19.61V19.5239C0.381836 8.75855 9.13781 0 19.9 0H19.9861C30.7483 0 39.5042 8.75855 39.5042 19.5239V19.61C39.5042 30.3754 30.7483 39.1339 19.9861 39.1339ZM19.9 1.32464C9.86747 1.32464 1.70609 9.48843 1.70609 19.5239V19.61C1.70609 29.6455 9.86747 37.8093 19.9 37.8093H19.9861C30.0186 37.8093 38.18 29.6455 38.18 19.61V19.5239C38.18 9.48843 30.0186 1.32464 19.9861 1.32464H19.9Z" fill="white"/>
<path d="M10.0575 13.2296C9.55954 12.7673 9.31192 12.195 9.31192 11.5142C9.31192 10.8333 9.56086 10.2359 10.0575 9.77224C10.5554 9.30994 11.1963 9.07812 11.9816 9.07812C12.7669 9.07812 13.3827 9.30994 13.8793 9.77224C14.3772 10.2345 14.6248 10.8161 14.6248 11.5142C14.6248 12.2122 14.3759 12.7673 13.8793 13.2296C13.3813 13.6919 12.7497 13.9237 11.9816 13.9237C11.2135 13.9237 10.5554 13.6919 10.0575 13.2296ZM14.2063 15.8815V30.0552H9.72905V15.8815H14.2063Z" fill="white"/>
<path d="M29.1099 17.282C30.0858 18.3417 30.5732 19.7961 30.5732 21.648V29.8051H26.321V22.2229C26.321 21.289 26.0787 20.5631 25.5953 20.0465C25.112 19.5299 24.4605 19.2702 23.6447 19.2702C22.829 19.2702 22.1774 19.5286 21.6941 20.0465C21.2107 20.5631 20.9684 21.289 20.9684 22.2229V29.8051H16.6911V15.8421H20.9684V17.6939C21.4014 17.0766 21.9854 16.5892 22.7191 16.2302C23.4527 15.8712 24.2777 15.6924 25.1954 15.6924C26.8295 15.6924 28.1352 16.2222 29.1099 17.282Z" fill="white"/>
</svg>
