<svg width="40" height="40" viewBox="0 0 40 40" fill="none" xmlns="http://www.w3.org/2000/svg">
<path d="M19.8485 39.1339H19.7625C9.00028 39.1339 0.244324 30.3754 0.244324 19.61V19.5239C0.244324 8.75852 9.00028 0 19.7625 0H19.8485C30.6107 0 39.3667 8.75852 39.3667 19.5239V19.61C39.3667 30.3754 30.6107 39.1339 19.8485 39.1339ZM19.7625 1.32464C9.72994 1.32464 1.56858 9.48839 1.56858 19.5239V19.61C1.56858 29.6455 9.72994 37.8092 19.7625 37.8092H19.8485C29.8811 37.8092 38.0424 29.6455 38.0424 19.61V19.5239C38.0424 9.48839 29.8811 1.32464 19.8485 1.32464H19.7625Z" fill="white"/>
<path d="M8.57249 9.22266L17.2887 20.8795L8.51819 30.3573H10.4927L18.172 22.0598L24.3761 30.3573H31.094L21.8878 18.0448L30.0518 9.22266H28.0774L21.0059 16.8645L15.2917 9.22266H8.5738H8.57249ZM11.4752 10.6771H14.5607L28.1886 28.9029H25.1031L11.4752 10.6771Z" fill="white"/>
</svg>
