<svg width="40" height="40" viewBox="0 0 40 40" fill="none" xmlns="http://www.w3.org/2000/svg">
<path d="M19.7269 39.1339H19.6408C8.87863 39.1339 0.122681 30.3754 0.122681 19.61V19.5239C0.122681 8.75852 8.87863 0 19.6408 0H19.7269C30.4891 0 39.245 8.75852 39.245 19.5239V19.61C39.245 30.3754 30.4891 39.1339 19.7269 39.1339ZM19.6408 1.32464C9.6083 1.32464 1.44693 9.48839 1.44693 19.5239V19.61C1.44693 29.6455 9.6083 37.8092 19.6408 37.8092H19.7269C29.7594 37.8092 37.9208 29.6455 37.9208 19.61V19.5239C37.9208 9.48839 29.7594 1.32464 19.7269 1.32464H19.6408Z" fill="white"/>
<path d="M25.5325 8.35449H13.8367C10.6055 8.35449 7.97687 10.9839 7.97687 14.216V24.9191C7.97687 28.1512 10.6055 30.7807 13.8367 30.7807H25.5325C28.7636 30.7807 31.3923 28.1512 31.3923 24.9191V14.216C31.3923 10.9839 28.7636 8.35449 25.5325 8.35449ZM10.044 14.216C10.044 12.1244 11.7457 10.4222 13.8367 10.4222H25.5325C27.6235 10.4222 29.3251 12.1244 29.3251 14.216V24.9191C29.3251 27.0107 27.6235 28.7129 25.5325 28.7129H13.8367C11.7457 28.7129 10.044 27.0107 10.044 24.9191V14.216Z" fill="white"/>
<path d="M19.685 25.0187C22.6897 25.0187 25.1356 22.5734 25.1356 19.5665C25.1356 16.5595 22.6911 14.1143 19.685 14.1143C16.6789 14.1143 14.2344 16.5595 14.2344 19.5665C14.2344 22.5734 16.6789 25.0187 19.685 25.0187ZM19.685 16.1833C21.5509 16.1833 23.0685 17.7014 23.0685 19.5678C23.0685 21.4342 21.5509 22.9523 19.685 22.9523C17.8191 22.9523 16.3015 21.4342 16.3015 19.5678C16.3015 17.7014 17.8191 16.1833 19.685 16.1833Z" fill="white"/>
<path d="M25.6395 14.9947C26.4486 14.9947 27.1081 14.3364 27.1081 13.5257C27.1081 12.715 26.4499 12.0566 25.6395 12.0566C24.829 12.0566 24.1709 12.715 24.1709 13.5257C24.1709 14.3364 24.829 14.9947 25.6395 14.9947Z" fill="white"/>
</svg>
