<svg width="40" height="40" viewBox="0 0 40 40" fill="none" xmlns="http://www.w3.org/2000/svg">
<path d="M19.6042 39.1339H19.5181C8.75595 39.1339 0 30.3754 0 19.61V19.5239C0 8.75855 8.75595 0 19.5181 0H19.6042C30.3664 0 39.1224 8.75855 39.1224 19.5239V19.61C39.1224 30.3754 30.3664 39.1339 19.6042 39.1339ZM19.5181 1.32464C9.48561 1.32464 1.32425 9.48843 1.32425 19.5239V19.61C1.32425 29.6455 9.48561 37.8092 19.5181 37.8092H19.6042C29.6367 37.8092 37.7981 29.6455 37.7981 19.61V19.5239C37.7981 9.48843 29.6367 1.32464 19.6042 1.32464H19.5181Z" fill="white"/>
<path d="M22.1924 15.1788V19.2971H27.2855L26.479 24.8447H22.1924V37.6262C21.3329 37.7454 20.4536 37.8077 19.5611 37.8077C18.5308 37.8077 17.5191 37.7255 16.5339 37.5666V24.8447H11.8367V19.2971H16.5339V14.2582C16.5339 11.132 19.0671 8.59668 22.1937 8.59668V8.59933C22.203 8.59933 22.2109 8.59668 22.2202 8.59668H27.2868V13.3945H23.9761C22.9922 13.3945 22.1937 14.1933 22.1937 15.1775L22.1924 15.1788Z" fill="white"/>
</svg>
