<svg width="40" height="40" viewBox="0 0 40 40" fill="none" xmlns="http://www.w3.org/2000/svg">
<path d="M19.8745 39.0266C9.11764 39.0266 0.366974 30.2734 0.366974 19.5133C0.366974 8.75324 9.11764 0 19.8745 0C30.6314 0 39.3821 8.75324 39.3821 19.5133C39.3821 30.2734 30.6314 39.0266 19.8745 39.0266ZM19.8745 1.32464C9.84862 1.32464 1.69123 9.48444 1.69123 19.5133C1.69123 29.5422 9.84862 37.702 19.8745 37.702C29.9004 37.702 38.0578 29.5422 38.0578 19.5133C38.0578 9.48444 29.9004 1.32464 19.8745 1.32464Z" fill="white"/>
<path d="M31.7404 15.6072C31.592 14.1753 31.2729 12.5923 30.0983 11.7604C29.1885 11.1153 27.9927 11.0915 26.8764 11.0928C24.5166 11.0941 22.1554 11.0968 19.7956 11.0981C17.5258 11.1008 15.2561 11.1021 12.9863 11.1048C12.0381 11.1061 11.1165 11.0319 10.2358 11.4425C9.47968 11.7949 8.88774 12.4651 8.53152 13.2109C8.03757 14.2481 7.93429 15.4231 7.87469 16.5702C7.76478 18.6592 7.7767 20.7535 7.9078 22.8411C8.00447 24.3644 8.24945 26.048 9.42671 27.019C10.4702 27.8787 11.9428 27.9211 13.2962 27.9224C17.592 27.9264 21.8893 27.9304 26.1865 27.933C26.7373 27.9343 27.3121 27.9237 27.8735 27.8628C28.978 27.7436 30.0307 27.427 30.7405 26.6084C31.457 25.7831 31.641 24.6346 31.7496 23.5471C32.0145 20.9084 32.0118 18.2446 31.7404 15.6072ZM17.3113 23.212V15.8139L23.7154 19.5122L17.3113 23.212Z" fill="white"/>
</svg>
