<svg id="Layer_1" data-name="Layer 1" xmlns="http://www.w3.org/2000/svg" viewBox="0 0 623.62 311.81"><path d="M110.41,202.55h8.7c3.23,0,5,2,5,4.51a4,4,0,0,1-3.07,4.05,4.36,4.36,0,0,1,3.42,4.35c0,2.73-1.83,4.78-5.15,4.78h-8.93Zm8.06,7.32a2.3,2.3,0,1,0,0-4.59h-5v4.59Zm.13,7.64a2.39,2.39,0,0,0,2.71-2.47,2.43,2.43,0,0,0-2.71-2.44h-5.09v4.91Z"/><polygon points="144.94 202.55 140.11 210.13 135.23 202.55 131.68 202.55 138.55 212.89 138.55 220.24 141.65 220.24 141.65 212.89 148.49 202.55 144.94 202.55"/><polygon points="169.57 202.55 169.57 205.28 174.93 205.28 174.93 220.24 178.03 220.24 178.03 205.28 183.4 205.28 183.4 202.55 169.57 202.55"/><polygon points="192.75 202.55 192.75 220.24 204.87 220.24 204.87 217.5 195.86 217.5 195.86 212.6 204.69 212.6 204.69 209.87 195.86 209.87 195.86 205.28 204.87 205.28 204.87 202.55 192.75 202.55"/><polygon points="226.2 202.55 221.66 209.05 217.1 202.55 213.39 202.55 219.62 211.16 212.99 220.24 216.7 220.24 221.66 213.31 226.62 220.24 230.34 220.24 223.73 211.14 229.94 202.55 226.2 202.55"/><polygon points="237.92 202.55 237.92 205.28 243.28 205.28 243.28 220.24 246.38 220.24 246.38 205.28 251.74 205.28 251.74 202.55 237.92 202.55"/><path d="M267.28,213.63h-3.07v6.61H261.1V202.55h7.77c3.5,0,5.78,2.28,5.78,5.54a5,5,0,0,1-4.19,5.2l4.33,7h-3.58Zm1.17-8.35h-4.24v5.62h4.24a2.82,2.82,0,1,0,0-5.62"/><path d="M292.74,202.25a9.15,9.15,0,1,1-9,9.15,8.78,8.78,0,0,1,9-9.15m0,2.76c-3.58,0-5.86,2.73-5.86,6.39s2.28,6.39,5.86,6.39,5.86-2.75,5.86-6.39-2.31-6.39-5.86-6.39"/><polygon points="323.75 202.55 323.75 215.09 314.7 202.55 311.52 202.55 311.52 220.24 314.62 220.24 314.62 207.35 323.85 220.24 326.85 220.24 326.85 202.55 323.75 202.55"/><path d="M357.93,205.17l3.32,8.94h-6.63ZM356,202.55l-6.95,17.68h3.39l1.3-3.39h8.38l1.3,3.39h3.39l-6.94-17.68Z"/><polygon points="386.55 202.55 381.19 216.87 375.83 202.55 372.31 202.55 379.26 220.24 383.13 220.24 390.08 202.55 386.55 202.55"/><rect x="398.75" y="202.55" width="3.1" height="17.69"/><path d="M419.38,205.17l3.32,8.94h-6.63Zm-1.93-2.62-6.95,17.68h3.39l1.3-3.39h8.38l1.3,3.39h3.4l-6.95-17.68Z"/><polygon points="434.08 202.55 434.08 205.28 439.43 205.28 439.43 220.24 442.53 220.24 442.53 205.28 447.89 205.28 447.89 202.55 434.08 202.55"/><rect x="457.26" y="202.55" width="3.1" height="17.69"/><path d="M479.11,202.25a9.15,9.15,0,1,1-9,9.15,8.78,8.78,0,0,1,9-9.15m0,2.76c-3.58,0-5.86,2.73-5.86,6.39s2.28,6.39,5.86,6.39S485,215,485,211.4s-2.31-6.39-5.86-6.39"/><polygon points="510.11 202.55 510.11 215.09 501.07 202.55 497.89 202.55 497.89 220.24 500.99 220.24 500.99 207.35 510.22 220.24 513.21 220.24 513.21 202.55 510.11 202.55"/><rect x="106.61" y="183.07" width="410.41" height="0.89"/><path d="M218.19,94.86l-31,68.82H154s11.89-26,12.65-27.45l1.6-3.44c6.94-3.18,13.56-5.47,16.65-5.49,5.63-.06,5.77,2,6,3s.76.45.76.45a8.76,8.76,0,0,0,1.07-4.62c-1.14-7.56-13.17-9.06-13.17-9.06a20.55,20.55,0,0,0-2-3.8l8.74-18.44Zm192.2,69.9c-14.69,0-24.63-7.68-17.12-24,7.21-15.73,23.69-25.55,38.55-25.55,16.63,0,24.74,10.9,15.44,28.67h-33c-1.76,3.84-3.12,8.12,1.64,8.12,2.36,0,4.91-1.69,6.37-3.92h22.09c-8.24,11.43-23.24,16.7-34,16.7M418.78,134h10.64c1.47-3.21.55-6.16-2.71-6.16-3.43,0-6.42,2.86-7.93,6.16m82.08-18.84L490,138.59c-1.74-1.43-2.91-2.59-5.85-2.59-6,0-10.69,3.57-13.43,9.46l-8.5,18.22h-23l22.1-47.42h23l-3.49,6.35h.54c7-6.26,11.84-7.6,19.53-7.42M383.79,139.48l7,24.2H363.68l-1.53-17.41h-.54l-8.11,17.41h-23l19.76-42.41L313,163.68H294.46l4.64-21.07h-.63l-3.49,5-11.86,16.06H264.27l2.58-42.12-19.63,42.12h-22.6l3.64-6.25h-.55c-6.28,4.47-11.36,7.33-17.88,7.33-12.86,0-13.93-13-8.56-24.56,5.57-12,18.88-25,32.28-25,5.71,0,9.49,2.06,10.72,6.7h.54l1.9-5.63h44.74l-6.82,26.35h.72l4.82-7.86,13.17-18.49h15.09l-6.11,26.35h.54l4.82-7.86,12.72-18.49h22.16l11.64-25h23l-19.84,42.6h.52l3.75-4,13.48-13.58H412Zm-150.43-6.25c-3.66,0-7.4,3-9,6.52-1.75,3.75-1.46,7,2.74,7,4.38,0,7.78-3.48,9.49-7.14s.45-6.34-3.21-6.34m-72.43,4.58-12.86,25.87H122.76c2.67-2.59,20-15.1,29.55-21.94a96.16,96.16,0,0,1,9.58-5.77Zm5-20.71c.06.25.5.37.5.37l2.66.85s.44.19-.05.89c-1.51,2.18-3.5,3.78-7.57,3.78s-6.09-2.19-6.09-5.32c0-2.28,2-4.38,4.59-5.34l16.38,4.29v.31l-9.69,0s-.76,0-.73.19M142.45,107l5.62-12.1h32.82l-7.29,15.58c-16.92-8.73-31.15-3.48-31.15-3.48"/></svg>