<svg xmlns="http://www.w3.org/2000/svg" width="401.7" height="103.807" viewBox="0 0 401.7 103.807">
  <g id="Global_express_5000_1_" transform="translate(-11.75 -125.743)">
    <path id="Path_423" data-name="Path 423" d="M218,215.7a7.578,7.578,0,0,1,3.1,6.2,7.78,7.78,0,0,1-4.9,7.2h-5.5a7.712,7.712,0,0,1-1.9-13.4" fill="none" stroke="#fff" stroke-linecap="round" stroke-linejoin="round" stroke-miterlimit="10" stroke-width="0.9"/>
    <path id="Path_424" data-name="Path 424" d="M218,215.7a7.578,7.578,0,0,1,3.1,6.2,7.78,7.78,0,0,1-4.9,7.2h-5.5a7.712,7.712,0,0,1-1.9-13.4" fill="none" stroke="#fff" stroke-linecap="round" stroke-linejoin="round" stroke-width="0.9"/>
    <path id="Path_425" data-name="Path 425" d="M215.7,221.8a2.1,2.1,0,1,0-2.1,2.1,2.112,2.112,0,0,0,2.1-2.1" fill="none" stroke="#fff" stroke-linecap="round" stroke-linejoin="round" stroke-miterlimit="10" stroke-width="0.9"/>
    <path id="Path_426" data-name="Path 426" d="M215.7,221.8a2.1,2.1,0,1,0-2.1,2.1A2.112,2.112,0,0,0,215.7,221.8Z" fill="none" stroke="#fff" stroke-linecap="round" stroke-linejoin="round" stroke-width="0.9"/>
    <path id="Path_427" data-name="Path 427" d="M367.9,181c-.3,0-.5.1-.5.4l1.3,4.5c.1.3.2.4.4.4H381l-5.3-5.4h-7.8" fill="none" stroke="#fff" stroke-linecap="round" stroke-linejoin="round" stroke-miterlimit="10" stroke-width="0.9"/>
    <path id="Path_428" data-name="Path 428" d="M391.1,186.3l-8.2-5.3h-5.1l5.3,5.3h8" fill="none" stroke="#fff" stroke-linecap="round" stroke-linejoin="round" stroke-miterlimit="10" stroke-width="0.9"/>
    <path id="Path_429" data-name="Path 429" d="M31,132.5a3.422,3.422,0,0,0,1.1,1.7l12.8,3.1L73.7,181c0-.2,21.8-2.4,21.8-2.4l1.5-.3c25.8-2.8,31.1-3,43.4-4.2v-3.3" fill="none" stroke="#fff" stroke-linecap="round" stroke-linejoin="round" stroke-width="0.9"/>
    <path id="Path_430" data-name="Path 430" d="M140.5,170.8V169c-15.4-1.3-16.4-1.3-26.3-9.6L83.8,131.8s-3.4-5.4-13.6-5.6c-10.1-.1-14.5.4-37.7,4.6,0,0-1.7.4-1.4,1.7" fill="none" stroke="#fff" stroke-linecap="round" stroke-linejoin="round" stroke-width="0.9"/>
    <path id="Path_431" data-name="Path 431" d="M46.5,139l20.1,2.9,28.1,33.3L91,179" fill="none" stroke="#fff" stroke-linecap="round" stroke-linejoin="round" stroke-width="0.9"/>
    <path id="Path_432" data-name="Path 432" d="M13.9,137.8l-1.7.4s6.9.6,25.3-.3c16.1-.8,38.9-2.9,38.9-2.9a14.756,14.756,0,0,0,5.2-1.2" fill="none" stroke="#fff" stroke-linecap="round" stroke-linejoin="round" stroke-miterlimit="10" stroke-width="0.9"/>
    <path id="Path_433" data-name="Path 433" d="M13.9,137.8l-1.7.4s6.9.6,25.3-.3c16.1-.8,38.9-2.9,38.9-2.9a14.756,14.756,0,0,0,5.2-1.2" fill="none" stroke="#fff" stroke-linecap="round" stroke-linejoin="round" stroke-miterlimit="20" stroke-width="0.9"/>
    <path id="Path_434" data-name="Path 434" d="M81.6,133.8c.5-.3.9-.6.9-1.1,0-.9-2.7-1.9-5.4-1.9,0,0-16.3-2.6-44.5,2.4l-18.8,4.6" fill="none" stroke="#fff" stroke-linecap="round" stroke-linejoin="round" stroke-miterlimit="10" stroke-width="0.9"/>
    <path id="Path_435" data-name="Path 435" d="M81.6,133.8c.5-.3.9-.6.9-1.1,0-.9-2.7-1.9-5.4-1.9,0,0-16.3-2.6-44.5,2.4l-18.8,4.6" fill="none" stroke="#fff" stroke-linecap="round" stroke-linejoin="round" stroke-miterlimit="20" stroke-width="0.9"/>
    <path id="Path_436" data-name="Path 436" d="M101,184.8v3.8a58.95,58.95,0,0,1-10.7-1Z" fill="none" stroke="#fff" stroke-linecap="round" stroke-linejoin="round" stroke-width="0.9"/>
    <line id="Line_41" data-name="Line 41" x1="8.6" y2="2.2" transform="translate(92.1 185.3)" fill="none" stroke="#fff" stroke-linecap="round" stroke-linejoin="round" stroke-width="0.9"/>
    <path id="Path_437" data-name="Path 437" d="M298.1,209.5a23,23,0,0,1,3.1-.9c1.1-.3.3-1.4-.8-2.1-.6-.4-12.9-10.9-27.5-10.9,0,0-54.3.3-86,4.1-20.8,2.5-29.9,3.2-29.9,3.2s-4.8.9-6.9,2.2c0,0-2.4,1.6,5.4,3.1" fill="none" stroke="#fff" stroke-linecap="round" stroke-linejoin="round" stroke-width="0.9"/>
    <path id="Path_438" data-name="Path 438" d="M284.5,205c.7.8.3,1.6-2.6,2.4-3.7,1.1-20.7,4.8-20.7,4.8s-3.2,1-18.5,1" fill="none" stroke="#fff" stroke-linecap="round" stroke-linejoin="round" stroke-width="0.9"/>
    <path id="Path_439" data-name="Path 439" d="M183.6,204.9l47.3-3.5c-.9-.1,28.8-1.5,31.7-1.1,3.7.5,7,2.7,7.5,5.1m14.4-.4a7.935,7.935,0,0,0-2.8-1.6c-3.8-1.6-9.3-2.7-19.1-3.2" fill="none" stroke="#fff" stroke-linecap="round" stroke-linejoin="round" stroke-width="0.9"/>
    <path id="Path_440" data-name="Path 440" d="M182.6,204.9l5.2,7c14.3-1.5,22.7.4,29.6.4s20.9,2,38.9.4c11.4-1,14.7-4.4,14-7.3" fill="none" stroke="#fff" stroke-linecap="round" stroke-linejoin="round" stroke-width="0.9"/>
    <path id="Path_441" data-name="Path 441" d="M136,198.2l91,2.5s3.6,0,9,.6c2.8.3,4.1,1.1,4.3,2" fill="none" stroke="#fff" stroke-linecap="round" stroke-linejoin="round" stroke-miterlimit="10" stroke-width="0.9"/>
    <path id="Path_442" data-name="Path 442" d="M136,198.2l91,2.5s3.6,0,9,.6c2.8.3,4.1,1.1,4.3,2" fill="none" stroke="#fff" stroke-linecap="round" stroke-linejoin="round" stroke-width="0.9"/>
    <path id="Path_443" data-name="Path 443" d="M240.2,203.3c.3,1-.8,2-2.2,2.4a46.414,46.414,0,0,1-9.4,1.1H211.7c-3.3,0-17.8-3.1-29.1-1.8l-12.3-2.6L136,199.8v-1.7" fill="none" stroke="#fff" stroke-linecap="round" stroke-linejoin="round" stroke-miterlimit="10" stroke-width="0.9"/>
    <path id="Path_444" data-name="Path 444" d="M240.2,203.3c.3,1-.8,2-2.2,2.4a46.414,46.414,0,0,1-9.4,1.1H211.7c-3.3,0-17.8-3.1-29.1-1.8l-12.3-2.6L136,199.8v-1.7" fill="none" stroke="#fff" stroke-linecap="round" stroke-linejoin="round" stroke-width="0.9"/>
    <path id="Path_445" data-name="Path 445" d="M47.1,137.3s15,3.4,24.3,2.2" fill="none" stroke="#fff" stroke-linecap="round" stroke-linejoin="round" stroke-miterlimit="10" stroke-width="0.9"/>
    <path id="Path_446" data-name="Path 446" d="M47.1,137.3s15,3.4,24.3,2.2" fill="none" stroke="#fff" stroke-linecap="round" stroke-linejoin="round" stroke-width="0.9"/>
    <path id="Path_447" data-name="Path 447" d="M413,200.4c0,.8-.8,1.4-1.4,1.8-9.8,6.5-35.2,7.4-35.2,7.4H298.3s-34.4,5.7-42.9,5.8c-7.2.1-40.4,0-59.1,0a102.394,102.394,0,0,1-12.7-1c-10-2.1-27.8-6.5-30.7-6.9-44.8-7-74.2-15.2-93.1-19v-5.8c.1,0,.6-.1,1.2-.2" fill="none" stroke="#fff" stroke-linecap="round" stroke-linejoin="round" stroke-width="0.9"/>
    <path id="Path_448" data-name="Path 448" d="M95,178.8c39.5-4.9,69.5-6.1,69.5-6.1h189c20.9,0,28.6,7.9,28.6,7.9l9.8,6.4c13.5,6.3,20,11.8,20,11.8.7.7,1,1,1,1.7" fill="none" stroke="#fff" stroke-linecap="round" stroke-linejoin="round" stroke-width="0.9"/>
    <path id="Path_449" data-name="Path 449" d="M73.7,181.1c-5.4.6-10.4,1.1-12.7,1.4m34-3.7s-11.5,1.2-21.3,2.3" fill="none" stroke="#fff" stroke-linecap="round" stroke-linejoin="round" stroke-width="0.9"/>
    <path id="Path_450" data-name="Path 450" d="M165.3,187.1l-.8-13.4s0-1-2.1-1.6-22.4-5.5-67,6.3v10.5" fill="none" stroke="#fff" stroke-linecap="round" stroke-linejoin="round" stroke-miterlimit="10" stroke-width="0.9"/>
    <path id="Path_451" data-name="Path 451" d="M165.3,187.1l-.8-13.4s0-1-2.1-1.6-22.4-5.5-67,6.3v10.5" fill="none" stroke="#fff" stroke-linecap="round" stroke-linejoin="round" stroke-width="0.9"/>
    <path id="Path_452" data-name="Path 452" d="M95.3,188.9v2s25.4,7.3,48,5.5c0,0,19-1.4,20.9-4.3,0,0,1.1-.4,1.2-2.5l-.1-2.4" fill="none" stroke="#fff" stroke-linecap="round" stroke-linejoin="round" stroke-miterlimit="10" stroke-width="0.9"/>
    <path id="Path_453" data-name="Path 453" d="M95.3,188.9v2s25.4,7.3,48,5.5c0,0,19-1.4,20.9-4.3,0,0,1.1-.4,1.2-2.5l-.1-2.4" fill="none" stroke="#fff" stroke-linecap="round" stroke-linejoin="round" stroke-width="0.9"/>
    <path id="Path_454" data-name="Path 454" d="M127.5,198.4l-10.7-18.5h4.5l20.5,18.4a8.071,8.071,0,0,0,4.4,2.4l-17.3-1.2c.1-.1-.8,0-1.4-1.1" fill="none" stroke="#fff" stroke-linecap="round" stroke-linejoin="round" stroke-miterlimit="10" stroke-width="0.9"/>
    <path id="Path_455" data-name="Path 455" d="M127.5,198.4l-10.7-18.5h4.5l20.5,18.4a8.071,8.071,0,0,0,4.4,2.4l-17.3-1.2C129,199.4,128.1,199.5,127.5,198.4Z" fill="none" stroke="#fff" stroke-linecap="round" stroke-linejoin="round" stroke-width="0.9"/>
    <path id="Path_456" data-name="Path 456" d="M51.2,131.2l-23.1,5.3H20.2" fill="none" stroke="#fff" stroke-linecap="round" stroke-linejoin="round" stroke-width="0.9"/>
    <rect id="Rectangle_1" data-name="Rectangle 1" width="1.5" height="3.4" transform="translate(376.5 214.6)" fill="none" stroke="#fff" stroke-linecap="round" stroke-linejoin="round" stroke-miterlimit="10" stroke-width="0.9"/>
    <rect id="Rectangle_2" data-name="Rectangle 2" width="1.5" height="3.4" transform="translate(376.5 214.6)" fill="none" stroke="#fff" stroke-linecap="round" stroke-linejoin="round" stroke-width="0.9"/>
    <rect id="Rectangle_3" data-name="Rectangle 3" width="1.6" height="5.8" transform="translate(376.5 217.4)" fill="none" stroke="#fff" stroke-linecap="round" stroke-linejoin="round" stroke-miterlimit="10" stroke-width="0.9"/>
    <rect id="Rectangle_4" data-name="Rectangle 4" width="1.6" height="5.8" transform="translate(376.5 217.4)" fill="none" stroke="#fff" stroke-linecap="round" stroke-linejoin="round" stroke-width="0.9"/>
    <rect id="Rectangle_5" data-name="Rectangle 5" width="10.8" height="0.4" transform="translate(372.477 219.831) rotate(-68.93)" fill="none" stroke="#fff" stroke-linecap="round" stroke-linejoin="round" stroke-miterlimit="10" stroke-width="0.9"/>
    <rect id="Rectangle_6" data-name="Rectangle 6" width="10.8" height="0.4" transform="translate(372.477 219.831) rotate(-68.93)" fill="none" stroke="#fff" stroke-linecap="round" stroke-linejoin="round" stroke-width="0.9"/>
    <rect id="Rectangle_7" data-name="Rectangle 7" width="1" height="4.8" transform="translate(376.7 209.8)" fill="none" stroke="#fff" stroke-linecap="round" stroke-linejoin="round" stroke-miterlimit="10" stroke-width="0.9"/>
    <rect id="Rectangle_8" data-name="Rectangle 8" width="1" height="4.8" transform="translate(376.7 209.8)" fill="none" stroke="#fff" stroke-linecap="round" stroke-linejoin="round" stroke-width="0.9"/>
    <path id="Path_457" data-name="Path 457" d="M376.6,227.2a2.1,2.1,0,1,1,2.1-2.1,2.182,2.182,0,0,1-2.1,2.1" fill="none" stroke="#fff" stroke-linecap="round" stroke-linejoin="round" stroke-miterlimit="10" stroke-width="0.9"/>
    <path id="Path_458" data-name="Path 458" d="M371.3,222.7h0l4.2-3.3c0-.2.2-.3.4-.3a.4.4,0,1,1,0,.8l-4.4,3,3.8,1.9h.1a.536.536,0,0,1,.5.5.458.458,0,0,1-.5.4.52.52,0,0,1-.4-.2l-3.7-2.3h-.1a.265.265,0,0,1-.3-.3c.1,0,.2-.2.4-.2" fill="none" stroke="#fff" stroke-linecap="round" stroke-linejoin="round" stroke-miterlimit="10" stroke-width="0.9"/>
    <path id="Path_459" data-name="Path 459" d="M371.3,222.7h0l4.2-3.3c0-.2.2-.3.4-.3a.4.4,0,1,1,0,.8l-4.4,3,3.8,1.9h.1a.536.536,0,0,1,.5.5.458.458,0,0,1-.5.4.52.52,0,0,1-.4-.2l-3.7-2.3h-.1a.265.265,0,0,1-.3-.3C371,222.9,371.1,222.7,371.3,222.7Z" fill="none" stroke="#fff" stroke-linecap="round" stroke-linejoin="round" stroke-width="0.9"/>
    <path id="Path_460" data-name="Path 460" d="M375.7,228.5a3.494,3.494,0,0,1-2.3-3.4,3.6,3.6,0,0,1,7.2,0,3.737,3.737,0,0,1-2.3,3.4h-2.6" fill="none" stroke="#fff" stroke-linecap="round" stroke-linejoin="round" stroke-miterlimit="10" stroke-width="0.9"/>
    <path id="Path_461" data-name="Path 461" d="M375.7,228.5a3.494,3.494,0,0,1-2.3-3.4,3.6,3.6,0,0,1,7.2,0,3.737,3.737,0,0,1-2.3,3.4Z" fill="none" stroke="#fff" stroke-linecap="round" stroke-linejoin="round" stroke-width="0.9"/>
    <path id="Path_462" data-name="Path 462" d="M379.2,225.1a2.2,2.2,0,1,0-2.2,2.2,2.22,2.22,0,0,0,2.2-2.2" fill="none" stroke="#fff" stroke-linecap="round" stroke-linejoin="round" stroke-miterlimit="10" stroke-width="0.9"/>
    <circle id="Ellipse_3" data-name="Ellipse 3" cx="2.2" cy="2.2" r="2.2" transform="translate(374.8 222.9)" fill="none" stroke="#fff" stroke-linecap="round" stroke-linejoin="round" stroke-width="0.9"/>
    <path id="Path_463" data-name="Path 463" d="M378,225.1a1,1,0,1,0-1,1,1,1,0,0,0,1-1" fill="none" stroke="#fff" stroke-linecap="round" stroke-linejoin="round" stroke-miterlimit="10" stroke-width="0.9"/>
    <path id="Path_464" data-name="Path 464" d="M378,225.1a1,1,0,1,0-1,1A1,1,0,0,0,378,225.1Z" fill="none" stroke="#fff" stroke-linecap="round" stroke-linejoin="round" stroke-width="0.9"/>
    <path id="Path_465" data-name="Path 465" d="M193.7,199.2a.789.789,0,0,0,.8-.8v-9.3a.789.789,0,0,0-.8-.8H181.5a.789.789,0,0,0-.8.8v9.3a.789.789,0,0,0,.8.8Zm160.6,4.3a.789.789,0,0,0,.8-.8V177.3a.789.789,0,0,0-.8-.8H345a.789.789,0,0,0-.8.8v25.4a.789.789,0,0,0,.8.8Z" fill="none" stroke="#fff" stroke-linecap="round" stroke-linejoin="round" stroke-width="0.9"/>
    <path id="Path_466" data-name="Path 466" d="M332,184.5a.789.789,0,0,1,.8-.8h2.3a.789.789,0,0,1,.8.8v3.6a.789.789,0,0,1-.8.8h-2.3a.789.789,0,0,1-.8-.8v-3.6" fill="none" stroke="#fff" stroke-linecap="round" stroke-linejoin="round" stroke-miterlimit="10" stroke-width="0.9"/>
    <path id="Path_467" data-name="Path 467" d="M317.6,184.5a.789.789,0,0,1,.8-.8h2.3a.789.789,0,0,1,.8.8v3.6a.789.789,0,0,1-.8.8h-2.3a.789.789,0,0,1-.8-.8v-3.6" fill="none" stroke="#fff" stroke-linecap="round" stroke-linejoin="round" stroke-miterlimit="10" stroke-width="0.9"/>
    <path id="Path_468" data-name="Path 468" d="M303.2,184.6a.789.789,0,0,1,.8-.8h2.3a.789.789,0,0,1,.8.8v3.6a.789.789,0,0,1-.8.8H304a.789.789,0,0,1-.8-.8v-3.6" fill="none" stroke="#fff" stroke-linecap="round" stroke-linejoin="round" stroke-miterlimit="10" stroke-width="0.9"/>
    <path id="Path_469" data-name="Path 469" d="M288.7,184.6a.789.789,0,0,1,.8-.8h2.3a.789.789,0,0,1,.8.8v3.6a.789.789,0,0,1-.8.8h-2.3a.789.789,0,0,1-.8-.8v-3.6" fill="none" stroke="#fff" stroke-linecap="round" stroke-linejoin="round" stroke-miterlimit="10" stroke-width="0.9"/>
    <path id="Path_470" data-name="Path 470" d="M274.3,184.6a.789.789,0,0,1,.8-.8h2.3a.789.789,0,0,1,.8.8v3.6a.789.789,0,0,1-.8.8h-2.3a.789.789,0,0,1-.8-.8v-3.6" fill="none" stroke="#fff" stroke-linecap="round" stroke-linejoin="round" stroke-miterlimit="10" stroke-width="0.9"/>
    <path id="Path_471" data-name="Path 471" d="M259.9,184.6a.789.789,0,0,1,.8-.8H263a.789.789,0,0,1,.8.8v3.6a.789.789,0,0,1-.8.8h-2.3a.789.789,0,0,1-.8-.8v-3.6" fill="none" stroke="#fff" stroke-linecap="round" stroke-linejoin="round" stroke-miterlimit="10" stroke-width="0.9"/>
    <path id="Path_472" data-name="Path 472" d="M258.5,182.8a1.367,1.367,0,0,1,1.4-1.4h4a1.367,1.367,0,0,1,1.4,1.4v8.8a1.367,1.367,0,0,1-1.4,1.4h-4a1.367,1.367,0,0,1-1.4-1.4Z" fill="none" stroke="#fff" stroke-linecap="round" stroke-linejoin="round" stroke-width="0.9"/>
    <path id="Path_473" data-name="Path 473" d="M245.5,184.6a.789.789,0,0,1,.8-.8h2.3a.789.789,0,0,1,.8.8v3.6a.789.789,0,0,1-.8.8h-2.3a.789.789,0,0,1-.8-.8v-3.6" fill="none" stroke="#fff" stroke-linecap="round" stroke-linejoin="round" stroke-miterlimit="10" stroke-width="0.9"/>
    <path id="Path_474" data-name="Path 474" d="M231.1,184.6a.789.789,0,0,1,.8-.8h2.3a.789.789,0,0,1,.8.8v3.6a.789.789,0,0,1-.8.8h-2.3a.789.789,0,0,1-.8-.8v-3.6" fill="none" stroke="#fff" stroke-linecap="round" stroke-linejoin="round" stroke-miterlimit="10" stroke-width="0.9"/>
    <path id="Path_475" data-name="Path 475" d="M216.6,184.6a.789.789,0,0,1,.8-.8h2.3a.789.789,0,0,1,.8.8v3.6a.789.789,0,0,1-.8.8h-2.3a.789.789,0,0,1-.8-.8v-3.6" fill="none" stroke="#fff" stroke-linecap="round" stroke-linejoin="round" stroke-miterlimit="10" stroke-width="0.9"/>
    <path id="Path_476" data-name="Path 476" d="M202.2,184.6a.789.789,0,0,1,.8-.8h2.3a.789.789,0,0,1,.8.8v3.6a.789.789,0,0,1-.8.8H203a.789.789,0,0,1-.8-.8v-3.6" fill="none" stroke="#fff" stroke-linecap="round" stroke-linejoin="round" stroke-miterlimit="10" stroke-width="0.9"/>
  </g>
</svg>
