<svg xmlns="http://www.w3.org/2000/svg" width="218.838" height="76.9" viewBox="0 0 218.838 76.9">
  <g id="Embraer_Phenom_1_" transform="translate(0.45 0.45)">
    <line id="Line_138" data-name="Line 138" x2="0.1" transform="translate(51.4 22.6)" fill="none" stroke="#fff" stroke-linecap="round" stroke-linejoin="round" stroke-width="0.9"/>
    <path id="Path_660" data-name="Path 660" d="M137.6,141.4c-.1.1-.2.1-.4.2a6.052,6.052,0,0,1-1.5.2H116.6" transform="translate(-103.6 -139.8)" fill="none" stroke="#fff" stroke-linecap="round" stroke-linejoin="round" stroke-width="0.9"/>
    <path id="Path_661" data-name="Path 661" d="M137.6,141.4c.1-.1.2-.2.2-.3,0-.2-.2-.3-.6-.5a6.052,6.052,0,0,0-1.5-.2h-.8" transform="translate(-103.6 -139.8)" fill="none" stroke="#fff" stroke-linecap="round" stroke-linejoin="round" stroke-width="0.9"/>
    <path id="Path_662" data-name="Path 662" d="M134.9,140.4q-1.05-.6-4.5-.6H110.8c-1.4,0-2.3.3-2.5.6" transform="translate(-103.6 -139.8)" fill="none" stroke="#fff" stroke-linecap="round" stroke-linejoin="round" stroke-width="0.9"/>
    <path id="Path_663" data-name="Path 663" d="M155.1,162.4l-15.6-16.8-.9-2.8a1.422,1.422,0,0,0-.2-.6c-.2-.4-.4-.7-.8-.8" transform="translate(-103.6 -139.8)" fill="none" stroke="#fff" stroke-linecap="round" stroke-linejoin="round" stroke-width="0.9"/>
    <path id="Path_664" data-name="Path 664" d="M123.6,146.3H125l16.3,24.9-.9.8" transform="translate(-103.6 -139.8)" fill="none" stroke="#fff" stroke-linecap="round" stroke-linejoin="round" stroke-width="0.9"/>
    <path id="Path_665" data-name="Path 665" d="M108.3,140.4a23,23,0,0,0-2.8.2c-1.3.1-1.9.3-1.9.5s.6.3,1.9.5c.8.1,1.6.1,2.6.2" transform="translate(-103.6 -139.8)" fill="none" stroke="#fff" stroke-linecap="round" stroke-linejoin="round" stroke-width="0.9"/>
    <path id="Path_666" data-name="Path 666" d="M116.6,140.4c1.1.5,1.1.9,0,1.4" transform="translate(-103.6 -139.8)" fill="none" stroke="#fff" stroke-linecap="round" stroke-linejoin="round" stroke-width="0.9"/>
    <path id="Path_667" data-name="Path 667" d="M108.1,141.8a2.56,2.56,0,0,0,1.3,1.6l2.4.8a8.844,8.844,0,0,1,3,2.1h0" transform="translate(-103.6 -139.8)" fill="none" stroke="#fff" stroke-linecap="round" stroke-linejoin="round" stroke-width="0.9"/>
    <path id="Path_668" data-name="Path 668" d="M116.6,141.8h-8.5" transform="translate(-103.6 -139.8)" fill="none" stroke="#fff" stroke-linecap="round" stroke-linejoin="round" stroke-width="0.9"/>
    <path id="Path_669" data-name="Path 669" d="M108.3,140.4h8.3" transform="translate(-103.6 -139.8)" fill="none" stroke="#fff" stroke-linecap="round" stroke-linejoin="round" stroke-width="0.9"/>
    <path id="Path_670" data-name="Path 670" d="M114.9,146.3c.1.2.3.4.4.6a4.348,4.348,0,0,1,.4.7c.4.8.8,1.6,1.3,2.4l13,24.3" transform="translate(-103.6 -139.8)" fill="none" stroke="#fff" stroke-linecap="round" stroke-linejoin="round" stroke-width="0.9"/>
    <line id="Line_139" data-name="Line 139" x2="8.7" transform="translate(11.3 6.5)" fill="none" stroke="#fff" stroke-linecap="round" stroke-linejoin="round" stroke-width="0.9"/>
    <line id="Line_140" data-name="Line 140" x1="18.3" transform="translate(13 0.6)" fill="none" stroke="#fff" stroke-linecap="round" stroke-linejoin="round" stroke-width="0.9"/>
    <path id="Path_671" data-name="Path 671" d="M130.8,183.1l-.7-.1a4.333,4.333,0,0,1-2.6-2c-.1-.1-.1-.2-.2-.3a9.437,9.437,0,0,1-1.3-4.2,1.562,1.562,0,0,1,1.6-1.9l8.6-.7c.8-.1,1.5-.1,2.2-.2" transform="translate(-103.6 -139.8)" fill="none" stroke="#fff" stroke-linecap="round" stroke-linejoin="round" stroke-width="0.9"/>
    <path id="Path_672" data-name="Path 672" d="M138.3,173.6a.9.9,0,0,0,.5-.1,12,12,0,0,0,2-.3.6.6,0,0,0,.4-.1c.6-.1,1.2-.2,1.7-.3,5.9-.9,12.2-1.6,18.8-2.1" transform="translate(-103.6 -139.8)" fill="none" stroke="#fff" stroke-linecap="round" stroke-linejoin="round" stroke-width="0.9"/>
    <line id="Line_141" data-name="Line 141" x1="2.1" y2="1.6" transform="translate(34.7 32.2)" fill="none" stroke="#fff" stroke-linecap="round" stroke-linejoin="round" stroke-width="0.9"/>
    <path id="Path_673" data-name="Path 673" d="M161.1,189.9l-26.6-.6a1.622,1.622,0,0,1-1.6-1.1l-2.1-5.1" transform="translate(-103.6 -139.8)" fill="none" stroke="#fff" stroke-linecap="round" stroke-linejoin="round" stroke-width="0.9"/>
    <path id="Path_674" data-name="Path 674" d="M169.6,170.4a2.186,2.186,0,0,1,.5-.3,176.3,176.3,0,0,1,22.3-2.6" transform="translate(-103.6 -139.8)" fill="none" stroke="#fff" stroke-linecap="round" stroke-linejoin="round" stroke-width="0.9"/>
    <path id="Path_675" data-name="Path 675" d="M161.7,170.9c1.8-.1,3.7-.3,5.5-.4.8,0,1.6-.1,2.3-.1" transform="translate(-103.6 -139.8)" fill="none" stroke="#fff" stroke-linecap="round" stroke-linejoin="round" stroke-width="0.9"/>
    <path id="Path_676" data-name="Path 676" d="M199.6,179.7c-.2,0-.3.1-.5.1-7.7.4-17.4-.4-29.1-2.5a1.419,1.419,0,0,1-.8-.9c-.1-.3-.1-.6-.2-1a8.6,8.6,0,0,1,0-3.2,5.02,5.02,0,0,1,.2-1.2l.3-.6" transform="translate(-103.6 -139.8)" fill="none" stroke="#fff" stroke-linecap="round" stroke-linejoin="round" stroke-width="0.9"/>
    <line id="Line_142" data-name="Line 142" x2="30.3" y2="6.8" transform="translate(27.2 43.3)" fill="none" stroke="#fff" stroke-linecap="round" stroke-linejoin="round" stroke-width="0.9"/>
    <line id="Line_143" data-name="Line 143" x1="6.6" y1="8.5" transform="translate(51.5 22.6)" fill="none" stroke="#fff" stroke-linecap="round" stroke-linejoin="round" stroke-width="0.9"/>
    <line id="Line_144" data-name="Line 144" x2="16.8" y2="25.7" transform="translate(20 6.5)" fill="none" stroke="#fff" stroke-linecap="round" stroke-linejoin="round" stroke-width="0.9"/>
    <path id="Path_677" data-name="Path 677" d="M313.3,196l4-.1c.5-.1,1-.1,1.5-.2q2.25-.6,2.7-2.1a3.567,3.567,0,0,0-1.9-3.6c-2.6-1.8-11.8-5.5-27.5-11a24.428,24.428,0,0,1-2.4-1c-.2-.1-.3-.1-.5-.2" transform="translate(-103.6 -139.8)" fill="none" stroke="#fff" stroke-linecap="round" stroke-linejoin="round" stroke-width="0.9"/>
    <path id="Path_678" data-name="Path 678" d="M293.6,199.3h19.7V196" transform="translate(-103.6 -139.8)" fill="none" stroke="#fff" stroke-linecap="round" stroke-linejoin="round" stroke-width="0.9"/>
    <path id="Path_679" data-name="Path 679" d="M199.6,167.7a2.706,2.706,0,0,1,2,1.6,16.6,16.6,0,0,1,.3,2.2,17.7,17.7,0,0,1,0,4.6l-.3,2.1a2.947,2.947,0,0,1-2,1.6" transform="translate(-103.6 -139.8)" fill="none" stroke="#fff" stroke-linecap="round" stroke-linejoin="round" stroke-width="0.9"/>
    <path id="Path_680" data-name="Path 680" d="M199.2,167.6a.6.6,0,0,1,.4.1" transform="translate(-103.6 -139.8)" fill="none" stroke="#fff" stroke-linecap="round" stroke-linejoin="round" stroke-width="0.9"/>
    <path id="Path_681" data-name="Path 681" d="M192.3,167.6c2.4-.1,4.7-.1,6.8,0h.1" transform="translate(-103.6 -139.8)" fill="none" stroke="#fff" stroke-linecap="round" stroke-linejoin="round" stroke-width="0.9"/>
    <line id="Line_145" data-name="Line 145" x1="10.6" transform="translate(95.6 27.8)" fill="none" stroke="#fff" stroke-linecap="round" stroke-linejoin="round" stroke-width="0.9"/>
    <line id="Line_146" data-name="Line 146" y2="12" transform="translate(96 27.9)" fill="none" stroke="#fff" stroke-linecap="round" stroke-linejoin="round" stroke-width="0.9"/>
    <path id="Path_682" data-name="Path 682" d="M206.2,191.2a6.208,6.208,0,0,1,2.9-.9h6.4a9.689,9.689,0,0,1,5.5,1.2l.4.2" transform="translate(-103.6 -139.8)" fill="none" stroke="#fff" stroke-linecap="round" stroke-linejoin="round" stroke-width="0.9"/>
    <path id="Path_683" data-name="Path 683" d="M201.2,196.8l4.1-4.8c.2-.2.4-.5.6-.6l.2-.2" transform="translate(-103.6 -139.8)" fill="none" stroke="#fff" stroke-linecap="round" stroke-linejoin="round" stroke-width="0.9"/>
    <path id="Path_684" data-name="Path 684" d="M199.4,197.8a1.147,1.147,0,0,1-.1-1h1.9" transform="translate(-103.6 -139.8)" fill="none" stroke="#fff" stroke-linecap="round" stroke-linejoin="round" stroke-width="0.9"/>
    <path id="Path_685" data-name="Path 685" d="M201.2,196.8h6.6l8.7,1.4q1.05.3.9.9" transform="translate(-103.6 -139.8)" fill="none" stroke="#fff" stroke-linecap="round" stroke-linejoin="round" stroke-width="0.9"/>
    <line id="Line_147" data-name="Line 147" y1="0.3" x2="9.6" transform="translate(86.2 58)" fill="none" stroke="#fff" stroke-linecap="round" stroke-linejoin="round" stroke-width="0.9"/>
    <path id="Path_686" data-name="Path 686" d="M209.8,167.6a10.951,10.951,0,0,1,4.2-.9,2.652,2.652,0,0,1,2.2.8" transform="translate(-103.6 -139.8)" fill="none" stroke="#fff" stroke-linecap="round" stroke-linejoin="round" stroke-width="0.9"/>
    <path id="Path_687" data-name="Path 687" d="M225.7,179.5h1.7a1.715,1.715,0,0,0,1.8-1.8v-2.2a1.9,1.9,0,0,0-.5-1.3,1.656,1.656,0,0,0-1.3-.5h-1.7a2.106,2.106,0,0,0-1.3.5,1.536,1.536,0,0,0-.5,1.3v2.2a2.106,2.106,0,0,0,.5,1.3,1.656,1.656,0,0,0,1.3.5" transform="translate(-103.6 -139.8)" fill="none" stroke="#fff" stroke-linecap="round" stroke-linejoin="round" stroke-width="0.9"/>
    <path id="Path_688" data-name="Path 688" d="M212.1,174.2a1.9,1.9,0,0,0-.5,1.3v2.2a2.106,2.106,0,0,0,.5,1.3,1.656,1.656,0,0,0,1.3.5H215a1.715,1.715,0,0,0,1.8-1.8v-2.2a1.9,1.9,0,0,0-.5-1.3,1.656,1.656,0,0,0-1.3-.5h-1.6a1.656,1.656,0,0,0-1.3.5" transform="translate(-103.6 -139.8)" fill="none" stroke="#fff" stroke-linecap="round" stroke-linejoin="round" stroke-width="0.9"/>
    <path id="Path_689" data-name="Path 689" d="M231.1,167.6l-.1-1a1.392,1.392,0,0,1,1.1,1" transform="translate(-103.6 -139.8)" fill="none" stroke="#fff" stroke-linecap="round" stroke-linejoin="round" stroke-width="0.9"/>
    <line id="Line_148" data-name="Line 148" x1="1" transform="translate(127.5 27.8)" fill="none" stroke="#fff" stroke-linecap="round" stroke-linejoin="round" stroke-width="0.9"/>
    <line id="Line_149" data-name="Line 149" x1="2" transform="translate(134.2 27.8)" fill="none" stroke="#fff" stroke-linecap="round" stroke-linejoin="round" stroke-width="0.9"/>
    <path id="Path_690" data-name="Path 690" d="M236.1,163.1h1.2l2.5,4.5" transform="translate(-103.6 -139.8)" fill="none" stroke="#fff" stroke-linecap="round" stroke-linejoin="round" stroke-width="0.9"/>
    <path id="Path_691" data-name="Path 691" d="M236.3,163.6h-2.2c-.2-.1-.2-.3,0-.5h2" transform="translate(-103.6 -139.8)" fill="none" stroke="#fff" stroke-linecap="round" stroke-linejoin="round" stroke-width="0.9"/>
    <line id="Line_150" data-name="Line 150" x1="1.5" y1="4" transform="translate(132.7 23.8)" fill="none" stroke="#fff" stroke-linecap="round" stroke-linejoin="round" stroke-width="0.9"/>
    <line id="Line_151" data-name="Line 151" x1="0.2" y1="0.5" transform="translate(132.5 23.3)" fill="none" stroke="#fff" stroke-linecap="round" stroke-linejoin="round" stroke-width="0.9"/>
    <path id="Path_692" data-name="Path 692" d="M235.2,173.7a2.106,2.106,0,0,0-1.3.5,1.9,1.9,0,0,0-.5,1.3v2.2a2.106,2.106,0,0,0,.5,1.3,1.656,1.656,0,0,0,1.3.5h1.6a1.9,1.9,0,0,0,1.3-.5,1.656,1.656,0,0,0,.5-1.3v-2.2a1.9,1.9,0,0,0-.5-1.3,1.536,1.536,0,0,0-1.3-.5h-1.6" transform="translate(-103.6 -139.8)" fill="none" stroke="#fff" stroke-linecap="round" stroke-linejoin="round" stroke-width="0.9"/>
    <line id="Line_152" data-name="Line 152" x1="5.7" transform="translate(128.5 27.8)" fill="none" stroke="#fff" stroke-linecap="round" stroke-linejoin="round" stroke-width="0.9"/>
    <line id="Line_153" data-name="Line 153" x2="0.6" y2="0.3" transform="translate(130.2 57.8)" fill="none" stroke="#fff" stroke-linecap="round" stroke-linejoin="round" stroke-width="0.9"/>
    <line id="Line_154" data-name="Line 154" x1="14.9" transform="translate(112.6 27.8)" fill="none" stroke="#fff" stroke-linecap="round" stroke-linejoin="round" stroke-width="0.9"/>
    <line id="Line_155" data-name="Line 155" x1="12.4" y1="5.9" transform="translate(117.8 51.9)" fill="none" stroke="#fff" stroke-linecap="round" stroke-linejoin="round" stroke-width="0.9"/>
    <line id="Line_156" data-name="Line 156" x1="0.7" y1="1.7" transform="translate(109 66.1)" fill="none" stroke="#fff" stroke-linecap="round" stroke-linejoin="round" stroke-width="0.9"/>
    <path id="Path_693" data-name="Path 693" d="M216.1,208.4c-.3,0-.5.1-.8.1a1.6,1.6,0,0,1-2-.8l-.1-.1" transform="translate(-103.6 -139.8)" fill="none" stroke="#fff" stroke-linecap="round" stroke-linejoin="round" stroke-width="0.9"/>
    <path id="Path_694" data-name="Path 694" d="M210.6,201a9.588,9.588,0,0,0,6.6-1.5.758.758,0,0,0,.2-.4" transform="translate(-103.6 -139.8)" fill="none" stroke="#fff" stroke-linecap="round" stroke-linejoin="round" stroke-width="0.9"/>
    <path id="Path_695" data-name="Path 695" d="M217.4,199.1a2.651,2.651,0,0,1,2.4,2l.8,2.1" transform="translate(-103.6 -139.8)" fill="none" stroke="#fff" stroke-linecap="round" stroke-linejoin="round" stroke-width="0.9"/>
    <path id="Path_696" data-name="Path 696" d="M222.6,210.2a1.726,1.726,0,0,1-1.7-.5,4.323,4.323,0,0,0-2.7-1.3" transform="translate(-103.6 -139.8)" fill="none" stroke="#fff" stroke-linecap="round" stroke-linejoin="round" stroke-width="0.9"/>
    <path id="Path_697" data-name="Path 697" d="M221.9,210.3a.821.821,0,0,0,.7-.1" transform="translate(-103.6 -139.8)" fill="none" stroke="#fff" stroke-linecap="round" stroke-linejoin="round" stroke-width="0.9"/>
    <path id="Path_698" data-name="Path 698" d="M222.6,210.2c.3-.2.3-.6.2-1.3l-2.2-5.7" transform="translate(-103.6 -139.8)" fill="none" stroke="#fff" stroke-linecap="round" stroke-linejoin="round" stroke-width="0.9"/>
    <path id="Path_699" data-name="Path 699" d="M218.3,208.4a5.263,5.263,0,0,1,.4,1.8,4.314,4.314,0,0,1-1.4,3.2,4.48,4.48,0,0,1-3.2,1.4,4.314,4.314,0,0,1-3.2-1.4,4.377,4.377,0,0,1-1.3-3.2,4.626,4.626,0,0,1,1.3-3.2,4.185,4.185,0,0,1,1.8-1.1" transform="translate(-103.6 -139.8)" fill="none" stroke="#fff" stroke-linecap="round" stroke-linejoin="round" stroke-width="0.9"/>
    <path id="Path_700" data-name="Path 700" d="M216.1,208.4a2.41,2.41,0,0,1,.7,1.8,2.56,2.56,0,0,1-.8,1.9,2.732,2.732,0,0,1-1.9.8,2.56,2.56,0,0,1-1.9-.8,2.656,2.656,0,0,1,0-3.8,2.589,2.589,0,0,1,1.1-.7" transform="translate(-103.6 -139.8)" fill="none" stroke="#fff" stroke-linecap="round" stroke-linejoin="round" stroke-width="0.9"/>
    <path id="Path_701" data-name="Path 701" d="M218.3,208.4a8.067,8.067,0,0,0-2.2,0" transform="translate(-103.6 -139.8)" fill="none" stroke="#fff" stroke-linecap="round" stroke-linejoin="round" stroke-width="0.9"/>
    <path id="Path_702" data-name="Path 702" d="M220.7,203.2a44.031,44.031,0,0,0,10.3-1.3,6.606,6.606,0,0,0,1.5-.5" transform="translate(-103.6 -139.8)" fill="none" stroke="#fff" stroke-linecap="round" stroke-linejoin="round" stroke-width="0.9"/>
    <path id="Path_703" data-name="Path 703" d="M232.4,201.4a4.973,4.973,0,0,0,2.6-2.3c.2-.5-.1-1-1.1-1.6" transform="translate(-103.6 -139.8)" fill="none" stroke="#fff" stroke-linecap="round" stroke-linejoin="round" stroke-width="0.9"/>
    <path id="Path_704" data-name="Path 704" d="M199.4,197.8c.8,1.3,4.1,2.3,10,3,.4,0,.8.1,1.2.1" transform="translate(-103.6 -139.8)" fill="none" stroke="#fff" stroke-linecap="round" stroke-linejoin="round" stroke-width="0.9"/>
    <line id="Line_157" data-name="Line 157" x2="0.2" y2="0.5" transform="translate(107 61.2)" fill="none" stroke="#fff" stroke-linecap="round" stroke-linejoin="round" stroke-width="0.9"/>
    <path id="Path_705" data-name="Path 705" d="M210.8,201.5a162.8,162.8,0,0,1-21-3.4" transform="translate(-103.6 -139.8)" fill="none" stroke="#fff" stroke-linecap="round" stroke-linejoin="round" stroke-width="0.9"/>
    <line id="Line_158" data-name="Line 158" x1="1.8" y1="4.4" transform="translate(107.2 61.7)" fill="none" stroke="#fff" stroke-linecap="round" stroke-linejoin="round" stroke-width="0.9"/>
    <line id="Line_159" data-name="Line 159" x1="6.4" transform="translate(106.2 27.8)" fill="none" stroke="#fff" stroke-linecap="round" stroke-linejoin="round" stroke-width="0.9"/>
    <path id="Path_706" data-name="Path 706" d="M245.7,167.6l-.1-1a1.17,1.17,0,0,1,1.2,1" transform="translate(-103.6 -139.8)" fill="none" stroke="#fff" stroke-linecap="round" stroke-linejoin="round" stroke-width="0.9"/>
    <line id="Line_160" data-name="Line 160" x1="1.1" transform="translate(142.1 27.8)" fill="none" stroke="#fff" stroke-linecap="round" stroke-linejoin="round" stroke-width="0.9"/>
    <path id="Path_707" data-name="Path 707" d="M252,170.8v20.9a1.591,1.591,0,0,0,1.8,1.8h6.7a1.591,1.591,0,0,0,1.8-1.8V170.8a1.591,1.591,0,0,0-1.8-1.8h-6.7a1.591,1.591,0,0,0-1.8,1.8" transform="translate(-103.6 -139.8)" fill="none" stroke="#fff" stroke-linecap="round" stroke-linejoin="round" stroke-width="0.9"/>
    <path id="Path_708" data-name="Path 708" d="M248.4,175.5a1.9,1.9,0,0,0-.5-1.3,1.656,1.656,0,0,0-1.3-.5H245a2.106,2.106,0,0,0-1.3.5,1.9,1.9,0,0,0-.5,1.3v2.2a2.106,2.106,0,0,0,.5,1.3,1.656,1.656,0,0,0,1.3.5h1.6a1.9,1.9,0,0,0,1.3-.5,2.106,2.106,0,0,0,.5-1.3v-2.2" transform="translate(-103.6 -139.8)" fill="none" stroke="#fff" stroke-linecap="round" stroke-linejoin="round" stroke-width="0.9"/>
    <path id="Path_709" data-name="Path 709" d="M280.1,178.5c-3.8-.1-7.9-.3-12.2-.7-.9-.2-1.5-.5-1.6-1.1v-.5a9.329,9.329,0,0,1,.1-2.5c.3-.9,1.2-1.5,2.8-1.6l9.9-.6" transform="translate(-103.6 -139.8)" fill="none" stroke="#fff" stroke-linecap="round" stroke-linejoin="round" stroke-width="0.9"/>
    <path id="Path_710" data-name="Path 710" d="M267,174.4c-.1-1,.8-1.5,2.4-1.7l3.7-.2,4.7,5-9.1-.5c-1,.1-1.6-.3-1.6-1.2v-1.4" transform="translate(-103.6 -139.8)" fill="none" stroke="#fff" stroke-linecap="round" stroke-linejoin="round" stroke-width="0.9"/>
    <path id="Path_711" data-name="Path 711" d="M248.6,198.1c.8-.1,1.6-.3,2.4-.4.5-.1,1-.2,1.6-.3a44.951,44.951,0,0,1,8.9-1h10.1" transform="translate(-103.6 -139.8)" fill="none" stroke="#fff" stroke-linecap="round" stroke-linejoin="round" stroke-width="0.9"/>
    <path id="Path_712" data-name="Path 712" d="M221.4,191.7c13.9-.3,23.7.6,29.7,2.7,2.6,1.2,1.8,2.4-2.5,3.8" transform="translate(-103.6 -139.8)" fill="none" stroke="#fff" stroke-linecap="round" stroke-linejoin="round" stroke-width="0.9"/>
    <path id="Path_713" data-name="Path 713" d="M279.1,171.4a23.438,23.438,0,0,0-4.8-2,30.784,30.784,0,0,0-9.8-1.8H246.8" transform="translate(-103.6 -139.8)" fill="none" stroke="#fff" stroke-linecap="round" stroke-linejoin="round" stroke-width="0.9"/>
    <path id="Path_714" data-name="Path 714" d="M289.3,177.7a16.428,16.428,0,0,1-4.3.7h-4.8" transform="translate(-103.6 -139.8)" fill="none" stroke="#fff" stroke-linecap="round" stroke-linejoin="round" stroke-width="0.9"/>
    <line id="Line_161" data-name="Line 161" x1="6.3" y1="6.7" transform="translate(170.2 32)" fill="none" stroke="#fff" stroke-linecap="round" stroke-linejoin="round" stroke-width="0.9"/>
    <path id="Path_715" data-name="Path 715" d="M279.1,171.4l1.2.6" transform="translate(-103.6 -139.8)" fill="none" stroke="#fff" stroke-linecap="round" stroke-linejoin="round" stroke-width="0.9"/>
    <path id="Path_716" data-name="Path 716" d="M280.3,172l-4.9.3,5.3,5.2a23.549,23.549,0,0,0,7.5-.4" transform="translate(-103.6 -139.8)" fill="none" stroke="#fff" stroke-linecap="round" stroke-linejoin="round" stroke-width="0.9"/>
    <path id="Path_717" data-name="Path 717" d="M288.1,177.1a10.543,10.543,0,0,1,1.1.7" transform="translate(-103.6 -139.8)" fill="none" stroke="#fff" stroke-linecap="round" stroke-linejoin="round" stroke-width="0.9"/>
    <path id="Path_718" data-name="Path 718" d="M280.3,172a75.893,75.893,0,0,1,7.3,4.6c.2.1.4.3.6.4" transform="translate(-103.6 -139.8)" fill="none" stroke="#fff" stroke-linecap="round" stroke-linejoin="round" stroke-width="0.9"/>
    <line id="Line_162" data-name="Line 162" x2="1.5" transform="translate(168 56.7)" fill="none" stroke="#fff" stroke-linecap="round" stroke-linejoin="round" stroke-width="0.9"/>
    <line id="Line_163" data-name="Line 163" x2="17.1" transform="translate(169.5 56.7)" fill="none" stroke="#fff" stroke-linecap="round" stroke-linejoin="round" stroke-width="0.9"/>
    <path id="Path_719" data-name="Path 719" d="M270.8,200.9h-1.3" transform="translate(-103.6 -139.8)" fill="none" stroke="#fff" stroke-linecap="round" stroke-linejoin="round" stroke-width="0.9"/>
    <path id="Path_720" data-name="Path 720" d="M269.5,200.9h-1.6c-.1,0-.1,0-.1.1l-.1.1c0,.1,0,.1.1.1l.1.1h2.8a.1.1,0,0,0,.1-.1l.1-.1a.1.1,0,0,0-.1-.1h0" transform="translate(-103.6 -139.8)" fill="none" stroke="#fff" stroke-linecap="round" stroke-linejoin="round" stroke-width="0.9"/>
    <line id="Line_164" data-name="Line 164" x2="0.1" y2="1.5" transform="translate(189.1 62)" fill="none" stroke="#fff" stroke-linecap="round" stroke-linejoin="round" stroke-width="0.9"/>
    <line id="Line_165" data-name="Line 165" x2="0.3" y2="2.4" transform="translate(188.8 59.6)" fill="none" stroke="#fff" stroke-linecap="round" stroke-linejoin="round" stroke-width="0.9"/>
    <path id="Path_721" data-name="Path 721" d="M292.8,203.3h-.1c-.2,0-.3.2-.3.4v.5c0,.2.2.4.4.3h.1" transform="translate(-103.6 -139.8)" fill="none" stroke="#fff" stroke-linecap="round" stroke-linejoin="round" stroke-width="0.9"/>
    <line id="Line_166" data-name="Line 166" x2="1.3" y2="1.6" transform="translate(187.5 59.7)" fill="none" stroke="#fff" stroke-linecap="round" stroke-linejoin="round" stroke-width="0.9"/>
    <path id="Path_722" data-name="Path 722" d="M292.9,206.8l-1.4-1.7a.92.92,0,0,1-.1-1l1.3-2.3" transform="translate(-103.6 -139.8)" fill="none" stroke="#fff" stroke-linecap="round" stroke-linejoin="round" stroke-width="0.9"/>
    <path id="Path_723" data-name="Path 723" d="M293.3,207.9h0a.462.462,0,0,1-.5-.3v-.1" transform="translate(-103.6 -139.8)" fill="none" stroke="#fff" stroke-linecap="round" stroke-linejoin="round" stroke-width="0.9"/>
    <path id="Path_724" data-name="Path 724" d="M292.5,201.2l-1.5,2.6h0a1.566,1.566,0,0,0,.2,1.6h0l1.7,2" transform="translate(-103.6 -139.8)" fill="none" stroke="#fff" stroke-linecap="round" stroke-linejoin="round" stroke-width="0.9"/>
    <line id="Line_167" data-name="Line 167" y2="0.1" transform="translate(190 59.4)" fill="none" stroke="#fff" stroke-linecap="round" stroke-linejoin="round" stroke-width="0.9"/>
    <path id="Path_725" data-name="Path 725" d="M293.9,202.4l1.4-.1c.1,0,.2-.1.3-.1a.367.367,0,0,0,.1-.3v-.3c0-.1-.1-.2-.1-.3a.367.367,0,0,0-.3-.1l-1.5.1" transform="translate(-103.6 -139.8)" fill="none" stroke="#fff" stroke-linecap="round" stroke-linejoin="round" stroke-width="0.9"/>
    <line id="Line_168" data-name="Line 168" x1="0.1" y1="1" transform="translate(190.2 61.6)" fill="none" stroke="#fff" stroke-linecap="round" stroke-linejoin="round" stroke-width="0.9"/>
    <line id="Line_169" data-name="Line 169" x1="0.1" y1="0.8" transform="translate(190.3 62.6)" fill="none" stroke="#fff" stroke-linecap="round" stroke-linejoin="round" stroke-width="0.9"/>
    <path id="Path_726" data-name="Path 726" d="M294.1,204.4h.1c.3,0,.3-.2.3-.4l-.1-.5c0-.2-.2-.3-.4-.3h-.1" transform="translate(-103.6 -139.8)" fill="none" stroke="#fff" stroke-linecap="round" stroke-linejoin="round" stroke-width="0.9"/>
    <line id="Line_170" data-name="Line 170" x1="0.2" y1="2.1" transform="translate(190 59.5)" fill="none" stroke="#fff" stroke-linecap="round" stroke-linejoin="round" stroke-width="0.9"/>
    <line id="Line_171" data-name="Line 171" y1="0.1" x2="1.2" transform="translate(189.3 64.6)" fill="none" stroke="#fff" stroke-linecap="round" stroke-linejoin="round" stroke-width="0.9"/>
    <path id="Path_727" data-name="Path 727" d="M294.3,206.6h0a.462.462,0,0,1,.5.3v.4c0,.2-.1.4-.3.4h0" transform="translate(-103.6 -139.8)" fill="none" stroke="#fff" stroke-linecap="round" stroke-linejoin="round" stroke-width="0.9"/>
    <line id="Line_172" data-name="Line 172" y1="0.2" x2="1.2" transform="translate(189.7 67.9)" fill="none" stroke="#fff" stroke-linecap="round" stroke-linejoin="round" stroke-width="0.9"/>
    <line id="Line_173" data-name="Line 173" x1="1.1" y2="0.1" transform="translate(189.6 66.8)" fill="none" stroke="#fff" stroke-linecap="round" stroke-linejoin="round" stroke-width="0.9"/>
    <path id="Path_728" data-name="Path 728" d="M293.2,206.7h0c-.1,0-.2.1-.3.1" transform="translate(-103.6 -139.8)" fill="none" stroke="#fff" stroke-linecap="round" stroke-linejoin="round" stroke-width="0.9"/>
    <line id="Line_174" data-name="Line 174" x2="0.2" y2="2.2" transform="translate(190.5 64.6)" fill="none" stroke="#fff" stroke-linecap="round" stroke-linejoin="round" stroke-width="0.9"/>
    <line id="Line_175" data-name="Line 175" x1="0.3" y1="2.2" transform="translate(189.3 64.7)" fill="none" stroke="#fff" stroke-linecap="round" stroke-linejoin="round" stroke-width="0.9"/>
    <path id="Path_729" data-name="Path 729" d="M294.7,209.7l.1,1.2c0,.5-.1.8-.5.9-.3,0-.5-.3-.6-.8l-.1-1.2" transform="translate(-103.6 -139.8)" fill="none" stroke="#fff" stroke-linecap="round" stroke-linejoin="round" stroke-width="0.9"/>
    <line id="Line_176" data-name="Line 176" x2="0.2" y2="1.5" transform="translate(190.9 68.4)" fill="none" stroke="#fff" stroke-linecap="round" stroke-linejoin="round" stroke-width="0.9"/>
    <line id="Line_177" data-name="Line 177" x1="0.2" y1="1.5" transform="translate(189.7 68.5)" fill="none" stroke="#fff" stroke-linecap="round" stroke-linejoin="round" stroke-width="0.9"/>
    <path id="Path_730" data-name="Path 730" d="M294.7,209.7a2.384,2.384,0,0,1,1.1.6,2.36,2.36,0,0,1,.7,1.6,1.99,1.99,0,0,1-.7,1.6,2.36,2.36,0,0,1-1.6.7,1.99,1.99,0,0,1-1.6-.7,2.36,2.36,0,0,1-.7-1.6,1.99,1.99,0,0,1,.7-1.6,1.623,1.623,0,0,1,.9-.5" transform="translate(-103.6 -139.8)" fill="none" stroke="#fff" stroke-linecap="round" stroke-linejoin="round" stroke-width="0.9"/>
    <path id="Path_731" data-name="Path 731" d="M294.5,208.2a3.812,3.812,0,0,1,2.4,1.1A3.864,3.864,0,0,1,298,212a4.049,4.049,0,0,1-1.1,2.7,3.864,3.864,0,0,1-2.7,1.1,4.049,4.049,0,0,1-2.7-1.1,3.693,3.693,0,0,1-1.1-2.7,4.049,4.049,0,0,1,1.1-2.7,4,4,0,0,1,1.8-1" transform="translate(-103.6 -139.8)" fill="none" stroke="#fff" stroke-linecap="round" stroke-linejoin="round" stroke-width="0.9"/>
    <path id="Path_732" data-name="Path 732" d="M293.6,199.3h-3.4v-2.8" transform="translate(-103.6 -139.8)" fill="none" stroke="#fff" stroke-linecap="round" stroke-linejoin="round" stroke-width="0.9"/>
    <line id="Line_178" data-name="Line 178" y1="0.1" x2="1.2" transform="translate(189.2 63.4)" fill="none" stroke="#fff" stroke-linecap="round" stroke-linejoin="round" stroke-width="0.9"/>
    <path id="Path_733" data-name="Path 733" d="M292.8,207.5c0-.3,0-.5.1-.6" transform="translate(-103.6 -139.8)" fill="none" stroke="#fff" stroke-linecap="round" stroke-linejoin="round" stroke-width="0.9"/>
    <line id="Line_179" data-name="Line 179" y1="0.4" transform="translate(189.7 68.1)" fill="none" stroke="#fff" stroke-linecap="round" stroke-linejoin="round" stroke-width="0.9"/>
    <line id="Line_180" data-name="Line 180" y2="0.5" transform="translate(190.9 67.9)" fill="none" stroke="#fff" stroke-linecap="round" stroke-linejoin="round" stroke-width="0.9"/>
    <line id="Line_181" data-name="Line 181" y1="4.4" x2="2.3" transform="translate(167.2 56.7)" fill="none" stroke="#fff" stroke-linecap="round" stroke-linejoin="round" stroke-width="0.9"/>
    <line id="Line_182" data-name="Line 182" y1="4.4" x2="2.1" transform="translate(165.9 56.7)" fill="none" stroke="#fff" stroke-linecap="round" stroke-linejoin="round" stroke-width="0.9"/>
    <line id="Line_183" data-name="Line 183" x1="5.9" transform="translate(136.2 27.8)" fill="none" stroke="#fff" stroke-linecap="round" stroke-linejoin="round" stroke-width="0.9"/>
    <path id="Path_734" data-name="Path 734" d="M232.4,201.4q8.1-1.8,16.2-3.3" transform="translate(-103.6 -139.8)" fill="none" stroke="#fff" stroke-linecap="round" stroke-linejoin="round" stroke-width="0.9"/>
    <line id="Line_184" data-name="Line 184" y1="0.5" x2="23.1" transform="translate(186.6 56.2)" fill="none" stroke="#fff" stroke-linecap="round" stroke-linejoin="round" stroke-width="0.9"/>
    <path id="Path_735" data-name="Path 735" d="M189.8,198.1a273.4,273.4,0,0,1-28.7-8.2" transform="translate(-103.6 -139.8)" fill="none" stroke="#fff" stroke-linecap="round" stroke-linejoin="round" stroke-width="0.9"/>
    <line id="Line_185" data-name="Line 185" x1="37.2" y1="5.2" transform="translate(51.5 22.6)" fill="none" stroke="#fff" stroke-linecap="round" stroke-linejoin="round" stroke-width="0.9"/>
    <path id="Path_736" data-name="Path 736" d="M161.1,189.9c10.5-2.4,25.5-2,45.1,1.4" transform="translate(-103.6 -139.8)" fill="none" stroke="#fff" stroke-linecap="round" stroke-linejoin="round" stroke-width="0.9"/>
  </g>
</svg>
