<svg xmlns="http://www.w3.org/2000/svg" width="422.88" height="111.092" viewBox="0 0 422.88 111.092">
  <g id="Component_1_1" data-name="Component 1 – 1" transform="translate(0.456 0.568)">
    <path id="Path_100" data-name="Path 100" d="M181.3,223.9l2.6.4,7.2.8,3.6.3,10,.8,9.6-.3.3,4.6-1.2.1v3.9l-.8.2.1,1.1-.1.6-.2.6v.1h4.3l-.2-1.8.1-.6.2-.6.5-1,.8-.9.9-.7,1.1-.4.7-.2.2-2v-.6l-3.7.2,1-2.4h15.3v1.4l10.4,1.8v2.4l11.9,1.5,6.1.2h6l6-.5.6-7.1,18.7-1.9h67l19-1.1-.1,7.9-1.7.5-.8.7-.8,1.6v1l1.3,2.4,1.8.7,1.8-.3.8-.5.7-.7.4-.8.1-1.9-.4-.9-.5-.7-.7-.6-.9-.4.7-3.9,5.1-4.1,2.4-.8,3.8-.7,2.6-.4,6.3-1.6,6.2-1.9,6.1-2.4,3.8-1.8,1.8-1.1,1.7-1.2,1.6-1.3,1.2-2.3-.6-1.7-1.6-1.7-2.9-2.1-1.7-.9-1.7-.7h0l-2.8-2.6-3-2.3-3.4-1.9-3.5-1.5-3.7-1-9.5-2.2-9.5-1.5-9.6-.8H98.8l-8.1-.5-3.2-.4-3.1-.7-3.1-1-2.9-1.2-2.8-1.5-2.7-1.7-2.6-2L26.5,132.9l-1.2-1-1.4-.9-1.5-.6-1.5-.4-1.6-.1H10.8l-.1.1h-.1v.1h-.1v.1h-.1v.3h-.1v.1h.1v.3h.1l-.2-.1-.1-.2-.1-.1-.1-.2-.2-.1-.1-.1-.2-.1H9.4l-.2-.1H1.7l24.1,56.4-.2-.2h-3l-5.4.4-2.1-.4-.7.2.7-.2-2.7-.3-2.7-.1,2.7.1,2.7.3-2.7-.3-2.7-.1-2.8.2-2.6.5,2.6-.5,2.8-.2-2.8.2-2.6.5,2.6-.5,2.8-.2-2.8.2-2.6.5-2.7.7,6.8,1.8-.5,2.3v.4l.1.2.1.2.7.9,26.6,7.5,26.3,9.1,9.9,3,10,2.6,5.2,1.3,5,1,5.1,1.1,18.4,2.9,7.4.8,5.2.5,10.4.7,5.2.1h35.3Z" transform="translate(-1.6 -129.9)" fill="none" stroke="#fff" stroke-linecap="round" stroke-linejoin="round" stroke-miterlimit="1.415" stroke-width="0.848"/>
    <path id="Path_101" data-name="Path 101" d="M382,231.8l.5.6.1.1.3.7v.2l.1.8v.1l-.1.7c0,.1-.1.2-.1.3l-.3.5c-.1.1-.1.2-.2.3l-.5.5c-.1,0-.1.1-.2.1l-.6.3c-.1,0-.2.1-.3.1l-.6.2h-1.2l-.5-.1c-.1-.1-.3-.1-.4-.2l-.4-.3c-.1-.1-.2-.2-.3-.2l-.4-.4c-.1-.1-.1-.2-.2-.3l-.3-.5c0-.1-.1-.2-.1-.4l-.1-.4V234h0v-.5a.367.367,0,0,1,.1-.3l.2-.6c.1-.1.1-.2.2-.3l.3-.5.3-.3.4-.3a.758.758,0,0,1,.4-.2l.4-.2.2-.1h1.8l.1.1.6.3c.1,0,.1.1.2.1l.6.6Z" transform="translate(-1.6 -129.9)" fill="none" stroke="#fff" stroke-linecap="round" stroke-linejoin="round" stroke-miterlimit="1.415" stroke-width="0.848"/>
    <circle id="Ellipse_2" data-name="Ellipse 2" cx="1.7" cy="1.7" r="1.7" transform="translate(375.8 102.7)" fill="none" stroke="#fff" stroke-linecap="round" stroke-linejoin="round" stroke-miterlimit="1.415" stroke-width="0.848"/>
    <path id="Path_102" data-name="Path 102" d="M207.9,239.8h0a4.153,4.153,0,0,1-2.5-.3,6.06,6.06,0,0,1-1.9-2c-.7-.8-.8-3.9.5-5.2.1-.1.1-.2.2-.2h0a4.938,4.938,0,0,1,3.2-1.6v.1h.4a4.792,4.792,0,0,1,2.3,9C209.5,240,208.8,239.8,207.9,239.8Z" transform="translate(-1.6 -129.9)" fill="none" stroke="#fff" stroke-linecap="round" stroke-linejoin="round" stroke-miterlimit="1.415" stroke-width="0.848"/>
    <path id="Path_103" data-name="Path 103" d="M210.1,235.2a2.15,2.15,0,1,0-4.3,0A2.15,2.15,0,1,0,210.1,235.2Z" transform="translate(-1.6 -129.9)" fill="none" stroke="#fff" stroke-linecap="round" stroke-linejoin="round" stroke-miterlimit="1.415" stroke-width="0.848"/>
    <path id="Path_104" data-name="Path 104" d="M221.6,240h0c-1.9,0-3.8-.2-4.6-1.9a5.549,5.549,0,0,1,.5-5.5c.1-.1.1-.2.2-.3h0a5.582,5.582,0,0,1,3.2-1.7v.1h.4a5.018,5.018,0,0,1,4.9,5.1C226.2,238.7,224.3,240,221.6,240Z" transform="translate(-1.6 -129.9)" fill="none" stroke="#fff" stroke-linecap="round" stroke-linejoin="round" stroke-miterlimit="1.415" stroke-width="0.848"/>
    <path id="Path_105" data-name="Path 105" d="M223.6,235.6a2.2,2.2,0,1,0-4.4,0A2.2,2.2,0,1,0,223.6,235.6Z" transform="translate(-1.6 -129.9)" fill="none" stroke="#fff" stroke-linecap="round" stroke-linejoin="round" stroke-miterlimit="1.415" stroke-width="0.848"/>
    <path id="Path_106" data-name="Path 106" d="M218.7,224.9l5.8-5.6,1.7.1-7.4,6.9-1,1-.4,1.2,3.6-.5.2,1.2-.2,1.6-.3.3c-2.9-.2-4.4,3.1-4,6.1l-4.2-.3a5.9,5.9,0,0,0,.2-1.4,4.829,4.829,0,0,0-3.5-4.6l4.7-.3,2.7-14.6,2.8.8-.8,4.7,2.7-3.9.9.6-4.4,6.4Z" transform="translate(-1.6 -129.9)" fill="none" stroke="#fff" stroke-linecap="round" stroke-linejoin="round" stroke-miterlimit="1.415" stroke-width="0.848"/>
    <path id="Path_107" data-name="Path 107" d="M412.2,197.4l2.6,2.6-3.5-.4-.7-.8v.8l-3,.7h-5.9V198l1.6-1.7h5l.5.5h2.5Z" transform="translate(-1.6 -129.9)" fill="none" stroke="#fff" stroke-linecap="round" stroke-linejoin="round" stroke-miterlimit="1.415" stroke-width="0.848"/>
    <path id="Path_108" data-name="Path 108" d="M382.6,222.7l4.5-.9-2.6,2.5h-.3l-2.2,2.6-.2.7h-.9l-.1.8H384l-.1.7-3-.1-.4,1.7h-1.6l.1-3.1h-1v-1.7h1v-2.3l-.9-.7,1.8-.1,1.7-.2-.3,3.3.6-.1,1.9-1.9Z" transform="translate(-1.6 -129.9)" fill="none" stroke="#fff" stroke-linecap="round" stroke-linejoin="round" stroke-miterlimit="1.415" stroke-width="0.848"/>
    <path id="Path_109" data-name="Path 109" d="M374.4,198.9a1.052,1.052,0,0,1,2.1.1h.1v.7h-.1a1.052,1.052,0,0,1-2.1-.1v-.7Z" transform="translate(-1.6 -129.9)" fill="none" stroke="#fff" stroke-linecap="round" stroke-linejoin="round" stroke-miterlimit="1.415" stroke-width="0.848"/>
    <path id="Path_110" data-name="Path 110" d="M371,198.9a1.052,1.052,0,0,1,2.1.1h0v.7h0a1.052,1.052,0,0,1-2.1-.1h0v-.7Z" transform="translate(-1.6 -129.9)" fill="none" stroke="#fff" stroke-linecap="round" stroke-linejoin="round" stroke-miterlimit="1.415" stroke-width="0.848"/>
    <path id="Path_111" data-name="Path 111" d="M322.2,198.9c.1-1.5,2.2-1.1,2.1.1h.1v.7h-.1c-.1,1.5-2.2,1.1-2.1-.1h0v-.7Z" transform="translate(-1.6 -129.9)" fill="none" stroke="#fff" stroke-linecap="round" stroke-linejoin="round" stroke-miterlimit="1.415" stroke-width="0.848"/>
    <path id="Path_112" data-name="Path 112" d="M318.7,198.9a1.052,1.052,0,0,1,2.1.1h0v.7h0a1.052,1.052,0,0,1-2.1-.1h0v-.7Z" transform="translate(-1.6 -129.9)" fill="none" stroke="#fff" stroke-linecap="round" stroke-linejoin="round" stroke-miterlimit="1.415" stroke-width="0.848"/>
    <path id="Path_113" data-name="Path 113" d="M287.2,198.9a1.052,1.052,0,0,1,2.1.1h0v.7h0c-.1,1.5-2.3,1.1-2.1-.1h-.1l.1-.7Z" transform="translate(-1.6 -129.9)" fill="none" stroke="#fff" stroke-linecap="round" stroke-linejoin="round" stroke-miterlimit="1.415" stroke-width="0.848"/>
    <path id="Path_114" data-name="Path 114" d="M283.6,198.9c.1-1.5,2.2-1.1,2.1.1h0v.7h0a1.051,1.051,0,0,1-2.1-.1h0v-.7Z" transform="translate(-1.6 -129.9)" fill="none" stroke="#fff" stroke-linecap="round" stroke-linejoin="round" stroke-miterlimit="1.415" stroke-width="0.848"/>
    <path id="Path_115" data-name="Path 115" d="M268,199v.7h0a1.052,1.052,0,0,1-2.1-.1h-.1v-.7h.1c0-1.4,2.1-1.2,2.1.1Z" transform="translate(-1.6 -129.9)" fill="none" stroke="#fff" stroke-linecap="round" stroke-linejoin="round" stroke-miterlimit="1.415" stroke-width="0.848"/>
    <path id="Path_116" data-name="Path 116" d="M262.3,198.9c.1-1.5,2.2-1.1,2.1.1h0v.7h0a1.052,1.052,0,0,1-2.1-.1h-.1l.1-.7Z" transform="translate(-1.6 -129.9)" fill="none" stroke="#fff" stroke-linecap="round" stroke-linejoin="round" stroke-miterlimit="1.415" stroke-width="0.848"/>
    <path id="Path_117" data-name="Path 117" d="M258.8,198.9a1.054,1.054,0,0,1,2.1.1h0v.7h0a1.052,1.052,0,0,1-2.1-.1v-.7Z" transform="translate(-1.6 -129.9)" fill="none" stroke="#fff" stroke-linecap="round" stroke-linejoin="round" stroke-miterlimit="1.415" stroke-width="0.848"/>
    <path id="Path_118" data-name="Path 118" d="M96,198v.7h-.1a1.051,1.051,0,1,1-2.1-.1h0v-.7h0a1.1,1.1,0,0,1,2.2.1Z" transform="translate(-1.6 -129.9)" fill="none" stroke="#fff" stroke-linecap="round" stroke-linejoin="round" stroke-miterlimit="1.415" stroke-width="0.848"/>
    <path id="Path_119" data-name="Path 119" d="M181.3,223.9l2.6.4,7.2.8,3.6.3,10,.8,9.6-.3.3,4.6-1.2.1v3.9l-.8.2.1,1.1-.1.6-.2.6v.1h4.3l-.2-1.8.1-.6.2-.6.5-1,.8-.9.9-.7,1.1-.4.7-.2.2-2v-.6l-3.7.2,1-2.4h15.3v1.4l10.4,1.8v2.4l11.9,1.5,6.1.2h6l6-.5.6-7.1,18.7-1.9h67l19-1.1-.1,7.9-1.7.5-.8.7-.8,1.6v1l1.3,2.4,1.8.7,1.8-.3.8-.5.7-.7.4-.8.1-1.9-.4-.9-.5-.7-.7-.6-.9-.4.7-3.9,5.1-4.1,2.4-.8,3.8-.7,2.6-.4,6.3-1.6,6.2-1.9,6.1-2.4,3.8-1.8,1.8-1.1,1.7-1.2,1.6-1.3,1.2-2.3-.6-1.7-1.6-1.7-2.9-2.1-1.7-.9-1.7-.7h0l-2.8-2.6-3-2.3-3.4-1.9-3.5-1.5-3.7-1-9.5-2.2-9.5-1.5-9.6-.8H98.8l-8.1-.5-3.2-.4-3.1-.7-3.1-1-2.9-1.2-2.8-1.5-2.7-1.7-2.6-2L26.5,132.9l-1.2-1-1.4-.9-1.5-.6-1.5-.4-1.6-.1H10.8l-.1.1h-.1v.1h-.1v.1h-.1v.3h-.1v.1h.1v.3h.1l-.2-.1-.1-.2-.1-.1-.1-.2-.2-.1-.1-.1-.2-.1H9.4l-.2-.1H1.7l24.1,56.4-.2-.2h-3l-5.4.4-2.1-.4-.7.2.7-.2-2.7-.3-2.7-.1,2.7.1,2.7.3-2.7-.3-2.7-.1-2.8.2-2.6.5,2.6-.5,2.8-.2-2.8.2-2.6.5,2.6-.5,2.8-.2-2.8.2-2.6.5-2.7.7,6.8,1.8-.5,2.3v.4l.1.2.1.2.7.9,26.6,7.5,26.3,9.1,9.9,3,10,2.6,5.2,1.3,5,1,5.1,1.1,18.4,2.9,7.4.8,5.2.5,10.4.7,5.2.1h35.3l2.5.4" transform="translate(-1.6 -129.9)" fill="none" stroke="#fff" stroke-linecap="round" stroke-linejoin="round" stroke-miterlimit="1.415" stroke-width="0.848"/>
    <path id="Path_120" data-name="Path 120" d="M93.8,197.9v.7M96,198v.7m-2.2-.1h0a1.1,1.1,0,0,0,1,1.1.945.945,0,0,0,1-1m.1-.8h0a1.1,1.1,0,0,0-1-1.1.945.945,0,0,0-1,1m312.2,2.5v-4m-4.4,1.7,1.6-1.7m-1.6,1.7v2.3h6l3-.6v-.8m-7.4-2.6h5.1l.5.5m1.8-.5h-2.4l3.1,3.3,3.3.4m-34-7.6h0a.669.669,0,0,0-.7.6v.2m1,12v-1.7a50.387,50.387,0,0,0-1-10.2m1,11.8h0a1.018,1.018,0,0,0,.9,1.1m6.3.1a.789.789,0,0,0,.8-.8m-1.1-12.7a.67.67,0,0,0-.7-.4H387m2,13.1v-1.1a63.113,63.113,0,0,0-1.1-11.5m-7.2-.5H387M168.5,215.9a2.651,2.651,0,0,0,.1,4.5m.1.1,1.5.8,1.5.7,1.6.6.7.2m119.2.8.8-.2m.5-2.3-4.4-4.4-5-3.7-5.4-2.9-5.8-2.1-6.1-1.2-6.2-.2M82.2,192.2c0,1.1-.1,2.2-.1,3.3,0,2.5.1,5.1.3,7.6m.3-11.8a.752.752,0,0,0-.5.7m7.9-.1v-.1a.576.576,0,0,0-.6-.6h-.1m.7.7c-.1,1.3-.2,2.7-.2,4a44.03,44.03,0,0,0,.6,7.3m-7.9-12h6.7M8.8,192.9l.4.1,1.1.3,2.6.7m297.5,12.3h.3l.1-.1h0V206l.1-.1v-.1h0v-.1m-8,0v.1h0v.1l.1.1v.1h0l.1.1h.4m0-13.6h-.3l-.1.1H303v.1h0l-.1.1v.1h0v.2m8.1.1v-.2h0V193l-.1-.1h0v-.1h-.1v-.1h-.3m-.1,13.6h-6.9m-.6-.6V193.3m.6-.7h6.9m.6.7v12.4m71,.6h6.2M23.5,186.1H42.9m-19.4,0h-.9m338.1,37.4,19.4-.9m0,.1,9.1-1,9-1.8,8.8-2.6,8.5-3.4,2.6-1.3,2.5-1.6,2.3-1.8m-380-23.1h51m321.6,27.8V200.7M26.4,132.9,68,175.2M26.4,186.1H42.9m-30.1,8,22.6,6.3m182.1,27.4,2.1-2m-1.6-1h.6l1,1m2.5-7.3-3.8,5.6m162.4,1.1.3-1.7m.5-.7L381,226m1.5-3.4,1,1m-2,2.9h0l.1.1.1-.1-.1-.1-.1.1h0m3.3-4.1-1.2,1.3m.8.7-.8-.8m2.9-1.5-2.2,2.3m-.1-.2-2,2m1.6-2.4-2,2.1m-.5,1a.367.367,0,0,0,.3.1.6.6,0,1,0,0-1.2.367.367,0,0,0-.3.1m-.1,1h-.6m.7-.9h-.7m3.3,3v-.7m0,.7-3.1-.1-.1-.1m.1-.4v.4l-1.7-.1m4.8-.4-3.1-.1-.1.2m-.2,2.2v-1.8m0-.4.2-5.6m.1,6v-.4m0,.4-1.7-.1m1.7-.3-1.6-.1m-.1,2.2.2-7.7M183.9,192.6H191m-7.8,6.4v-5.8m8.4,0v7m-7.7-7.6h0l-.2.1h-.1l-.1.1h-.1v.1h0v.3m8.2,0V193l-.1-.1v-.1h-.1v-.1h-.2v-.1h-.1" transform="translate(-1.6 -129.9)" fill="none" stroke="#fff" stroke-linecap="round" stroke-linejoin="round" stroke-miterlimit="1.415" stroke-width="0.848"/>
    <path id="Path_121" data-name="Path 121" d="M182.3,203.5l-2.2-.7m28,4.8a87.682,87.682,0,0,0,11.5.8h2.6m-19.4-2.5c1.9.1,3.8.2,5.8.2h2.6m7.6,15.4,2.4-3.6m-4.6-.1,2.3.5m-23.7-7a1.435,1.435,0,0,0-1.3,1.5,1.606,1.606,0,0,0,.5,1.1m0,0a16.469,16.469,0,0,0,5.8,1m0,.1h12.2m11.8,4.2,9.3.8m-29-8.4a23.676,23.676,0,0,0,6.1,2.7m13.6,4.9a38.977,38.977,0,0,0-13.6-4.9m10.2-5.4a61.094,61.094,0,0,0,8.6.6,63.57,63.57,0,0,0,14.4-1.6m-55.2,2.3a107.527,107.527,0,0,0-20.1,5.8m22.8-5.5a67.562,67.562,0,0,0,30.9-2.1m-40.4.1a37.152,37.152,0,0,0,11.9,2,36.264,36.264,0,0,0,17.4-4.4m-36.9-.5a1.326,1.326,0,0,0-.6,1,1.1,1.1,0,0,0,.6,1m0,0a67.482,67.482,0,0,0,33.8-3.4m-16.1-1.1c-1.1-.1-2.2-.1-3.3-.1a41.669,41.669,0,0,0-14.4,2.6m17.8-2.5a87.782,87.782,0,0,0,13.5,1.1h2.6m66.6,21.7,3.7-.3,3.7-.4,3.7-.5,3.7-.5,3.7-.6m-66.3-.8a.52.52,0,0,0-.2.4.758.758,0,0,0,.2.4m6.6-3.6a19.36,19.36,0,0,0-6.6,2.8m-7.9,3.6h14.8m-7-2.9a20.231,20.231,0,0,0,6.6,2.8m13.9-17.8a2.878,2.878,0,0,0-2.1-.9,3.529,3.529,0,0,0-1.4.3m3.6.5a31.211,31.211,0,0,0,4.3,1.5m16.9,3.4-3.4-.9-3.4-.8-3.4-.7-3.4-.6-3.4-.5m17.7-1.5a14.083,14.083,0,0,0-2-.1,7.568,7.568,0,0,0-1.5.1m6.1,5.4a4.707,4.707,0,0,0,.4-1.6,3.961,3.961,0,0,0-3-3.8m4.9,5.9a89.145,89.145,0,0,0-12.6-1,79.5,79.5,0,0,0-17.5,1.9m31.1.5a2.068,2.068,0,0,0-1-1.4m.1,17.7,1-16.4M244,229.3l-10.2-1.9M243.9,217l-10.1,1.9m0,8.5v-8.5m10.4,12.8V215.1m17.4-8.4-20.1.2M210,203.3l9.2,1.3,9.3,1.1,9.3.9,9.3.7,9.3.6,9.3.4m-49,7.9L214,231m5.4-13.7-2.1,11.2m8.9-9-6.6,6.3m4.7-6.4-5.7,5.4m-196-38.7-5.4.4m-6.7-55.6,32.4,55m123.8,10.2a3.63,3.63,0,0,0,1.7.7m41.6,6.5-37.5-5.8m-5.9-1.4L153,186.3m-4.6.7,4.1,8.6m5.9,1.5c7.3,1.9,14.7,3.4,21.8,5.7M51,191.9l-33.3-5.3-2.7-.5-2.7-.3H9.6l-2.7.2-2.7.5-2.6.7,19.1,5.2,6,1.1,6.1.7,6.1.3,6.1-.1,6.1-.5m.9-1v-.1c0-.1,0-.1-.1-.2m-.8,1a1.2,1.2,0,0,0,1-.7m-.1-.3a1.589,1.589,0,0,0-1-.8M82.4,203a1.281,1.281,0,0,0,1.1,1m-21.9,5.5,5,1.6,5,1.4,5,1.4,5.1,1.3,5.1,1.2,5.1,1.1,5.1,1.1,5.1.9,5.1.8,5.2.8,5.2.6,5.2.6,5.2.5,5.2.4,5.2.3,5.2.2M89.9,204.3a.666.666,0,0,0,.5-.7v-.2m-7,.7,6.6.2m-54.6-3.9,26.2,9.1h0m117.2,14H143.4m217.3,0H293m1.9-.3a.752.752,0,0,0,.5-.7.842.842,0,0,0-.4-.7m-.1-.1-.5-.6m.5,2-1,.3m-6.8-24.5v.7m2.1-.6v.7m-2-.1h0a1.1,1.1,0,0,0,1,1.1.945.945,0,0,0,1-1m0-.7h0a1.1,1.1,0,0,0-1-1.1.945.945,0,0,0-1,1m-3.6,0v.7m2.1-.6v.7m-2.1-.1h0a1.1,1.1,0,0,0,1,1.1.945.945,0,0,0,1-1m.1-.7h0a1.1,1.1,0,0,0-1-1.1.945.945,0,0,0-1,1m10.6,0a1.052,1.052,0,0,1,2.1.1h0v.7h0c-.1,1.5-2.3,1.1-2.1-.1h-.1l.1-.7Zm-3.6,0c.1-1.5,2.2-1.1,2.1.1h0v.7h0a1.051,1.051,0,0,1-2.1-.1h0v-.7Zm3.5,0v.7m2.1-.6v.7m-2-.1h0a1.1,1.1,0,0,0,1,1.1.945.945,0,0,0,1-1m0-.7h0a1.1,1.1,0,0,0-1-1.1.945.945,0,0,0-1,1m-3.6,0v.7m2.1-.6v.7m-2.1-.1h0a1.1,1.1,0,0,0,1,1.1.945.945,0,0,0,1-1m.1-.7h0a1.1,1.1,0,0,0-1-1.1.945.945,0,0,0-1,1m-17.8,0a1.052,1.052,0,0,1,2.1.1h0v.7h0c-.1,1.5-2.3,1.1-2.1-.1h-.1l.1-.7Zm-3.6,0c.1-1.5,2.2-1.1,2.1.1h0v.7h0a1.051,1.051,0,0,1-2.1-.1h0v-.7Zm3.5,0v.7m2.1-.6v.7m-2-.1h0a1.1,1.1,0,0,0,1,1.1.945.945,0,0,0,1-1m0-.7h0a1.1,1.1,0,0,0-1-1.1.945.945,0,0,0-1,1m-3.6,0v.7m2.1-.6v.7m-2.1-.1h0a1.1,1.1,0,0,0,1,1.1.945.945,0,0,0,1-1m.1-.7h0a1.1,1.1,0,0,0-1-1.1.945.945,0,0,0-1,1m10.5,0a1.052,1.052,0,0,1,2.1.1h0v.7h0c-.1,1.5-2.3,1.1-2.1-.1h-.1l.1-.7Zm-3.6,0c.1-1.5,2.2-1.1,2.1.1h0v.7h0a1.051,1.051,0,0,1-2.1-.1h0v-.7Zm3.5,0v.7m2.1-.6v.7m-2-.1h0a1.1,1.1,0,0,0,1,1.1.945.945,0,0,0,1-1m0-.7h0a1.1,1.1,0,0,0-1-1.1.945.945,0,0,0-1,1m-3.6,0v.7m2.1-.6v.7m-2.1-.1h0a1.1,1.1,0,0,0,1,1.1.945.945,0,0,0,1-1m.1-.7h0a1.1,1.1,0,0,0-1-1.1.945.945,0,0,0-1,1m-70.8,0a1.052,1.052,0,0,1,2.1.1h0v.7h0c-.1,1.5-2.3,1.1-2.1-.1h-.1l.1-.7Zm-3.6,0c.1-1.5,2.2-1.1,2.1.1h0v.7h0a1.051,1.051,0,0,1-2.1-.1h0v-.7Zm3.5,0v.7m2.1-.6v.7m-2-.1h0a1.1,1.1,0,0,0,1,1.1.945.945,0,0,0,1-1m0-.7h0a1.1,1.1,0,0,0-1-1.1.945.945,0,0,0-1,1m-3.6,0v.7m2.1-.6v.7m-2.1-.1h0a1.1,1.1,0,0,0,1,1.1.945.945,0,0,0,1-1m.1-.7h0a1.1,1.1,0,0,0-1-1.1.945.945,0,0,0-1,1m10.6,0a1.052,1.052,0,0,1,2.1.1h0v.7h0c-.1,1.5-2.3,1.1-2.1-.1h-.1l.1-.7Zm-3.6,0c.1-1.5,2.2-1.1,2.1.1h0v.7h0a1.051,1.051,0,0,1-2.1-.1h0v-.7Zm3.5,0v.7m2.1-.6v.7m-2-.1h0a1.1,1.1,0,0,0,1,1.1.945.945,0,0,0,1-1m0-.7h0a1.1,1.1,0,0,0-1-1.1.945.945,0,0,0-1,1m-3.6,0v.7m2.1-.6v.7m-2.1-.1h0a1.1,1.1,0,0,0,1,1.1.945.945,0,0,0,1-1m.1-.7h0a1.1,1.1,0,0,0-1-1.1.945.945,0,0,0-1,1m10.7,0a1.052,1.052,0,0,1,2.1.1h0v.7h0c-.1,1.5-2.3,1.1-2.1-.1h-.1l.1-.7Zm-3.6,0c.1-1.5,2.2-1.1,2.1.1h0v.7h0a1.051,1.051,0,0,1-2.1-.1h0v-.7Zm3.5,0v.7m2.1-.6v.7m-2-.1h0a1.1,1.1,0,0,0,1,1.1.945.945,0,0,0,1-1m0-.7h0a1.1,1.1,0,0,0-1-1.1.945.945,0,0,0-1,1m-3.6,0v.7m2.1-.6v.7m-2.1-.1h0a1.1,1.1,0,0,0,1,1.1.945.945,0,0,0,1-1m.1-.7h0a1.1,1.1,0,0,0-1-1.1.945.945,0,0,0-1,1m-85.4,0a1.052,1.052,0,0,1,2.1.1h0v.7h0c-.1,1.5-2.3,1.1-2.1-.1H131l.1-.7Zm-3.6,0c.1-1.5,2.2-1.1,2.1.1h0v.7h0a1.051,1.051,0,0,1-2.1-.1h0v-.7Zm3.5,0v.7m2.1-.6v.7m-2-.1h0a1.1,1.1,0,0,0,1,1.1.945.945,0,0,0,1-1m0-.7h0a1.1,1.1,0,0,0-1-1.1.945.945,0,0,0-1,1m-3.6,0v.7m2.1-.6v.7m-2.1-.1h0a1.1,1.1,0,0,0,1,1.1.945.945,0,0,0,1-1m.1-.7h0a1.1,1.1,0,0,0-1-1.1.945.945,0,0,0-1,1m10.6,0a1.052,1.052,0,0,1,2.1.1h0v.7h0c-.1,1.5-2.3,1.1-2.1-.1h-.1l.1-.7Zm-3.6,0c.1-1.5,2.2-1.1,2.1.1h0v.7h0a1.051,1.051,0,0,1-2.1-.1h0v-.7Zm3.5,0v.7m2.1-.6v.7m-2-.1h0a1.1,1.1,0,0,0,1,1.1.945.945,0,0,0,1-1m0-.7h0a1.1,1.1,0,0,0-1-1.1.945.945,0,0,0-1,1m-3.6,0v.7m2.1-.6v.7m-2.1-.1h0a1.1,1.1,0,0,0,1,1.1.945.945,0,0,0,1-1m.1-.7h0a1.1,1.1,0,0,0-1-1.1.945.945,0,0,0-1,1m10.7,0a1.052,1.052,0,0,1,2.1.1h0v.7h0c-.1,1.5-2.3,1.1-2.1-.1h-.1l.1-.7Zm-3.6,0c.1-1.5,2.2-1.1,2.1.1h0v.7h0a1.051,1.051,0,0,1-2.1-.1h0v-.7Zm3.5,0v.7m2.1-.6v.7m-2-.1h0a1.1,1.1,0,0,0,1,1.1.945.945,0,0,0,1-1m0-.7h0a1.1,1.1,0,0,0-1-1.1.945.945,0,0,0-1,1m-3.6,0v.7m2.1-.6v.7m-2.1-.1h0a1.1,1.1,0,0,0,1,1.1.945.945,0,0,0,1-1m.1-.7h0a1.1,1.1,0,0,0-1-1.1.945.945,0,0,0-1,1m123.9,0v.7m2.2-.6v.7m-2.1-.1h0a1.1,1.1,0,0,0,1,1.1.945.945,0,0,0,1-1m0-.7h0a1.1,1.1,0,0,0-1-1.1.945.945,0,0,0-1,1m-3.6,0v.7m2.1-.6v.7m-2.1-.1h0a1.1,1.1,0,0,0,1,1.1.945.945,0,0,0,1-1m.1-.7h0a1.1,1.1,0,0,0-1-1.1.945.945,0,0,0-1,1m-3.6,0v.7m2.1-.6v.7m-2.1-.1h0a1.1,1.1,0,0,0,1,1.1.945.945,0,0,0,1-1m.1-.7h0a1.1,1.1,0,0,0-1-1.1.945.945,0,0,0-1,1m112.1,0v.7m2.1-.6v.7m-2.1-.1h0a1.1,1.1,0,0,0,1,1.1.945.945,0,0,0,1-1m.1-.7h0a1.1,1.1,0,0,0-1-1.1.945.945,0,0,0-1,1m3.3,0v.7m2.1-.6v.7m-2.1-.1h0a1.1,1.1,0,0,0,1,1.1.945.945,0,0,0,1-1m.1-.7h0a1.1,1.1,0,0,0-1-1.1.945.945,0,0,0-1,1m-52.3,0v.7m2.1-.6v.7m-2.1-.1h0a1.1,1.1,0,0,0,1,1.1.945.945,0,0,0,1-1m.1-.7h0a1.1,1.1,0,0,0-1-1.1.945.945,0,0,0-1,1m-3.6,0v.7m2.1-.6v.7m-2.1-.1h0a1.1,1.1,0,0,0,1,1.1.945.945,0,0,0,1-1m.1-.7h0a1.1,1.1,0,0,0-1-1.1.945.945,0,0,0-1,1m10.6,0c.1-1.5,2.2-1.1,2.1.1h.1v.7h-.1c-.1,1.5-2.2,1.1-2.1-.1h0v-.7Zm-3.5,0a1.052,1.052,0,0,1,2.1.1h0v.7h0a1.052,1.052,0,0,1-2.1-.1h0v-.7Zm3.5,0v.7m2.1-.6v.7m-2.1-.1h0a1.1,1.1,0,0,0,1,1.1.945.945,0,0,0,1-1m.1-.7h0a1.1,1.1,0,0,0-1-1.1.945.945,0,0,0-1,1m-3.6,0v.7m2.1-.6v.7m-2.1-.1h0a1.1,1.1,0,0,0,1,1.1.945.945,0,0,0,1-1m.1-.7h0a1.1,1.1,0,0,0-1-1.1.945.945,0,0,0-1,1m10.7,0c.1-1.5,2.2-1.1,2.1.1h.1v.7h-.1c-.1,1.5-2.2,1.1-2.1-.1h0v-.7Zm-3.5,0a1.052,1.052,0,0,1,2.1.1h0v.7h0a1.052,1.052,0,0,1-2.1-.1h0v-.7Zm3.5,0v.7m2.1-.6v.7m-2.1-.1h0a1.1,1.1,0,0,0,1,1.1.945.945,0,0,0,1-1m.1-.7h0a1.1,1.1,0,0,0-1-1.1.945.945,0,0,0-1,1m-3.6,0v.7m2.1-.6v.7m-2.1-.1h0a1.1,1.1,0,0,0,1,1.1.945.945,0,0,0,1-1m.1-.7h0a1.1,1.1,0,0,0-1-1.1.945.945,0,0,0-1,1m10.6,0c.1-1.5,2.2-1.1,2.1.1h.1v.7H346c-.1,1.5-2.2,1.1-2.1-.1h0v-.7Zm-3.5,0a1.052,1.052,0,0,1,2.1.1h0v.7h0a1.052,1.052,0,0,1-2.1-.1h0v-.7Zm3.5,0v.7m2.1-.6v.7m-2.1-.1h0a1.1,1.1,0,0,0,1,1.1.945.945,0,0,0,1-1m.1-.7h0a1.1,1.1,0,0,0-1-1.1.945.945,0,0,0-1,1m-3.6,0v.7m2.1-.6v.7m-2.1-.1h0a1.1,1.1,0,0,0,1,1.1.945.945,0,0,0,1-1m.1-.7h0a1.1,1.1,0,0,0-1-1.1.945.945,0,0,0-1,1" transform="translate(-1.6 -129.9)" fill="none" stroke="#fff" stroke-linecap="round" stroke-linejoin="round" stroke-miterlimit="1.415" stroke-width="0.848"/>
    <path id="Path_122" data-name="Path 122" d="M398.7,190.9l-9.5-2.2-9.5-1.5-9.7-.8h-9.7m19,44.3v-7.9m1.2,8.2.3-2.6.3-5.6m-.1,4.1,5.1-4.1m-187.8,2.8a74.16,74.16,0,0,0,9.4.6q3.3,0,6.6-.3m208.2-16.3a2.845,2.845,0,0,0,1.1-2.3,2.518,2.518,0,0,0-.9-2M381,223l1.6-.1m-168.3,3,.3,4.5m3.3-4.5-1.1,3.1m-.1.9.1-4.1m-18.5-.2-3.6-.2-3.6-.3-3.6-.4-3.6-.4-10-1.4m241.2-22.7a31.151,31.151,0,0,0-16.4-9.3m24,14.4a19.632,19.632,0,0,0-7.6-5.1M8.4,188.9,8,191.1m-.1.1v.4l.1.2.1.2.7.9m-7.1-63,24,56.4m126.8,9.3,5.8,1.5m10-.3,4.2.7" transform="translate(-1.6 -129.9)" fill="none" stroke="#fff" stroke-linecap="round" stroke-linejoin="round" stroke-miterlimit="1.415" stroke-width="0.848"/>
    <path id="Path_123" data-name="Path 123" d="M379.1,234.7a.4.4,0,1,0-.4-.4A.366.366,0,0,0,379.1,234.7Zm0,1.3a1.7,1.7,0,1,0-1.7-1.7A1.626,1.626,0,0,0,379.1,236Z" transform="translate(-1.6 -129.9)" fill="none" stroke="#fff" stroke-linecap="round" stroke-linejoin="round" stroke-miterlimit="1.415" stroke-width="0.848"/>
    <path id="Path_124" data-name="Path 124" d="M244.2,231.7l5.7.9,6,.6,6.1.2h6l5.7-.4" transform="translate(-1.6 -129.9)" fill="none" stroke="#fff" stroke-linecap="round" stroke-linejoin="round" stroke-miterlimit="1.415" stroke-width="0.848"/>
    <path id="Path_125" data-name="Path 125" d="M379.2,230.7a3.438,3.438,0,0,0-3.3,3.5,3.5,3.5,0,0,0,7,0,3.317,3.317,0,0,0-2.6-3.3" transform="translate(-1.6 -129.9)" fill="none" stroke="#fff" stroke-linecap="round" stroke-linejoin="round" stroke-miterlimit="1.415" stroke-width="0.848"/>
    <path id="Path_126" data-name="Path 126" d="M273.7,233l.2-.2.2-.2.1-.3.1-.4" transform="translate(-1.6 -129.9)" fill="none" stroke="#fff" stroke-linecap="round" stroke-linejoin="round" stroke-miterlimit="1.415" stroke-width="0.848"/>
    <line id="Line_5" data-name="Line 5" x1="1.4" y1="0.1" transform="translate(377.5 100.6)" fill="none" stroke="#fff" stroke-linecap="round" stroke-linejoin="round" stroke-miterlimit="1.415" stroke-width="0.848"/>
    <path id="Path_127" data-name="Path 127" d="M381.3,237.1a3.5,3.5,0,0,0,1.4-2.8,3.6,3.6,0,0,0-7.2,0,3.5,3.5,0,0,0,1.4,2.8" transform="translate(-1.6 -129.9)" fill="none" stroke="#fff" stroke-linecap="round" stroke-linejoin="round" stroke-miterlimit="1.415" stroke-width="0.848"/>
    <line id="Line_6" data-name="Line 6" x2="261.5" transform="translate(97.2 56.5)" fill="none" stroke="#fff" stroke-linecap="round" stroke-linejoin="round" stroke-miterlimit="1.415" stroke-width="0.848"/>
    <path id="Path_128" data-name="Path 128" d="M26.5,132.9a10.224,10.224,0,0,0-7.2-3" transform="translate(-1.6 -129.9)" fill="none" stroke="#fff" stroke-linecap="round" stroke-linejoin="round" stroke-miterlimit="1.415" stroke-width="0.848"/>
    <path id="Path_129" data-name="Path 129" d="M153,186.3a5.283,5.283,0,0,0-1.3-.1,7.308,7.308,0,0,0-3.3.8" transform="translate(-1.6 -129.9)" fill="none" stroke="#fff" stroke-linecap="round" stroke-linejoin="round" stroke-miterlimit="1.415" stroke-width="0.848"/>
    <path id="Path_130" data-name="Path 130" d="M68,175.2l2.3,2.2,2.6,2,2.7,1.7,2.8,1.5,2.9,1.2,3.1,1,3.1.7,3.2.4,8.1.5" transform="translate(-1.6 -129.9)" fill="none" stroke="#fff" stroke-linecap="round" stroke-linejoin="round" stroke-miterlimit="1.415" stroke-width="0.848"/>
    <path id="Path_131" data-name="Path 131" d="M10.5,130.9l-.2-.1-.1-.2-.1-.1-.1-.2-.2-.1-.1-.1-.2-.1H9.4l-.2-.1" transform="translate(-1.6 -129.9)" fill="none" stroke="#fff" stroke-linecap="round" stroke-linejoin="round" stroke-miterlimit="1.415" stroke-width="0.848"/>
    <path id="Path_132" data-name="Path 132" d="M18.4,129.9H10.8l-.1.1h-.1v.1h-.1v.1h-.1v.3h-.1v.1h.1v.3h.1" transform="translate(-1.6 -129.9)" fill="none" stroke="#fff" stroke-linecap="round" stroke-linejoin="round" stroke-miterlimit="1.415" stroke-width="0.848"/>
    <line id="Line_7" data-name="Line 7" x1="7.5" transform="translate(0.1)" fill="none" stroke="#fff" stroke-linecap="round" stroke-linejoin="round" stroke-miterlimit="1.415" stroke-width="0.848"/>
    <line id="Line_8" data-name="Line 8" x2="0.9" transform="translate(16.8)" fill="none" stroke="#fff" stroke-linecap="round" stroke-linejoin="round" stroke-miterlimit="1.415" stroke-width="0.848"/>
    <path id="Path_133" data-name="Path 133" d="M218.2,239.5l-.8-.9-.6-1-.3-1.2v-1.1l.3-1.2.5-1,.8-.9.9-.7,1.1-.4,1.2-.2,1.2.2,1.1.4,1,.7.7.9.5,1,.3,1.2v1.1l-.3,1.2-.6,1-.8.9h-6.2" transform="translate(-1.6 -129.9)" fill="none" stroke="#fff" stroke-linecap="round" stroke-linejoin="round" stroke-miterlimit="1.415" stroke-width="0.848"/>
    <path id="Path_134" data-name="Path 134" d="M205.5,239.7l-.9-.7-.7-.9-.6-1-.2-1.1v-1.2l.2-1.1.6-1,.7-.9,1-.6,1-.5,1.2-.1,1.1.1,1.1.4,1,.6.8.9.5,1,.3,1.1.1,1.1-.3,1.2-.5,1-.7.9-.9.7-4.8.1" transform="translate(-1.6 -129.9)" fill="none" stroke="#fff" stroke-linecap="round" stroke-linejoin="round" stroke-miterlimit="1.415" stroke-width="0.848"/>
    <path id="Path_135" data-name="Path 135" d="M217.5,228.9a.215.215,0,0,0,.2-.2c0-.1-.1-.1-.1-.2m-.1.4h-.6m.7-.3-1-.5" transform="translate(-1.6 -129.9)" fill="none" stroke="#fff" stroke-linecap="round" stroke-linejoin="round" stroke-miterlimit="1.415" stroke-width="0.848"/>
    <path id="Path_136" data-name="Path 136" d="M221.1,229.6a.3.3,0,1,0-.3-.3C220.7,229.4,220.9,229.6,221.1,229.6Zm-.1-1a.3.3,0,1,0-.3-.3A.319.319,0,0,0,221,228.6Z" transform="translate(-1.6 -129.9)" fill="none" stroke="#fff" stroke-linecap="round" stroke-linejoin="round" stroke-miterlimit="1.415" stroke-width="0.848"/>
    <path id="Path_137" data-name="Path 137" d="M218.3,226.1l-1.6,3.9m-5.2-3.6h3.3m2.5,2.5-.4,2.4m3.8-2.4-1,.9m.9-1.3-1.1,1m1.1-1-3.2.5m3.3-.9-3.1.5m3.1.7-.1-1m.8,1-.1-1.1" transform="translate(-1.6 -129.9)" fill="none" stroke="#fff" stroke-linecap="round" stroke-linejoin="round" stroke-miterlimit="1.415" stroke-width="0.848"/>
    <path id="Path_138" data-name="Path 138" d="M221.3,238.1a2.3,2.3,0,1,0-2.3-2.3A2.326,2.326,0,0,0,221.3,238.1Zm0-.5a1.9,1.9,0,0,0,1.9-1.9,1.967,1.967,0,0,0-1.9-1.9,1.9,1.9,0,0,0-1.9,1.9A1.839,1.839,0,0,0,221.3,237.6Zm0-1.2a.6.6,0,1,0-.6-.6A.53.53,0,0,0,221.3,236.4Z" transform="translate(-1.6 -129.9)" fill="none" stroke="#fff" stroke-linecap="round" stroke-linejoin="round" stroke-miterlimit="1.415" stroke-width="0.848"/>
    <path id="Path_139" data-name="Path 139" d="M218.2,239.5a4.8,4.8,0,1,1,6.2,0" transform="translate(-1.6 -129.9)" fill="none" stroke="#fff" stroke-linecap="round" stroke-linejoin="round" stroke-miterlimit="1.415" stroke-width="0.848"/>
    <path id="Path_140" data-name="Path 140" d="M207.9,237.7a2.3,2.3,0,1,0-2.3-2.3A2.2,2.2,0,0,0,207.9,237.7Zm0-.4a1.9,1.9,0,1,0-1.9-1.9A1.839,1.839,0,0,0,207.9,237.3Zm0-1.2a.6.6,0,1,0-.6-.6C207.2,235.8,207.5,236.1,207.9,236.1Z" transform="translate(-1.6 -129.9)" fill="none" stroke="#fff" stroke-linecap="round" stroke-linejoin="round" stroke-miterlimit="1.415" stroke-width="0.848"/>
    <path id="Path_141" data-name="Path 141" d="M216,230.6h.7m-2.1-.1-1.2.1m-1.5,3.9h1.5m2.6,0h1.7m-1-3.9V230m-.7,4.5v-3.9m-2.6,0v3.9m-1.5,2.6h5.8m-5.8-2.6a4.1,4.1,0,1,0-3.9,5.4,3.993,3.993,0,0,0,3.9-2.8m5.8-.1a4.1,4.1,0,1,0,0-2.6m-3.8.3h-1.3m2.7,1.1,1.4-4m4.7-2.2h0l-.1.2v.3m-.1.8V230m-.4.9v-1.4m-1.1.4-.4-.5m-1.7,2.4-.4.1m2.5-2-2.2,1.8m1.8-2.3-2.2,1.9m.1.6a.215.215,0,0,0,.2-.2c0-.1,0-.2-.1-.2m-3.4,4.9h-1.4m4.7-4.6H216m1.3-.4-1.1-.4m.1,1.8-2.4-.4m-1.1,1a.4.4,0,0,0,.4.2.5.5,0,0,0,0-1H213m3.6,2.1h-.9m.8,1.7h-1.3m.1-.7-.1,1.5m-1.3-1.5.2,1.5m2.6-.1h-4.3m.4-3.8-.8-.3m1.1-.4-2.1-.8m4,0-1.1-.3h-3.3m3.7-1.9-.3,1-4.5.4m4.4,4.6.1-4.5m-.1,4.5h0a.773.773,0,0,0,.7.8.669.669,0,0,0,.7-.6m-4.8,3.6a4.952,4.952,0,0,0,2.2-4.2,4.8,4.8,0,1,0-9.6.4,4.734,4.734,0,0,0,2.2,3.8" transform="translate(-1.6 -129.9)" fill="none" stroke="#fff" stroke-linecap="round" stroke-linejoin="round" stroke-miterlimit="1.415" stroke-width="0.848"/>
  </g>
</svg>
