<svg xmlns="http://www.w3.org/2000/svg" width="284.848" height="89.907" viewBox="0 0 284.848 89.907">
  <g id="Challenger_604_1_" transform="translate(0.45 0.454)">
    <path id="Path_142" data-name="Path 142" d="M199,202.6l-21.4-3.2m54.6,3c-10.8,1.8-22.4,1.3-33.5-.6m9,1,1.9,3h-8.9l-2.5-4.6L174,199l-4.4-11.4h5.2l9.3,10.7m47.7,4.3c4.1-2.6-7.8-2.5-11.7-3.7m37.4,1.1c1.4-2-47.1-.1-73.7-2.4m83.9,9.3c14.8-1.8,8.9-7.3-13.4-8.3m-40.6,17.3a.9.9,0,1,1-.9-.9A.9.9,0,0,1,213.7,215.9Zm1.5-.1a2.4,2.4,0,1,1-2.4-2.4A2.433,2.433,0,0,1,215.2,215.8Zm98.2-8.8a123.1,123.1,0,0,0,38.2-6.9c3.2-1.8,3.8-3,1.8-4.9a201.263,201.263,0,0,0-21.8-12.8c-14-10-27-15.8-43.5-14.2l-94,.6c-31.6.6-57.9,4-88.5,8.2l-14,2.2.2,10c26.8,7.5,68.9,15.5,99.9,18.5,9.9,1.7,24.4,1.9,40.2,1.2,15.1.9,27.6.7,34.8-2.2m46.9.3H266.5" transform="translate(-70.6 -131.696)" fill="none" stroke="#fff" stroke-linecap="round" stroke-linejoin="round" stroke-miterlimit="2.613" stroke-width="0.9"/>
    <path id="Path_143" data-name="Path 143" d="M220,206.5v5.4l-6-.5,1.5-5.1Z" transform="translate(-70.6 -131.696)" fill="none" stroke="#fff" stroke-linecap="round" stroke-linejoin="round" stroke-width="0.9" fill-rule="evenodd"/>
    <path id="Path_144" data-name="Path 144" d="M220,206.5v5.4l-6-.5,1.5-5.1Z" transform="translate(-70.6 -131.696)" fill="none" stroke="#fff" stroke-linecap="round" stroke-linejoin="round" stroke-miterlimit="2.613" stroke-width="0.9"/>
    <path id="Path_145" data-name="Path 145" d="M100.5,135.1l-1.4-2.2-12.4.8-.7,1.2m-7.8,3.2,24,38.9m11.9-1.3L90.2,141l-10,.2m79.7,29v-1l1.8-.5.2-2.2-20-1.4-27.2-26.9c-5.6-8.9-25.2-7.4-37.9-3M182,196.1h9.3v-7.3m-9.8,6.6v-4.9m-32-4.7V174.7m30.5,5.8h-7.1m-2.1,0h-7.3m7.5,7.2V170.8m1.7,16.7V170.3m7.2,20V170.1M141,182.2q-10.8-1.2,0-2.4m22.4,7.9a180.1,180.1,0,0,1-22-3.7,11.707,11.707,0,0,1,0-7.4,174.224,174.224,0,0,1,22-3.6m-.1,16.1V171.7c9-2.2,18.8-2.1,29.4.2v15.9C185.6,190.7,175.2,191,163.3,189.1Zm99.7-7.3v3.4a.789.789,0,0,1-.8.8h-1.7a.789.789,0,0,1-.8-.8v-3.4a.789.789,0,0,1,.8-.8h1.7A.789.789,0,0,1,263,181.8Zm-10.5,0v3.4a.789.789,0,0,1-.8.8H250a.789.789,0,0,1-.8-.8v-3.4a.789.789,0,0,1,.8-.8h1.7A.86.86,0,0,1,252.5,181.8Zm-10.9,0v3.4a.789.789,0,0,1-.8.8h-1.7a.789.789,0,0,1-.8-.8v-3.4a.789.789,0,0,1,.8-.8h1.7A.789.789,0,0,1,241.6,181.8Zm-10.7,0v3.4a.789.789,0,0,1-.8.8h-1.7a.789.789,0,0,1-.8-.8v-3.4a.789.789,0,0,1,.8-.8h1.7A.86.86,0,0,1,230.9,181.8Zm-10.8,0v3.4a.789.789,0,0,1-.8.8h-1.7a.789.789,0,0,1-.8-.8v-3.4a.789.789,0,0,1,.8-.8h1.7A.789.789,0,0,1,220.1,181.8Zm53.8,0v3.4a.789.789,0,0,1-.8.8h-1.7a.789.789,0,0,1-.8-.8v-3.4a.789.789,0,0,1,.8-.8h1.7A.86.86,0,0,1,273.9,181.8Zm19.9-10.7v24.6a1.9,1.9,0,0,1-1.9,1.9h-9.8a1.9,1.9,0,0,1-1.9-1.9V171.1a1.9,1.9,0,0,1,1.9-1.9h9.8A1.965,1.965,0,0,1,293.8,171.1Zm-76.7,42.7.9-.4m.5,1.5-.5-1.6m1.6.2-1.6-.1V212m3.2-1.9-.8-.8.4-2.4m-1.1-.2,2,.1-.3,3.3-1.3.7m-2.6,4.5c2.1.1,2.2-1.4,2.1-3.2" transform="translate(-70.6 -131.696)" fill="none" stroke="#fff" stroke-linecap="round" stroke-linejoin="round" stroke-miterlimit="2.613" stroke-width="0.9"/>
    <path id="Path_146" data-name="Path 146" d="M321.1,206.5l-1,6.2.9.3,1.4-6.7Zm4.4,7.6h-1.1v-8h1.1Zm-.7,3.2a.8.8,0,1,1-.8-.8A.789.789,0,0,1,324.8,217.3Zm1,0a1.8,1.8,0,1,1-1.8-1.8A1.793,1.793,0,0,1,325.8,217.3Zm1.6,0a3.4,3.4,0,1,1-3.4-3.4A3.372,3.372,0,0,1,327.4,217.3Zm5.5-12.2c.9,2.4.2,3.4-3.3,3.5m.1,0,.4,1.6,15.3-3-.9-4.8m.8-.4V189.9m-27.4-12.4c-.8-.8-.9-1,.7-1H321c.7,0,8.8,5.6,9.1,5.8.1.1-6.4.1-6.6.1C323.4,182.4,318.1,177.7,317.9,177.5Zm-12.2.2v3.8a.945.945,0,0,0,1,1h14.7c.6,0,.4-.8.1-1l-4.4-3.8c-.3-.2-.6-1-1-1h-9.4A1,1,0,0,0,305.7,177.7Zm15.9-1.7H305.5c-.2,0-.7.3-.7.7v5.6a.684.684,0,0,0,.7.7h27.4M100.7,141.2c-9.3-.2-19.5-1.3-24.9-3.9m-5.2-1.2c4.5.6,8.8,2.2,13.2,0C79.4,133.9,75.1,135.5,70.6,136.1Zm9.8,1.2c35.5.6,35.5-3.2,0-2.2m21,2.6-1.3,1.7-13.2-.5-1.5-1.5" transform="translate(-70.6 -131.696)" fill="none" stroke="#fff" stroke-linecap="round" stroke-linejoin="round" stroke-miterlimit="2.613" stroke-width="0.9"/>
    <path id="Path_147" data-name="Path 147" d="M324.3,213.9a3.4,3.4,0,0,0-3.8,3.3,3.256,3.256,0,0,0-2.1-1.2v-.7l5.9-4.1Z" transform="translate(-70.6 -131.696)" fill="none" stroke="#fff" stroke-linecap="round" stroke-linejoin="round" stroke-width="0.9" fill-rule="evenodd"/>
    <path id="Path_148" data-name="Path 148" d="M324.3,213.9a3.4,3.4,0,0,0-3.8,3.3,3.256,3.256,0,0,0-2.1-1.2v-.7l5.9-4.1Z" transform="translate(-70.6 -131.696)" fill="none" stroke="#fff" stroke-linecap="round" stroke-linejoin="round" stroke-miterlimit="2.613" stroke-width="0.9"/>
    <path id="Path_149" data-name="Path 149" d="M321.1,214.7l-1.3.8.4.4Z" transform="translate(-70.6 -131.696)" fill="none" stroke="#fff" stroke-linecap="round" stroke-linejoin="round" stroke-width="0.9" fill-rule="evenodd"/>
    <path id="Path_150" data-name="Path 150" d="M321.1,214.7l-1.3.8.4.4Z" transform="translate(-70.6 -131.696)" fill="none" stroke="#fff" stroke-linecap="round" stroke-linejoin="round" stroke-miterlimit="2.613" stroke-width="0.9"/>
    <path id="Path_151" data-name="Path 151" d="M323,213.3l-2.7,1.4,2.5-2.2Z" transform="translate(-70.6 -131.696)" fill="none" stroke="#fff" stroke-linecap="round" stroke-linejoin="round" stroke-width="0.9" fill-rule="evenodd"/>
    <path id="Path_152" data-name="Path 152" d="M323,213.3l-2.7,1.4,2.5-2.2Z" transform="translate(-70.6 -131.696)" fill="none" stroke="#fff" stroke-linecap="round" stroke-linejoin="round" stroke-miterlimit="2.613" stroke-width="0.9"/>
    <path id="Path_153" data-name="Path 153" d="M206.9,205.7l-1.9-3.3m-11.5,5.7a24.678,24.678,0,0,1-8.5-2m140.6,3.7.3-1.8,1-2.2m-1.4,4.2.9-.6,1.8-3.7" transform="translate(-70.6 -131.696)" fill="none" stroke="#fff" stroke-linecap="round" stroke-linejoin="round" stroke-miterlimit="2.613" stroke-width="0.9"/>
    <path id="Path_154" data-name="Path 154" d="M217.4,215.9a4.6,4.6,0,1,1-4.6-4.6A4.526,4.526,0,0,1,217.4,215.9ZM91.8,184.5c3-.3,3.1-.9-.1-.5" transform="translate(-70.6 -131.696)" fill="none" stroke="#fff" stroke-linecap="round" stroke-linejoin="round" stroke-miterlimit="2.613" stroke-width="0.9"/>
  </g>
</svg>
