<svg xmlns="http://www.w3.org/2000/svg" width="414.508" height="114.821" viewBox="0 0 414.508 114.821">
  <g id="Gulfstrean_G650_1_" transform="translate(-5.35 -120.329)">
    <path id="Path_330" data-name="Path 330" d="M143.6,193.6s10.7,0,16.6-1c5.8-1,6.2-2.5,6.2-2.7s.5-14.8.6-18.1-16.6-3.8-29.6-4c-10-.1-38.7,3.1-39.7,3.4-1,.2-1.2.7-1.2.7l-.4,13s16.7,4.8,18.7,5c2.1.1,9.5,1.8,9.5,1.8" fill="none" stroke="#fff" stroke-linecap="round" stroke-linejoin="round" stroke-miterlimit="1.415" stroke-width="0.9"/>
    <line id="Line_40" data-name="Line 40" y1="4" x2="42.3" transform="translate(54.3 175)" fill="none" stroke="#fff" stroke-linecap="round" stroke-linejoin="round" stroke-miterlimit="1.415" stroke-width="0.9"/>
    <path id="Path_331" data-name="Path 331" d="M167.2,173.2l36,.7c-1.2-.1,61.6,2.1,65.6,2.7,1,.1,65.2,2.6,66.5,2.6,1.2,0,30.1,1.9,31.3,2.1,6.7.9,12.3,1.3,17.4,4.4a63.287,63.287,0,0,1,10,8.2,129.843,129.843,0,0,1,14.2,6.4c5.4,3.1,11,6.5,11.2,7.8.1.7-1.6,1.9-3.2,2.5a76.862,76.862,0,0,1-22.6,5.4c-5.9.5-36.5-.8-39.4-1-6.7-.4-45.5.4-45.5.4-4.9.6-23.1,3.2-25.2,3.4-1.3.1-22.1,1.9-34,1.1-2.6-.2-21.7-1.2-23.5-1.2s-28.3-2.2-29.4-2.3-12.9-1.4-20.5-3.5c-3.4-1-49.3-9.9-51.4-10.3s-52.6-13.5-54.5-14c-3-.9-14.3-4.6-15.5-5.1l-1.6-4.1,3-.8L39,133.7a11.8,11.8,0,0,0-2.8-1.3c-1-.3-5.5-2-8.1-2.9" fill="none" stroke="#fff" stroke-linecap="round" stroke-linejoin="round" stroke-miterlimit="1.415" stroke-width="0.9"/>
    <path id="Path_332" data-name="Path 332" d="M21.2,126.8c-.3-.4-.4-.3-.4-.9a1.946,1.946,0,0,1,1.6-1.9c1-.1,33.7-3.9,42.8-3.1,9.1.7,14,1.6,16.2,7.5,2.2,5.8,2.7,8.7,3.6,9.7s17.8,23.5,21.6,25.2,18.3,4.4,18.3,4.4l2.4.4" fill="none" stroke="#fff" stroke-linecap="round" stroke-linejoin="round" stroke-miterlimit="1.415" stroke-width="0.9"/>
    <path id="Path_333" data-name="Path 333" d="M386.7,229.6a1.9,1.9,0,1,1-1.9,1.9A1.839,1.839,0,0,1,386.7,229.6Zm-.1-1.5a3.3,3.3,0,1,1-3.3,3.3A3.265,3.265,0,0,1,386.6,228.1Zm.1-1.4.4,1.3-1.3.1v-1.3Zm-2.4-2.5h.5l.2.5m-7-8.4a.4.4,0,1,1-.4.4A.43.43,0,0,1,378,216.3Zm4.3.1a.319.319,0,0,1,.3.3.265.265,0,0,1-.3.3.319.319,0,0,1-.3-.3Q382.15,216.4,382.3,216.4Zm4.8-.2a.3.3,0,1,1-.3.3Q386.95,216.2,387.1,216.2Zm-9.1.1,9.2-.3a.664.664,0,0,1,.5.4c0,.2-.2.5-.4.5l-9.2.3a.43.43,0,0,1-.4-.4C377.5,216.6,377.7,216.4,378,216.3Zm7.2,8.8.4,1.6,1.9-.1-.4-1.5Zm0-.7v.6l1.8-.1-.1-.8Zm1.8-.1-2.1.2-.3-2.8,2.1-.4Zm-13.5-36.6c-1.4-.1-1.1,1.4-1.1,1.4s1.9,2.6,2.8,3.6c1,1,1.3.9,1.5.9.1,0,7.3.2,8.2.2,1,0,1.3-.3,1.2-.6,0-.3-4.8-4.3-5.4-4.9a3.2,3.2,0,0,0-1.9-.6S375.1,187.8,373.5,187.7Zm13.6.2h-4.3c-1.8,0-.8.7-.8.7l6.6,5.6h6.3" fill="none" stroke="#fff" stroke-linecap="round" stroke-linejoin="round" stroke-width="0.9"/>
    <path id="Path_334" data-name="Path 334" d="M385.5,219.9c.7,0,1.2.3,1.2.9s-.6.8-1.3.8-1.2-.2-1.2-.8C384.2,220.1,384.8,219.9,385.5,219.9Zm1.8,5.4c1.1,0,2,.2,2,.8,0,.5-1,.7-2.1.7-1.2,0-2-.2-2-.7C385.1,225.6,386.2,225.3,387.3,225.3Zm-4.7,6.6c-2.9-.9,2.4-5.9,2.4-5.9m1.3-1.5s-5.7-5.6-5.9-5.9c-.2-.2-1.9-1.6-1.8-2.1,0-.5,1.1-.4,1.1-.4s9-.4,8.6-.4-4.4.1-4.6,0c-.3,0-6.4-.1-6.4-.1l-.4,1.1L385,226Z" fill="none" stroke="#fff" stroke-linecap="round" stroke-linejoin="round" stroke-width="0.9"/>
    <path id="Path_335" data-name="Path 335" d="M385.3,217.2l-.4,2.2,1.3.1.1-2.3Z" fill="none" stroke="#fff" stroke-linecap="round" stroke-linejoin="round" stroke-width="0.9"/>
    <path id="Path_336" data-name="Path 336" d="M200.9,216.8l-.2,5.1-5.9,2.5.3,2.4s17.1.3,17.3.2.3-7.3.3-7.8a6.4,6.4,0,0,0-.5-1.5m37.3-11.3a13.494,13.494,0,0,0,3.4,1.7c2.4.9,2.5,2.5,1.9,3.7s-4.8,1.4-4.8,1.4c-2.1.1-100-14.6-100-14.6a16.331,16.331,0,0,1-6.2-2c-2.7-1.7-20.5-19.2-20.5-19.2M285.5,214c-2.3.7-9.6,1.4-10.7,1.6-1.8.3-33.1,1.1-35.6.9-2.5-.1-18.2-1.4-20.1-1.4s-14.3-1.5-14.3-1.5-70.6-16.4-73.8-16.7-4.3-2.1-4.3-2.1L110,170.6s2.6-.1,3.9-.1,3,1.7,3,1.7L147.8,197s86.8,9.5,87.8,9.5,21.5-.4,22.9-.3c1.3.1,12.3.4,13.5.4s9.5,1.3,10.8,1.5c1.3.1,6.2,1.7,6.2,2.9C288.9,212.1,287,213.6,285.5,214Z" fill="none" stroke="#fff" stroke-linecap="round" stroke-linejoin="round" stroke-miterlimit="1.415" stroke-width="0.9"/>
    <path id="Path_337" data-name="Path 337" d="M205.8,227.4a3.6,3.6,0,0,1-7.2,0m10.5.1a6.7,6.7,0,0,1-6.7,6.7,6.963,6.963,0,0,1-6.7-7" fill="none" stroke="#fff" stroke-linecap="round" stroke-linejoin="round" stroke-width="0.9"/>
    <path id="Path_338" data-name="Path 338" d="M145.8,206.5c1.6-.8,11.4-3.9,11.4-3.9m18.8-2.5s5.3-.7,6.9-.9,26.4-.4,28-.4,51.4,1,51.4,1,18,0,29.3.6a122.262,122.262,0,0,1,21.2,3.1s-.2,8.7-.9,9.1-21.5,5.2-21.5,5.2" fill="none" stroke="#fff" stroke-linecap="round" stroke-linejoin="round" stroke-miterlimit="1.415" stroke-width="0.9"/>
    <path id="Path_339" data-name="Path 339" d="M346.8,209.9a1.923,1.923,0,0,0,1.9,2l8.5.2a1.923,1.923,0,0,0,1.9-2l.4-24.6a1.923,1.923,0,0,0-1.9-2l-8.5-.2a1.923,1.923,0,0,0-1.9,2Z" fill="none" stroke="#fff" stroke-linecap="round" stroke-linejoin="round" stroke-width="0.9"/>
    <path id="Path_340" data-name="Path 340" d="M70.4,188.2l.6-10.7m84.2,15.7.9-24.5m8.4,22.7.9-21.2m-12.9,23.5-.1,3.4m15,1.8s.1-6.6.3-8.9-1.3-2.2-1.3-2.2m37.2-3.4c3,0,5.5,1.9,5.5,4.2s-2.4,4.2-5.5,4.2c-3,0-5.5-1.9-5.5-4.2C198.2,186.2,200.6,184.4,203.6,184.4Zm18.2.7c3,0,5.5,1.9,5.5,4.2s-2.4,4.2-5.5,4.2c-3,0-5.5-1.9-5.5-4.2C216.4,187,218.8,185.1,221.8,185.1Zm18.2.9c3,0,5.5,1.9,5.5,4.2s-2.4,4.2-5.5,4.2c-3,0-5.5-1.9-5.5-4.2S237,186,240,186Zm18.5.7c3,0,5.5,1.9,5.5,4.2s-2.4,4.2-5.5,4.2c-3,0-5.5-1.9-5.5-4.2C253,188.5,255.5,186.7,258.5,186.7Zm17.9.7c3,0,5.5,1.9,5.5,4.2s-2.4,4.2-5.5,4.2c-3,0-5.5-1.9-5.5-4.2S273.4,187.4,276.4,187.4Zm18.4.7c3,0,5.5,1.9,5.5,4.2s-2.5,4.2-5.5,4.2-5.5-1.9-5.5-4.2S291.8,188.2,294.8,188.1Zm18.4.8c3,0,5.5,1.9,5.5,4.2s-2.4,4.2-5.5,4.2c-3,0-5.5-1.9-5.5-4.2S310.2,188.9,313.2,188.9Zm18.2.7c3,0,5.5,1.9,5.5,4.2s-2.4,4.2-5.5,4.2c-3,0-5.5-1.9-5.5-4.2S328.4,189.6,331.4,189.6Z" fill="none" stroke="#fff" stroke-linecap="round" stroke-linejoin="round" stroke-miterlimit="1.415" stroke-width="0.9"/>
    <path id="Path_341" data-name="Path 341" d="M105.9,187.6,86.2,186l.6-6.7,9.4-1.5" fill="none" stroke="#fff" stroke-linecap="round" stroke-linejoin="round" stroke-miterlimit="1.415" stroke-width="0.9"/>
    <path id="Path_342" data-name="Path 342" d="M85.1,175.9s-7.5-7.9-11.9-13.7-17.1-31.1-17.1-31.1m-1.4-3.2-3-6.5m43.8,37,3.5-2.7M71.1,128.9l-10.2-1c-3.7.2-42.5-1.4-43.5-1.4s-11.6,1-11.6,1,19.6,1.7,21.3,1.8c20.4,1.3,42.1,2.8,45.8,2.6C73.3,132,71.1,128.9,71.1,128.9Zm14.3,9.6L82.6,141l21.7,29.2" fill="none" stroke="#fff" stroke-linecap="round" stroke-linejoin="round" stroke-miterlimit="1.415" stroke-width="0.9"/>
    <path id="Path_343" data-name="Path 343" d="M233.8,185.6c0-.4.9-.7,2-.7l8.9.2c1.1,0,2,.4,2,.8l-.2,8.9c0,.4-.9.7-2,.7l-8.9-.2c-1.1,0-2-.4-2-.8Zm18.3.5c0-.4.9-.7,2-.7l8.8.2c1.1,0,1.9.4,1.9.8l-.2,8.9c0,.4-.9.7-2,.7l-8.8-.2c-1.1,0-2-.4-1.9-.8Z" fill="none" stroke="#fff" stroke-linecap="round" stroke-linejoin="round" stroke-width="0.9"/>
  </g>
</svg>
