<svg xmlns="http://www.w3.org/2000/svg" width="258.234" height="61.15" viewBox="0 0 258.234 61.15">
  <g id="Component_2_1" data-name="Component 2 – 1" transform="translate(0.039 0.375)">
    <line id="Line_42" data-name="Line 42" transform="translate(71.9 32.4)" fill="none" stroke="#fff" stroke-width="0.75"/>
    <line id="Line_43" data-name="Line 43" x2="0.1" transform="translate(71.9 32.4)" fill="none" stroke="#fff" stroke-width="0.75"/>
    <line id="Line_44" data-name="Line 44" x2="0.1" transform="translate(72 32.4)" fill="none" stroke="#fff" stroke-width="0.75"/>
    <line id="Line_45" data-name="Line 45" x2="0.1" transform="translate(72.1 32.4)" fill="none" stroke="#fff" stroke-width="0.75"/>
    <line id="Line_46" data-name="Line 46" transform="translate(72.2 32.4)" fill="none" stroke="#fff" stroke-width="0.75"/>
    <line id="Line_47" data-name="Line 47" x1="5.2" y2="0.9" transform="translate(66.8 31.2)" fill="none" stroke="#fff" stroke-width="0.75"/>
    <line id="Line_48" data-name="Line 48" x2="5.1" y2="0.3" transform="translate(66.8 32.1)" fill="none" stroke="#fff" stroke-width="0.75"/>
    <path id="Path_550" data-name="Path 550" d="M168.6,203.8l-.1.1v.2l-.1.1-.1.1-.1.1-.2.1h-.3" transform="translate(-83.7 -160)" fill="none" stroke="#fff" stroke-width="0.75"/>
    <line id="Line_49" data-name="Line 49" x1="10.7" y1="2" transform="translate(73.3 42.5)" fill="none" stroke="#fff" stroke-width="0.75"/>
    <path id="Path_551" data-name="Path 551" d="M157,202.5l-.1-.1-.1-.1-.2-.1-.1-.1v-.2l-.1-.1" transform="translate(-83.7 -160)" fill="none" stroke="#fff" stroke-width="0.75"/>
    <line id="Line_50" data-name="Line 50" y1="6.2" transform="translate(72.7 35.6)" fill="none" stroke="#fff" stroke-width="0.75"/>
    <path id="Path_552" data-name="Path 552" d="M156.4,195.6v-.2" transform="translate(-83.7 -160)" fill="none" stroke="#fff" stroke-width="0.75"/>
    <line id="Line_51" data-name="Line 51" x2="0.1" y2="5.6" transform="translate(84.8 38.2)" fill="none" stroke="#fff" stroke-width="0.75"/>
    <path id="Path_553" data-name="Path 553" d="M174.9,208.8l-3.1-.7-3.5-.8-4.2-.9-4.6-1-4-1-3.9-.8-3.7-.9-4.9-1-3.5-.8-4.1-.9-4.4-1.1" transform="translate(-83.7 -160)" fill="none" stroke="#fff" stroke-width="0.75"/>
    <path id="Path_554" data-name="Path 554" d="M317.5,194.2l3.4,1,3.5,1,3.4,1.1,3.3,1.1,3.5,1.1.9.4,1,.3.9.4.9.4,1,.5h0l.4.2.4.3.5.3.4.4.1.2.2.2.1.2v.3l.1.3-.1.3v.2l-.1.3-.2.2-.1.2-.4.3-.4.2-.3.2-.3.1h-.2l-.8.3-.9.2-1,.2-.9.2-1.9.3-2,.3-2,.2-2,.1-2,.2-4.6.3-4.6.2-4.6.2-4.6.1-4.6.1-4.6.1h-9.2l-41.8.2-2.9.3-2.5.3-2.8.3-3,.3-2.3.2-2.4.3-4.5.4" transform="translate(-83.7 -160)" fill="none" stroke="#fff" stroke-width="0.75"/>
    <line id="Line_52" data-name="Line 52" x1="3.9" y2="0.4" transform="translate(139.3 51.2)" fill="none" stroke="#fff" stroke-width="0.75"/>
    <line id="Line_53" data-name="Line 53" x1="8.1" y2="0.6" transform="translate(131.2 51.6)" fill="none" stroke="#fff" stroke-width="0.75"/>
    <line id="Line_54" data-name="Line 54" x1="4.9" y2="0.3" transform="translate(126.3 52.2)" fill="none" stroke="#fff" stroke-width="0.75"/>
    <line id="Line_55" data-name="Line 55" x1="0.7" transform="translate(125.6 52.5)" fill="none" stroke="#fff" stroke-width="0.75"/>
    <line id="Line_56" data-name="Line 56" x1="1.7" y1="0.1" transform="translate(114.8 52.2)" fill="none" stroke="#fff" stroke-width="0.75"/>
    <line id="Line_57" data-name="Line 57" x1="2.8" y1="0.2" transform="translate(112 52)" fill="none" stroke="#fff" stroke-width="0.75"/>
    <line id="Line_58" data-name="Line 58" x1="3.8" y1="0.4" transform="translate(108.2 51.6)" fill="none" stroke="#fff" stroke-width="0.75"/>
    <line id="Line_59" data-name="Line 59" x1="3.5" y1="0.5" transform="translate(104.7 51.1)" fill="none" stroke="#fff" stroke-width="0.75"/>
    <line id="Line_60" data-name="Line 60" x1="4.1" y1="0.6" transform="translate(100.6 50.5)" fill="none" stroke="#fff" stroke-width="0.75"/>
    <line id="Line_61" data-name="Line 61" x1="3.2" y1="0.5" transform="translate(97.4 50)" fill="none" stroke="#fff" stroke-width="0.75"/>
    <line id="Line_62" data-name="Line 62" x1="2.4" y1="0.5" transform="translate(95 49.5)" fill="none" stroke="#fff" stroke-width="0.75"/>
    <line id="Line_63" data-name="Line 63" x1="3.8" y1="0.7" transform="translate(91.2 48.8)" fill="none" stroke="#fff" stroke-width="0.75"/>
    <line id="Line_64" data-name="Line 64" x1="3.1" y1="0.7" transform="translate(88.1 48.1)" fill="none" stroke="#fff" stroke-width="0.75"/>
    <line id="Line_65" data-name="Line 65" x1="3.5" y1="0.8" transform="translate(84.6 47.3)" fill="none" stroke="#fff" stroke-width="0.75"/>
    <line id="Line_66" data-name="Line 66" x1="4.2" y1="0.9" transform="translate(80.4 46.4)" fill="none" stroke="#fff" stroke-width="0.75"/>
    <line id="Line_67" data-name="Line 67" x1="4.6" y1="1" transform="translate(75.8 45.4)" fill="none" stroke="#fff" stroke-width="0.75"/>
    <line id="Line_68" data-name="Line 68" x1="4" y1="1" transform="translate(71.8 44.4)" fill="none" stroke="#fff" stroke-width="0.75"/>
    <line id="Line_69" data-name="Line 69" x1="3.9" y1="0.8" transform="translate(67.9 43.6)" fill="none" stroke="#fff" stroke-width="0.75"/>
    <line id="Line_70" data-name="Line 70" x1="3.7" y1="0.9" transform="translate(64.2 42.7)" fill="none" stroke="#fff" stroke-width="0.75"/>
    <line id="Line_71" data-name="Line 71" x1="4.9" y1="1" transform="translate(59.3 41.7)" fill="none" stroke="#fff" stroke-width="0.75"/>
    <line id="Line_72" data-name="Line 72" x1="3.5" y1="0.8" transform="translate(55.8 40.9)" fill="none" stroke="#fff" stroke-width="0.75"/>
    <line id="Line_73" data-name="Line 73" x1="4.1" y1="0.9" transform="translate(51.7 40)" fill="none" stroke="#fff" stroke-width="0.75"/>
    <line id="Line_74" data-name="Line 74" x1="4.4" y1="1.1" transform="translate(47.3 38.9)" fill="none" stroke="#fff" stroke-width="0.75"/>
    <line id="Line_75" data-name="Line 75" x1="1.1" y2="0.2" transform="translate(46.2 38.9)" fill="none" stroke="#fff" stroke-width="0.75"/>
    <line id="Line_76" data-name="Line 76" x1="3.8" y2="0.5" transform="translate(42.4 39.1)" fill="none" stroke="#fff" stroke-width="0.75"/>
    <path id="Path_555" data-name="Path 555" d="M126.1,199.6l-4.6.7h-1.9" transform="translate(-83.7 -160)" fill="none" stroke="#fff" stroke-width="0.75"/>
    <line id="Line_77" data-name="Line 77" x1="2.3" transform="translate(33.6 40.3)" fill="none" stroke="#fff" stroke-width="0.75"/>
    <line id="Line_78" data-name="Line 78" x1="6.6" y1="11.4" transform="translate(16.1 17.7)" fill="none" stroke="#fff" stroke-width="0.75"/>
    <line id="Line_79" data-name="Line 79" x1="7" y1="12" transform="translate(9.1 5.7)" fill="none" stroke="#fff" stroke-width="0.75"/>
    <path id="Path_556" data-name="Path 556" d="M92.8,165.7l-.8-1.4-1.7-.2" transform="translate(-83.7 -160)" fill="none" stroke="#fff" stroke-width="0.75"/>
    <line id="Line_80" data-name="Line 80" x1="2.2" y1="0.3" transform="translate(4.4 3.8)" fill="none" stroke="#fff" stroke-width="0.75"/>
    <path id="Path_557" data-name="Path 557" d="M88.1,163.8l-1.3-.2h-.2l-2.9-.3" transform="translate(-83.7 -160)" fill="none" stroke="#fff" stroke-width="0.75"/>
    <line id="Line_81" data-name="Line 81" y1="0.1" x2="2.5" transform="translate(0 3.2)" fill="none" stroke="#fff" stroke-width="0.75"/>
    <line id="Line_82" data-name="Line 82" y1="2" transform="translate(2.4 0.7)" fill="none" stroke="#fff" stroke-width="0.75"/>
    <path id="Path_558" data-name="Path 558" d="M86.1,160.7v-.2l.1-.1.1-.2.1-.1h4.5" transform="translate(-83.7 -160)" fill="none" stroke="#fff" stroke-width="0.75"/>
    <line id="Line_83" data-name="Line 83" x2="20.6" transform="translate(7.2)" fill="none" stroke="#fff" stroke-width="0.75"/>
    <line id="Line_84" data-name="Line 84" x2="1.4" transform="translate(27.8)" fill="none" stroke="#fff" stroke-width="0.75"/>
    <line id="Line_85" data-name="Line 85" x2="0.6" transform="translate(29.2)" fill="none" stroke="#fff" stroke-width="0.75"/>
    <path id="Path_559" data-name="Path 559" d="M154.4,185.6l-.4.2v.3l6-.3" transform="translate(-83.7 -160)" fill="none" stroke="#fff" stroke-width="0.75"/>
    <line id="Line_86" data-name="Line 86" x2="0.3" transform="translate(109.4 24.2)" fill="none" stroke="#fff" stroke-width="0.75"/>
    <path id="Path_560" data-name="Path 560" d="M193.4,184.2h.7" transform="translate(-83.7 -160)" fill="none" stroke="#fff" stroke-width="0.75"/>
    <line id="Line_87" data-name="Line 87" x2="0.4" transform="translate(110.4 24.2)" fill="none" stroke="#fff" stroke-width="0.75"/>
    <line id="Line_88" data-name="Line 88" x2="0.3" transform="translate(110.8 24.2)" fill="none" stroke="#fff" stroke-width="0.75"/>
    <line id="Line_89" data-name="Line 89" x2="0.4" transform="translate(111.1 24.2)" fill="none" stroke="#fff" stroke-width="0.75"/>
    <path id="Path_561" data-name="Path 561" d="M195.2,184.2h.9l.5-.1h1.2" transform="translate(-83.7 -160)" fill="none" stroke="#fff" stroke-width="0.75"/>
    <path id="Path_562" data-name="Path 562" d="M197.8,184.1h.7l90.5-.3" transform="translate(-83.7 -160)" fill="none" stroke="#fff" stroke-width="0.75"/>
    <path id="Path_563" data-name="Path 563" d="M289,183.8h3.7l2.7.3,1.8.3.5.1.7.3.5.2.5.1.8.4,1.6.8" transform="translate(-83.7 -160)" fill="none" stroke="#fff" stroke-width="0.75"/>
    <line id="Line_90" data-name="Line 90" transform="translate(218.1 26.3)" fill="none" stroke="#fff" stroke-width="0.75"/>
    <line id="Line_91" data-name="Line 91" x2="10.5" y2="6.2" transform="translate(218.1 26.3)" fill="none" stroke="#fff" stroke-width="0.75"/>
    <path id="Path_564" data-name="Path 564" d="M317.5,194.2l-1.6-.4-.7-.2-.8-.3-.6-.2-.8-.3-.7-.3" transform="translate(-83.7 -160)" fill="none" stroke="#fff" stroke-width="0.75"/>
    <path id="Path_565" data-name="Path 565" d="M288.1,200.4H276.6l-.1-14.5,11.4-.2Z" transform="translate(-83.7 -160)" fill="none" stroke="#fff" stroke-width="0.75"/>
    <line id="Line_92" data-name="Line 92" transform="translate(221.1 48.8)" fill="none" stroke="#fff" stroke-width="0.75"/>
    <line id="Line_93" data-name="Line 93" transform="translate(226.2 48.7)" fill="none" stroke="#fff" stroke-width="0.75"/>
    <path id="Path_566" data-name="Path 566" d="M311.9,192.7h-3.8l-1.9.1-1.6.1h-3.4l-2-.1-1.5-.1h-1.2l-1.3-.1-1.1-.1h-.8l-.3-.1h-.3l-.2-.1h-.1l-.2-.1-.1-.1-.1-.2-.1-.1-.1-.2v-2.9l.1-.2h0v-.1l.1-.1h.1l.1-.1.1-.1h.1l.1-.1h.7l.2-.1h.3l2.2-.3,1.9-.2,1.6-.2,1-.1,1-.2h.6l.1-.1h.3l.1.1h.1l.1.1h.1l.1.1.1.1.9.4,1,.6,1.2.7,1.1.7,1.1.6.8.5,1.2.6.6.3.6.5.3.1.1.1v.1h.1v.1h.1v.1H312v.1h-.1Z" transform="translate(-83.7 -160)" fill="none" stroke="#fff" stroke-width="0.75"/>
    <line id="Line_94" data-name="Line 94" y1="0.1" transform="translate(132.6 52.1)" fill="none" stroke="#fff" stroke-width="0.75"/>
    <line id="Line_95" data-name="Line 95" transform="translate(135.3 52)" fill="none" stroke="#fff" stroke-width="0.75"/>
    <line id="Line_96" data-name="Line 96" y1="0.1" transform="translate(136.8 51.8)" fill="none" stroke="#fff" stroke-width="0.75"/>
    <line id="Line_97" data-name="Line 97" transform="translate(194.9 23.8)" fill="none" stroke="#fff" stroke-width="0.75"/>
    <line id="Line_98" data-name="Line 98" transform="translate(178 23.8)" fill="none" stroke="#fff" stroke-width="0.75"/>
    <line id="Line_99" data-name="Line 99" transform="translate(185.8 23.8)" fill="none" stroke="#fff" stroke-width="0.75"/>
    <line id="Line_100" data-name="Line 100" transform="translate(187.3 23.8)" fill="none" stroke="#fff" stroke-width="0.75"/>
    <path id="Path_567" data-name="Path 567" d="M86.2,163.2l3.5-.2.3-.1,6.9-.2" transform="translate(-83.7 -160)" fill="none" stroke="#fff" stroke-width="0.75"/>
    <line id="Line_101" data-name="Line 101" y1="0.2" x2="3.6" transform="translate(13.2 2.5)" fill="none" stroke="#fff" stroke-width="0.75"/>
    <line id="Line_102" data-name="Line 102" x1="2.9" y1="0.1" transform="translate(14 4)" fill="none" stroke="#fff" stroke-width="0.75"/>
    <line id="Line_103" data-name="Line 103" x1="1.9" transform="translate(12.1 4)" fill="none" stroke="#fff" stroke-width="0.75"/>
    <line id="Line_104" data-name="Line 104" x1="2.2" y1="0.1" transform="translate(9.9 3.9)" fill="none" stroke="#fff" stroke-width="0.75"/>
    <line id="Line_105" data-name="Line 105" x1="3.4" y1="0.1" transform="translate(6.5 3.8)" fill="none" stroke="#fff" stroke-width="0.75"/>
    <line id="Line_106" data-name="Line 106" x1="6.5" y1="0.5" transform="translate(0 3.3)" fill="none" stroke="#fff" stroke-width="0.75"/>
    <line id="Line_107" data-name="Line 107" y1="0.1" x2="2.5" transform="translate(0 3.2)" fill="none" stroke="#fff" stroke-width="0.75"/>
    <path id="Path_568" data-name="Path 568" d="M113.5,160l15.1,16.9h1.6" transform="translate(-83.7 -160)" fill="none" stroke="#fff" stroke-width="0.75"/>
    <path id="Path_569" data-name="Path 569" d="M150.2,186.3h.5l.6-.1h.5l.6-.1.5-.1.5-.1.6-.1" transform="translate(-83.7 -160)" fill="none" stroke="#fff" stroke-width="0.75"/>
    <path id="Path_570" data-name="Path 570" d="M86.1,160.7V163l.1.1v.1" transform="translate(-83.7 -160)" fill="none" stroke="#fff" stroke-width="0.75"/>
    <path id="Path_571" data-name="Path 571" d="M86.8,163.6l-.2-.1-.2-.1v-.1l-.2-.1" transform="translate(-83.7 -160)" fill="none" stroke="#fff" stroke-width="0.75"/>
    <line id="Line_108" data-name="Line 108" x1="14.5" y1="22.6" transform="translate(14.8 5.8)" fill="none" stroke="#fff" stroke-width="0.75"/>
    <line id="Line_109" data-name="Line 109" y1="3" x2="47.6" transform="translate(22.7 26.1)" fill="none" stroke="#fff" stroke-width="0.75"/>
    <line id="Line_110" data-name="Line 110" x1="3.8" y2="0.5" transform="translate(42.4 39.1)" fill="none" stroke="#fff" stroke-width="0.75"/>
    <line id="Line_111" data-name="Line 111" x1="2.3" transform="translate(33.6 40.3)" fill="none" stroke="#fff" stroke-width="0.75"/>
    <path id="Path_572" data-name="Path 572" d="M117.3,200.3l-12-.1.9-6.9,3.4.5,3.4.3" transform="translate(-83.7 -160)" fill="none" stroke="#fff" stroke-width="0.75"/>
    <line id="Line_112" data-name="Line 112" x2="3.5" y2="0.3" transform="translate(29.3 34.1)" fill="none" stroke="#fff" stroke-width="0.75"/>
    <line id="Line_113" data-name="Line 113" x2="4.2" y2="0.5" transform="translate(32.8 34.4)" fill="none" stroke="#fff" stroke-width="0.75"/>
    <line id="Line_114" data-name="Line 114" x2="4.8" y2="0.4" transform="translate(37 34.9)" fill="none" stroke="#fff" stroke-width="0.75"/>
    <line id="Line_115" data-name="Line 115" x2="3.5" y2="0.4" transform="translate(41.8 35.3)" fill="none" stroke="#fff" stroke-width="0.75"/>
    <line id="Line_116" data-name="Line 116" x2="2.5" y2="0.4" transform="translate(45.3 35.7)" fill="none" stroke="#fff" stroke-width="0.75"/>
    <line id="Line_117" data-name="Line 117" x2="1.4" y2="0.1" transform="translate(47.8 36.1)" fill="none" stroke="#fff" stroke-width="0.75"/>
    <line id="Line_118" data-name="Line 118" x2="2.3" y2="0.4" transform="translate(49.2 36.2)" fill="none" stroke="#fff" stroke-width="0.75"/>
    <line id="Line_119" data-name="Line 119" x2="2.3" y2="0.3" transform="translate(51.5 36.6)" fill="none" stroke="#fff" stroke-width="0.75"/>
    <line id="Line_120" data-name="Line 120" x2="1.6" y2="0.3" transform="translate(53.8 36.9)" fill="none" stroke="#fff" stroke-width="0.75"/>
    <line id="Line_121" data-name="Line 121" x2="0.5" transform="translate(55.4 37.2)" fill="none" stroke="#fff" stroke-width="0.75"/>
    <path id="Path_573" data-name="Path 573" d="M139.6,197.2l2.2.3L131,198.9" transform="translate(-83.7 -160)" fill="none" stroke="#fff" stroke-width="0.75"/>
    <path id="Path_574" data-name="Path 574" d="M99.8,177.8h1.6l6.5,10.9-1.6.1Z" transform="translate(-83.7 -160)" fill="none" stroke="#fff" stroke-width="0.75"/>
    <path id="Path_575" data-name="Path 575" d="M92.9,165.8h7.5l1.4,2-1.3,1.1.3.5,1.8-.5,3.7,5.5-1.5,1.2.4.6,1.9-.6,3.7,5.7-1.5,1.2.4.6,1.9-.6,4,6h-.2l-.1-.2-7.3.4-6.6-11H99.8Z" transform="translate(-83.7 -160)" fill="none" stroke="#fff" stroke-width="0.75"/>
    <line id="Line_122" data-name="Line 122" y1="0.1" x2="0.1" transform="translate(71.9 29.5)" fill="none" stroke="#fff" stroke-width="0.75"/>
    <line id="Line_123" data-name="Line 123" y2="1.4" transform="translate(71.9 29.6)" fill="none" stroke="#fff" stroke-width="0.75"/>
    <line id="Line_124" data-name="Line 124" x2="0.1" y2="0.1" transform="translate(71.9 32.5)" fill="none" stroke="#fff" stroke-width="0.75"/>
    <line id="Line_125" data-name="Line 125" y1="1.4" transform="translate(71.9 31.1)" fill="none" stroke="#fff" stroke-width="0.75"/>
    <line id="Line_126" data-name="Line 126" x2="0.1" y2="5.5" transform="translate(80 31.8)" fill="none" stroke="#fff" stroke-width="0.75"/>
    <line id="Line_127" data-name="Line 127" x2="0.7" y2="2.1" transform="translate(70.1 23.5)" fill="none" stroke="#fff" stroke-width="0.75"/>
    <line id="Line_128" data-name="Line 128" x2="4.3" transform="translate(3.9)" fill="none" stroke="#fff" stroke-width="0.75"/>
    <line id="Line_129" data-name="Line 129" transform="translate(8.2)" fill="none" stroke="#fff" stroke-width="0.75"/>
    <line id="Line_130" data-name="Line 130" transform="translate(6.6)" fill="none" stroke="#fff" stroke-width="0.75"/>
    <line id="Line_131" data-name="Line 131" x2="0.1" transform="translate(4.2)" fill="none" stroke="#fff" stroke-width="0.75"/>
    <line id="Line_132" data-name="Line 132" transform="translate(4)" fill="none" stroke="#fff" stroke-width="0.75"/>
    <line id="Line_133" data-name="Line 133" x1="0.1" transform="translate(2.3 2.1)" fill="none" stroke="#fff" stroke-width="0.75"/>
    <path id="Path_576" data-name="Path 576" d="M177.1,198.8s-3.1-.1-4.5-.1c-1.4-.1-3.7-.3-5.5-.6-1.7-.3-5.6-1.3-7.6-1.8-1.9-.5-5.2-1.5-5.2-1.5l1.8-3.1-.4-.5.3-.8-1.7-3.1,7.8-2.1c2-.5,7.5-1.3,11.1-1.7,3.6-.3,8.2-.4,10.9-.4a49.174,49.174,0,0,1,7.6.4c1.1.3,2.2.2,2.1,2.1,0,1.9.1,8.9.1,9.4,0,.6-1.5,1.5-2.3,1.9-.8.3-4.4,1.1-5.7,1.4l-3.2.4" transform="translate(-83.7 -160)" fill="none" stroke="#fff" stroke-width="0.75"/>
    <line id="Line_134" data-name="Line 134" x2="0.1" y2="5.5" transform="translate(79.9 24.8)" fill="none" stroke="#fff" stroke-width="0.75"/>
    <line id="Line_135" data-name="Line 135" x2="0.3" y2="12.3" transform="translate(109 23.8)" fill="none" stroke="#fff" stroke-width="0.75"/>
    <path id="Path_577" data-name="Path 577" d="M164.5,190.2s-7.2.1-7.5.1-1.2.3-1.2.7c0,.5.6.8,1.2.8s7.2.1,7.4.1c.3,0,1.1-.3,1.1-.8C165.7,190.6,165.2,190.2,164.5,190.2Z" transform="translate(-83.7 -160)" fill="none" stroke="#fff" stroke-width="0.75"/>
    <path id="Path_578" data-name="Path 578" d="M100.6,164.1s3,.1,3.7.1,3.2,0,4-.1c.8,0,2.8-.2,3.8-.3a20.852,20.852,0,0,0,2.6-.4c.4-.1,1.2-.7-.6-1a29.287,29.287,0,0,0-3.7-.2h-5.8a40.28,40.28,0,0,0-4.2.2" transform="translate(-83.7 -160)" fill="none" stroke="#fff" stroke-width="0.75"/>
    <path id="Path_579" data-name="Path 579" d="M106.2,193.5a1,1,0,0,1-.4-.1c-.1-.1-1.9-3.1-2.1-3.6-.3-.5.1-.5.2-.5h.4l2.2-.1" transform="translate(-83.7 -160)" fill="none" stroke="#fff" stroke-width="0.75"/>
    <path id="Path_580" data-name="Path 580" d="M113.5,160h.8a3,3,0,0,1,1.1.6,13.07,13.07,0,0,1,1.1,1.2c.3.4,12.8,14.1,13.4,14.7a29.463,29.463,0,0,0,2.5,2.5,16.41,16.41,0,0,0,2.5,1.9,9.1,9.1,0,0,0,2.5,1.1c.8.2,2.8.4,3.6.5s13.3,1,13.3,1l.6,1.8.1.2-.2.1-.3.1" transform="translate(-83.7 -160)" fill="none" stroke="#fff" stroke-width="0.75"/>
    <path id="Path_581" data-name="Path 581" d="M247.3,209.1s-3.6-1.2-4.7-1.6c-1.1-.5-3.3-1.8-4.6-2.3a36.651,36.651,0,0,0-6.7-1.6c-2.1-.2-15.9-1.4-24.8-1.4-9,0-16.1.6-19.4.8" transform="translate(-83.7 -160)" fill="none" stroke="#fff" stroke-width="0.75"/>
    <path id="Path_582" data-name="Path 582" d="M180.1,205.7a9.35,9.35,0,0,0-1.8,2,7.738,7.738,0,0,0-.2,1.8" transform="translate(-83.7 -160)" fill="none" stroke="#fff" stroke-width="0.75"/>
    <path id="Path_583" data-name="Path 583" d="M204.4,215.7a1.656,1.656,0,0,1,.5,1.2,1.6,1.6,0,1,1-3.2,0,2.1,2.1,0,0,1,.4-1.1" transform="translate(-83.7 -160)" fill="none" stroke="#fff" stroke-width="0.75"/>
    <path id="Path_584" data-name="Path 584" d="M206.5,215.7a5.019,5.019,0,0,1,.2,1.2,3.418,3.418,0,0,1-3.5,3.5,3.478,3.478,0,0,1-3.5-3.5,6.106,6.106,0,0,1,.3-1.3" transform="translate(-83.7 -160)" fill="none" stroke="#fff" stroke-width="0.75"/>
    <circle id="Ellipse_4" data-name="Ellipse 4" cx="0.6" cy="0.6" r="0.6" transform="translate(119 56.3)" fill="none" stroke="#fff" stroke-width="0.75"/>
    <circle id="Ellipse_5" data-name="Ellipse 5" cx="1.6" cy="1.6" r="1.6" transform="translate(232.1 54.3)" fill="none" stroke="#fff" stroke-width="0.75"/>
    <circle id="Ellipse_6" data-name="Ellipse 6" cx="2.8" cy="2.8" r="2.8" transform="translate(230.9 53.1)" fill="none" stroke="#fff" stroke-width="0.75"/>
    <circle id="Ellipse_7" data-name="Ellipse 7" cx="0.9" cy="0.9" r="0.9" transform="translate(232.9 55)" fill="none" stroke="#fff" stroke-width="0.75"/>
    <path id="Path_585" data-name="Path 585" d="M246.1,194.8h0a1.752,1.752,0,0,1-1.7-1.7v-1.9a1.752,1.752,0,0,1,1.7-1.7h0a1.752,1.752,0,0,1,1.7,1.7v1.9A1.752,1.752,0,0,1,246.1,194.8Z" transform="translate(-83.7 -160)" fill="none" stroke="#fff" stroke-width="0.75"/>
    <path id="Path_586" data-name="Path 586" d="M255.1,194.8h0a1.752,1.752,0,0,1-1.7-1.7v-1.9a1.752,1.752,0,0,1,1.7-1.7h0a1.752,1.752,0,0,1,1.7,1.7v1.9A1.686,1.686,0,0,1,255.1,194.8Z" transform="translate(-83.7 -160)" fill="none" stroke="#fff" stroke-width="0.75"/>
    <path id="Path_587" data-name="Path 587" d="M264.1,194.9h0a1.752,1.752,0,0,1-1.7-1.7v-1.9a1.752,1.752,0,0,1,1.7-1.7h0a1.752,1.752,0,0,1,1.7,1.7v1.9A1.752,1.752,0,0,1,264.1,194.9Z" transform="translate(-83.7 -160)" fill="none" stroke="#fff" stroke-width="0.75"/>
    <path id="Path_588" data-name="Path 588" d="M272.9,194.9h0a1.752,1.752,0,0,1-1.7-1.7v-1.9a1.752,1.752,0,0,1,1.7-1.7h0a1.752,1.752,0,0,1,1.7,1.7v1.9A1.685,1.685,0,0,1,272.9,194.9Z" transform="translate(-83.7 -160)" fill="none" stroke="#fff" stroke-width="0.75"/>
    <path id="Path_589" data-name="Path 589" d="M237.2,194.8h0a1.752,1.752,0,0,1-1.7-1.7v-1.9a1.752,1.752,0,0,1,1.7-1.7h0a1.752,1.752,0,0,1,1.7,1.7v1.9A1.685,1.685,0,0,1,237.2,194.8Z" transform="translate(-83.7 -160)" fill="none" stroke="#fff" stroke-width="0.75"/>
    <path id="Path_590" data-name="Path 590" d="M229.6,194.8h0a1.752,1.752,0,0,1-1.7-1.7v-1.9a1.752,1.752,0,0,1,1.7-1.7h0a1.752,1.752,0,0,1,1.7,1.7v1.9A1.752,1.752,0,0,1,229.6,194.8Z" transform="translate(-83.7 -160)" fill="none" stroke="#fff" stroke-width="0.75"/>
    <path id="Path_591" data-name="Path 591" d="M221.6,194.8h0a1.752,1.752,0,0,1-1.7-1.7v-1.9a1.752,1.752,0,0,1,1.7-1.7h0a1.752,1.752,0,0,1,1.7,1.7v1.9A1.752,1.752,0,0,1,221.6,194.8Z" transform="translate(-83.7 -160)" fill="none" stroke="#fff" stroke-width="0.75"/>
    <path id="Path_592" data-name="Path 592" d="M214.2,194.7h0a1.752,1.752,0,0,1-1.7-1.7v-1.9a1.752,1.752,0,0,1,1.7-1.7h0a1.752,1.752,0,0,1,1.7,1.7V193A1.752,1.752,0,0,1,214.2,194.7Z" transform="translate(-83.7 -160)" fill="none" stroke="#fff" stroke-width="0.75"/>
    <path id="Path_593" data-name="Path 593" d="M330.1,207.7" transform="translate(-83.7 -160)" fill="none" stroke="#fff" stroke-width="0.75"/>
    <path id="Path_594" data-name="Path 594" d="M330.1,207.7l.3,2.4-14.8.7-.2-2.3" transform="translate(-83.7 -160)" fill="none" stroke="#fff" stroke-width="0.75"/>
    <line id="Line_136" data-name="Line 136" x2="0.1" y2="2.3" transform="translate(233.2 50.8)" fill="none" stroke="#fff" stroke-width="0.75"/>
    <line id="Line_137" data-name="Line 137" x2="0.1" y2="2.2" transform="translate(233.8 50.8)" fill="none" stroke="#fff" stroke-width="0.75"/>
    <path id="Path_595" data-name="Path 595" d="M201.3,208.2l-1.1,1.6-.1,6,9.4-.2-.4-5-.5-.6-.4-1.6" transform="translate(-83.7 -160)" fill="none" stroke="#fff" stroke-width="0.75"/>
    <path id="Path_596" data-name="Path 596" d="M180.2,204.7l-5.3-10.3h2.6c.9,0,1.5.9,2.3,1.6,1,1,2.1,2.2,2.3,2.4s3.5,3.3,5.4,5a17.907,17.907,0,0,0,3.4,2.2,17.491,17.491,0,0,0,5.6.9c4.3,0,12.1-.5,12.1-.5l9.7-.3,5.8-.1a12.311,12.311,0,0,1,2,.2l.6.2a1.143,1.143,0,0,1,.8.7c.2.5.1,1-.5,1.1-4.6,1-16.6.5-16.9.5-.4,0-16.7-.3-16.7-.3l-13.3-2.2c-.3,0-.5-.4-.3-.6a5.919,5.919,0,0,1,2.7-2.8" transform="translate(-83.7 -160)" fill="none" stroke="#fff" stroke-width="0.75"/>
    <path id="Path_597" data-name="Path 597" d="M176,194.4c.1.1,6.6,8.1,6.6,8.1" transform="translate(-83.7 -160)" fill="none" stroke="#fff" stroke-width="0.75"/>
  </g>
</svg>
