<svg xmlns="http://www.w3.org/2000/svg" width="284.263" height="83.921" viewBox="0 0 284.263 83.921">
  <g id="Chalenger_300_1_" transform="translate(0.113 0.436)">
    <g id="Group_11" data-name="Group 11" transform="translate(-70.5 -135.165)">
      <path id="Path_598" data-name="Path 598" d="M218.6,209.7c8.8.2,16.7,0,23.1.1,18.3.4,40.2-5.7,40.2-5.7l29.8.7c14.7.3,24.3-.3,30.6-1.2,11.6-1.7,11.9-4.5,11.9-4.5.1-2.9-17.9-13.1-17.9-13.1l-11-7.7s-6.4-5.2-20.9-5.5l-111.1-2.5s-1.9.1-5.1.3m10.1,37.7c4.2.5,8.4.8,12.4,1M108.8,176.2l-2,.3s-2,.1-1,2c1,2,2.5,4.5,2.5,4.5s.6,1.5,3.6,2.4A376.459,376.459,0,0,0,157,197.3c1.2.3,7.8,2.6,7.8,2.6a119.729,119.729,0,0,0,23.7,6.9m-49.6-33.2c-13.3.9-25.1,1.9-30.1,2.6" fill="none" stroke="#fff" stroke-width="0.9"/>
      <path id="Path_599" data-name="Path 599" d="M324,184.2l-11.7-1.1.1-4.6,7.2.2Z" fill="none" stroke="#fff" stroke-width="0.9"/>
      <path id="Path_600" data-name="Path 600" d="M325.5,184.4l10,1-9.9-6.9a15.342,15.342,0,0,1-4.6.2l4.5,5.7" fill="none" stroke="#fff" stroke-width="0.9"/>
    </g>
    <g id="Group_12" data-name="Group 12" transform="translate(-70.5 -135.165)">
      <path id="Path_601" data-name="Path 601" d="M200.4,196.8a.789.789,0,0,0,.8-.8l.2-8.9a.789.789,0,0,0-.8-.8l-6.7-.2a.789.789,0,0,0-.8.8l-.2,8.9a.789.789,0,0,0,.8.8Zm100.4,5.1a.789.789,0,0,0,.8-.8l.5-23.5a.789.789,0,0,0-.8-.8l-8.6-.2a.789.789,0,0,0-.8.8l-.5,23.5a.789.789,0,0,0,.8.8Zm-121.2-3.2c-1.9-.3-7.5-1.2-7.5-1.2-1.6-.3-2.2-.8-2.5-1.3m0,0a2.9,2.9,0,0,1,0-1.6,3.171,3.171,0,0,0-.5-1.7l-7.9-14.1,4.3.1,14.8,15.9a7.634,7.634,0,0,0,5.3,2.2s54.2,2.1,59.6,2.5,8.5.8,8.5,4c0,1.6-2,3-7.4,3.6-4,.5-10,.5-18.4-.2-3.4-.3-6.5-.5-9.1-.7m-46.3-19.9c11.3-.4,13.9-2.3,13.9-2.3s2.1-1,2.2-2.4l-.3-12.3c-.1-1.2-2.1-1.4-3.9-1.7s-8.5-.4-9.3-.4-11.1.5-15.7.9a32.881,32.881,0,0,0-7.2,1.3l-13.4,3.4.3,9c3.3,1,12.9,2.7,12.9,2.7l5.7.7s3.4.5,7.3.8m36.3,9.7h8.4l42.7,1a104.618,104.618,0,0,1,23,3.5,55.426,55.426,0,0,0,5.8,1.4c4.2,1.2.7,2.5.7,2.5m-100-8.3c3.8,0,7.6-.1,11.2-.1m-35.2,1.8c-2.1-.6,0-.8,0-.8,2.7-.3,7-.6,12-.7M89.7,148.3l8.7,1.8,2.8-2.1,20.1,25.3-2.4,1.9M87.8,145.6c20.1,3.9,26.1,2.6,28.1,2.4s7.4-.9,7.4-.9M78,145.8c-1.1-.4,5.7-1.6,5.7-1.6m-3.5-.1,14.9-3.4m-10.9,5.1,26.3-2.6s8.9-.9,1.7-2.1a112.937,112.937,0,0,0-26.6.5l-15.1,3.9A94.084,94.084,0,0,0,84.2,145.8Zm3.5-.1,20.7,30.5h.4c3.3-.4,16-1.5,30.1-2.5m18.3-5.6-5.5-.4a16.8,16.8,0,0,1-9.7-3.5L123.3,147l-3.8-5s-3.7-6.7-14.2-6.8c-7.5-.1-13.3-.3-30.3,4.4,0,0-1.4.3-.7,1.4l1.1,1.5a2.9,2.9,0,0,0,1.9,1" fill="none" stroke="#fff" stroke-width="0.9"/>
    </g>
    <path id="Path_602" data-name="Path 602" d="M245.7,180.9a.789.789,0,0,0-.8.8l-.1,4.3a.789.789,0,0,0,.8.8h2a.789.789,0,0,0,.8-.8l.1-4.3a.789.789,0,0,0-.8-.8h-2" transform="translate(-70.5 -135.165)" fill="none" stroke="#fff" stroke-width="0.9"/>
    <path id="Path_603" data-name="Path 603" d="M278.5,181.7a.789.789,0,0,0-.8.8l-.1,4.3a.789.789,0,0,0,.8.8h2a.789.789,0,0,0,.8-.8l.1-4.3a.789.789,0,0,0-.8-.8h-2" transform="translate(-70.5 -135.165)" fill="none" stroke="#fff" stroke-width="0.9"/>
    <path id="Path_604" data-name="Path 604" d="M267.6,181.4a.789.789,0,0,0-.8.8l-.1,4.3a.789.789,0,0,0,.8.8h2a.789.789,0,0,0,.8-.8l.1-4.3a.789.789,0,0,0-.8-.8h-2" transform="translate(-70.5 -135.165)" fill="none" stroke="#fff" stroke-width="0.9"/>
    <path id="Path_605" data-name="Path 605" d="M256.7,181.2a.789.789,0,0,0-.8.8l-.1,4.3a.789.789,0,0,0,.8.8l2,.1a.789.789,0,0,0,.8-.8l.1-4.3a.789.789,0,0,0-.8-.8l-2-.1" transform="translate(-70.5 -135.165)" fill="none" stroke="#fff" stroke-width="0.9"/>
    <path id="Path_606" data-name="Path 606" d="M234.9,180.7a.789.789,0,0,0-.8.8l-.1,4.3a.789.789,0,0,0,.8.8h2a.789.789,0,0,0,.8-.8l.1-4.3a.789.789,0,0,0-.8-.8h-2" transform="translate(-70.5 -135.165)" fill="none" stroke="#fff" stroke-width="0.9"/>
    <path id="Path_607" data-name="Path 607" d="M223.9,180.4a.789.789,0,0,0-.8.8l-.1,4.3a.789.789,0,0,0,.8.8h2a.789.789,0,0,0,.8-.8l.1-4.3a.789.789,0,0,0-.8-.8h-2" transform="translate(-70.5 -135.165)" fill="none" stroke="#fff" stroke-width="0.9"/>
    <path id="Path_608" data-name="Path 608" d="M321.7,208.4v1.5h2.9v-1.7m-4.1-2.8v3l19.3-.8v-3.4" transform="translate(-70.5 -135.165)" fill="none" stroke="#fff" stroke-width="0.9"/>
    <path id="Path_609" data-name="Path 609" d="M323.8,209.9l.3,4-1.3.1-.2-4.1" transform="translate(-70.5 -135.165)" fill="none" stroke="#fff" stroke-width="0.9"/>
    <path id="Path_610" data-name="Path 610" d="M210.8,211.7a3.7,3.7,0,0,0-.6,2.1,3.992,3.992,0,0,0,3.9,4,3.927,3.927,0,0,0,3.9-4v-.1m-6.2,0h0a2.348,2.348,0,0,0,2.3,2.4,2.263,2.263,0,0,0,2.3-2.3v-.1m-5.6-7v7h10l-2.2-3.1V206m0,0-3.9-.1m108,5.2a3.618,3.618,0,1,0,4.6,3.5A3.675,3.675,0,0,0,324,211m-1.2,1.6a2.087,2.087,0,0,0-1.3,2,2.2,2.2,0,0,0,4.4,0,2.256,2.256,0,0,0-1.8-2.2" transform="translate(-70.5 -135.165)" fill="none" stroke="#fff" stroke-width="0.9"/>
    <path id="Path_611" data-name="Path 611" d="M139.2,179.2s-4.9,1.9-5.7,2.3a40.836,40.836,0,0,1,5.8.2l-.1-2.5" transform="translate(-70.5 -135.165)" fill="none" stroke="#fff" stroke-width="0.9"/>
    <path id="Path_612" data-name="Path 612" d="M139.2,179.2s-4.9,1.9-5.7,2.3a40.836,40.836,0,0,1,5.8.2Z" transform="translate(-70.5 -135.165)" fill="none" stroke="#fff" stroke-width="0.9"/>
    <path id="Path_613" data-name="Path 613" d="M199.4,200.6a54.119,54.119,0,0,1-16.2,3.2,17.508,17.508,0,0,1-5.3-.8,34.568,34.568,0,0,1-4-2.2l4.6-1.3h.3" transform="translate(-70.5 -135.165)" fill="none" stroke="#fff" stroke-width="0.9"/>
    <path id="Path_614" data-name="Path 614" d="M178.7,199.4l6.7.1s10.2.9,15.1.8c-.4.1-.7.3-1.1.4" transform="translate(-70.5 -135.165)" fill="none" stroke="#fff" stroke-width="0.9"/>
    <path id="Path_615" data-name="Path 615" d="M209.4,201.7c-4.1,1.6-9.8,4-22.1,4.3a8.7,8.7,0,0,1-3.4-.7c-1-.5-2-1.1-2.8-1.5" transform="translate(-70.5 -135.165)" fill="none" stroke="#fff" stroke-width="0.9"/>
    <path id="Path_616" data-name="Path 616" d="M197.4,200.8a116.952,116.952,0,0,0,12.5.8c-.2.1-.4.1-.5.2" transform="translate(-70.5 -135.165)" fill="none" stroke="#fff" stroke-width="0.9"/>
    <path id="Path_617" data-name="Path 617" d="M222.4,203.2c-3.9,1.8-16,5.3-28.7,5.1a8.7,8.7,0,0,1-3.4-.7c-1-.5-2.1-1.1-2.8-1.5" transform="translate(-70.5 -135.165)" fill="none" stroke="#fff" stroke-width="0.9"/>
    <path id="Path_618" data-name="Path 618" d="M207.3,202.7c4.6.3,12.2.7,15.4.3-.1.1-.2.1-.4.2" transform="translate(-70.5 -135.165)" fill="none" stroke="#fff" stroke-width="0.9"/>
  </g>
</svg>
