<svg xmlns="http://www.w3.org/2000/svg" width="280.845" height="88.3" viewBox="0 0 280.845 88.3">
  <g id="CessnaCitation_1_" transform="translate(0.45 0.45)">
    <path id="Path_422" data-name="Path 422" d="M178.5,176.8c4.7-.1,9.7-.1,15.1-.1h101c15.6-.1,18.9,2.6,30.2,9.2a26.47,26.47,0,0,0,6.2,2.7,135.316,135.316,0,0,1,18.6,6.7c6,2.8,1.7,6.5-3.1,6.5m-142.8,8.5a211.743,211.743,0,0,1-28.2-1.2,568.692,568.692,0,0,1-90.3-18.9c-3.3-1-2-6.5,3.1-7,31.5-2.9,50.4-5.1,76.3-6m159.3,25.9c-29.9,2.1-60.1,3.4-90.1,5.4m-149-18.4.3-5.7m126.4,30.3a.7.7,0,0,0,.7-.9l-1.4-6.2a1.172,1.172,0,0,0-1.1-.9h-5.8a.7.7,0,0,0-.7.9l1.4,6.2a1.172,1.172,0,0,0,1.1.9Zm-9.4,1.2a.7.7,0,1,0-.7-.7.684.684,0,0,0,.7.7Zm-1.7-5.6a5.425,5.425,0,0,0-3.6,5,5.3,5.3,0,0,0,10.6,0v-.6m-3-1.3a3.043,3.043,0,0,0-2.4-1.1,3,3,0,1,0,3,3,2.2,2.2,0,0,0-.1-.8m2.8.2,1,1.4a.653.653,0,0,0,.8.2l2.4-1.6m-4.6,1.4,1.1-.5m3.1-4.9c10.2.1,18-.7,22.8-2.3,2.7-.9,3.8-2,2.5-3.4a20.146,20.146,0,0,0-3.2-2m-22.1,6.5c10.2.1,18-.5,22.8-1.9a6.026,6.026,0,0,0,3-1.6m-42.7-6.1,34.8,7.6c4.4,1,8.7-3.7,1.4-6-.2-.1-.4.1-.5.3l-.2.8c0,.2-.2.3-.4.3q-17.85-2.7-35.7-4.8m2.9,1c0-1.7-17.2-1.2-17.2-.4s17.2,2.3,17.2.4Zm-3.1.9c.6-.1.7-1.7-.1-1.8m-3.9,1.8c.6-.1.6-1.9.1-2m-4,1.8c-.6-.1-.6-1.7,0-1.7m47.1,6.4c-.2-.4-1-.2-.9.3s-.2.9-.6,1.4c-.4.3.1.9.5.7,1.1-.7,1.4-1.5,1-2.4ZM139.5,192a.52.52,0,0,1-.4-.2.6.6,0,0,1-.1-.4l.9-4.1V187l-1.3-3.7a.569.569,0,0,1,.4-.7c14.1-4.2,28.6-7,44.9-5.3.4,0,.7.4.8.8l1.1,12.7a.792.792,0,0,1-.5.8c-10.9,5.2-27.5,3.5-45.8.4Zm38.9,1.8-1.1-17.1m6.4,15.5-.9-15.1m-32.5,16.5-.8-14m.5,8,27.9-1.9m-38,2,9.4-1.1c.1,0,.2-.1.2-.3v-.8c0-.1-.1-.3-.3-.2l-9.5.5m.1,2.7h-1.5a.319.319,0,0,1-.3-.3v-.4a.215.215,0,0,1,.2-.2l1.8-.7m206.5,13.6-14.4,1.4-1,.8-7.1.5a.265.265,0,0,0-.3.3v2.1a.265.265,0,0,0,.3.3c7.4-.5,14.7-1.1,22.1-1.9a.457.457,0,0,0,.4-.5V194m-23.3-9.1,1.8,2.5a.52.52,0,0,0,.4.2h3m-.6,0v8.7a1.324,1.324,0,0,0,1.3,1.3h8.5a1.324,1.324,0,0,0,1.3-1.3V191m-14.4-4.3-5.8.3c-.1,0-.2,0-.2-.1l-5.1-4.9c-.2-.2-.1-.5.2-.6l3-.4m-4.8,6.4a.55.55,0,0,1-.5-.3l-2.6-4.8a.547.547,0,0,1,.5-.8H311a.52.52,0,0,1,.4.2l4.6,4.6a.539.539,0,0,1-.4.9l-3.8.2Zm-6.1-5.3a.43.43,0,0,0-.4.4v4.4a.43.43,0,0,0,.4.4h3.1a.441.441,0,0,0,.4-.6l-2.3-4.4c-.1-.2-.2-.2-.4-.2Zm13.4,21.3c-19.6-8.9-61.2-8.3-84.5-8.2l-107.2.3c-2.5,0-7.5.7-5.1,4.2m33-5.5v8.5a1.324,1.324,0,0,0,1.3,1.3h11.6a1.324,1.324,0,0,0,1.3-1.3v-7.9m6.5,11.9a.684.684,0,0,0,.7-.7v-4.7a.684.684,0,0,0-.7-.7h-5.5a.684.684,0,0,0-.7.7V206a.684.684,0,0,0,.7.7Zm3.7-8,2.7,8.7a.76.76,0,0,0,.8.6,101.685,101.685,0,0,1,20.2,1m-5.2-.7v-.4a.319.319,0,0,1,.3-.3h2a.319.319,0,0,1,.3.3v.7m-16.3-9,10.6,7a.215.215,0,0,1-.1.4H182.4m13.3,1.1-.9-1m-13.1-2.2h10.8m-11.5-2h8.4m-9-1.9h6m138.3,14.9a1.7,1.7,0,1,0-1.7-1.7,1.752,1.752,0,0,0,1.7,1.7Zm0,1.5a3.2,3.2,0,1,0-3.2-3.2,3.29,3.29,0,0,0,3.2,3.2Zm0-11.7v1.5a.43.43,0,0,0,.4.4h1.3a.43.43,0,0,0,.4-.4v-1.6m-1.7,2v1.5a.265.265,0,0,0,.3.3h.7a.265.265,0,0,0,.3-.3v-1.5m-.1,3.8v-2.1m-1.2,1.7v-1.8m-8.1-5.6,4.6,1.6a3.4,3.4,0,0,0,1.4.2h.8m-12.1-1.5,9.6,2.6c.1,0,.3,0,.3-.2a.215.215,0,0,1,.2-.2h.3c.1,0,.2,0,.2.1l.1.2c0,.1.1.1.2.1h2m2.9,3.1a.265.265,0,0,0,.3-.3v-1.2a.265.265,0,0,0-.3-.3h-.4a.265.265,0,0,0-.3.3v1.2a.265.265,0,0,0,.3.3Zm-1.2.7a3.041,3.041,0,0,1,1.2.6c.2.3-.5.8-.6.9m-1.8-1.1a17.659,17.659,0,0,1-2.8-1.1c-.9-.5-.6-1,.2-1.4a8.52,8.52,0,0,1,2.2-.8m.4,2.5c-.4-.2-.8-.3-1.4-.6-1-.5.5-.8,1.3-1m-33-3.2v-7.9m-12.5,8.6v-9.7m0,4.7H292m-11.8-4.7V181.8a2.433,2.433,0,0,1,2.4-2.4H289a2.433,2.433,0,0,1,2.4,2.4v15.3m-7.3-.7v-2.5c0-.3.2-.4.2-.6v-2.5a.576.576,0,0,1,.6-.6h1.5a.576.576,0,0,1,.6.6v2.5c0,.3.2.3.2.6v2.8m-3.1-2.3h3.1m-.1-1.3h-2.8m-.2,2.5h3.1m-10.6-8.1a.875.875,0,0,0,.9-.6,5.552,5.552,0,0,0,0-4.2.961.961,0,0,0-.9-.6h-1.3a.961.961,0,0,0-.9.6,5.125,5.125,0,0,0,0,4.2.961.961,0,0,0,.9.6Zm-11,0a.875.875,0,0,0,.9-.6,5.552,5.552,0,0,0,0-4.2.961.961,0,0,0-.9-.6h-1.3a.961.961,0,0,0-.9.6,5.125,5.125,0,0,0,0,4.2.961.961,0,0,0,.9.6Zm-10.8,0a.875.875,0,0,0,.9-.6,5.552,5.552,0,0,0,0-4.2.961.961,0,0,0-.9-.6h-1.3a.961.961,0,0,0-.9.6,5.125,5.125,0,0,0,0,4.2.961.961,0,0,0,.9.6Zm-11,0a.875.875,0,0,0,.9-.6,5.552,5.552,0,0,0,0-4.2.961.961,0,0,0-.9-.6h-1.3a.961.961,0,0,0-.9.6,5.125,5.125,0,0,0,0,4.2.961.961,0,0,0,.9.6Zm-11,0a.875.875,0,0,0,.9-.6,5.552,5.552,0,0,0,0-4.2.961.961,0,0,0-.9-.6h-1.3a.961.961,0,0,0-.9.6,5.125,5.125,0,0,0,0,4.2.961.961,0,0,0,.9.6Zm-10.9,0a.875.875,0,0,0,.9-.6,5.552,5.552,0,0,0,0-4.2.961.961,0,0,0-.9-.6h-1.3a.961.961,0,0,0-.9.6,5.125,5.125,0,0,0,0,4.2.961.961,0,0,0,.9.6Zm-13.5,0a.875.875,0,0,0,.9-.6,5.552,5.552,0,0,0,0-4.2.961.961,0,0,0-.9-.6H207a.961.961,0,0,0-.9.6,5.125,5.125,0,0,0,0,4.2.961.961,0,0,0,.9.6ZM77.1,169.3c0-.5,42.3-3.2,42.8,0,.4,3.2-42.8.5-42.8,0ZM93,170.5c-2.3-.5-2.4-1.8.5-2.3M84,181a.319.319,0,0,0,.3.3c1.2,0,3.2-.1,3.1-1.1,0-.9-2-1-3.2-1a.319.319,0,0,0-.3.3V181Zm.8.3v-2m-2.9-10.5-9.3-34.2H94.1a1.974,1.974,0,0,1,1.4.6l35.6,37.4a10.129,10.129,0,0,0,7.5,3.2h2a1.689,1.689,0,0,1,1,.3,11.807,11.807,0,0,0,6.3,1.8m-63.1,1.4-2.6-9.4M86,183.8l-.7-2.5m3.2-46.7v-.9a.472.472,0,0,1,.5-.5h1.1a.472.472,0,0,1,.5.5v.9m-3.5,0v-.3a.319.319,0,0,1,.3-.3h1m8.9,36.6,3.7,7.5H84.5m-4.4-43.5,2.6,5.4c.1.2,0,.3-.2.4l-.7.3c-.2.1-.2.2-.2.4l.1.2a.52.52,0,0,0,.4.2l.8-.3a.4.4,0,0,1,.4.2l5.9,12.3c.1.1,0,.3-.1.4l-.9.4c-.1.1-.2.2-.1.4l.2.5c.1.1.2.2.4.1l.9-.4c.1-.1.3,0,.4.1l3.2,6.6c.1.2,0,.3-.1.4l-1.5.6a.52.52,0,0,0-.2.4l1.4,3.1c.1.2.2.2.4.2l1.5-.7c.1-.1.3,0,.4.1l1,2m-10.5.6-5.1-11.7a.752.752,0,0,0-.7-.5H78.6m11.2,21.9-3.5-8" transform="translate(-72.6 -133.2)" fill="none" stroke="#fff" stroke-linecap="round" stroke-linejoin="round" stroke-miterlimit="2.613" stroke-width="0.9" fill-rule="evenodd"/>
  </g>
</svg>
