<svg id="Calque_1" width="218.838" height="76.9" data-name="Calque 1" xmlns="http://www.w3.org/2000/svg" viewBox="0 0 189.24 62.8"><defs><style>.cls-1{fill:none;stroke:#fff;stroke-miterlimit:10;}</style></defs><path class="cls-1" d="M18.88,7.75S39,6.83,43.4,7.38c2.87.37,3.9,1.78,3.9,1.78s1.3,2-4.48,2.4-9.85.56-15.26-.36-8.68-1.68-8.68-1.68Z" transform="translate(-18.38 -6.7)"/><path class="cls-1" d="M197.84,47s.06,0,.09-.06c.45-.33.39-.69-.15-.76s-1.09.53-1.09.53a2.55,2.55,0,0,0-.72,2.07c.09,1.41.15,1.84.6,2.07s.39-.17.39-.43-.12-.92-.09-1.28l0-.33A2.45,2.45,0,0,1,197.84,47Z" transform="translate(-18.38 -6.7)"/><path class="cls-1" d="M199.77,48l-.69.06h-1.94" transform="translate(-18.38 -6.7)"/><path class="cls-1" d="M201.56,41.63c6.29,2.07,5.53,3,5.53,3s-.15,2.2-5.86,3.15" transform="translate(-18.38 -6.7)"/><path class="cls-1" d="M42.64,11.92l6.47,8.41s1.48,1.84,7.44,2.66S94,28.65,94,28.65h61.88s1.81-.2,6.23,2.43c6.47,3.84,9.46,6,9.46,6s18.2,1,27.33,3.71l1.39.43" transform="translate(-18.38 -6.7)"/><path class="cls-1" d="M191.58,42.81c0-.49.7-.59.7-.59s1.9.33,1.9,1.94-2.05,1.74-2.05,1.74-.55.1-.55-.3" transform="translate(-18.38 -6.7)"/><path class="cls-1" d="M196.93,50.66c-.12.07-3.93,3.16-16.87,3.45s-25.69.27-25.69.27l-10.73.23a.6.6,0,0,0-.43.23c-.24.42-1.63,1.28-9.12,1.41" transform="translate(-18.38 -6.7)"/><line class="cls-1" x1="109.42" y1="49.54" x2="106.73" y2="49.54"/><path class="cls-1" d="M112.74,55S98,54.18,92,52.9,73.26,48,73.26,48" transform="translate(-18.38 -6.7)"/><polyline class="cls-1" points="37.29 37.62 16.49 34.3 6.52 7.35 5.19 3.77"/><polyline class="cls-1" points="26.62 35.91 26.62 33.51 12.56 6.86 6.52 7.35"/><path class="cls-1" d="M52.86,40.21,84.54,48s1.39.76,0,.89-27.39-2.4-27.39-2.4Z" transform="translate(-18.38 -6.7)"/><line class="cls-1" x1="180.25" y1="34" x2="180.25" y2="41.33"/><polyline class="cls-1" points="137.86 47.67 137.86 50.23 156.24 50.23 156.24 47.67"/><line class="cls-1" x1="155.03" y1="54.51" x2="155.03" y2="55.46"/><line class="cls-1" x1="155.03" y1="52.54" x2="155.03" y2="53.52"/><line class="cls-1" x1="155.03" y1="50.23" x2="155.03" y2="51.52"/><line class="cls-1" x1="156.03" y1="54.51" x2="156.03" y2="55.46"/><line class="cls-1" x1="156.03" y1="52.54" x2="156.03" y2="53.52"/><line class="cls-1" x1="156.03" y1="50.23" x2="156.03" y2="51.39"/><line class="cls-1" x1="152.46" y1="50.23" x2="154.46" y2="51.94"/><line class="cls-1" x1="153.61" y1="50.23" x2="155.03" y2="51.39"/><path class="cls-1" d="M174.62,59.24h-1.48a.35.35,0,0,1-.33-.36v-.33a.35.35,0,0,1,.33-.36h1.48a.35.35,0,0,1,.34.36v.33A.35.35,0,0,1,174.62,59.24Z" transform="translate(-18.38 -6.7)"/><path class="cls-1" d="M174.74,61.21h-1.69a.22.22,0,0,1-.21-.23v-.56a.22.22,0,0,1,.21-.23h1.69a.22.22,0,0,1,.22.23V61A.24.24,0,0,1,174.74,61.21Z" transform="translate(-18.38 -6.7)"/><polyline class="cls-1" points="156.58 51.88 158.42 52.86 156.58 54.11"/><ellipse class="cls-1" cx="155.79" cy="58.75" rx="0.42" ry="0.46"/><ellipse class="cls-1" cx="155.79" cy="58.75" rx="3.26" ry="3.55"/><ellipse class="cls-1" cx="155.79" cy="58.75" rx="1.57" ry="1.71"/><path class="cls-1" d="M114.68,38.83H118l8.35,3.82s7.31-.07,7.31,1.77c0,1.28-17.29-.3-17.29-.3l.12-1.41Z" transform="translate(-18.38 -6.7)"/><path class="cls-1" d="M133.57,44.06l8.62,7.46s.9,1.54-1.18,2.2A52.41,52.41,0,0,1,134.09,55" transform="translate(-18.38 -6.7)"/><line class="cls-1" x1="96.3" y1="42.22" x2="98.02" y2="37.42"/><line class="cls-1" x1="95.33" y1="44.88" x2="96.09" y2="42.78"/><line class="cls-1" x1="94.3" y1="47.74" x2="95.09" y2="45.5"/><line class="cls-1" x1="94.09" y1="48.33" x2="94.21" y2="48"/><line class="cls-1" x1="103.83" y1="37.88" x2="102.49" y2="42.55"/><line class="cls-1" x1="113.01" y1="38.21" x2="121" y2="47.44"/><path class="cls-1" d="M127.56,52.47h6.53l-.25,8.18L132,62.72s-1.63-3.51-4.5-2.69l.15-3.85" transform="translate(-18.38 -6.7)"/><ellipse class="cls-1" cx="109.81" cy="57.66" rx="2.06" ry="2.23"/><ellipse class="cls-1" cx="109.81" cy="57.66" rx="3.99" ry="4.34"/><path class="cls-1" d="M114.35,48.92l13.18.46a2.28,2.28,0,0,1-2.42,1.84c-2.18,0-9-.23-9-.23A2.37,2.37,0,0,1,114.35,48.92Z" transform="translate(-18.38 -6.7)"/><path class="cls-1" d="M113.23,51.55l14.81.33s-1.24,2.2-3,2.27-9.77-.17-10.1-.23A3.8,3.8,0,0,1,113.23,51.55Z" transform="translate(-18.38 -6.7)"/><path class="cls-1" d="M112.47,54.38l13.3.23s-.54,2.59-2.11,2.59-8.62-.13-8.62-.13S113.29,56.94,112.47,54.38Z" transform="translate(-18.38 -6.7)"/><path class="cls-1" d="M193.55,42.78h-4.93a1.15,1.15,0,0,1,.94,1.28,1.27,1.27,0,0,1-1,1.35l5,0" transform="translate(-18.38 -6.7)"/><path class="cls-1" d="M188.62,42.78s-1.42.06-1.39,1.31,1.36,1.28,1.36,1.28" transform="translate(-18.38 -6.7)"/><path class="cls-1" d="M163.17,31.74H161s-.51.23,0,.65,6.29,4.73,6.29,4.73.84.56,1.21.2a12.53,12.53,0,0,1,1.72-1.08" transform="translate(-18.38 -6.7)"/><path class="cls-1" d="M164.38,35.84l-.94,2.66h2a1.48,1.48,0,0,0,.91-.29l.42-.3a.24.24,0,0,0,0-.42Z" transform="translate(-18.38 -6.7)"/><path class="cls-1" d="M163.65,35.35l-3-2.17a3,3,0,0,0-1.73-.56h-1a2.55,2.55,0,0,0-1.21.27c-.43.19-.85.49-.85.92,0,.62,0,1.77,0,2.43a2.22,2.22,0,0,0,.7,1.64,0,0,0,0,1,0,0,2.54,2.54,0,0,0,1.72.63h4.08Z" transform="translate(-18.38 -6.7)"/><ellipse class="cls-1" cx="90.22" cy="30.29" rx="1.93" ry="2.53"/><ellipse class="cls-1" cx="103.16" cy="30.29" rx="1.93" ry="2.53"/><ellipse class="cls-1" cx="112.32" cy="30.29" rx="1.93" ry="2.53"/><ellipse class="cls-1" cx="121" cy="30.29" rx="1.93" ry="2.53"/><path class="cls-1" d="M114.44,48.92l.09-3.74h-.79V30.65s-18.38.1-18.74,0V50.24s-.39,1,1.15,1.11,3.66,0,3.66,0" transform="translate(-18.38 -6.7)"/><path class="cls-1" d="M113.74,45.18s-7.41,1-10.91,3.25-3,3.65-3,3.65,0,1.44,1.93,1.64,10.73.92,10.73.92" transform="translate(-18.38 -6.7)"/><path class="cls-1" d="M150.77,51h-6.32a1.19,1.19,0,0,1-1.14-1.24V31.9a1.2,1.2,0,0,1,1.14-1.25h6.32a1.2,1.2,0,0,1,1.15,1.25V49.78A1.19,1.19,0,0,1,150.77,51Z" transform="translate(-18.38 -6.7)"/><path class="cls-1" d="M201.44,44.09c0-.36.87-17.28.87-17.28s.19-1-.78-.92-1.36,1.9-1.36,1.9,0,8.55,0,8.81c0,.43.33,7.23.33,7.23s-.09.75.36.66A.78.78,0,0,0,201.44,44.09Z" transform="translate(-18.38 -6.7)"/><path class="cls-1" d="M201.2,47.08S201.53,61,201,61.67s-.72.72-1.39.43c-.39-.17-.27-1.64-.33-2.53a7.35,7.35,0,0,1,0-1.15l.61-11.31s-.07-.23.69-.23S201.2,47.08,201.2,47.08Z" transform="translate(-18.38 -6.7)"/><path class="cls-1" d="M128.31,64.79H128a.28.28,0,0,1-.27-.29v-.33a.29.29,0,0,1,.27-.3h.3a.29.29,0,0,1,.27.3v.33A.28.28,0,0,1,128.31,64.79Z" transform="translate(-18.38 -6.7)"/><path class="cls-1" d="M24.53,9s13.39-1.48,15.9-.1-1.6,1.38-1.6,1.38S27.53,10,24.53,9Z" transform="translate(-18.38 -6.7)"/><line class="cls-1" x1="107.91" y1="47.05" x2="107.24" y2="48.46"/></svg>