<svg width="488" height="32" viewBox="0 0 488 32" fill="none" xmlns="http://www.w3.org/2000/svg">
<g clip-path="url(#clip0_2306_606)">
<path d="M5.92973 0.791016H10.4542L4.83119 29.7022H16.593L16.2776 31.4211H0L5.92973 0.791016Z" fill="#061D38"/>
<path d="M47.5662 18.9884C46.6681 23.6121 45.3622 27.1289 42.3065 29.4958C39.9818 31.2146 37.1363 32.075 34.2517 31.9314C27.9998 31.9314 24.5156 29.1571 24.5156 22.8884C24.5571 20.782 24.79 18.6838 25.2114 16.6198L28.2963 0.789062H32.8155L29.4873 17.8608C29.0222 20.0272 28.7441 22.2297 28.6562 24.444C28.6562 28.6861 31.04 30.2177 34.6544 30.2177C37.045 30.2915 39.3902 29.5525 41.3091 28.1206C43.9621 26.0219 45.064 22.7527 45.8061 18.9196L49.3365 0.789062H51.0915L47.5662 18.9884Z" fill="#061D38"/>
<path d="M83.9793 0.790583L77.9553 31.9328L60.0547 7.96166L55.52 31.4155H53.7891L59.8045 0.271484L77.7017 24.2427L82.2449 0.790583H83.9793Z" fill="#061D38"/>
<path d="M105.102 22.3933H93.0938L87.6748 31.4139H85.7656L104.696 0L111.443 31.4139H107.036L105.102 22.3933ZM94.1341 20.6745H104.724L101.958 7.68503L94.1341 20.6745Z" fill="#061D38"/>
<path d="M147.023 5.23312C144.462 3.02648 141.18 1.84573 137.805 1.91741C129.554 1.91741 122.651 9.36009 122.651 19.5306C122.651 25.9797 125.686 30.2872 131.803 30.2872C134.616 30.3529 137.387 29.6013 139.784 28.1231L142.168 15.7869H146.665L144.168 28.6422C140.432 30.8998 136.141 32.0633 131.781 32.0009C123.04 32.0009 117.859 26.8821 117.859 19.1473C117.859 8.50411 126.697 0.205423 137.782 0.205423C141.198 0.132181 144.567 1.00658 147.518 2.73215L147.023 5.23312Z" fill="#061D38"/>
<path d="M199.313 0.203125C206.576 0.203125 211.844 5.3219 211.844 13.2372C211.844 23.6346 203.32 32.0003 194.104 32.0003C186.906 32.0003 181.594 27.0638 181.594 19.0797C181.592 8.79574 189.954 0.203125 199.313 0.203125ZM194.171 30.2832C201.82 30.2832 207.518 21.4431 207.518 12.1974C207.518 5.63305 204.404 1.91343 199.278 1.91343C191.649 1.91343 185.931 10.7758 185.931 20.0663C185.924 26.6787 189.037 30.2866 194.164 30.2866L194.171 30.2832Z" fill="#061D38"/>
<path d="M241.156 18.9884C240.258 23.6121 238.952 27.1289 235.894 29.4958C233.57 31.2148 230.724 32.0753 227.839 31.9314C221.586 31.9314 218.102 29.1571 218.102 22.8884C218.145 20.782 218.378 18.684 218.799 16.6198L221.884 0.789062H226.405L223.077 17.8608C222.612 20.0272 222.333 22.2297 222.246 24.444C222.246 28.6861 224.629 30.2177 228.244 30.2177C230.634 30.2915 232.98 29.5525 234.898 28.1206C237.551 26.0219 238.653 22.7527 239.395 18.9196L242.926 0.789062H244.681L241.156 18.9884Z" fill="#061D38"/>
<path d="M254.479 17.9057L251.87 31.4142H247.375L253.31 0.791016H261.536C266.955 0.791016 271.248 2.63877 271.248 8.18209C271.248 14.5883 265.38 17.9022 258.342 17.9022L254.479 17.9057ZM257.469 2.503L254.839 16.1937H258.054C259.198 16.2844 260.348 16.1248 261.425 15.7259C262.501 15.3269 263.478 14.6982 264.289 13.8832C265.099 13.0681 265.724 12.0863 266.119 11.0055C266.514 9.9247 266.67 8.77077 266.576 7.62349C266.576 4.64643 265.377 2.503 261.022 2.503H257.469Z" fill="#061D38"/>
<path d="M310.046 4.89337C307.697 2.93511 304.73 1.87972 301.675 1.91632C293.537 1.91632 286.609 9.35899 286.609 19.5295C286.609 26.0474 289.734 30.2861 295.896 30.2861C299.881 30.1606 303.707 28.6908 306.755 26.1144L306.193 29.0021C303.062 31.0123 299.411 32.0548 295.694 31.9998C287.329 31.9998 281.812 27.0392 281.812 19.1462C281.812 8.52536 290.627 0.204329 301.645 0.204329C304.741 0.146199 307.8 0.891648 310.525 2.36838L310.046 4.89337Z" fill="#061D38"/>
<path d="M340.033 31.4142H335.558L338.413 16.6424H321.931L319.076 31.4142H314.602L320.536 0.791016H325.013L322.271 14.9304H338.752L341.494 0.791016H345.971L340.033 31.4142Z" fill="#061D38"/>
<path d="M367.088 22.3933H355.08L349.661 31.4139H347.75L366.681 0L373.428 31.4139H369.02L367.088 22.3933ZM356.12 20.6745H366.71L363.944 7.68503L356.12 20.6745Z" fill="#061D38"/>
<path d="M392.906 17.7649L399.945 31.4143H402.445L395.287 17.5225" fill="#061D38"/>
<path d="M388.274 17.9057L385.646 31.4142H381.156L387.091 0.791016H395.66C401.077 0.791016 405.372 2.6388 405.372 8.16494C405.372 14.5918 399.504 17.9057 392.466 17.9057H388.274ZM391.245 2.503L388.615 16.1937H392.167C393.307 16.2818 394.452 16.122 395.524 15.725C396.597 15.328 397.571 14.7032 398.38 13.8936C399.189 13.084 399.814 12.1085 400.213 11.034C400.611 9.95954 400.774 8.81139 400.688 7.66818C400.688 4.64643 399.542 2.51161 395.134 2.51161L391.245 2.503Z" fill="#061D38"/>
<path d="M164.438 17.7649L171.476 31.4143H173.976L166.818 17.5225" fill="#061D38"/>
<path d="M159.81 17.9057L157.184 31.4142H152.688L158.622 0.791016H167.191C172.61 0.791016 176.903 2.6388 176.903 8.16494C176.903 14.5918 171.035 17.9057 163.997 17.9057H159.81ZM162.783 2.503L160.153 16.1937H163.704C164.844 16.2821 165.989 16.1224 167.061 15.7255C168.134 15.3286 169.108 14.704 169.918 13.8943C170.727 13.0847 171.352 12.1091 171.751 11.0345C172.149 9.95983 172.312 8.81154 172.226 7.66818C172.226 4.64643 171.078 2.51161 166.672 2.51161L162.783 2.503Z" fill="#061D38"/>
<path d="M475.531 17.7649L482.57 31.4143H485.07L477.912 17.5225" fill="#061D38"/>
<path d="M470.902 17.9057L468.277 31.4142H463.781L469.716 0.791016H478.285C483.702 0.791016 487.997 2.6388 487.997 8.16494C487.997 14.5918 482.129 17.9057 475.091 17.9057H470.902ZM473.875 2.503L471.245 16.1937H474.796C475.936 16.2818 477.081 16.1219 478.153 15.7249C479.225 15.3279 480.2 14.7032 481.009 13.8936C481.818 13.084 482.444 12.1086 482.842 11.0341C483.241 9.95965 483.403 8.81148 483.319 7.66818C483.319 4.64643 482.17 2.51161 477.764 2.51161L473.875 2.503Z" fill="#061D38"/>
<path d="M434.972 2.50304H425.597L419.996 31.4143H415.499L421.098 2.50304H411.789L412.082 0.78418H435.263L434.972 2.50304Z" fill="#061D38"/>
<path d="M447.533 2.50338L445.125 14.9307H456.274L455.981 16.6496H444.791L442.251 29.7129H455.585L455.293 31.4318H437.422L443.357 0.808594H461.227L460.933 2.52745L447.533 2.50338Z" fill="#061D38"/>
</g>
<defs>
<clipPath id="clip0_2306_606">
<rect width="488" height="32" fill="white"/>
</clipPath>
</defs>
</svg>
