<svg width="172" height="35" viewBox="0 0 172 35" fill="none" xmlns="http://www.w3.org/2000/svg">
<path d="M4.89785 0.655273H8.63125L3.9875 24.5613H13.7026L13.4421 25.9825H-0.0078125L4.89785 0.655273Z" fill="#061D38"/>
<path d="M39.3014 15.7015C38.5582 19.5245 37.4807 22.4323 34.955 24.3907C33.0346 25.812 30.6838 26.5234 28.3008 26.4046C23.1375 26.4046 20.2578 24.1108 20.2578 18.9276C20.2927 17.1855 20.4856 15.4501 20.834 13.7431L23.3824 0.653775H27.1116L24.3622 14.7692C23.9771 16.5603 23.7469 18.3815 23.6741 20.2124C23.6741 23.7199 25.6434 24.9862 28.6293 24.9862C30.6042 25.0473 32.5416 24.4362 34.1268 23.2523C36.3198 21.5171 37.2302 18.8139 37.8418 15.6446L40.7583 0.652344H42.208L39.3014 15.7015Z" fill="#061D38"/>
<path d="M69.3849 0.652452L64.407 26.4047L49.6207 6.58314L45.8674 25.9783H44.4375L49.4154 0.227539L64.2017 20.0491L67.9536 0.656746L69.3849 0.652452Z" fill="#061D38"/>
<path d="M86.8336 18.5169H76.9147L72.4394 25.9754H70.8594L86.5009 0L92.0748 25.9754H88.4334L86.8336 18.5169ZM77.7726 17.0957H86.5207L84.2371 6.35422L77.7726 17.0957Z" fill="#061D38"/>
<path d="M91.9219 35.002L92.205 33.4912C95.1031 31.9279 97.9446 29.8188 99.4128 22.1727L103.575 0.654297H107.309L103.408 20.7927C100.93 33.4741 91.9219 35.002 91.9219 35.002Z" fill="#061D38"/>
<path d="M118.462 2.07656L116.48 12.3518H125.682L125.44 13.773H116.196L114.097 24.5742H125.116L124.874 25.9954H110.102L115.006 0.673828H129.774L129.532 2.09503L118.462 2.07656Z" fill="#061D38"/>
<path d="M154.217 2.07648H146.469L141.846 25.9825H138.128L142.753 2.07648H135.062L135.305 0.655273H154.457L154.217 2.07648Z" fill="#061D38"/>
<path d="M171.629 3.26357C170.162 2.22799 168.405 1.6861 166.611 1.71585C163.713 1.71585 161.448 3.00346 161.448 5.50194C161.448 7.62664 163.006 8.80199 165.257 10.4605C168.749 13.0187 171.108 15.0666 171.108 18.739C171.108 24.0373 166.242 26.2714 161.578 26.2714C158.921 26.35 156.311 25.5512 154.148 23.9975L154.539 22.0078C156.415 23.8258 158.916 24.848 161.523 24.8616C165.22 24.8616 167.469 22.8108 167.469 19.8462C167.469 17.6078 166.188 16.3955 163.698 14.3447C160.075 11.3786 158.162 9.77553 158.162 6.79242C158.162 2.48617 162.064 0.303187 166.763 0.303187C168.565 0.254676 170.355 0.611573 172.001 1.34775L171.629 3.26357Z" fill="#061D38"/>
</svg>
