<svg width="373" height="32" viewBox="0 0 373 32" fill="none" xmlns="http://www.w3.org/2000/svg">
<g clip-path="url(#clip0_2306_628)">
<path d="M5.95235 0.790039H10.4823L4.84777 29.7014H16.6357L16.3196 31.4202H0L5.95235 0.790039Z" fill="#061D38"/>
<path d="M47.6866 18.9852C46.7848 23.6086 45.4775 27.127 42.4128 29.4937C40.0828 31.2131 37.2306 32.074 34.3389 31.9309C28.0739 31.9309 24.5781 29.1569 24.5781 22.8868C24.6205 20.7804 24.8546 18.6823 25.2773 16.6184L28.3694 0.786887H32.8994L29.5633 17.8577C29.0962 20.0244 28.8169 22.2275 28.7284 24.4423C28.7284 28.6825 31.118 30.2156 34.7409 30.2156C37.138 30.2897 39.4895 29.55 41.413 28.117C44.074 26.0201 45.1751 22.751 45.9207 18.9164L49.4595 0.785156H51.2288L47.6866 18.9852Z" fill="#061D38"/>
<path d="M84.1921 0.798146L78.1521 31.9422L60.2109 7.96884L55.6569 31.4214H53.9219L59.9635 0.277344L77.9048 24.2507L82.4571 0.798146H84.1921Z" fill="#061D38"/>
<path d="M105.369 22.387H93.3333L87.9015 31.407H85.9844L104.961 -0.00683594L111.725 31.407H107.306L105.369 22.387ZM94.3744 20.6682H104.991L102.218 7.67946L94.3744 20.6682Z" fill="#061D38"/>
<path d="M164.355 0.203125C171.635 0.203125 176.916 5.32157 176.916 13.2365C176.916 23.6333 168.371 31.9986 159.134 31.9986C151.919 31.9986 146.594 27.0606 146.594 19.0786C146.595 8.79523 154.977 0.203125 164.355 0.203125ZM159.201 30.2815C166.868 30.2815 172.58 21.4419 172.58 12.1967C172.58 5.6327 169.458 1.91329 164.32 1.91329C156.672 1.91329 150.942 10.7753 150.942 20.0652C150.94 26.6773 154.06 30.285 159.201 30.285V30.2815Z" fill="#061D38"/>
<path d="M300.888 0.203125C308.168 0.203125 313.447 5.32157 313.447 13.2365C313.447 23.6333 304.904 31.9986 295.665 31.9986C288.45 31.9986 283.125 27.0606 283.125 19.0786C283.123 8.79523 291.505 0.203125 300.888 0.203125ZM295.734 30.2815C303.401 30.2815 309.113 21.4419 309.113 12.1967C309.113 5.6327 305.991 1.91329 300.853 1.91329C293.205 1.91329 287.475 10.7753 287.475 20.0652C287.468 26.6773 290.587 30.285 295.727 30.285L295.734 30.2815Z" fill="#061D38"/>
<path d="M139.728 3.94681C137.948 2.69487 135.817 2.0396 133.641 2.0751C130.125 2.0751 127.375 3.63058 127.375 6.65389C127.375 9.23204 129.264 10.6449 131.996 12.6524C136.232 15.7462 139.094 18.2229 139.094 22.6642C139.094 29.0683 133.19 31.7737 127.533 31.7737C124.307 31.8687 121.14 30.9026 118.516 29.0236L118.99 26.6174C121.266 28.8155 124.302 30.0515 127.466 30.0686C131.951 30.0686 134.681 27.5867 134.681 24.0014C134.681 21.2943 133.124 19.8299 130.104 17.348C125.71 13.7627 123.389 11.8222 123.389 8.21452C123.389 3.00493 128.12 0.366609 133.823 0.366609C136.01 0.307883 138.182 0.73956 140.179 1.62993L139.728 3.94681Z" fill="#061D38"/>
<path d="M189.235 0.791016H193.764L188.131 29.7024H199.919L199.601 31.4212H183.281L189.235 0.791016Z" fill="#061D38"/>
<path d="M230.968 18.9852C230.066 23.6086 228.759 27.127 225.692 29.4937C223.362 31.2132 220.51 32.0742 217.618 31.9309C211.353 31.9309 207.859 29.1569 207.859 22.8868C207.902 20.7804 208.136 18.6823 208.559 16.6184L211.651 0.786887H216.179L212.845 17.8577C212.377 20.0243 212.097 22.2274 212.01 24.4423C212.01 28.6825 214.399 30.2156 218.022 30.2156C220.419 30.2901 222.771 29.5504 224.694 28.117C227.355 26.0201 228.458 22.751 229.204 18.9164L232.742 0.785156H234.5L230.968 18.9852Z" fill="#061D38"/>
<path d="M264.862 2.50392H255.464L249.853 31.4153H245.346L250.956 2.50392H241.625L241.92 0.785156H265.16L264.862 2.50392Z" fill="#061D38"/>
<path d="M273.521 0.790039H278.051L272.1 31.4151H267.57L273.521 0.790039Z" fill="#061D38"/>
<path d="M348.598 0.799122L342.558 31.9432L324.615 7.96981L320.063 31.4224H318.328L324.368 0.27832L342.309 24.2517L346.862 0.799122H348.598Z" fill="#061D38"/>
<path d="M372.552 3.94681C370.773 2.69436 368.643 2.03902 366.468 2.0751C362.951 2.0751 360.201 3.63058 360.201 6.65389C360.201 9.23204 362.091 10.6449 364.822 12.6524C369.06 15.7462 371.922 18.2229 371.922 22.6642C371.922 29.0683 366.016 31.7737 360.361 31.7737C357.135 31.8689 353.968 30.9028 351.344 29.0236L351.818 26.6174C354.094 28.8155 357.129 30.0516 360.292 30.0686C364.779 30.0686 367.507 27.5867 367.507 24.0014C367.507 21.2943 365.952 19.8299 362.931 17.348C358.536 13.7627 356.214 11.8222 356.214 8.21451C356.214 3.00493 360.948 0.366609 366.652 0.366609C368.838 0.307883 371.01 0.73956 373.008 1.62993L372.552 3.94681Z" fill="#061D38"/>
</g>
<defs>
<clipPath id="clip0_2306_628">
<rect width="373" height="32" fill="white"/>
</clipPath>
</defs>
</svg>
