<svg width="350" height="260" viewBox="0 0 350 260" fill="none" xmlns="http://www.w3.org/2000/svg">
<g clip-path="url(#clip0_4010_203)">
<path fill-rule="evenodd" clip-rule="evenodd" d="M-49 10L-44.7571 30.4C-39.1 50.8 -29.2 89.3333 -19.3 93.8667C-10.8143 98.4 -0.914289 66.6667 8.98571 66.6667C18.8857 66.6667 28.7857 98.4 38.6857 121.067C48.5857 146 57.0714 161.867 66.9714 177.733C76.8714 193.6 86.7714 209.467 96.6714 189.067C106.571 168.667 116.471 114.267 126.371 89.3333C134.857 66.6667 144.757 73.4667 154.657 84.8C164.557 98.4 174.457 114.267 184.357 132.4C194.257 152.8 202.743 177.733 212.643 173.2C222.543 168.667 232.443 136.933 242.343 132.4C252.243 130.133 262.143 152.8 270.629 164.133C280.529 177.733 290.429 177.733 300.329 168.667C310.229 161.867 320.129 146 330.029 121.067C339.929 98.4 351.174 24.7333 361.074 27C370.974 31.5333 378.114 114.267 388.014 141.467C397.914 168.667 407.814 184.533 416.3 193.6C426.2 200.4 436.1 200.4 441.757 200.4H446V306H441.757C436.1 306 426.2 306 416.3 306C407.814 306 397.914 306 388.014 306C378.114 306 368.214 306 358.314 306C348.414 306 339.929 306 330.029 306C320.129 306 310.229 306 300.329 306C290.429 306 280.529 306 270.629 306C262.143 306 252.243 306 242.343 306C232.443 306 222.543 306 212.643 306C202.743 306 194.257 306 184.357 306C174.457 306 164.557 306 154.657 306C144.757 306 134.857 306 126.371 306C116.471 306 106.571 306 96.6714 306C86.7714 306 76.8714 306 66.9714 306C57.0714 306 48.5857 306 38.6857 306C28.7857 306 18.8857 306 8.98571 306C-0.914289 306 -10.8143 306 -19.3 306C-29.2 306 -39.1 306 -44.7571 306H-49L-49 10Z" stroke="#061D38" stroke-width="4"/>
<rect width="62.9568" height="30.9568" transform="translate(112 32)" fill="#061D38"/>
<path d="M119.806 51.0909V50.3121C119.834 50.34 119.873 50.3791 119.923 50.4293C119.973 50.474 120.082 50.5633 120.249 50.6973C120.417 50.8257 120.593 50.9457 120.777 51.0574C120.961 51.1634 121.193 51.2723 121.472 51.384C121.757 51.49 122.044 51.5654 122.335 51.6101L122.82 46.4684C122.413 46.1725 122.097 45.938 121.874 45.7649C121.656 45.5919 121.413 45.3825 121.145 45.1369C120.877 44.8857 120.677 44.6623 120.543 44.4669C120.414 44.266 120.302 44.0399 120.208 43.7886C120.118 43.5318 120.074 43.2639 120.074 42.9847C120.074 42.5604 120.168 42.1836 120.358 41.8542C120.548 41.5193 120.802 41.2541 121.12 41.0587C121.439 40.8577 121.79 40.707 122.175 40.6065C122.561 40.5004 122.968 40.4474 123.398 40.4474L123.532 39.0238H124.001L123.859 40.4725C124.155 40.5004 124.445 40.5535 124.73 40.6316C125.02 40.7042 125.235 40.7684 125.374 40.8242L125.584 40.9163V41.6449C125.528 41.6058 125.45 41.5556 125.349 41.4941C125.249 41.4271 125.045 41.3295 124.738 41.201C124.431 41.0726 124.124 40.9861 123.817 40.9415L123.423 45.028C123.82 45.3016 124.124 45.5193 124.336 45.6812C124.554 45.8375 124.811 46.0357 125.106 46.2758C125.402 46.5158 125.628 46.7307 125.785 46.9206C125.947 47.1048 126.106 47.3197 126.262 47.5654C126.424 47.8054 126.538 48.0566 126.605 48.319C126.672 48.5758 126.706 48.8494 126.706 49.1397C126.706 49.5696 126.628 49.9576 126.471 50.3037C126.315 50.6498 126.111 50.9345 125.86 51.1579C125.609 51.3756 125.316 51.5598 124.981 51.7105C124.646 51.8557 124.308 51.959 123.968 52.0204C123.633 52.0818 123.292 52.1125 122.946 52.1125H122.745L122.611 53.5528H122.15L122.293 52.0706C122.002 52.0371 121.718 51.9813 121.439 51.9031C121.159 51.8194 120.925 51.7329 120.735 51.6436C120.545 51.5542 120.378 51.4677 120.233 51.384C120.088 51.3002 119.981 51.2304 119.914 51.1746L119.806 51.0909ZM122.988 44.7265L123.356 40.8996C122.759 40.8996 122.262 41.0475 121.866 41.3434C121.469 41.6337 121.271 42.0385 121.271 42.5577C121.271 42.954 121.399 43.3029 121.656 43.6044C121.913 43.9059 122.357 44.2799 122.988 44.7265ZM122.787 51.6603H122.979C123.7 51.6603 124.275 51.4789 124.704 51.116C125.14 50.7475 125.358 50.2479 125.358 49.617C125.358 49.1313 125.199 48.6819 124.88 48.2688C124.568 47.8557 124.026 47.3616 123.256 46.7866L122.787 51.6603ZM128.429 51.1746V50.3958C128.462 50.4405 128.507 50.4963 128.563 50.5633C128.618 50.6303 128.736 50.7391 128.914 50.8899C129.098 51.0406 129.294 51.1746 129.5 51.2918C129.713 51.4091 129.989 51.5151 130.329 51.6101C130.676 51.6994 131.038 51.744 131.418 51.744C132.317 51.744 133.034 51.4872 133.57 50.9736C134.106 50.4544 134.374 49.7426 134.374 48.8382C134.374 48.3916 134.307 47.9617 134.173 47.5486C134.045 47.1299 133.819 46.7503 133.495 46.4097C133.177 46.0692 132.783 45.8543 132.314 45.7649C131.694 45.9715 130.997 46.0748 130.221 46.0748L130.338 45.6226C130.383 45.5947 130.447 45.5612 130.53 45.5221C130.614 45.4774 130.798 45.4188 131.083 45.3462C131.368 45.2681 131.667 45.2234 131.979 45.2122C132.811 44.721 133.227 43.9338 133.227 42.8507C133.227 42.2311 133.087 41.7426 132.808 41.3853C132.529 41.0224 132.099 40.841 131.519 40.841C131.178 40.841 130.854 40.908 130.547 41.0419C130.246 41.1759 130 41.3295 129.81 41.5025C129.626 41.6756 129.456 41.871 129.299 42.0887C129.149 42.3008 129.048 42.46 128.998 42.566C128.948 42.6721 128.911 42.753 128.889 42.8089V41.8291C128.911 41.79 128.942 41.7398 128.981 41.6784C129.02 41.6114 129.121 41.4969 129.283 41.335C129.445 41.1676 129.623 41.0196 129.819 40.8912C130.014 40.7628 130.285 40.6484 130.631 40.5479C130.977 40.4418 131.348 40.3888 131.745 40.3888C132.638 40.3888 133.344 40.6232 133.863 41.0922C134.383 41.5556 134.642 42.1501 134.642 42.8759C134.642 43.3392 134.528 43.7914 134.299 44.2325C134.076 44.6679 133.721 45.0364 133.235 45.3379C134.045 45.5444 134.692 45.9492 135.178 46.5521C135.669 47.1495 135.915 47.878 135.915 48.7377C135.915 49.7761 135.549 50.6135 134.818 51.25C134.087 51.8808 133.045 52.1962 131.694 52.1962C131.248 52.1962 130.832 52.16 130.447 52.0874C130.062 52.0204 129.749 51.9366 129.509 51.8362C129.274 51.7357 129.071 51.6352 128.898 51.5347C128.724 51.4342 128.604 51.3477 128.537 51.2751L128.429 51.1746ZM137.803 51.9031C137.653 51.7468 137.577 51.5598 137.577 51.3421C137.577 51.1244 137.653 50.9401 137.803 50.7894C137.96 50.6387 138.147 50.5633 138.364 50.5633C138.582 50.5633 138.769 50.6387 138.926 50.7894C139.082 50.9401 139.16 51.1244 139.16 51.3421C139.16 51.5598 139.082 51.7468 138.926 51.9031C138.769 52.0539 138.582 52.1292 138.364 52.1292C138.147 52.1292 137.96 52.0539 137.803 51.9031ZM141.03 51.1746V50.3958C141.064 50.4405 141.108 50.4963 141.164 50.5633C141.22 50.6303 141.337 50.7391 141.516 50.8899C141.7 51.0406 141.896 51.1746 142.102 51.2918C142.314 51.4091 142.591 51.5151 142.931 51.6101C143.277 51.6994 143.64 51.744 144.02 51.744C144.919 51.744 145.636 51.4872 146.172 50.9736C146.708 50.4544 146.976 49.7426 146.976 48.8382C146.976 48.3916 146.909 47.9617 146.775 47.5486C146.647 47.1299 146.42 46.7503 146.097 46.4097C145.778 46.0692 145.385 45.8543 144.916 45.7649C144.296 45.9715 143.598 46.0748 142.822 46.0748L142.94 45.6226C142.984 45.5947 143.048 45.5612 143.132 45.5221C143.216 45.4774 143.4 45.4188 143.685 45.3462C143.97 45.2681 144.268 45.2234 144.581 45.2122C145.413 44.721 145.829 43.9338 145.829 42.8507C145.829 42.2311 145.689 41.7426 145.41 41.3853C145.131 41.0224 144.701 40.841 144.12 40.841C143.78 40.841 143.456 40.908 143.149 41.0419C142.847 41.1759 142.602 41.3295 142.412 41.5025C142.228 41.6756 142.058 41.871 141.901 42.0887C141.75 42.3008 141.65 42.46 141.6 42.566C141.549 42.6721 141.513 42.753 141.491 42.8089V41.8291C141.513 41.79 141.544 41.7398 141.583 41.6784C141.622 41.6114 141.723 41.4969 141.884 41.335C142.046 41.1676 142.225 41.0196 142.42 40.8912C142.616 40.7628 142.887 40.6484 143.233 40.5479C143.579 40.4418 143.95 40.3888 144.346 40.3888C145.24 40.3888 145.946 40.6232 146.465 41.0922C146.984 41.5556 147.244 42.1501 147.244 42.8759C147.244 43.3392 147.129 43.7914 146.901 44.2325C146.677 44.6679 146.323 45.0364 145.837 45.3379C146.647 45.5444 147.294 45.9492 147.78 46.5521C148.271 47.1495 148.517 47.878 148.517 48.7377C148.517 49.7761 148.151 50.6135 147.42 51.25C146.688 51.8808 145.647 52.1962 144.296 52.1962C143.85 52.1962 143.434 52.16 143.048 52.0874C142.663 52.0204 142.351 51.9366 142.111 51.8362C141.876 51.7357 141.672 51.6352 141.499 51.5347C141.326 51.4342 141.206 51.3477 141.139 51.2751L141.03 51.1746ZM155.84 40.3888V40.841C155.019 41.0475 154.229 41.5276 153.47 42.2813C152.716 43.035 152.15 44.0008 151.77 45.1787C152.362 44.4418 153.152 44.0734 154.14 44.0734C154.648 44.0734 155.136 44.1655 155.605 44.3497C156.08 44.5339 156.501 44.7935 156.87 45.1285C157.244 45.4579 157.54 45.8822 157.758 46.4014C157.981 46.9206 158.093 47.4928 158.093 48.1181C158.093 48.7322 157.975 49.3016 157.741 49.8264C157.512 50.3456 157.205 50.7754 156.82 51.116C156.44 51.4565 156.007 51.7217 155.522 51.9115C155.042 52.1013 154.55 52.1962 154.048 52.1962C153.517 52.1962 153.009 52.1041 152.524 51.9199C152.044 51.7357 151.605 51.4677 151.209 51.116C150.818 50.7587 150.506 50.2842 150.271 49.6924C150.042 49.1006 149.928 48.4307 149.928 47.6826C149.928 47.0183 149.998 46.3902 150.137 45.7984C150.282 45.2067 150.475 44.6847 150.715 44.2325C150.955 43.7803 151.24 43.3616 151.569 42.9764C151.898 42.5856 152.239 42.2534 152.591 41.9798C152.942 41.7007 153.316 41.4523 153.713 41.2345C154.109 41.0168 154.478 40.8438 154.818 40.7153C155.164 40.5814 155.505 40.4725 155.84 40.3888ZM151.46 48.185C151.46 49.2904 151.672 50.1613 152.097 50.7978C152.527 51.4286 153.166 51.744 154.014 51.744C154.824 51.744 155.449 51.4119 155.89 50.7475C156.337 50.0776 156.56 49.2067 156.56 48.1348C156.56 47.0406 156.348 46.1669 155.924 45.5137C155.499 44.8549 154.877 44.5256 154.056 44.5256C153.213 44.5256 152.568 44.8577 152.122 45.5221C151.681 46.1808 151.46 47.0685 151.46 48.185ZM160.698 51.9785L165.379 41.0587H159.568V40.6065H167.079L162.205 51.9785H160.698Z" fill="white"/>
<rect width="62.9568" height="30.9568" transform="translate(178 179)" fill="#061D38"/>
<path d="M185.806 198.091V197.312C185.834 197.34 185.873 197.379 185.923 197.429C185.973 197.474 186.082 197.563 186.249 197.697C186.417 197.826 186.593 197.946 186.777 198.057C186.961 198.163 187.193 198.272 187.472 198.384C187.757 198.49 188.044 198.565 188.335 198.61L188.82 193.468C188.413 193.172 188.097 192.938 187.874 192.765C187.656 192.592 187.413 192.383 187.145 192.137C186.877 191.886 186.677 191.662 186.543 191.467C186.414 191.266 186.302 191.04 186.208 190.789C186.118 190.532 186.074 190.264 186.074 189.985C186.074 189.56 186.168 189.184 186.358 188.854C186.548 188.519 186.802 188.254 187.12 188.059C187.439 187.858 187.79 187.707 188.175 187.606C188.561 187.5 188.968 187.447 189.398 187.447L189.532 186.024H190.001L189.859 187.473C190.155 187.5 190.445 187.553 190.73 187.632C191.02 187.704 191.235 187.768 191.374 187.824L191.584 187.916V188.645C191.528 188.606 191.45 188.556 191.349 188.494C191.249 188.427 191.045 188.329 190.738 188.201C190.431 188.073 190.124 187.986 189.817 187.941L189.423 192.028C189.82 192.302 190.124 192.519 190.336 192.681C190.554 192.838 190.811 193.036 191.106 193.276C191.402 193.516 191.628 193.731 191.785 193.921C191.947 194.105 192.106 194.32 192.262 194.565C192.424 194.805 192.538 195.057 192.605 195.319C192.672 195.576 192.706 195.849 192.706 196.14C192.706 196.57 192.628 196.958 192.471 197.304C192.315 197.65 192.111 197.935 191.86 198.158C191.609 198.376 191.316 198.56 190.981 198.711C190.646 198.856 190.308 198.959 189.968 199.02C189.633 199.082 189.292 199.113 188.946 199.113H188.745L188.611 200.553H188.15L188.293 199.071C188.002 199.037 187.718 198.981 187.439 198.903C187.159 198.819 186.925 198.733 186.735 198.644C186.545 198.554 186.378 198.468 186.233 198.384C186.088 198.3 185.981 198.23 185.914 198.175L185.806 198.091ZM188.988 191.727L189.356 187.9C188.759 187.9 188.262 188.048 187.866 188.343C187.469 188.634 187.271 189.038 187.271 189.558C187.271 189.954 187.399 190.303 187.656 190.604C187.913 190.906 188.357 191.28 188.988 191.727ZM188.787 198.66H188.979C189.7 198.66 190.275 198.479 190.704 198.116C191.14 197.748 191.358 197.248 191.358 196.617C191.358 196.131 191.199 195.682 190.88 195.269C190.568 194.856 190.026 194.362 189.256 193.787L188.787 198.66ZM193.943 198.979C194.015 198.923 194.113 198.845 194.236 198.744C194.364 198.638 194.607 198.417 194.965 198.082C195.327 197.742 195.671 197.393 195.995 197.036C196.324 196.678 196.687 196.232 197.083 195.696C197.485 195.16 197.828 194.63 198.113 194.105C198.403 193.574 198.646 192.983 198.842 192.329C199.043 191.676 199.143 191.043 199.143 190.429C199.143 189.591 198.978 188.952 198.649 188.511C198.325 188.064 197.851 187.841 197.226 187.841C196.879 187.841 196.553 187.911 196.246 188.05C195.939 188.184 195.693 188.343 195.509 188.528C195.325 188.706 195.16 188.899 195.015 189.105C194.875 189.312 194.777 189.474 194.722 189.591C194.671 189.703 194.644 189.775 194.638 189.809V188.837C194.66 188.798 194.691 188.748 194.73 188.687C194.775 188.62 194.878 188.503 195.04 188.335C195.207 188.168 195.392 188.02 195.593 187.891C195.794 187.763 196.067 187.648 196.413 187.548C196.765 187.442 197.139 187.389 197.535 187.389C198.529 187.389 199.294 187.682 199.83 188.268C200.371 188.849 200.642 189.591 200.642 190.496C200.642 190.965 200.561 191.453 200.399 191.961C200.237 192.463 200.048 192.918 199.83 193.326C199.612 193.728 199.325 194.158 198.967 194.616C198.616 195.073 198.317 195.439 198.071 195.713C197.831 195.981 197.53 196.285 197.167 196.625C196.804 196.96 196.578 197.164 196.489 197.237C196.405 197.309 196.271 197.421 196.087 197.572H201.639L201.111 198.979H193.943ZM203.362 198.903C203.211 198.747 203.136 198.56 203.136 198.342C203.136 198.124 203.211 197.94 203.362 197.789C203.518 197.639 203.705 197.563 203.923 197.563C204.141 197.563 204.328 197.639 204.484 197.789C204.64 197.94 204.718 198.124 204.718 198.342C204.718 198.56 204.64 198.747 204.484 198.903C204.328 199.054 204.141 199.129 203.923 199.129C203.705 199.129 203.518 199.054 203.362 198.903ZM212.333 187.389V187.841C211.513 188.048 210.723 188.528 209.963 189.281C209.21 190.035 208.643 191.001 208.263 192.179C208.855 191.442 209.645 191.073 210.633 191.073C211.141 191.073 211.63 191.165 212.099 191.35C212.573 191.534 212.995 191.794 213.363 192.129C213.737 192.458 214.033 192.882 214.251 193.401C214.474 193.921 214.586 194.493 214.586 195.118C214.586 195.732 214.469 196.302 214.234 196.826C214.005 197.346 213.698 197.775 213.313 198.116C212.933 198.457 212.501 198.722 212.015 198.912C211.535 199.101 211.044 199.196 210.541 199.196C210.011 199.196 209.503 199.104 209.017 198.92C208.537 198.736 208.099 198.468 207.702 198.116C207.312 197.759 206.999 197.284 206.765 196.692C206.536 196.101 206.421 195.431 206.421 194.683C206.421 194.018 206.491 193.39 206.631 192.798C206.776 192.207 206.968 191.685 207.208 191.232C207.448 190.78 207.733 190.362 208.063 189.976C208.392 189.586 208.732 189.253 209.084 188.98C209.436 188.701 209.81 188.452 210.206 188.235C210.603 188.017 210.971 187.844 211.312 187.715C211.658 187.581 211.998 187.473 212.333 187.389ZM207.954 195.185C207.954 196.29 208.166 197.161 208.59 197.798C209.02 198.429 209.659 198.744 210.508 198.744C211.317 198.744 211.943 198.412 212.384 197.748C212.83 197.078 213.053 196.207 213.053 195.135C213.053 194.041 212.841 193.167 212.417 192.514C211.993 191.855 211.37 191.526 210.55 191.526C209.707 191.526 209.062 191.858 208.615 192.522C208.174 193.181 207.954 194.069 207.954 195.185ZM215.642 198.979C215.715 198.923 215.813 198.845 215.935 198.744C216.064 198.638 216.307 198.417 216.664 198.082C217.027 197.742 217.37 197.393 217.694 197.036C218.023 196.678 218.386 196.232 218.783 195.696C219.185 195.16 219.528 194.63 219.813 194.105C220.103 193.574 220.346 192.983 220.541 192.329C220.742 191.676 220.843 191.043 220.843 190.429C220.843 189.591 220.678 188.952 220.349 188.511C220.025 188.064 219.55 187.841 218.925 187.841C218.579 187.841 218.252 187.911 217.945 188.05C217.638 188.184 217.392 188.343 217.208 188.528C217.024 188.706 216.859 188.899 216.714 189.105C216.575 189.312 216.477 189.474 216.421 189.591C216.371 189.703 216.343 189.775 216.337 189.809V188.837C216.36 188.798 216.39 188.748 216.429 188.687C216.474 188.62 216.577 188.503 216.739 188.335C216.907 188.168 217.091 188.02 217.292 187.891C217.493 187.763 217.766 187.648 218.113 187.548C218.464 187.442 218.838 187.389 219.235 187.389C220.228 187.389 220.993 187.682 221.529 188.268C222.071 188.849 222.342 189.591 222.342 190.496C222.342 190.965 222.261 191.453 222.099 191.961C221.937 192.463 221.747 192.918 221.529 193.326C221.312 193.728 221.024 194.158 220.667 194.616C220.315 195.073 220.016 195.439 219.771 195.713C219.531 195.981 219.229 196.285 218.866 196.625C218.503 196.96 218.277 197.164 218.188 197.237C218.104 197.309 217.97 197.421 217.786 197.572H223.338L222.81 198.979H215.642ZM224.5 196.123C224.5 195.693 224.578 195.294 224.735 194.925C224.896 194.557 225.125 194.233 225.421 193.954C225.723 193.675 226.047 193.432 226.393 193.226C226.744 193.019 227.144 192.826 227.59 192.648C226.948 192.257 226.451 191.849 226.1 191.425C225.748 190.995 225.572 190.484 225.572 189.893C225.572 189.128 225.868 188.519 226.46 188.067C227.051 187.615 227.797 187.389 228.696 187.389C229.684 187.389 230.446 187.629 230.982 188.109C231.523 188.583 231.794 189.15 231.794 189.809C231.794 190.339 231.612 190.814 231.25 191.232C230.892 191.646 230.407 191.992 229.793 192.271C230.167 192.461 230.479 192.631 230.73 192.782C230.987 192.927 231.269 193.119 231.576 193.359C231.883 193.594 232.129 193.831 232.313 194.071C232.497 194.306 232.651 194.59 232.774 194.925C232.902 195.255 232.966 195.609 232.966 195.989C232.966 196.955 232.601 197.731 231.869 198.317C231.144 198.903 230.105 199.196 228.754 199.196C227.465 199.196 226.432 198.925 225.656 198.384C224.885 197.842 224.5 197.089 224.5 196.123ZM229.332 192.028C230.354 191.526 230.864 190.777 230.864 189.784C230.864 189.192 230.683 188.72 230.32 188.369C229.963 188.017 229.435 187.841 228.737 187.841C228.14 187.841 227.657 188 227.289 188.318C226.926 188.631 226.744 189.025 226.744 189.499C226.744 189.728 226.795 189.948 226.895 190.161C226.996 190.373 227.113 190.554 227.247 190.705C227.386 190.856 227.585 191.018 227.841 191.191C228.104 191.364 228.333 191.503 228.528 191.609C228.723 191.715 228.991 191.855 229.332 192.028ZM225.848 196.089C225.848 196.542 225.929 196.944 226.091 197.295C226.253 197.641 226.474 197.918 226.753 198.124C227.037 198.331 227.353 198.487 227.699 198.593C228.051 198.694 228.425 198.744 228.821 198.744C229.698 198.744 230.382 198.521 230.873 198.074C231.37 197.627 231.618 197.072 231.618 196.408C231.618 196.19 231.587 195.981 231.526 195.78C231.465 195.579 231.386 195.4 231.291 195.244C231.202 195.087 231.074 194.928 230.906 194.766C230.739 194.599 230.582 194.459 230.437 194.348C230.298 194.23 230.108 194.099 229.868 193.954C229.633 193.803 229.435 193.683 229.273 193.594C229.117 193.505 228.899 193.387 228.62 193.242C228.347 193.092 228.137 192.974 227.992 192.891C227.322 193.226 226.797 193.664 226.418 194.205C226.038 194.747 225.848 195.375 225.848 196.089Z" fill="white"/>
<rect width="62.9568" height="30.9568" transform="translate(216 94)" fill="#061D38"/>
<path d="M223.806 113.091V112.312C223.834 112.34 223.873 112.379 223.923 112.429C223.973 112.474 224.082 112.563 224.249 112.697C224.417 112.826 224.593 112.946 224.777 113.057C224.961 113.163 225.193 113.272 225.472 113.384C225.757 113.49 226.044 113.565 226.335 113.61L226.82 108.468C226.413 108.172 226.097 107.938 225.874 107.765C225.656 107.592 225.413 107.383 225.145 107.137C224.877 106.886 224.677 106.662 224.543 106.467C224.414 106.266 224.302 106.04 224.208 105.789C224.118 105.532 224.074 105.264 224.074 104.985C224.074 104.56 224.168 104.184 224.358 103.854C224.548 103.519 224.802 103.254 225.12 103.059C225.439 102.858 225.79 102.707 226.175 102.606C226.561 102.5 226.968 102.447 227.398 102.447L227.532 101.024H228.001L227.859 102.473C228.155 102.5 228.445 102.553 228.73 102.632C229.02 102.704 229.235 102.768 229.374 102.824L229.584 102.916V103.645C229.528 103.606 229.45 103.556 229.349 103.494C229.249 103.427 229.045 103.329 228.738 103.201C228.431 103.073 228.124 102.986 227.817 102.941L227.423 107.028C227.82 107.302 228.124 107.519 228.336 107.681C228.554 107.838 228.811 108.036 229.106 108.276C229.402 108.516 229.628 108.731 229.785 108.921C229.947 109.105 230.106 109.32 230.262 109.565C230.424 109.805 230.538 110.057 230.605 110.319C230.672 110.576 230.706 110.849 230.706 111.14C230.706 111.57 230.628 111.958 230.471 112.304C230.315 112.65 230.111 112.935 229.86 113.158C229.609 113.376 229.316 113.56 228.981 113.711C228.646 113.856 228.308 113.959 227.968 114.02C227.633 114.082 227.292 114.113 226.946 114.113H226.745L226.611 115.553H226.15L226.293 114.071C226.002 114.037 225.718 113.981 225.439 113.903C225.159 113.819 224.925 113.733 224.735 113.644C224.545 113.554 224.378 113.468 224.233 113.384C224.088 113.3 223.981 113.23 223.914 113.175L223.806 113.091ZM226.988 106.727L227.356 102.9C226.759 102.9 226.262 103.048 225.866 103.343C225.469 103.634 225.271 104.038 225.271 104.558C225.271 104.954 225.399 105.303 225.656 105.604C225.913 105.906 226.357 106.28 226.988 106.727ZM226.787 113.66H226.979C227.7 113.66 228.275 113.479 228.704 113.116C229.14 112.748 229.358 112.248 229.358 111.617C229.358 111.131 229.199 110.682 228.88 110.269C228.568 109.856 228.026 109.362 227.256 108.787L226.787 113.66ZM231.943 113.979C232.015 113.923 232.113 113.845 232.236 113.744C232.364 113.638 232.607 113.417 232.965 113.082C233.327 112.742 233.671 112.393 233.995 112.036C234.324 111.678 234.687 111.232 235.083 110.696C235.485 110.16 235.828 109.63 236.113 109.105C236.403 108.574 236.646 107.983 236.842 107.329C237.043 106.676 237.143 106.043 237.143 105.429C237.143 104.591 236.978 103.952 236.649 103.511C236.325 103.064 235.851 102.841 235.226 102.841C234.879 102.841 234.553 102.911 234.246 103.05C233.939 103.184 233.693 103.343 233.509 103.528C233.325 103.706 233.16 103.899 233.015 104.105C232.875 104.312 232.777 104.474 232.722 104.591C232.671 104.703 232.644 104.775 232.638 104.809V103.837C232.66 103.798 232.691 103.748 232.73 103.687C232.775 103.62 232.878 103.503 233.04 103.335C233.207 103.168 233.392 103.02 233.593 102.891C233.794 102.763 234.067 102.648 234.413 102.548C234.765 102.442 235.139 102.389 235.535 102.389C236.529 102.389 237.294 102.682 237.83 103.268C238.371 103.849 238.642 104.591 238.642 105.496C238.642 105.965 238.561 106.453 238.399 106.961C238.237 107.463 238.048 107.918 237.83 108.326C237.612 108.728 237.325 109.158 236.967 109.616C236.616 110.073 236.317 110.439 236.071 110.713C235.831 110.981 235.53 111.285 235.167 111.625C234.804 111.96 234.578 112.164 234.489 112.237C234.405 112.309 234.271 112.421 234.087 112.572H239.639L239.111 113.979H231.943ZM241.362 113.903C241.211 113.747 241.136 113.56 241.136 113.342C241.136 113.124 241.211 112.94 241.362 112.789C241.518 112.639 241.705 112.563 241.923 112.563C242.141 112.563 242.328 112.639 242.484 112.789C242.64 112.94 242.718 113.124 242.718 113.342C242.718 113.56 242.64 113.747 242.484 113.903C242.328 114.054 242.141 114.129 241.923 114.129C241.705 114.129 241.518 114.054 241.362 113.903ZM244.337 111.123C244.337 110.693 244.416 110.294 244.572 109.925C244.734 109.557 244.963 109.233 245.259 108.954C245.56 108.675 245.884 108.432 246.23 108.226C246.582 108.019 246.981 107.826 247.427 107.648C246.785 107.257 246.289 106.849 245.937 106.425C245.585 105.995 245.409 105.484 245.409 104.893C245.409 104.128 245.705 103.519 246.297 103.067C246.889 102.615 247.634 102.389 248.533 102.389C249.521 102.389 250.283 102.629 250.819 103.109C251.361 103.583 251.631 104.15 251.631 104.809C251.631 105.339 251.45 105.814 251.087 106.232C250.73 106.646 250.244 106.992 249.63 107.271C250.004 107.461 250.317 107.631 250.568 107.782C250.825 107.927 251.107 108.119 251.414 108.359C251.721 108.594 251.966 108.831 252.15 109.071C252.335 109.306 252.488 109.59 252.611 109.925C252.739 110.255 252.804 110.609 252.804 110.989C252.804 111.955 252.438 112.731 251.707 113.317C250.981 113.903 249.943 114.196 248.591 114.196C247.302 114.196 246.269 113.925 245.493 113.384C244.723 112.842 244.337 112.089 244.337 111.123ZM249.169 107.028C250.191 106.526 250.702 105.777 250.702 104.784C250.702 104.192 250.52 103.72 250.157 103.369C249.8 103.017 249.273 102.841 248.575 102.841C247.977 102.841 247.494 103 247.126 103.318C246.763 103.631 246.582 104.025 246.582 104.499C246.582 104.728 246.632 104.948 246.732 105.161C246.833 105.373 246.95 105.554 247.084 105.705C247.224 105.856 247.422 106.018 247.679 106.191C247.941 106.364 248.17 106.503 248.365 106.609C248.561 106.715 248.829 106.855 249.169 107.028ZM245.686 111.089C245.686 111.542 245.767 111.944 245.929 112.295C246.09 112.641 246.311 112.918 246.59 113.124C246.875 113.331 247.19 113.487 247.536 113.593C247.888 113.694 248.262 113.744 248.658 113.744C249.535 113.744 250.219 113.521 250.71 113.074C251.207 112.627 251.455 112.072 251.455 111.408C251.455 111.19 251.425 110.981 251.363 110.78C251.302 110.579 251.224 110.4 251.129 110.244C251.04 110.087 250.911 109.928 250.744 109.766C250.576 109.599 250.42 109.459 250.275 109.348C250.135 109.23 249.945 109.099 249.705 108.954C249.471 108.803 249.273 108.683 249.111 108.594C248.954 108.505 248.737 108.387 248.458 108.242C248.184 108.092 247.975 107.974 247.829 107.891C247.16 108.226 246.635 108.664 246.255 109.205C245.875 109.747 245.686 110.375 245.686 111.089ZM253.754 113.979V113.526H257.288V103.879L255.019 105.353V104.851L258.779 102.389V113.526H262.304V113.979H253.754ZM263.34 113.175V112.396C263.374 112.44 263.418 112.496 263.474 112.563C263.53 112.63 263.647 112.739 263.826 112.89C264.01 113.041 264.205 113.175 264.412 113.292C264.624 113.409 264.9 113.515 265.241 113.61C265.587 113.699 265.95 113.744 266.33 113.744C267.228 113.744 267.946 113.487 268.482 112.974C269.018 112.454 269.286 111.743 269.286 110.838C269.286 110.392 269.219 109.962 269.085 109.549C268.956 109.13 268.73 108.75 268.406 108.41C268.088 108.069 267.695 107.854 267.226 107.765C266.606 107.971 265.908 108.075 265.132 108.075L265.249 107.623C265.294 107.595 265.358 107.561 265.442 107.522C265.526 107.477 265.71 107.419 265.995 107.346C266.279 107.268 266.578 107.223 266.891 107.212C267.723 106.721 268.138 105.934 268.138 104.851C268.138 104.231 267.999 103.743 267.72 103.385C267.441 103.022 267.011 102.841 266.43 102.841C266.09 102.841 265.766 102.908 265.459 103.042C265.157 103.176 264.912 103.329 264.722 103.503C264.538 103.676 264.367 103.871 264.211 104.089C264.06 104.301 263.96 104.46 263.91 104.566C263.859 104.672 263.823 104.753 263.801 104.809V103.829C263.823 103.79 263.854 103.74 263.893 103.678C263.932 103.611 264.032 103.497 264.194 103.335C264.356 103.168 264.535 103.02 264.73 102.891C264.926 102.763 265.196 102.648 265.543 102.548C265.889 102.442 266.26 102.389 266.656 102.389C267.55 102.389 268.256 102.623 268.775 103.092C269.294 103.556 269.554 104.15 269.554 104.876C269.554 105.339 269.439 105.791 269.21 106.232C268.987 106.668 268.633 107.036 268.147 107.338C268.956 107.544 269.604 107.949 270.09 108.552C270.581 109.149 270.827 109.878 270.827 110.738C270.827 111.776 270.461 112.614 269.73 113.25C268.998 113.881 267.957 114.196 266.606 114.196C266.159 114.196 265.743 114.16 265.358 114.087C264.973 114.02 264.66 113.937 264.42 113.836C264.186 113.736 263.982 113.635 263.809 113.535C263.636 113.434 263.516 113.348 263.449 113.275L263.34 113.175Z" fill="white"/>
<rect width="63.9568" height="30.9568" transform="translate(48.5 203)" fill="#061D38"/>
<path d="M56.3056 222.091V221.312C56.3335 221.34 56.3726 221.379 56.4228 221.429C56.4731 221.474 56.5819 221.563 56.7494 221.697C56.9169 221.826 57.0928 221.946 57.277 222.057C57.4612 222.163 57.6929 222.272 57.972 222.384C58.2568 222.49 58.5443 222.565 58.8346 222.61L59.3203 217.468C58.9127 217.172 58.5973 216.938 58.374 216.765C58.1563 216.592 57.9134 216.383 57.6455 216.137C57.3775 215.886 57.1765 215.662 57.0425 215.467C56.9141 215.266 56.8025 215.04 56.7076 214.789C56.6182 214.532 56.5736 214.264 56.5736 213.985C56.5736 213.56 56.6685 213.184 56.8583 212.854C57.0481 212.519 57.3021 212.254 57.6203 212.059C57.9385 211.858 58.2903 211.707 58.6755 211.606C59.0607 211.5 59.4682 211.447 59.8981 211.447L60.0321 210.024H60.501L60.3587 211.473C60.6545 211.5 60.9449 211.553 61.2296 211.632C61.5199 211.704 61.7348 211.768 61.8744 211.824L62.0837 211.916V212.645C62.0279 212.606 61.9497 212.556 61.8493 212.494C61.7488 212.427 61.545 212.329 61.2379 212.201C60.9309 212.073 60.6238 211.986 60.3168 211.941L59.9232 216.028C60.3196 216.302 60.6238 216.519 60.836 216.681C61.0537 216.838 61.3105 217.036 61.6064 217.276C61.9023 217.516 62.1284 217.731 62.2847 217.921C62.4466 218.105 62.6057 218.32 62.762 218.565C62.9239 218.805 63.0384 219.057 63.1054 219.319C63.1724 219.576 63.2059 219.849 63.2059 220.14C63.2059 220.57 63.1277 220.958 62.9714 221.304C62.8151 221.65 62.6113 221.935 62.3601 222.158C62.1089 222.376 61.8158 222.56 61.4808 222.711C61.1458 222.856 60.8081 222.959 60.4675 223.02C60.1326 223.082 59.792 223.113 59.4459 223.113H59.2449L59.1109 224.553H58.6503L58.7927 223.071C58.5024 223.037 58.2177 222.981 57.9385 222.903C57.6594 222.819 57.4249 222.733 57.2351 222.644C57.0453 222.554 56.8778 222.468 56.7327 222.384C56.5875 222.3 56.4815 222.23 56.4145 222.175L56.3056 222.091ZM59.4878 215.727L59.8562 211.9C59.2589 211.9 58.762 212.048 58.3656 212.343C57.9693 212.634 57.7711 213.038 57.7711 213.558C57.7711 213.954 57.8995 214.303 58.1563 214.604C58.4131 214.906 58.8569 215.28 59.4878 215.727ZM59.2868 222.66H59.4794C60.1996 222.66 60.7746 222.479 61.2044 222.116C61.6399 221.748 61.8576 221.248 61.8576 220.617C61.8576 220.131 61.6985 219.682 61.3803 219.269C61.0677 218.856 60.5261 218.362 59.7557 217.787L59.2868 222.66ZM64.4429 222.979C64.5154 222.923 64.6131 222.845 64.736 222.744C64.8644 222.638 65.1072 222.417 65.4645 222.082C65.8274 221.742 66.1707 221.393 66.4945 221.036C66.8239 220.678 67.1868 220.232 67.5832 219.696C67.9851 219.16 68.3285 218.63 68.6132 218.105C68.9035 217.574 69.1463 216.983 69.3417 216.329C69.5427 215.676 69.6432 215.043 69.6432 214.429C69.6432 213.591 69.4785 212.952 69.1491 212.511C68.8253 212.064 68.3508 211.841 67.7255 211.841C67.3794 211.841 67.0528 211.911 66.7457 212.05C66.4387 212.184 66.1931 212.343 66.0088 212.528C65.8246 212.706 65.6599 212.899 65.5148 213.105C65.3752 213.312 65.2775 213.474 65.2217 213.591C65.1714 213.703 65.1435 213.775 65.1379 213.809V212.837C65.1603 212.798 65.191 212.748 65.23 212.687C65.2747 212.62 65.378 212.503 65.5399 212.335C65.7074 212.168 65.8916 212.02 66.0926 211.891C66.2935 211.763 66.5671 211.648 66.9132 211.548C67.2649 211.442 67.639 211.389 68.0354 211.389C69.0291 211.389 69.7939 211.682 70.3299 212.268C70.8714 212.849 71.1422 213.591 71.1422 214.496C71.1422 214.965 71.0612 215.453 70.8993 215.961C70.7374 216.463 70.5476 216.918 70.3299 217.326C70.1121 217.728 69.8246 218.158 69.4673 218.616C69.1156 219.073 68.8169 219.439 68.5713 219.713C68.3312 219.981 68.0298 220.285 67.6669 220.625C67.304 220.96 67.0779 221.164 66.9886 221.237C66.9049 221.309 66.7709 221.421 66.5866 221.572H72.1387L71.6111 222.979H64.4429ZM73.8618 222.903C73.711 222.747 73.6357 222.56 73.6357 222.342C73.6357 222.124 73.711 221.94 73.8618 221.789C74.0181 221.639 74.2051 221.563 74.4228 221.563C74.6406 221.563 74.8276 221.639 74.9839 221.789C75.1402 221.94 75.2184 222.124 75.2184 222.342C75.2184 222.56 75.1402 222.747 74.9839 222.903C74.8276 223.054 74.6406 223.129 74.4228 223.129C74.2051 223.129 74.0181 223.054 73.8618 222.903ZM76.6867 219.579L83.3358 211.38V219.126H85.9903V219.579H83.3358V222.979H81.8452V219.579H76.6867ZM77.6581 219.126H81.8452V213.934L77.6581 219.126ZM87.2272 220.123C87.2272 219.693 87.3054 219.294 87.4617 218.925C87.6236 218.557 87.8525 218.233 88.1484 217.954C88.4498 217.675 88.7736 217.432 89.1198 217.226C89.4715 217.019 89.8707 216.826 90.3173 216.648C89.6753 216.257 89.1784 215.849 88.8267 215.425C88.475 214.995 88.2991 214.484 88.2991 213.893C88.2991 213.128 88.595 212.519 89.1868 212.067C89.7785 211.615 90.5238 211.389 91.4227 211.389C92.4108 211.389 93.1728 211.629 93.7088 212.109C94.2503 212.583 94.5211 213.15 94.5211 213.809C94.5211 214.339 94.3396 214.814 93.9768 215.232C93.6195 215.646 93.1338 215.992 92.5197 216.271C92.8937 216.461 93.2063 216.631 93.4576 216.782C93.7144 216.927 93.9963 217.119 94.3033 217.359C94.6104 217.594 94.856 217.831 95.0403 218.071C95.2245 218.306 95.378 218.59 95.5008 218.925C95.6292 219.255 95.6934 219.609 95.6934 219.989C95.6934 220.955 95.3278 221.731 94.5964 222.317C93.8707 222.903 92.8323 223.196 91.4813 223.196C90.1917 223.196 89.1589 222.925 88.3829 222.384C87.6124 221.842 87.2272 221.089 87.2272 220.123ZM92.0591 216.028C93.0807 215.526 93.5915 214.777 93.5915 213.784C93.5915 213.192 93.4101 212.72 93.0472 212.369C92.6899 212.017 92.1624 211.841 91.4645 211.841C90.8672 211.841 90.3843 212 90.0158 212.318C89.6529 212.631 89.4715 213.025 89.4715 213.499C89.4715 213.728 89.5217 213.948 89.6222 214.161C89.7227 214.373 89.8399 214.554 89.9739 214.705C90.1135 214.856 90.3117 215.018 90.5685 215.191C90.8309 215.364 91.0598 215.503 91.2552 215.609C91.4506 215.715 91.7185 215.855 92.0591 216.028ZM88.5755 220.089C88.5755 220.542 88.6564 220.944 88.8183 221.295C88.9802 221.641 89.2007 221.918 89.4799 222.124C89.7646 222.331 90.08 222.487 90.4261 222.593C90.7778 222.694 91.1519 222.744 91.5483 222.744C92.4248 222.744 93.1086 222.521 93.5999 222.074C94.0968 221.627 94.3452 221.072 94.3452 220.408C94.3452 220.19 94.3145 219.981 94.2531 219.78C94.1917 219.579 94.1135 219.4 94.0186 219.244C93.9293 219.087 93.8009 218.928 93.6334 218.766C93.4659 218.599 93.3096 218.459 93.1645 218.348C93.0249 218.23 92.8351 218.099 92.595 217.954C92.3606 217.803 92.1624 217.683 92.0005 217.594C91.8441 217.505 91.6264 217.387 91.3473 217.242C91.0737 217.092 90.8644 216.974 90.7192 216.891C90.0493 217.226 89.5245 217.664 89.1449 218.205C88.7653 218.747 88.5755 219.375 88.5755 220.089ZM98.2939 222.979L102.975 212.059H97.1634V211.606H104.675L99.8012 222.979H98.2939Z" fill="white"/>
</g>
<defs>
<clipPath id="clip0_4010_203">
<rect width="350" height="260" fill="white"/>
</clipPath>
</defs>
</svg>
