<svg width="133" height="44" viewBox="0 0 133 44" fill="none" xmlns="http://www.w3.org/2000/svg">
<path d="M125.084 0.945498C128.722 0.945498 131.672 3.87556 131.672 7.49005V36.51C131.672 40.1244 128.722 43.0545 125.084 43.0545H7.53995C3.90138 43.0545 0.951796 40.1244 0.951796 36.51V7.49005C0.951796 3.87556 3.90138 0.945498 7.53995 0.945498H125.084ZM125.084 0H7.53995C3.38216 0 0 3.35978 0 7.49005V36.51C0 40.6402 3.38216 44 7.53995 44H125.084C129.241 44 132.624 40.6402 132.624 36.51V7.49005C132.624 3.35978 129.241 0 125.084 0Z" fill="#061D38"/>
<path d="M55.3879 9.76709H53.7261H52.904H51.2417V10.5844H52.904V15.6717H53.7261V10.5844H55.3879V9.76709Z" fill="#061D38"/>
<path d="M59.0843 9.76709H58.2622V15.6711H59.0843V9.76709Z" fill="#061D38"/>
<path d="M77.3353 9.77148V14.2154L74.5223 9.77148H74.4194H73.5967V15.6755H74.4194V11.0705L77.3353 15.6755H78.1574V15.5132V9.77148H77.3353Z" fill="#061D38"/>
<path d="M64.0353 9.76709H62.3736H61.5515H59.8892V10.5844H61.5515V15.6717H62.3736V10.5844H64.0353V9.76709Z" fill="#061D38"/>
<path d="M50.4174 10.5844V9.76709H47.8568H47.0347V10.5844V12.3107V13.128V14.8544V15.6717H47.8568H50.4174V14.8544H47.8568V13.128H50.2494V12.3107H47.8568V10.5844H50.4174Z" fill="#061D38"/>
<path d="M69.538 9.58154C67.8246 9.58154 66.4355 10.9862 66.4355 12.7195C66.4355 14.4528 67.8246 15.8575 69.538 15.8575C71.2515 15.8575 72.6405 14.4528 72.6405 12.7195C72.6405 10.9862 71.2515 9.58154 69.538 9.58154ZM69.538 15.0125C68.2856 15.0125 67.2705 13.9856 67.2705 12.719C67.2705 11.4523 68.2856 10.4254 69.538 10.4254C70.7904 10.4254 71.8056 11.4523 71.8056 12.719C71.8056 13.9856 70.7904 15.0125 69.538 15.0125Z" fill="#061D38"/>
<path d="M46.1335 12.558H43.0165V13.2343H45.2445C45.0131 14.2526 44.1119 15.0127 43.0351 15.0127C41.7827 15.0127 40.7675 13.9858 40.7675 12.7191C40.7675 11.4525 41.7827 10.4256 43.0351 10.4256C43.6846 10.4256 44.2695 10.7022 44.6829 11.1441L45.2934 10.5682C44.7276 9.96061 43.9253 9.58057 43.0351 9.58057C41.3216 9.58057 39.9326 10.9852 39.9326 12.7186C39.9326 14.4519 41.3216 15.8565 43.0351 15.8565C44.7486 15.8565 46.1376 14.4519 46.1376 12.7186C46.1376 12.6648 46.1364 12.6111 46.1335 12.5574V12.558Z" fill="#061D38"/>
<path d="M106.52 19.1777H104.651V31.5553H106.52V19.1777Z" fill="#061D38"/>
<path d="M82.672 19.1777H80.8027V31.5553H82.672V19.1777Z" fill="#061D38"/>
<path d="M121.323 23.6714L119.074 28.8812L116.825 23.6714H114.956L118.139 31.0459L116.326 35.2449H118.195L119.074 33.2101L120.009 31.0459L123.192 23.6714H121.323Z" fill="#061D38"/>
<path d="M99.7506 19.1777H95.2056V31.5553H97.0749V26.9196H99.7506C101.903 26.9196 103.647 25.1863 103.647 23.0487C103.647 20.9105 101.902 19.1777 99.7506 19.1777ZM101.76 23.0487C101.76 24.1611 100.852 25.0633 99.732 25.0633H97.0749V21.0341H99.732C100.852 21.0341 101.76 21.9363 101.76 23.0487Z" fill="#061D38"/>
<path d="M57.4513 23.3135C55.0837 23.3135 53.165 25.2201 53.165 27.5714C53.165 29.9227 55.0843 31.8293 57.4513 31.8293C59.8183 31.8293 61.7376 29.9227 61.7376 27.5714C61.7376 25.2201 59.8183 23.3135 57.4513 23.3135ZM57.4513 29.9972C56.1024 29.9972 55.0093 28.9108 55.0093 27.5714C55.0093 26.232 56.103 25.1456 57.4513 25.1456C58.7996 25.1456 59.8933 26.232 59.8933 27.5714C59.8933 28.9108 58.7996 29.9972 57.4513 29.9972Z" fill="#061D38"/>
<path d="M66.5544 23.3135C64.1868 23.3135 62.2681 25.2201 62.2681 27.5714C62.2681 29.9227 64.1874 31.8293 66.5544 31.8293C68.9213 31.8293 70.8406 29.9227 70.8406 27.5714C70.8406 25.2201 68.9213 23.3135 66.5544 23.3135ZM66.5544 29.9972C65.2054 29.9972 64.1124 28.9108 64.1124 27.5714C64.1124 26.232 65.206 25.1456 66.5544 25.1456C67.9027 25.1456 68.9963 26.232 68.9963 27.5714C68.9963 28.9108 67.9027 29.9972 66.5544 29.9972Z" fill="#061D38"/>
<path d="M77.8887 23.5848V24.3593C77.2317 23.8198 76.4049 23.4976 75.5066 23.4976C73.3663 23.4976 71.6313 25.321 71.6313 27.5701C71.6313 29.8192 73.3663 31.6426 75.5066 31.6426C76.4054 31.6426 77.2317 31.3203 77.8887 30.7808V31.5432C77.8887 32.7873 76.9095 33.76 75.5856 33.76C74.1123 33.76 73.557 32.7429 73.3634 32.3132L71.8465 33.0744C72.6361 34.8476 74.1687 35.4662 75.7636 35.4662C77.8927 35.4662 79.5562 33.7796 79.5562 31.6986V23.5836H77.8892L77.8887 23.5848ZM75.6257 30.0583C74.3763 30.0583 73.3628 28.9441 73.3628 27.5701C73.3628 26.196 74.3757 25.0819 75.6257 25.0819C76.8758 25.0819 77.8887 26.1954 77.8887 27.5695C77.8887 28.9436 76.8758 30.0577 75.6257 30.0577V30.0583Z" fill="#061D38"/>
<path d="M52.5223 24.6367H46.4603V26.3446H50.7605C50.86 28.4239 48.6988 30.0226 46.4603 30.0226C43.8718 30.0226 41.7734 27.9191 41.7734 25.3235C41.7734 22.7278 43.8718 20.6243 46.4603 20.6243C47.7232 20.6243 48.8686 21.1262 49.7116 21.9406L50.9896 20.6104C49.8157 19.476 48.2197 18.7783 46.4603 18.7783C42.8555 18.7783 39.9326 21.7084 39.9326 25.3229C39.9326 28.9374 42.8549 31.8674 46.4603 31.8674C50.9228 31.8674 53.0287 28.4233 52.5223 24.6356V24.6367Z" fill="#061D38"/>
<path d="M87.7458 29.9967C86.8951 29.9967 86.1468 29.5646 85.7096 28.9097L90.1075 27.0753L91.2936 26.5803C91.0692 25.5407 90.0133 23.4302 87.6678 23.4302C85.3224 23.4302 83.4595 25.2189 83.4595 27.5708C83.4595 29.9227 85.3788 31.8288 87.7458 31.8288C89.1912 31.8288 90.4686 31.1172 91.2448 30.0284L89.7773 28.9166C89.3394 29.5675 88.5929 29.9967 87.7458 29.9967ZM87.4899 25.1294C88.1371 25.1294 88.7981 25.4032 89.0784 25.8537L85.3061 27.4455C85.3718 26.1639 86.1835 25.1294 87.4893 25.1294H87.4899Z" fill="#061D38"/>
<path d="M114.656 26.0241C114.656 24.527 113.075 23.3135 111.123 23.3135C109.505 23.3135 108.141 24.1492 107.723 25.2888L109.313 26.0674C109.695 25.473 110.333 25.0832 111.056 25.0832C111.487 25.0832 111.887 25.2218 112.221 25.4592C112.662 25.7728 112.928 26.2695 112.979 26.8021C112.455 26.4457 111.689 26.2713 110.758 26.2713C108.957 26.2713 107.497 27.4934 107.497 29.0003C107.497 30.5072 108.575 31.7294 110.758 31.7294C111.695 31.7294 112.465 31.2061 112.988 30.4922V31.5064H114.655V26.0593H114.653C114.653 26.0472 114.655 26.035 114.655 26.0229L114.656 26.0241ZM111.036 30.0856C110.315 30.215 109.625 29.9348 109.467 29.3371C109.309 28.7393 109.714 28.1461 110.423 27.9613C111.132 27.777 112.759 27.859 112.912 28.2397C113.064 28.6191 112.138 29.8875 111.036 30.0856Z" fill="#061D38"/>
<path d="M13.1522 10.7914L26.6919 18.5247L23.79 21.4074L13.1522 10.7909V10.7914ZM10.3468 10.1665L22.7754 22.4649L10.348 34.7633C9.71539 34.4855 9.28223 33.8675 9.28223 33.149C9.28223 33.1253 9.28223 33.1016 9.28339 33.0791V33.082V11.8484C9.28223 11.8288 9.28223 11.8051 9.28223 11.782C9.28223 11.0635 9.71539 10.4455 10.3364 10.1717L10.348 10.1677L10.3468 10.1665ZM30.8997 21.0238C31.327 21.3386 31.6003 21.8388 31.6003 22.4014C31.6003 22.4239 31.6003 22.4453 31.5991 22.4678V22.4649C31.6032 22.5088 31.6061 22.5614 31.6061 22.6133C31.6061 23.1424 31.348 23.6114 30.9497 23.9025L30.9456 23.9054L28.0437 25.5382L24.9011 22.4649L28.0449 19.3419L30.8997 21.0238ZM13.1522 34.1378L23.7906 23.5213L26.6925 26.404L13.1516 34.1372L13.1522 34.1378Z" fill="#061D38"/>
</svg>
