<svg width="132" height="44" viewBox="0 0 132 44" fill="none" xmlns="http://www.w3.org/2000/svg">
<path d="M21.9184 10.0699C23.0627 8.78018 25.6342 8.44287 25.6342 8.44287C25.6342 8.44287 25.7139 11.1344 24.5696 12.4241C23.4253 13.7139 20.6621 14.046 20.6621 14.046C20.6621 14.046 20.7735 11.3591 21.9178 10.0693L21.9184 10.0699Z" fill="#061D38"/>
<path d="M27.4613 21.1165C27.4613 19.1897 28.53 17.5205 30.0888 16.7055C28.4901 14.4686 25.8361 13.5144 22.8905 14.9659C22.6538 15.0825 22.4182 15.1992 22.1844 15.3159C21.5251 15.6463 20.7491 15.6486 20.0886 15.3205C19.8993 15.2264 19.7082 15.1322 19.5176 15.0363C14.2119 12.3795 10.4516 17.2716 11.1543 23.4338C11.615 27.4757 15.5455 33.695 18.322 32.3071C20.7601 31.0884 22.4742 31.2449 24.3835 32.2482C26.6334 33.4305 29.6592 29.5538 30.975 25.8804C28.9491 25.3045 27.4607 23.3899 27.4607 21.1159L27.4613 21.1165Z" fill="#061D38"/>
<path d="M89.7303 10.1152C88.4336 10.1152 87.3828 11.271 87.3828 12.6959C87.3828 14.1207 88.4341 15.2765 89.7303 15.2765C91.0264 15.2765 92.0778 14.1207 92.0778 12.6959C92.0778 11.271 91.0264 10.1152 89.7303 10.1152ZM89.7303 14.4355C89.0178 14.4355 88.4405 13.657 88.4405 12.6964C88.4405 11.7359 89.0178 10.9573 89.7303 10.9573C90.4427 10.9573 91.0201 11.7359 91.0201 12.6964C91.0201 13.657 90.4427 14.4355 89.7303 14.4355Z" fill="#061D38"/>
<path d="M95.9895 10.1157C95.381 10.1157 94.8221 10.326 94.3793 10.6771V10.1157H93.3955V15.1487H94.3793V12.0905C94.3793 11.4857 94.8695 10.9948 95.4745 10.9948C96.0796 10.9948 96.5697 11.4852 96.5697 12.0905V15.1487H97.5535V11.6804C97.5535 10.8163 96.8532 10.1163 95.9901 10.1163L95.9895 10.1157Z" fill="#061D38"/>
<path d="M108.077 10.1133C107.468 10.1133 106.91 10.3235 106.467 10.6747V8.27832H105.483V15.1463H106.467V12.088C106.467 11.4833 106.957 10.9924 107.562 10.9924C108.167 10.9924 108.657 11.4827 108.657 12.088V15.1463H109.641V11.678C109.641 10.8139 108.941 10.1139 108.077 10.1139L108.077 10.1133Z" fill="#061D38"/>
<path d="M115.507 12.9334C115.513 12.8549 115.517 12.7757 115.517 12.6949C115.517 11.2694 114.596 10.1143 113.3 10.1143C112.003 10.1143 110.952 11.27 110.952 12.6949C110.952 14.1198 112.003 15.2755 113.3 15.2755C114.254 15.2755 115.075 14.6488 115.442 13.7501H114.524C114.289 14.166 113.908 14.434 113.3 14.434C112.562 14.434 112.109 13.7807 112.023 12.9334H115.507H115.507ZM113.3 10.9564C114.01 10.9564 114.394 11.4652 114.571 12.1479H112.028C112.204 11.4652 112.589 10.9564 113.299 10.9564H113.3Z" fill="#061D38"/>
<path d="M103.67 14.3624C103.346 14.3624 103.082 14.0991 103.082 13.7745V11.0454H104.136V10.1727H103.082V8.89795H102.044V10.1727H101.222V11.0454H102.044V13.9697C102.044 14.6755 102.617 15.2479 103.322 15.2479H104.172V14.363H103.67V14.3624Z" fill="#061D38"/>
<path d="M66.2114 8.25537H65.1733V15.1482H66.2114V8.25537Z" fill="#061D38"/>
<path d="M41.6642 8.4751H39.2896V9.47547V14.1492V15.1496H41.6642C43.5065 15.1496 45 13.6554 45 11.8124C45 9.9693 43.5065 8.4751 41.6642 8.4751ZM43.9614 11.8118C43.9614 13.1027 42.9158 14.1487 41.6255 14.1487H40.3276V9.47489H41.6255C42.9158 9.47489 43.9614 10.5209 43.9614 11.8118Z" fill="#061D38"/>
<path d="M48.3431 10.1143C47.0464 10.1143 45.9956 11.27 45.9956 12.6949C45.9956 14.1198 47.0469 15.2755 48.3431 15.2755C49.6392 15.2755 50.6906 14.1198 50.6906 12.6949C50.6906 11.27 49.6392 10.1143 48.3431 10.1143ZM48.3431 14.4346C47.6306 14.4346 47.0533 13.656 47.0533 12.6955C47.0533 11.7349 47.6306 10.9564 48.3431 10.9564C49.0555 10.9564 49.6329 11.7349 49.6329 12.6955C49.6329 13.656 49.0555 14.4346 48.3431 14.4346Z" fill="#061D38"/>
<path d="M69.8719 10.1143C68.5752 10.1143 67.5244 11.27 67.5244 12.6949C67.5244 14.1198 68.5758 15.2755 69.8719 15.2755C71.168 15.2755 72.2194 14.1198 72.2194 12.6949C72.2194 11.27 71.168 10.1143 69.8719 10.1143ZM69.8719 14.4346C69.1594 14.4346 68.5821 13.656 68.5821 12.6955C68.5821 11.7349 69.1594 10.9564 69.8719 10.9564C70.5843 10.9564 71.1617 11.7349 71.1617 12.6955C71.1617 13.656 70.5843 14.4346 69.8719 14.4346Z" fill="#061D38"/>
<path d="M82.3215 8.25537V10.8551C81.9722 10.4715 81.5352 10.1816 81.0121 10.1816C79.4567 10.1816 78.6641 11.2709 78.6641 12.6964C78.6641 14.1218 79.4562 15.2112 81.0121 15.2112C81.5352 15.2112 81.9722 14.9206 82.3215 14.5371V15.1482H83.3596V8.25595H82.3215V8.25537ZM81.0121 14.4349C80.2997 14.4349 79.7223 13.6563 79.7223 12.6964C79.7223 11.7364 80.2997 10.9567 81.0121 10.9567C81.7245 10.9567 82.3013 11.7353 82.3013 12.6964C82.3013 13.6575 81.724 14.4349 81.0121 14.4349Z" fill="#061D38"/>
<path d="M62.0261 10.1143C61.4176 10.1143 60.8587 10.3245 60.4159 10.6757V10.1143H59.4321V15.1473H60.4159V12.089C60.4159 11.4843 60.9061 10.9933 61.5111 10.9933C62.1162 10.9933 62.6064 11.4837 62.6064 12.089V15.1473H63.5901V11.6789C63.5901 10.8149 62.8898 10.1148 62.0267 10.1148L62.0261 10.1143Z" fill="#061D38"/>
<path d="M57.2695 10.1855L56.4185 13.9052L55.34 10.1855H54.3504L53.2743 13.9052L52.4232 10.1855H51.4331L52.72 15.2758H52.7235H53.7096H53.713L54.8464 11.7306L55.9797 15.2758H55.9826H56.9692H56.9727L58.259 10.1855H57.2695Z" fill="#061D38"/>
<path d="M75.3424 10.0483C74.2022 10.0483 73.2779 10.701 73.2779 11.5056L74.3604 11.4934C74.5053 11.1752 74.8684 10.9257 75.347 10.9257C75.3517 10.9257 75.3569 10.9257 75.3615 10.9257C75.9579 10.9315 76.4325 11.4299 76.4325 12.0265V12.1565C76.4325 12.1565 75.7581 12.1432 75.0821 12.1837C74.0053 12.2478 73.1289 12.8617 73.1289 13.6981C73.1289 14.5344 73.6116 15.2125 75.0821 15.2125C75.6063 15.2125 76.0814 14.8879 76.4325 14.4582V15.2125H77.407V11.5061C77.407 10.701 76.4827 10.0489 75.3424 10.0489V10.0483ZM75.1288 14.3929C74.619 14.3929 74.2057 14.0793 74.2057 13.6923C74.2057 13.3053 74.7114 13.0471 75.1288 12.9911C75.6657 12.9195 76.3661 12.9772 76.3632 13.0795C76.3378 14.0048 75.6392 14.3929 75.1288 14.3929Z" fill="#061D38"/>
<path d="M56.6418 22.4771C55.359 22.4771 54.2112 23.1696 53.4376 24.2618V22.6012H51.4082V35.7464H53.4376V30.8924C54.2112 31.984 55.3595 32.6771 56.6418 32.6771C58.972 32.6771 60.861 30.3939 60.861 27.5777C60.861 24.7614 58.972 22.4782 56.6418 22.4782V22.4771ZM56.0824 30.9808C54.6217 30.9808 53.4376 29.4681 53.4376 27.6013C53.4376 25.7346 54.6217 24.2219 56.0824 24.2219C57.543 24.2219 58.7272 25.7346 58.7272 27.6013C58.7272 29.4681 57.543 30.9808 56.0824 30.9808Z" fill="#061D38"/>
<path d="M67.6667 22.4771C66.3839 22.4771 65.2361 23.1696 64.4625 24.2618V22.6012H62.4331V35.7464H64.4625V30.8924C65.2361 31.984 66.3844 32.6771 67.6667 32.6771C69.9969 32.6771 71.8859 30.3939 71.8859 27.5777C71.8859 24.7614 69.9969 22.4782 67.6667 22.4782V22.4771ZM67.1067 30.9808C65.646 30.9808 64.4619 29.4681 64.4619 27.6013C64.4619 25.7346 65.646 24.2219 67.1067 24.2219C68.5674 24.2219 69.7515 25.7346 69.7515 27.6013C69.7515 29.4681 68.5674 30.9808 67.1067 30.9808Z" fill="#061D38"/>
<path d="M47.9354 32.5048H49.989L45.0897 18.8369H43.0453L38.146 32.5048H40.1996L41.3843 28.9186H46.7507L47.9354 32.5048ZM41.9547 27.1916L44.0672 21.2379L46.1797 27.1916H41.9547Z" fill="#061D38"/>
<path d="M99.6276 22.4585C97.0139 22.4585 94.9199 24.1722 94.9199 27.5487C94.9199 30.9252 97.0139 32.6389 99.6276 32.6389C102.241 32.6389 104.335 30.9252 104.335 27.5487C104.335 24.1722 102.241 22.4585 99.6276 22.4585ZM99.6276 30.9518C97.8465 30.9518 97.0278 29.4472 97.0278 27.6018C97.0278 25.7565 97.847 24.2519 99.6276 24.2519C101.408 24.2519 102.227 25.7565 102.227 27.6018C102.227 29.4472 101.408 30.9518 99.6276 30.9518Z" fill="#061D38"/>
<path d="M92.8209 30.9905C92.2165 30.9905 91.7257 30.5001 91.7257 29.8948V24.2594H93.687V22.6335H91.7257V20.1562H89.7916V22.6335H88.2588V24.2594H89.7916V30.2581C89.7916 31.5733 90.8574 32.6389 92.172 32.6389H93.7568V30.9899H92.8209V30.9905Z" fill="#061D38"/>
<path d="M108.051 24.174V22.4597H106.072V32.6407H108.051V26.3405C108.051 26.3405 108.076 23.8471 111.033 24.3761V22.4603C111.033 22.4603 108.609 21.9589 108.051 24.1745V24.174Z" fill="#061D38"/>
<path d="M120.194 28.1028H120.616C120.62 27.9128 120.621 27.7198 120.621 27.5246C120.621 24.6997 119.086 22.4102 116.065 22.4102C113.043 22.4102 111.508 24.7003 111.508 27.5246C111.508 30.349 112.956 32.6391 116.065 32.6391C118.626 32.6391 120.217 31.3673 120.504 29.5508H118.694C118.172 30.3998 117.33 30.9514 116.38 30.9514C114.534 30.9514 113.554 29.5196 113.554 28.1028H120.194ZM113.583 26.7102C113.841 25.2207 114.801 24.1221 116.148 24.1221C118.493 24.1221 118.592 26.7102 118.592 26.7102H113.583Z" fill="#061D38"/>
<path d="M85.0995 22.6442H87.2894C87.2894 22.6442 87.4776 18.5596 82.3017 18.5596C77.1258 18.5596 76.8441 22.6777 77.8862 24.5693C78.7522 26.1415 81.4617 26.4505 82.9651 26.7849C84.4685 27.1193 85.3778 27.713 85.2294 29.0126C85.081 30.3122 83.9904 30.9804 82.1487 30.9804C80.307 30.9804 79.4208 30.2937 79.0495 28.7336H76.9336C76.9336 28.7336 76.9117 32.8552 82.1118 32.8552C87.3119 32.8552 87.4747 29.3274 87.4747 28.5477C87.4747 27.7679 87.5677 25.7071 83.8369 24.9274C80.1067 24.1477 79.4479 23.5533 79.5403 22.2353C79.6332 20.9172 80.9415 20.2675 82.5933 20.3974C84.2451 20.5274 85.0805 21.66 85.0989 22.6442H85.0995Z" fill="#061D38"/>
<path d="M124.205 0.945498C127.818 0.945498 130.747 3.87556 130.747 7.49005V36.51C130.747 40.1244 127.818 43.0545 124.205 43.0545H7.48697C3.87396 43.0545 0.945109 40.1244 0.945109 36.51V7.49005C0.945109 3.87556 3.87396 0.945498 7.48697 0.945498H124.205ZM124.205 0H7.48697C3.3584 0 0 3.35978 0 7.49005V36.51C0 40.6402 3.3584 44 7.48697 44H124.205C128.333 44 131.692 40.6402 131.692 36.51V7.49005C131.692 3.35978 128.333 0 124.205 0Z" fill="#061D38"/>
</svg>
