<svg width="91" height="31" viewBox="0 0 91 31" fill="none" xmlns="http://www.w3.org/2000/svg">
<path d="M15.0097 6.89544C15.7933 6.01224 17.5543 5.78125 17.5543 5.78125C17.5543 5.78125 17.6088 7.62438 16.8252 8.50759C16.0416 9.39079 14.1494 9.61821 14.1494 9.61821C14.1494 9.61821 14.2257 7.77824 15.0093 6.89504L15.0097 6.89544Z" fill="white"/>
<path d="M18.8053 14.4608C18.8053 13.1413 19.5371 11.9983 20.6046 11.4402C19.5099 9.90835 17.6924 9.25494 15.6753 10.2489C15.5132 10.3288 15.3519 10.4087 15.1917 10.4886C14.7402 10.7148 14.2089 10.7164 13.7566 10.4917C13.6269 10.4273 13.496 10.3628 13.3656 10.2971C9.73222 8.47774 7.15724 11.8278 7.63839 16.0476C7.95389 18.8155 10.6455 23.0745 12.5468 22.1241C14.2164 21.2895 15.3902 21.3967 16.6977 22.0837C18.2384 22.8933 20.3105 20.2386 21.2115 17.7231C19.8242 17.3287 18.8049 16.0176 18.8049 14.4604L18.8053 14.4608Z" fill="white"/>
<path d="M61.4469 6.92676C60.5589 6.92676 59.8394 7.7182 59.8394 8.69395C59.8394 9.6697 60.5593 10.4611 61.4469 10.4611C62.3345 10.4611 63.0544 9.6697 63.0544 8.69395C63.0544 7.7182 62.3345 6.92676 61.4469 6.92676ZM61.4469 9.88527C60.959 9.88527 60.5637 9.3521 60.5637 8.69435C60.5637 8.03659 60.959 7.50343 61.4469 7.50343C61.9348 7.50343 62.3301 8.03659 62.3301 8.69435C62.3301 9.3521 61.9348 9.88527 61.4469 9.88527Z" fill="white"/>
<path d="M65.7329 6.92676C65.3162 6.92676 64.9335 7.07073 64.6302 7.31121V6.92676H63.9565V10.3733H64.6302V8.27905C64.6302 7.86494 64.9659 7.52874 65.3802 7.52874C65.7946 7.52874 66.1302 7.86454 66.1302 8.27905V10.3733H66.8039V7.99823C66.8039 7.40653 66.3244 6.92715 65.7333 6.92715L65.7329 6.92676Z" fill="white"/>
<path d="M74.0102 6.92552C73.5935 6.92552 73.2108 7.06949 72.9076 7.30997V5.66895H72.2339V10.3721H72.9076V8.27781C72.9076 7.8637 73.2432 7.52751 73.6576 7.52751C74.0719 7.52751 74.4076 7.8633 74.4076 8.27781V10.3721H75.0813V7.99699C75.0813 7.40529 74.6017 6.92592 74.0106 6.92592L74.0102 6.92552Z" fill="white"/>
<path d="M79.0985 8.85633C79.1028 8.80253 79.1056 8.74835 79.1056 8.69297C79.1056 7.71683 78.4746 6.92578 77.587 6.92578C76.6994 6.92578 75.9795 7.71722 75.9795 8.69297C75.9795 9.66873 76.6994 10.4602 77.587 10.4602C78.2406 10.4602 78.8028 10.031 79.0542 9.41559H78.4256C78.2643 9.70037 78.0033 9.88389 77.5874 9.88389C77.0821 9.88389 76.7718 9.43656 76.7125 8.85633H79.0989H79.0985ZM77.587 7.50245C78.0733 7.50245 78.3366 7.85091 78.4576 8.31842H76.716C76.837 7.85091 77.1003 7.50245 77.5866 7.50245H77.587Z" fill="white"/>
<path d="M70.9926 9.83481C70.7704 9.83481 70.5902 9.65445 70.5902 9.43217V7.56333H71.3113V6.96569H70.5902V6.09277H69.8793V6.96569H69.3159V7.56333H69.8793V9.56586C69.8793 10.0492 70.2711 10.4411 70.7542 10.4411H71.3366V9.83521H70.9926V9.83481Z" fill="white"/>
<path d="M45.3412 5.65234H44.6304V10.3725H45.3412V5.65234Z" fill="white"/>
<path d="M28.5314 5.80371H26.9053V6.48876V9.68932V10.3744H28.5314C29.793 10.3744 30.8158 9.35115 30.8158 8.08904C30.8158 6.82693 29.793 5.80371 28.5314 5.80371ZM30.1045 8.08864C30.1045 8.97264 29.3885 9.68893 28.5049 9.68893H27.6161V6.48836H28.5049C29.3885 6.48836 30.1045 7.20465 30.1045 8.08864Z" fill="white"/>
<path d="M33.1051 6.92578C32.2171 6.92578 31.4976 7.71722 31.4976 8.69297C31.4976 9.66873 32.2175 10.4602 33.1051 10.4602C33.9927 10.4602 34.7126 9.66873 34.7126 8.69297C34.7126 7.71722 33.9927 6.92578 33.1051 6.92578ZM33.1051 9.88429C32.6172 9.88429 32.2219 9.35112 32.2219 8.69337C32.2219 8.03562 32.6172 7.50245 33.1051 7.50245C33.593 7.50245 33.9883 8.03562 33.9883 8.69337C33.9883 9.35112 33.593 9.88429 33.1051 9.88429Z" fill="white"/>
<path d="M47.8478 6.92578C46.9598 6.92578 46.2402 7.71722 46.2402 8.69297C46.2402 9.66873 46.9602 10.4602 47.8478 10.4602C48.7354 10.4602 49.4553 9.66873 49.4553 8.69297C49.4553 7.71722 48.7354 6.92578 47.8478 6.92578ZM47.8478 9.88429C47.3599 9.88429 46.9645 9.35112 46.9645 8.69337C46.9645 8.03562 47.3599 7.50245 47.8478 7.50245C48.3356 7.50245 48.731 8.03562 48.731 8.69337C48.731 9.35112 48.3356 9.88429 47.8478 9.88429Z" fill="white"/>
<path d="M56.3733 5.65234V7.43259C56.1341 7.16996 55.8348 6.97141 55.4766 6.97141C54.4115 6.97141 53.8687 7.71737 53.8687 8.69352C53.8687 9.66966 54.4111 10.4156 55.4766 10.4156C55.8348 10.4156 56.1341 10.2167 56.3733 9.95405V10.3725H57.0841V5.65274H56.3733V5.65234ZM55.4766 9.88404C54.9887 9.88404 54.5933 9.35087 54.5933 8.69352C54.5933 8.03616 54.9887 7.5022 55.4766 7.5022C55.9645 7.5022 56.3594 8.03537 56.3594 8.69352C56.3594 9.35166 55.9641 9.88404 55.4766 9.88404Z" fill="white"/>
<path d="M42.4751 6.92578C42.0584 6.92578 41.6757 7.06975 41.3724 7.31023V6.92578H40.6987V10.3724H41.3724V8.27807C41.3724 7.86396 41.7081 7.52777 42.1224 7.52777C42.5368 7.52777 42.8724 7.86356 42.8724 8.27807V10.3724H43.5461V7.99725C43.5461 7.40555 43.0665 6.92618 42.4755 6.92618L42.4751 6.92578Z" fill="white"/>
<path d="M39.2179 6.97461L38.6351 9.52177L37.8966 6.97461H37.2189L36.482 9.52177L35.8992 6.97461H35.2212L36.1024 10.4603H36.1048H36.7801H36.7825L37.5586 8.03263L38.3346 10.4603H38.3366H39.0123H39.0147L39.8955 6.97461H39.2179Z" fill="white"/>
<path d="M51.5939 6.87988C50.8131 6.87988 50.1801 7.32682 50.1801 7.87779L50.9214 7.86948C51.0207 7.65155 51.2693 7.48068 51.5971 7.48068C51.6003 7.48068 51.6038 7.48068 51.607 7.48068C52.0154 7.48464 52.3404 7.82597 52.3404 8.23455V8.32354C52.3404 8.32354 51.8786 8.31444 51.4156 8.34213C50.6783 8.38603 50.0781 8.80647 50.0781 9.37919C50.0781 9.95191 50.4086 10.4162 51.4156 10.4162C51.7746 10.4162 52.1 10.194 52.3404 9.8997V10.4162H53.0077V7.87818C53.0077 7.32682 52.3748 6.88028 51.5939 6.88028V6.87988ZM51.4477 9.855C51.0985 9.855 50.8155 9.64023 50.8155 9.37523C50.8155 9.11023 51.1618 8.93343 51.4477 8.89507C51.8153 8.84602 52.2949 8.88558 52.2929 8.95558C52.2755 9.58921 51.7972 9.855 51.4477 9.855Z" fill="white"/>
<path d="M38.788 15.3926C37.9095 15.3926 37.1236 15.8668 36.5938 16.6147V15.4776H35.2041V24.4793H36.5938V21.1553C37.1236 21.9029 37.9099 22.3775 38.788 22.3775C40.3837 22.3775 41.6773 20.814 41.6773 18.8854C41.6773 16.9569 40.3837 15.3934 38.788 15.3934V15.3926ZM38.4049 21.2159C37.4047 21.2159 36.5938 20.18 36.5938 18.9017C36.5938 17.6233 37.4047 16.5875 38.4049 16.5875C39.4052 16.5875 40.2161 17.6233 40.2161 18.9017C40.2161 20.18 39.4052 21.2159 38.4049 21.2159Z" fill="white"/>
<path d="M46.3378 15.3926C45.4594 15.3926 44.6734 15.8668 44.1436 16.6147V15.4776H42.7539V24.4793H44.1436V21.1553C44.6734 21.9029 45.4597 22.3775 46.3378 22.3775C47.9335 22.3775 49.2271 20.814 49.2271 18.8854C49.2271 16.9569 47.9335 15.3934 46.3378 15.3934V15.3926ZM45.9543 21.2159C44.9541 21.2159 44.1432 20.18 44.1432 18.9017C44.1432 17.6233 44.9541 16.5875 45.9543 16.5875C46.9546 16.5875 47.7655 17.6233 47.7655 18.9017C47.7655 20.18 46.9546 21.2159 45.9543 21.2159Z" fill="white"/>
<path d="M32.8258 22.2591H34.2321L30.8771 12.8994H29.4771L26.1221 22.2591H27.5284L28.3396 19.8033H32.0145L32.8258 22.2591ZM28.7303 18.6206L30.1769 14.5436L31.6235 18.6206H28.7303Z" fill="white"/>
<path d="M68.2243 15.3799C66.4345 15.3799 65.0005 16.5534 65.0005 18.8656C65.0005 21.1778 66.4345 22.3514 68.2243 22.3514C70.014 22.3514 71.448 21.1778 71.448 18.8656C71.448 16.5534 70.014 15.3799 68.2243 15.3799ZM68.2243 21.196C67.0046 21.196 66.4439 20.1657 66.4439 18.902C66.4439 17.6383 67.005 16.608 68.2243 16.608C69.4435 16.608 70.0046 17.6383 70.0046 18.902C70.0046 20.1657 69.4435 21.196 68.2243 21.196Z" fill="white"/>
<path d="M63.5631 21.2219C63.1492 21.2219 62.8131 20.8861 62.8131 20.4716V16.6125H64.1561V15.4991H62.8131V13.8027H61.4886V15.4991H60.439V16.6125H61.4886V20.7204C61.4886 21.621 62.2185 22.3508 63.1187 22.3508H64.204V21.2215H63.5631V21.2219Z" fill="white"/>
<path d="M73.9929 16.5535V15.3796H72.6372V22.3515H73.9929V18.0371C73.9929 18.0371 74.0099 16.3297 76.0349 16.692V15.38C76.0349 15.38 74.3744 15.0367 73.9929 16.5539V16.5535Z" fill="white"/>
<path d="M82.3085 19.244H82.5971C82.5999 19.1138 82.6007 18.9817 82.6007 18.8481C82.6007 16.9136 81.5494 15.3457 79.4805 15.3457C77.4116 15.3457 76.3604 16.9139 76.3604 18.8481C76.3604 20.7822 77.3515 22.3504 79.4805 22.3504C81.2343 22.3504 82.324 21.4795 82.5205 20.2355H81.281C80.9236 20.817 80.3472 21.1947 79.6968 21.1947C78.4324 21.1947 77.7611 20.2142 77.7611 19.244H82.3085ZM77.7809 18.2904C77.9576 17.2703 78.6155 16.518 79.5375 16.518C81.1434 16.518 81.2114 18.2904 81.2114 18.2904H77.7809Z" fill="white"/>
<path d="M58.2756 15.5071H59.7752C59.7752 15.5071 59.9041 12.71 56.3597 12.71C52.8152 12.71 52.6223 15.53 53.3359 16.8254C53.929 17.902 55.7844 18.1136 56.8139 18.3426C57.8434 18.5716 58.4661 18.9782 58.3645 19.8681C58.2629 20.758 57.5161 21.2157 56.2549 21.2157C54.9937 21.2157 54.3868 20.7454 54.1326 19.6771H52.6836C52.6836 19.6771 52.6686 22.4995 56.2296 22.4995C59.7906 22.4995 59.9021 20.0837 59.9021 19.5497C59.9021 19.0158 59.9657 17.6046 57.4109 17.0706C54.8565 16.5366 54.4054 16.1296 54.4686 15.2271C54.5323 14.3245 55.4282 13.8795 56.5593 13.9685C57.6904 14.0575 58.2625 14.8331 58.2752 15.5071H58.2756Z" fill="white"/>
<path d="M85.0546 0.64747C87.5287 0.64747 89.5344 2.65395 89.5344 5.12913V25.0018C89.5344 27.4769 87.5287 29.4834 85.0546 29.4834H5.12703C2.65286 29.4834 0.647204 27.4769 0.647204 25.0018V5.12913C0.647204 2.65395 2.65286 0.64747 5.12703 0.64747H85.0546ZM85.0546 0H5.12703C2.29981 0 0 2.30075 0 5.12913V25.0018C0 27.8301 2.29981 30.1309 5.12703 30.1309H85.0546C87.8818 30.1309 90.1816 27.8301 90.1816 25.0018V5.12913C90.1816 2.30075 87.8818 0 85.0546 0Z" fill="white"/>
</svg>
