<svg width="91" height="31" viewBox="0 0 91 31" fill="none" xmlns="http://www.w3.org/2000/svg">
<path d="M85.6564 0.64747C88.148 0.64747 90.1679 2.65395 90.1679 5.12913V25.0018C90.1679 27.4769 88.148 29.4834 85.6564 29.4834H5.1633C2.67163 29.4834 0.651783 27.4769 0.651783 25.0018V5.12913C0.651783 2.65395 2.67163 0.64747 5.1633 0.64747H85.6564ZM85.6564 0H5.1633C2.31608 0 0 2.30075 0 5.12913V25.0018C0 27.8301 2.31608 30.1309 5.1633 30.1309H85.6564C88.5036 30.1309 90.8197 27.8301 90.8197 25.0018V5.12913C90.8197 2.30075 88.5036 0 85.6564 0Z" fill="white"/>
<path d="M37.9286 6.68848H36.7907H36.2277H35.0894V7.24814H36.2277V10.7319H36.7907V7.24814H37.9286V6.68848Z" fill="white"/>
<path d="M40.46 6.68848H39.897V10.7315H40.46V6.68848Z" fill="white"/>
<path d="M52.9581 6.69141V9.73456L51.0318 6.69141H50.9613H50.3979V10.7344H50.9613V7.58094L52.9581 10.7344H53.5211V10.6233V6.69141H52.9581Z" fill="white"/>
<path d="M43.8505 6.68848H42.7126H42.1496H41.0112V7.24814H42.1496V10.7319H42.7126V7.24814H43.8505V6.68848Z" fill="white"/>
<path d="M34.525 7.24814V6.68848H32.7715H32.2085V7.24814V8.43036V8.99002V10.1722V10.7319H32.7715H34.525V10.1722H32.7715V8.99002H34.4099V8.43036H32.7715V7.24814H34.525Z" fill="white"/>
<path d="M47.6187 6.56152C46.4453 6.56152 45.4941 7.52343 45.4941 8.7104C45.4941 9.89736 46.4453 10.8593 47.6187 10.8593C48.7921 10.8593 49.7433 9.89736 49.7433 8.7104C49.7433 7.52343 48.7921 6.56152 47.6187 6.56152ZM47.6187 10.2806C46.7611 10.2806 46.0659 9.57738 46.0659 8.71C46.0659 7.84262 46.7611 7.13938 47.6187 7.13938C48.4763 7.13938 49.1715 7.84262 49.1715 8.71C49.1715 9.57738 48.4763 10.2806 47.6187 10.2806Z" fill="white"/>
<path d="M31.5916 8.59946H29.457V9.06262H30.9828C30.8243 9.75993 30.2072 10.2804 29.4698 10.2804C28.6122 10.2804 27.917 9.5772 27.917 8.70982C27.917 7.84243 28.6122 7.1392 29.4698 7.1392C29.9145 7.1392 30.3151 7.32865 30.5982 7.63123L31.0162 7.23689C30.6288 6.8208 30.0794 6.56055 29.4698 6.56055C28.2964 6.56055 27.3452 7.52246 27.3452 8.70942C27.3452 9.89638 28.2964 10.8583 29.4698 10.8583C30.6432 10.8583 31.5944 9.89638 31.5944 8.70942C31.5944 8.67264 31.5936 8.63585 31.5916 8.59907V8.59946Z" fill="white"/>
<path d="M72.9437 13.1328H71.6636V21.6089H72.9437V13.1328Z" fill="white"/>
<path d="M56.6126 13.1328H55.3325V21.6089H56.6126V13.1328Z" fill="white"/>
<path d="M83.0809 16.21L81.5405 19.7776L80.0004 16.21H78.7207L80.9006 21.26L79.6592 24.1354H80.9388L81.5405 22.742L82.1807 21.26L84.3606 16.21H83.0809Z" fill="white"/>
<path d="M68.3082 13.1328H65.1958V21.6089H66.4759V18.4344H68.3082C69.7822 18.4344 70.9766 17.2474 70.9766 15.7836C70.9766 14.3194 69.7818 13.1328 68.3082 13.1328ZM69.6842 15.7836C69.6842 16.5454 69.0623 17.1632 68.2955 17.1632H66.4759V14.404H68.2955C69.0623 14.404 69.6842 15.0218 69.6842 15.7836Z" fill="white"/>
<path d="M39.342 15.9648C37.7207 15.9648 36.4067 17.2705 36.4067 18.8806C36.4067 20.4908 37.7211 21.7964 39.342 21.7964C40.9629 21.7964 42.2772 20.4908 42.2772 18.8806C42.2772 17.2705 40.9629 15.9648 39.342 15.9648ZM39.342 20.5418C38.4182 20.5418 37.6697 19.7979 37.6697 18.8806C37.6697 17.9634 38.4186 17.2194 39.342 17.2194C40.2653 17.2194 41.0142 17.9634 41.0142 18.8806C41.0142 19.7979 40.2653 20.5418 39.342 20.5418Z" fill="white"/>
<path d="M45.5754 15.9648C43.9541 15.9648 42.6401 17.2705 42.6401 18.8806C42.6401 20.4908 43.9545 21.7964 45.5754 21.7964C47.1963 21.7964 48.5106 20.4908 48.5106 18.8806C48.5106 17.2705 47.1963 15.9648 45.5754 15.9648ZM45.5754 20.5418C44.6516 20.5418 43.9031 19.7979 43.9031 18.8806C43.9031 17.9634 44.652 17.2194 45.5754 17.2194C46.4987 17.2194 47.2476 17.9634 47.2476 18.8806C47.2476 19.7979 46.4987 20.5418 45.5754 20.5418Z" fill="white"/>
<path d="M53.3372 16.1505V16.6809C52.8873 16.3115 52.3211 16.0908 51.706 16.0908C50.2403 16.0908 49.0522 17.3395 49.0522 18.8796C49.0522 20.4198 50.2403 21.6685 51.706 21.6685C52.3215 21.6685 52.8873 21.4478 53.3372 21.0784V21.6004C53.3372 22.4524 52.6667 23.1185 51.7601 23.1185C50.7512 23.1185 50.3709 22.4219 50.2384 22.1277L49.1996 22.649C49.7403 23.8632 50.7898 24.2868 51.882 24.2868C53.34 24.2868 54.4791 23.1319 54.4791 21.7068V16.1498H53.3376L53.3372 16.1505ZM51.7876 20.5836C50.9319 20.5836 50.238 19.8206 50.238 18.8796C50.238 17.9387 50.9315 17.1757 51.7876 17.1757C52.6436 17.1757 53.3372 17.9383 53.3372 18.8793C53.3372 19.8202 52.6436 20.5832 51.7876 20.5832V20.5836Z" fill="white"/>
<path d="M35.9665 16.8712H31.8153V18.0407H34.7601C34.8282 19.4646 33.3482 20.5594 31.8153 20.5594C30.0427 20.5594 28.6058 19.1189 28.6058 17.3414C28.6058 15.564 30.0427 14.1235 31.8153 14.1235C32.6801 14.1235 33.4645 14.4672 34.0418 15.0249L34.917 14.114C34.1131 13.3372 33.0202 12.8594 31.8153 12.8594C29.3468 12.8594 27.3452 14.8659 27.3452 17.341C27.3452 19.8162 29.3464 21.8227 31.8153 21.8227C34.8712 21.8227 36.3133 19.4642 35.9665 16.8704V16.8712Z" fill="white"/>
<path d="M60.0871 20.5416C59.5046 20.5416 58.9921 20.2458 58.6927 19.7972L61.7044 18.5411L62.5166 18.2021C62.3629 17.4902 61.6399 16.0449 60.0337 16.0449C58.4276 16.0449 57.1519 17.2699 57.1519 18.8804C57.1519 20.491 58.4662 21.7962 60.0871 21.7962C61.0769 21.7962 61.9516 21.3089 62.4832 20.5634L61.4782 19.802C61.1784 20.2477 60.6672 20.5416 60.0871 20.5416ZM59.9119 17.2085C60.355 17.2085 60.8077 17.396 60.9996 17.7045L58.4164 18.7946C58.4614 17.9169 59.0172 17.2085 59.9115 17.2085H59.9119Z" fill="white"/>
<path d="M78.5153 17.821C78.5153 16.7958 77.4323 15.9648 76.0961 15.9648C74.9876 15.9648 74.054 16.5372 73.7677 17.3175L74.8566 17.8507C75.1182 17.4437 75.555 17.1767 76.0499 17.1767C76.345 17.1767 76.6193 17.2716 76.8478 17.4342C77.1496 17.649 77.332 17.9891 77.3666 18.3538C77.0083 18.1098 76.4835 17.9903 75.8461 17.9903C74.6126 17.9903 73.6128 18.8272 73.6128 19.8592C73.6128 20.8911 74.351 21.728 75.8461 21.728C76.4875 21.728 77.0147 21.3697 77.373 20.8808V21.5753H78.5145V17.8452H78.5133C78.5133 17.8369 78.5145 17.8285 78.5145 17.8202L78.5153 17.821ZM76.0364 20.6023C75.5427 20.6909 75.0697 20.4991 74.9618 20.0897C74.8538 19.6804 75.131 19.2742 75.6163 19.1476C76.1017 19.0214 77.2161 19.0776 77.3208 19.3383C77.4251 19.5981 76.7909 20.4667 76.0364 20.6023Z" fill="white"/>
<path d="M9.00658 7.38987L18.2785 12.6855L16.2913 14.6596L9.00658 7.38947V7.38987ZM7.08547 6.96191L15.5965 15.3838L7.08627 23.8056C6.65307 23.6154 6.35645 23.1922 6.35645 22.7001C6.35645 22.6839 6.35645 22.6677 6.35724 22.6523V22.6543V8.11368C6.35645 8.10023 6.35645 8.08401 6.35645 8.06819C6.35645 7.57616 6.65307 7.15295 7.0783 6.96547L7.08627 6.96271L7.08547 6.96191ZM21.1599 14.3969C21.4526 14.6125 21.6397 14.955 21.6397 15.3403C21.6397 15.3557 21.6397 15.3703 21.6389 15.3857V15.3838C21.6417 15.4138 21.6437 15.4498 21.6437 15.4854C21.6437 15.8477 21.4669 16.1689 21.1942 16.3682L21.1914 16.3702L19.2042 17.4883L17.0521 15.3838L19.205 13.2452L21.1599 14.3969ZM9.00658 23.3773L16.2917 16.1072L18.2789 18.0812L9.00618 23.3769L9.00658 23.3773Z" fill="white"/>
</svg>
