<svg id="ICN_insta" xmlns="http://www.w3.org/2000/svg" width="47" height="47" viewBox="0 0 47 47">
  <g id="Ellipse_13" data-name="Ellipse 13" fill="none" stroke="#fff" stroke-width="1.75">
    <circle cx="23.5" cy="23.5" r="23.5" stroke="none"/>
    <circle cx="23.5" cy="23.5" r="22.625" fill="none"/>
  </g>
  <path id="Path_2927" data-name="Path 2927" d="M7.982,3h9.965A4.982,4.982,0,0,1,22.93,7.982v9.965a4.982,4.982,0,0,1-4.982,4.982H7.982A4.982,4.982,0,0,1,3,17.947V7.982A4.982,4.982,0,0,1,7.982,3Z" transform="translate(10.648 10.853)" fill="none" stroke="#fff" stroke-linecap="round" stroke-linejoin="round" stroke-width="2"/>
  <path id="Path_2928" data-name="Path 2928" d="M19.994,15.336a3.986,3.986,0,1,1-3.358-3.358,3.986,3.986,0,0,1,3.358,3.358Z" transform="translate(7.605 7.854)" fill="none" stroke="#fff" stroke-linecap="round" stroke-linejoin="round" stroke-width="1.5"/>
  <path id="Path_2929" data-name="Path 2929" d="M26.25,9.75h0" transform="translate(2.844 8.587)" fill="none" stroke="#fff" stroke-linecap="round" stroke-linejoin="round" stroke-width="1.5"/>
</svg>
