<svg id="ebaa" xmlns="http://www.w3.org/2000/svg" width="106.278" height="19.574" viewBox="0 0 106.278 19.574">
  <g id="Group_5830" data-name="Group 5830" transform="translate(-0.428)">
    <path id="Path_5371" data-name="Path 5371" d="M146.508,19.52c-.185.009-.37.027-.555.027-7.642,0-15.285-.02-22.927,0A2.057,2.057,0,0,1,121,18.3Q116.474,9.516,111.926.744c-.107-.208-.2-.422-.341-.716h.714c3.232,0,6.464.041,9.695-.027a3.965,3.965,0,0,1,3.2,1.45c2.041,2.274,3.971,4.66,6.135,6.81,2.69,2.674,5.523,5.211,8.386,7.7a16.642,16.642,0,0,0,6.789,3.557Z" transform="translate(-56.455 0)" fill="#fff"/>
    <path id="Path_5372" data-name="Path 5372" d="M64.608,22.292h4.86l-2.74-5.22c-.168.277-.289.464-.4.658-1.589,2.887-3.184,5.769-4.752,8.667a.88.88,0,0,1-.917.541c-.974-.03-1.949-.009-3-.009.114-.256.173-.416.253-.564,2-3.68,4.014-7.355,6-11.042a.807.807,0,0,1,.858-.508,21.2,21.2,0,0,0,2.423,0,2.777,2.777,0,0,1,2.851,1.769c1.036,2.043,2.1,4.074,3.148,6.109.118.229.243.456.414.777.162-.262.289-.447.4-.643,1.369-2.51,2.742-5.017,4.092-7.536a.769.769,0,0,1,.812-.477,24.694,24.694,0,0,0,2.488,0,2.747,2.747,0,0,1,2.8,1.743c1.168,2.294,2.359,4.577,3.541,6.864.578,1.118,1.16,2.235,1.816,3.5-1.252,0-2.372.013-3.492-.019-.122,0-.265-.258-.348-.421-.307-.6-.445-1.455-.929-1.752-.514-.315-1.351-.114-2.047-.122-.83-.01-1.66-.019-2.489.006a.6.6,0,0,1-.69-.431c-.226-.6-.5-1.192-.788-1.876H83.64l-2.764-5.261c-.576,1.044-1.092,1.975-1.605,2.908-1.188,2.161-2.387,4.316-3.55,6.49a.868.868,0,0,1-.92.532c-.85-.031-1.7-.03-2.554,0a.618.618,0,0,1-.688-.443c-.206-.5-.468-.986-.668-1.493a.63.63,0,0,0-.7-.44c-1.375.017-2.751-.008-4.127.017a.607.607,0,0,1-.681-.446C65.165,23.582,64.908,23.009,64.608,22.292Z" transform="translate(-29.173 -7.491)" fill="#fff"/>
    <path id="Path_5373" data-name="Path 5373" d="M186.1,26.905a2.507,2.507,0,0,1-.272.032c-3.514-.015-7.028-.015-10.541-.055a12.738,12.738,0,0,1-5.712-1.72,37.973,37.973,0,0,1-8.569-6.41c-1.3-1.231-2.529-2.53-3.788-3.8-.087-.088-.157-.192-.29-.358.2-.017.321-.036.44-.036,2.685,0,5.37,0,8.055-.005a4.912,4.912,0,0,1,3.473,1.284c.772.708,1.583,1.376,2.324,2.115a37.9,37.9,0,0,0,11.139,7.356C183.576,25.868,184.822,26.36,186.1,26.905Z" transform="translate(-79.398 -7.363)" fill="#fff"/>
    <path id="Path_5374" data-name="Path 5374" d="M40.309,20.962c.231.061.331.095.434.113a2.428,2.428,0,0,1,2.338,2.573c.055,1.8-.629,2.787-2.225,3.116a9.3,9.3,0,0,1-1.819.176c-3.405.016-6.81.009-10.216.006-.17,0-.34-.03-.546-.049V14.877c.236-.012.448-.031.66-.031q4.977,0,9.954,0a5.325,5.325,0,0,1,1.039.1,3.231,3.231,0,0,1,2.23,4.725,3.288,3.288,0,0,1-.991.9A4.789,4.789,0,0,1,40.309,20.962Zm-8.037-1.154c1.855,0,3.577,0,5.3,0a4.479,4.479,0,0,0,.844-.069,1.083,1.083,0,0,0,.927-.97,1.063,1.063,0,0,0-.579-1.21,3.226,3.226,0,0,0-1.25-.3c-1.833-.031-3.666-.015-5.5-.011a4.676,4.676,0,0,0-.537.065c0,2.309.005,4.577,0,6.845,0,.394.23.4.513.4,2.03,0,4.059.011,6.088-.014a2.631,2.631,0,0,0,1.062-.266,1.01,1.01,0,0,0,.609-1.187,1.926,1.926,0,0,0-.73-.977,2.039,2.039,0,0,0-1.068-.211c-1.44-.022-2.881,0-4.321-.02-.2,0-.512-.094-.586-.239-.284-.558-.492-1.154-.769-1.836Z" transform="translate(-14.306 -7.51)" fill="#fff"/>
  </g>
  <g id="Group_5829" data-name="Group 5829" transform="translate(0 7.333)">
    <path id="Path_5375" data-name="Path 5375" d="M12.542,14.843v2.4H3.275v7.282h9.255v2.382c-.251.014-.484.038-.717.038q-4.485,0-8.971,0A6.567,6.567,0,0,1,1.8,26.871,1.947,1.947,0,0,1,.018,24.859q-.035-3.994,0-7.988a1.816,1.816,0,0,1,1.886-2c.476-.047.959-.03,1.439-.03q4.223,0,8.447,0h.748Z" transform="translate(0 -14.842)" fill="#fff"/>
    <path id="Path_5376" data-name="Path 5376" d="M8.175,24.895c2.216,0,4.329,0,6.443.009a.465.465,0,0,1,.356.2c.263.589.492,1.192.764,1.872-2.231,0-4.342,0-6.453-.012a.523.523,0,0,1-.374-.269c-.251-.552-.464-1.122-.737-1.8Z" transform="translate(-4.136 -19.929)" fill="#fff"/>
  </g>
</svg>
