<svg id="Group_5667" data-name="Group 5667" xmlns="http://www.w3.org/2000/svg" xmlns:xlink="http://www.w3.org/1999/xlink" width="106.706" height="43.081" viewBox="0 0 106.706 43.081">
  <defs>
    <clipPath id="clip-path">
      <rect id="Rectangle_2200" data-name="Rectangle 2200" width="106.706" height="43.081" fill="none"/>
    </clipPath>
  </defs>
  <g id="Component_221_68" data-name="Component 221 – 68">
    <g id="Group_5828" data-name="Group 5828">
      <path id="Path_5217" data-name="Path 5217" d="M527.04.01,514.26,43.09H515L527.783.01Z" transform="translate(-460.092 -0.009)" fill="#fff"/>
      <path id="Path_5218" data-name="Path 5218" d="M553.179,0,540.4,43.081h.744L553.923,0Z" transform="translate(-483.05)" fill="#fff"/>
    </g>
    <g id="Group_5668" data-name="Group 5668">
      <g id="Group_5667-2" data-name="Group 5667" clip-path="url(#clip-path)">
        <path id="Path_5219" data-name="Path 5219" d="M362.466,121.354a12.752,12.752,0,0,1-3.782.48,23.369,23.369,0,0,1-4.9-.874c-4.641-1.652-6.971-4.951-6.952-10.015.019-4.181,3.076-10.217,11.439-10.353a20.39,20.39,0,0,1,6.568.959.7.7,0,0,0,.618-.142l.276,2.107a5.55,5.55,0,0,0-1.821-1.272,17.537,17.537,0,0,0-4.915-.751,8.614,8.614,0,0,0-4.707,1.282,9.267,9.267,0,0,0-3.611,3.7,8.621,8.621,0,0,0-1.215,4.624,10.249,10.249,0,0,0,1.76,5.837,9.362,9.362,0,0,0,4.488,3.346,12.314,12.314,0,0,0,1.978.553,11.54,11.54,0,0,0,2.128.2,8.371,8.371,0,0,0,3.35-.678l.006-7.869a1.126,1.126,0,0,0-.458-1.009l1.475-.007.013,9.047a5.143,5.143,0,0,1-1.736.837m-9.9-18.568a10.24,10.24,0,0,0-3.647,3.72,8.781,8.781,0,0,0-1.142,4.6c0,3.186.843,5.783,3.977,7.808-2.1-2.688-3.2-4.125-3.185-7.795.016-4.121,2.518-6.68,3.992-8.338ZM364.9,120.217l-.04-8.736h1.662a1.392,1.392,0,0,0-.615,1.023V119.7Z" transform="translate(-310.297 -89.993)" fill="#fff"/>
        <path id="Path_5220" data-name="Path 5220" d="M7.664,100.206a17.513,17.513,0,0,1,.955,1.888l7.635,17.6H14.646a.632.632,0,0,0,.134-.612c-.676-1.874-1.225-3.055-3.049-7.072H4.715l-2.949,6.808c-.2.457.257.7.257.9L0,119.706a4.178,4.178,0,0,0,.656-.912c.611-1.5,6.394-14.852,7.07-16.521.058-.211-.394-.822-.594-1.146,0,0,.359-.6.532-.921M5.1,111.186l6.381-.027c.1,0-3.2-7.569-3.2-7.569Zm11.843,7.94c-.752-1.6-1.666-3.743-2.813-6.32l-2.8-6.374q-1.138-2.572-2.829-6.257c-.078-.156-.285-.47-.4-.653.359-.643.641-1.1.641-1.1,3.632,7.77,5,11.05,9.041,20.391a2.979,2.979,0,0,0,.776.922l-1.643-.012a.989.989,0,0,0,.031-.6" transform="translate(0 -88.053)" fill="#fff"/>
        <path id="Path_5221" data-name="Path 5221" d="M189.741,124.983V106.354a1.683,1.683,0,0,0-.447-1.024l1.467-.009.013,19.636.007.948-1.511.009c.313-.184.423-.4.471-.931m7.239-8.848a7.209,7.209,0,0,0,.408.683,42.787,42.787,0,0,0,4.052,5.208,19.856,19.856,0,0,0,5.331,4.1,13.218,13.218,0,0,1-3.921-.8,14.24,14.24,0,0,1-2.694-1.719q-.671-.585-2.423-2.309a54.854,54.854,0,0,1-3.442-4.5s-1.084.087-1.649.087l-.008,7.971a2.183,2.183,0,0,0,.084.527c.082.234.14.227.421.527l-1.509-.008.006-.343V105.32h.7a16.125,16.125,0,0,1,4.114.38,6.377,6.377,0,0,1,3.909,3.1,4.272,4.272,0,0,1,.468,2.107c-.013,2.423-1.423,3.876-3.378,4.973,0,0-.222.115-.468.255m-4.319-.369s.737-.015,1.475-.105a4.788,4.788,0,0,0,4.213-4.622c0-3.095-1.649-4.009-2.64-4.418a6.676,6.676,0,0,0-2.464-.364h-.6Zm3.447.645s-.429.153-.873.261c4.424,6.847,8.226,8.3,7.929,8.12a47.008,47.008,0,0,1-7.057-8.383Zm3.811-5.437a4.551,4.551,0,0,0-.614-2.392,6.222,6.222,0,0,0-2.449-2.028,8.558,8.558,0,0,1,1.854,2.174,5.326,5.326,0,0,1,.507,2.212,5.445,5.445,0,0,1-2.008,4.231,4.844,4.844,0,0,0,2.71-4.2" transform="translate(-169.334 -94.227)" fill="#fff"/>
        <path id="Path_5222" data-name="Path 5222" d="M672.884,123.5a12.314,12.314,0,0,1-4.213,2.116,9.934,9.934,0,0,1-2.317.294c-2.949.013-8.593-1.511-8.614-7.678l.007-12.1a1.6,1.6,0,0,0-.527-1.084h1.528l-.012,12.857c.145,4.686,2.3,6.15,5.256,6.923-2.212-1.022-4.2-1.961-4.408-7.172l-.009-12.564,1.532.006c-.391.335-.457.447-.527.672a2.42,2.42,0,0,0-.065.4v11.614c.016,3.165,1.4,6.6,5.5,6.847a6.757,6.757,0,0,0,1.227.087,8.355,8.355,0,0,0,5.668-2.575l.029-16.188c0-.293-.2-.582-.651-.873l1.6-.007-.01.676v19.874l-.994.006Zm3.371-18.394-1.58-.014.007.371.042,20.237,1.6-.036a1.345,1.345,0,0,1-.678-.907v-18.69a1.422,1.422,0,0,1,.6-.962" transform="translate(-587.994 -93.985)" fill="#fff"/>
        <path id="Path_5223" data-name="Path 5223" d="M863.241,121.2a4.849,4.849,0,0,0,2.717.7,3.754,3.754,0,0,0,2.249-1.024,4.586,4.586,0,0,0,1.313-2.749c.048-1.149-.671-2.455-2.013-3.917q-1.868-1.9-3.735-3.8c-1.343-1.52-2.13-2.78-2.107-4.343a4.307,4.307,0,0,1,1.813-3.669,5.5,5.5,0,0,1,3.322-.994c.292,0,.517.017.709.029a21.711,21.711,0,0,1,2.364.267.578.578,0,0,0,.644-.132l.013,1.957c-.325-.152-.65-.515-1.123-.817a5.092,5.092,0,0,0-.723-.342,4.2,4.2,0,0,0-1.537-.3,3.792,3.792,0,0,0-3.153,1.695,3.492,3.492,0,0,0-.5,1.9q0,1.521,2.069,3.538c1.264,1.247,2.633,2.391,3.817,3.713a7.022,7.022,0,0,1,2.1,4.882,4.371,4.371,0,0,1-1.807,3.713,5.372,5.372,0,0,1-3.293,1.111h-.468a5.585,5.585,0,0,1-1.864-.353q-.917-.327-1.56-.544c-.641-.211-.8-.316-1.008-.381a.586.586,0,0,0-.632.111l.009-2.035a8.369,8.369,0,0,0,2.382,1.79m7.611-3.228a6.706,6.706,0,0,0-2.129-4.643c-1.224-1.227-2.584-2.483-3.719-3.667-1.417-1.475-2.037-2.7-2.083-3.792a4.268,4.268,0,0,1,.676-2.689,3.679,3.679,0,0,0-1.168,3.021,6.26,6.26,0,0,0,1.955,3.741c1.708,1.685,2.874,2.769,3.751,3.763,1.608,1.826,2.117,2.983,2.107,4.4a4.081,4.081,0,0,1-.877,2.56,3.56,3.56,0,0,0,1.488-2.7" transform="translate(-770.175 -90.719)" fill="#fff"/>
        <path id="Path_5224" data-name="Path 5224" d="M981.285,102.645a1.838,1.838,0,0,1-2.6-2.6,1.761,1.761,0,0,1,1.294-.535,1.837,1.837,0,0,1,1.3,3.137m-2.422-2.423a1.6,1.6,0,0,0,0,2.246,1.58,1.58,0,0,0,2.234,0,1.546,1.546,0,0,0,.461-1.127,1.58,1.58,0,0,0-2.7-1.117Zm1.082.105a1.527,1.527,0,0,1,.551.073.5.5,0,0,1,.316.512.442.442,0,0,1-.2.4.738.738,0,0,1-.292.1.493.493,0,0,1,.347.2.551.551,0,0,1,.105.316v.3a.306.306,0,0,0,.017.105l.013.025h-.334a.061.061,0,0,0,0-.02v-.022l-.007-.065v-.165a.491.491,0,0,0-.191-.461.843.843,0,0,0-.395-.064H979.6v.793h-.356v-2.018Zm.384.316a.917.917,0,0,0-.431-.076h-.3v.737h.316a.973.973,0,0,0,.339-.045.361.361,0,0,0,.176-.48v0a.358.358,0,0,0-.105-.13Z" transform="translate(-875.119 -89.026)" fill="#fff"/>
      </g>
    </g>
  </g>
</svg>
