<svg id="air_charter_association" data-name="air charter association" xmlns="http://www.w3.org/2000/svg" width="154.838" height="27.344" viewBox="0 0 154.838 27.344">
  <path id="Path_5400" data-name="Path 5400" d="M697.564,21.563c0-.58,0-1.129,0-1.677,0-1.8,0-3.607-.005-5.41,0-.219.074-.31.291-.3.161.006.322,0,.483,0,.449.006.464.015.538.443.037.216.056.436.088.7.13-.138.249-.251.351-.376a2.386,2.386,0,0,1,1.988-.8c.137,0,.224.041.222.2,0,.346.006.693-.02,1.038,0,.06-.149.137-.24.159a7.41,7.41,0,0,0-1.164.262,1.652,1.652,0,0,0-.948,1.682c-.012,1.244,0,2.487,0,3.731,0,.351,0,.353-.345.355C698.4,21.564,698,21.563,697.564,21.563Z" transform="translate(-546.683 -11.1)" fill="#fff"/>
  <path id="Path_5387" data-name="Path 5387" d="M658.447,17.98a2.053,2.053,0,0,0,1.858,1.878,5.183,5.183,0,0,0,2.5-.348c.175-.077.265-.029.333.133q.154.369.322.731c.055.117.052.2-.083.254a5.1,5.1,0,0,1-4.675.022,3.442,3.442,0,0,1-1.81-2.72,3.865,3.865,0,0,1,1.232-3.532,3.459,3.459,0,0,1,5.728,1.632,8.368,8.368,0,0,1,.184,1.5c.031.427-.015.451-.444.448q-2.338-.013-4.676-.023C658.766,17.956,658.616,17.971,658.447,17.98Zm-.02-1.185c.1.007.169.017.238.017l3.112-.013c.215,0,.43.017.643,0,.064-.006.179-.117.171-.16a2.413,2.413,0,0,0-.46-1.2,2.07,2.07,0,0,0-2.6-.332A2.255,2.255,0,0,0,658.427,16.794Z" transform="translate(-515.168 -10.574)" fill="#fff"/>
  <path id="Path_5397" data-name="Path 5397" d="M632.011,7.315h-1.072a7.307,7.307,0,0,1,.01-.758c.008-.075.12-.172.2-.2a2.225,2.225,0,0,1,.577-.112.35.35,0,0,0,.369-.369c.048-.521.1-1.043.12-1.566.008-.231.074-.321.3-.315.34.009.68,0,1.053,0,.005.08.015.164.015.248,0,.569,0,1.137-.006,1.706,0,.155.015.222.2.216.456-.016.913,0,1.369-.011.168-.005.2.063.194.2a5.532,5.532,0,0,0,0,.666c.023.246-.1.312-.312.307-.4-.008-.806-.01-1.208-.015H633.6a1.454,1.454,0,0,0-.026.189q0,1.8.01,3.6a2.569,2.569,0,0,0,.009.293.957.957,0,0,0,1.18.956c.229-.02.457-.051.686-.077.072.274.14.529.2.785a.273.273,0,0,1-.205.371,3.654,3.654,0,0,1-2.245.025,1.71,1.71,0,0,1-1.092-1.553,13.839,13.839,0,0,1-.108-1.511c-.016-1.012-.005-2.025-.005-3.078Z" transform="translate(-494.995 -3.138)" fill="#fff"/>
  <path id="Path_5398" data-name="Path 5398" d="M612.75,15.473c-.372.052-.7.078-1.018.145a1.753,1.753,0,0,0-1.4,1.858c-.009,1.27.011,2.541.019,3.812,0,.078,0,.155,0,.26-.5,0-.97.006-1.441-.007-.058,0-.139-.092-.164-.158a.763.763,0,0,1-.014-.264q0-3.345-.008-6.691c0-.205.064-.293.275-.288.339.009.677,0,1.015,0l.164,1.165h.075a.706.706,0,0,0,.093-.113,2.083,2.083,0,0,1,1.882-1.073c.52-.032.521-.022.524.491C612.752,14.914,612.75,15.212,612.75,15.473Z" transform="translate(-477.853 -11.079)" fill="#fff"/>
  <g id="Group_5769" data-name="Group 5769" transform="translate(0.388 2.893)">
    <path id="Path_5385" data-name="Path 5385" d="M572.952,16.6a6.349,6.349,0,0,0-.01-1.014.949.949,0,0,0-.936-.785,20.634,20.634,0,0,0-2.243.075,6.4,6.4,0,0,0-.745.132c-.094-.329-.191-.648-.271-.971a.181.181,0,0,1,.1-.15,11.076,11.076,0,0,1,3.044-.422,4.524,4.524,0,0,1,1.1.21,2.063,2.063,0,0,1,1.495,2.049c0,1.084,0,2.169,0,3.253a.587.587,0,0,0,.663.663c.087,0,.174.009.292.016,0,.379.011.741-.01,1.1a.293.293,0,0,1-.208.189,7.415,7.415,0,0,1-1.175.051,1.031,1.031,0,0,1-.859-.644l-.1-.211a3.143,3.143,0,0,1-3.959.619,2.177,2.177,0,0,1-1.081-2.046,1.947,1.947,0,0,1,1.191-1.826,4.99,4.99,0,0,1,2.856-.387C572.359,16.539,572.635,16.561,572.952,16.6Zm-1.482.914a8.066,8.066,0,0,0-1.177.192c-.622.183-.808.564-.771,1.358a1.129,1.129,0,0,0,.87.842,2.447,2.447,0,0,0,2.045-.374,1.1,1.1,0,0,0,.528-1.014,3.8,3.8,0,0,1,0-.613c.02-.2-.077-.271-.253-.286Z" transform="translate(-445.916 -13.453)" fill="#fff"/>
    <path id="Path_5391" data-name="Path 5391" d="M570.4,76.559h1.173l.262,1.166c.071-.05.129-.073.158-.115a2.7,2.7,0,0,1,2.741-1.137,2.518,2.518,0,0,1,2.318,2.46c.095,1.264.088,2.536.12,3.805.01.416,0,.833,0,1.3-.341,0-.668,0-.995,0-.626-.006-.628-.007-.627-.628,0-1.218.015-2.435,0-3.652a3.207,3.207,0,0,0-.133-.836,1.658,1.658,0,0,0-2.085-.956,1.769,1.769,0,0,0-1.322,1.792q0,1.973,0,3.946v.329c-.506,0-.994.007-1.482-.01-.052,0-.142-.142-.142-.218q0-3.426.009-6.852C570.4,76.83,570.4,76.707,570.4,76.559Z" transform="translate(-447.76 -62.904)" fill="#fff"/>
  </g>
  <g id="Group_5768" data-name="Group 5768" transform="translate(0.542)">
    <path id="Path_5382" data-name="Path 5382" d="M529.922,10.464v-.327q0-4.9-.006-9.808c0-.254.065-.342.326-.327.357.021.716.012,1.074,0,.174,0,.226.051.224.231-.01,1.173-.006,2.345-.005,3.518,0,.06.008.119.02.27.17-.163.291-.28.413-.4a2.849,2.849,0,0,1,4.106.281,3.048,3.048,0,0,1,.6,1.9c.02,1.528.019,3.056.026,4.584a.287.287,0,0,1-.023.068h-1.6v-.3c0-1.386-.01-2.772,0-4.158a1.517,1.517,0,0,0-1.872-1.6,1.822,1.822,0,0,0-1.675,1.856c-.016,1.306,0,2.612.011,3.918,0,.227-.019.326-.3.3C530.827,10.437,530.4,10.464,529.922,10.464Z" transform="translate(-415.989 0)" fill="#fff"/>
    <path id="Path_5388" data-name="Path 5388" d="M530.236,84.115a3.843,3.843,0,1,1,3.917-3.8A3.763,3.763,0,0,1,530.236,84.115Zm0-6.31a3.981,3.981,0,0,0-.639.051,2.182,2.182,0,0,0-1.617,1.857c-.027.3-.009.6-.009.906a2.243,2.243,0,0,0,2.244,2.2,2.2,2.2,0,0,0,2.157-1.548A3.042,3.042,0,0,0,532.5,79.8,2.162,2.162,0,0,0,530.241,77.806Z" transform="translate(-413.184 -59.999)" fill="#fff"/>
  </g>
  <g id="Group_5767" data-name="Group 5767" transform="translate(0.344 0.313)">
    <path id="Path_5386" data-name="Path 5386" d="M483.387,6.625a5.23,5.23,0,0,1,4.174-5.048,6.839,6.839,0,0,1,4.08.529c.175.071.227.17.125.35a5.974,5.974,0,0,0-.3.624c-.1.227-.216.3-.474.193a5.631,5.631,0,0,0-2.413-.413,3.65,3.65,0,0,0-3.539,3.959,3.641,3.641,0,0,0,2.918,3.476,5.043,5.043,0,0,0,2.465-.163,6.3,6.3,0,0,0,.662-.216c.175-.07.266-.053.339.141.1.257.234.5.353.746.055.114.079.2-.08.274a6.035,6.035,0,0,1-5.386.12,4.949,4.949,0,0,1-2.923-4.573Z" transform="translate(-379.461 -1.456)" fill="#fff"/>
    <path id="Path_5396" data-name="Path 5396" d="M484.615,69.037h1.7v1.147h-1.7c0,.183,0,.347,0,.512q0,1.705-.009,3.411c0,.089,0,.178.007.266a.792.792,0,0,0,.828.827c.329.021.66,0,1.024,0,.072.262.162.557.229.856a.236.236,0,0,1-.1.205,3.576,3.576,0,0,1-1.921.212,1.739,1.739,0,0,1-1.557-1.792c-.079-1.025-.086-2.055-.114-3.083-.013-.469,0-.939,0-1.445-.283,0-.548-.01-.812,0-.189.01-.27-.033-.268-.245,0-.607-.005-.607.592-.734.087-.019.172-.051.259-.066.253-.043.344-.18.351-.441.011-.461.063-.921.109-1.38.034-.337.1-.4.432-.414.232-.012.465,0,.7,0,.19,0,.264.076.26.274-.011.612,0,1.225,0,1.883Z" transform="translate(-378.311 -52.81)" fill="#fff"/>
    <path id="Path_5401" data-name="Path 5401" d="M507.676,76.994h2.406v7.485c-.475,0-.937.008-1.4-.01-.06,0-.166-.135-.166-.208q-.007-2.826.012-5.653a.32.32,0,0,0-.272-.375c-.686-.2-.573-.081-.581-.786C507.675,77.306,507.676,77.166,507.676,76.994Z" transform="translate(-398.529 -60.755)" fill="#fff"/>
    <path id="Path_5405" data-name="Path 5405" d="M511.884,64.013a.994.994,0,0,1-.983.9,1.035,1.035,0,0,1-.906-.994.946.946,0,0,1,1.889.092Z" transform="translate(-400.35 -49.8)" fill="#fff"/>
  </g>
  <g id="Group_5766" data-name="Group 5766" transform="translate(0 3.038)">
    <path id="Path_5389" data-name="Path 5389" d="M449.494,83.006a3.125,3.125,0,0,1-4.062.642,1.957,1.957,0,0,1-.951-1.614,3.362,3.362,0,0,1,.072-1,1.932,1.932,0,0,1,1.241-1.3,4.874,4.874,0,0,1,2.054-.3c.508.007,1.017,0,1.536,0a1.372,1.372,0,0,0-1.409-1.776,14.134,14.134,0,0,0-1.839.168c-.247.026-.494.062-.769.1-.078-.311-.161-.618-.225-.928-.009-.045.064-.142.116-.157a7.883,7.883,0,0,1,3.759-.325,2.12,2.12,0,0,1,1.849,2.239c.016,1.128,0,2.257,0,3.386,0,.4.14.543.53.494.572-.071.477-.054.485.444,0,.089,0,.178,0,.267,0,.476,0,.5-.459.578a3.009,3.009,0,0,1-.929.043A1.141,1.141,0,0,1,449.494,83.006Zm-1.764-2.584c-.331.078-.8.163-1.26.3a.868.868,0,0,0-.6.859,1.019,1.019,0,0,0,.5,1.068,2.307,2.307,0,0,0,2.364-.126,1.263,1.263,0,0,0,.652-.951,4.148,4.148,0,0,0,.02-.821.239.239,0,0,0-.163-.162C448.788,80.531,448.334,80.487,447.73,80.421Z" transform="translate(-348.914 -63.014)" fill="#fff"/>
    <path id="Path_5399" data-name="Path 5399" d="M444.207,15.33a2.455,2.455,0,0,1,2.483-1.188v1.4a2.25,2.25,0,0,0-1.847.553,1.678,1.678,0,0,0-.51,1.2c-.025,1.234-.03,2.469-.022,3.7,0,.567.025.566-.55.566-.242,0-.485-.014-.725,0s-.311-.089-.308-.309c.008-.613.007-1.226.006-1.84,0-1.662,0-3.324-.011-4.985,0-.214.085-.288.286-.28s.412.02.618.013c.286-.009.4.147.432.4l.084.7Z" transform="translate(-347.541 -14.132)" fill="#fff"/>
  </g>
  <g id="Group_5765" data-name="Group 5765" transform="translate(0 0.052)">
    <path id="Path_5381" data-name="Path 5381" d="M385.475,11.58c-.554,0-1.07,0-1.586-.007-.049,0-.117-.1-.14-.161-.271-.76-.532-1.524-.808-2.283a.286.286,0,0,0-.2-.161c-1.235-.009-2.47,0-3.705-.008-.2,0-.3.042-.367.246-.23.7-.489,1.388-.732,2.083a.364.364,0,0,1-.407.294c-.442-.02-.885-.006-1.359-.006.057-.159.105-.3.157-.435q1.8-4.766,3.611-9.53a.336.336,0,0,1,.238-.185c.428-.013.858-.008,1.287.016a.34.34,0,0,1,.241.181q1.686,4.441,3.357,8.888c.128.339.263.674.417,1.067Zm-2.959-3.86-1.662-4.652-.1-.006L379.119,7.72Z" transform="translate(-295.295 -1.166)" fill="#fff"/>
    <path id="Path_5384" data-name="Path 5384" d="M324.4,17.986a2.036,2.036,0,0,0,1.892,1.865,5.234,5.234,0,0,0,2.471-.353c.174-.076.25-.042.314.139a5.342,5.342,0,0,0,.319.7c.085.162.036.246-.118.308a6.192,6.192,0,0,1-3.167.5,3.638,3.638,0,0,1-3.239-2.962,3.86,3.86,0,0,1,2.272-4.466,3.412,3.412,0,0,1,4.666,2.307,5.527,5.527,0,0,1,.16,1.688c-.005.181-.085.256-.264.251-.3-.009-.591-.017-.886-.016q-2.161.006-4.323.017A.6.6,0,0,0,324.4,17.986Zm4.187-1.223c-.1-.318-.164-.573-.249-.824a1.591,1.591,0,0,0-.838-.953,2.251,2.251,0,0,0-3.076,1.467c-.09.325-.078.346.261.346,1.153,0,2.305,0,3.458,0C328.28,16.8,328.418,16.777,328.586,16.763Z" transform="translate(-253.397 -10.615)" fill="#fff"/>
    <path id="Path_5390" data-name="Path 5390" d="M354.4,84.117a3.843,3.843,0,1,1,3.88-3.839A3.767,3.767,0,0,1,354.4,84.117Zm-.08-6.292a1.85,1.85,0,0,0-1.775.841,2.78,2.78,0,0,0-.344,2.547,2.283,2.283,0,0,0,2.246,1.612,2.4,2.4,0,0,0,2.176-1.906C357.008,79.326,355.9,77.641,354.323,77.825Z" transform="translate(-275.119 -60.053)" fill="#fff"/>
    <path id="Path_5394" data-name="Path 5394" d="M319.074,82.391a5.091,5.091,0,0,0,2.008.483,4.821,4.821,0,0,0,1.23-.184.918.918,0,0,0,.458-.411.662.662,0,0,0-.3-.963c-.446-.2-.925-.319-1.384-.489a13.4,13.4,0,0,1-1.488-.592,1.758,1.758,0,0,1-.958-1.746,1.893,1.893,0,0,1,.991-1.661,3.429,3.429,0,0,1,2.233-.4c.65.083,1.285.286,1.927.432.2.045.212.145.129.309a2.932,2.932,0,0,0-.25.587c-.06.237-.175.226-.371.177a13.7,13.7,0,0,0-1.516-.324,1.651,1.651,0,0,0-1.472.4.655.655,0,0,0,.05,1.058,2.769,2.769,0,0,0,.736.367c.574.2,1.165.343,1.736.549a2.071,2.071,0,0,1,1.391,1.34,2.016,2.016,0,0,1-1.221,2.479,3.422,3.422,0,0,1-.9.235,6.178,6.178,0,0,1-3.306-.467c-.14-.062-.2-.132-.133-.284C318.8,83,318.93,82.711,319.074,82.391Z" transform="translate(-250.134 -60.021)" fill="#fff"/>
    <path id="Path_5395" data-name="Path 5395" d="M398.256,82.506l.447,1.1-.077.035a4.823,4.823,0,0,1-3.805.192,3.792,3.792,0,0,1-1.96-5.324,3.994,3.994,0,0,1,4.081-2.052,4.987,4.987,0,0,1,1.82.539c-.165.353-.319.7-.494,1.034-.022.041-.169.056-.237.029a3.391,3.391,0,0,0-2.658-.024,2.252,2.252,0,0,0-1.347,2.032,2.476,2.476,0,0,0,2.811,2.715C397.316,82.7,397.792,82.6,398.256,82.506Z" transform="translate(-308.037 -60.055)" fill="#fff"/>
    <path id="Path_5402" data-name="Path 5402" d="M424.355,21.55H422.8v-.306c0-1.839-.005-3.679.006-5.518,0-.237-.075-.339-.3-.372-.176-.026-.349-.073-.566-.12,0-.306-.009-.632.01-.956,0-.049.131-.129.2-.13.724-.01,1.449-.006,2.2-.006Z" transform="translate(-331.226 -11.153)" fill="#fff"/>
    <path id="Path_5403" data-name="Path 5403" d="M426.42,77h2.349c.007.079.02.155.02.23,0,2.3,0,4.6.008,6.9,0,.278-.1.361-.356.355-.313-.008-.626,0-.939,0-.173,0-.238-.075-.237-.263q.015-2.837,0-5.674a.313.313,0,0,0-.138-.207,1.441,1.441,0,0,0-.3-.118.609.609,0,0,1-.414-.627C426.422,77.4,426.42,77.206,426.42,77Z" transform="translate(-334.743 -60.497)" fill="#fff"/>
    <path id="Path_5404" data-name="Path 5404" d="M430.747,64.038a.934.934,0,0,1-.917.919.987.987,0,0,1-.917-.936.917.917,0,0,1,.9-.939A.932.932,0,0,1,430.747,64.038Z" transform="translate(-336.701 -49.572)" fill="#fff"/>
    <path id="Path_5406" data-name="Path 5406" d="M426.518,1.192c.077.431-.505.931-.988.893a.953.953,0,0,1-.858-.916.951.951,0,0,1,.942-.928A.932.932,0,0,1,426.518,1.192Z" transform="translate(-333.371 -0.24)" fill="#fff"/>
  </g>
  <g id="Group_5764" data-name="Group 5764" transform="translate(0 0.005)">
    <path id="Path_5383" data-name="Path 5383" d="M285.346,10.489c-.486,0-.95.007-1.413-.008-.065,0-.145-.1-.184-.169a.472.472,0,0,1-.011-.21q0-4.759,0-9.518c0-.115.007-.231.007-.346,0-.157.075-.217.234-.214q.591.011,1.182,0c.157,0,.187.058.186.208-.009,1.173-.008,2.346-.007,3.519,0,.067.015.134.031.263.1-.084.17-.13.226-.188a2.892,2.892,0,0,1,3.612-.511A2.063,2.063,0,0,1,290.2,4.44a4.285,4.285,0,0,1,.288,1.29c.041,1.537.027,3.074.033,4.612a.971.971,0,0,1-.025.148c-.472,0-.936.008-1.4-.009-.067,0-.174-.116-.186-.19a3.177,3.177,0,0,1-.011-.532c.008-1.244.025-2.488.021-3.732a1.447,1.447,0,0,0-.789-1.437,1.916,1.916,0,0,0-2.79,1.81c-.015,1.279.009,2.559.016,3.839,0,.077-.006.154-.011.252Z" transform="translate(-222.732 -0.023)" fill="#fff"/>
    <path id="Path_5393" data-name="Path 5393" d="M287.074,82.425a6.027,6.027,0,0,0,2.008.5,2.383,2.383,0,0,0,1.232-.184c.241-.118.466-.256.488-.577.027-.381-.018-.718-.433-.868s-.847-.276-1.264-.43a13.277,13.277,0,0,1-1.488-.589,1.756,1.756,0,0,1-.966-1.792,1.861,1.861,0,0,1,1.023-1.639,3.284,3.284,0,0,1,1.407-.4,6.459,6.459,0,0,1,2.732.448c.156.061.192.127.121.275-.109.224-.209.451-.307.68-.059.138-.134.165-.291.126a13.266,13.266,0,0,0-1.516-.325,4.031,4.031,0,0,0-.93.064.694.694,0,0,0-.249.094.9.9,0,0,0-.579.772.806.806,0,0,0,.6.721c.541.206,1.1.36,1.652.546a7.931,7.931,0,0,1,.874.335,1.886,1.886,0,0,1,1.134,1.87A2.01,2.01,0,0,1,291,83.851a4.32,4.32,0,0,1-2.429.227,11.322,11.322,0,0,1-1.8-.488.263.263,0,0,1-.1-.238C286.785,83.046,286.929,82.751,287.074,82.425Z" transform="translate(-225.021 -60.013)" fill="#fff"/>
  </g>
  <g id="Group_5763" data-name="Group 5763" transform="translate(0 0.423)">
    <path id="Path_5380" data-name="Path 5380" d="M239.653,74.261c.34-.9.661-1.743.979-2.588Q242.017,68,243.4,64.325c.086-.229.193-.348.462-.327a9.681,9.681,0,0,0,1.047,0,.237.237,0,0,1,.269.187q1.207,3.2,2.425,6.4.656,1.729,1.307,3.46c.021.056.034.114.06.2-.536,0-1.049.007-1.562-.009-.057,0-.131-.126-.16-.206q-.4-1.128-.784-2.262a.238.238,0,0,0-.266-.194c-1.226.007-2.453.009-3.679,0a.32.32,0,0,0-.359.266c-.234.716-.483,1.428-.726,2.142a.347.347,0,0,1-.342.284ZM246,70.325c-.544-1.582-1.082-3.1-1.7-4.6-.567,1.531-1.131,3.037-1.629,4.6Z" transform="translate(-188.13 -50.661)" fill="#fff"/>
    <path id="Path_5392" data-name="Path 5392" d="M242.966,3.435h-3.3V1.971h.975c2.318,0,4.637.011,6.955.007.232,0,.32.052.3.295a7.212,7.212,0,0,0,0,.905c.011.207-.071.255-.263.254-.931,0-1.862.007-2.793.014-.086,0-.173.008-.28.014v8.55h-1.6Z" transform="translate(-188.142 -1.971)" fill="#fff"/>
  </g>
  <g id="Group_5762" data-name="Group 5762" transform="translate(0 0.427)">
    <path id="Path_5377" data-name="Path 5377" d="M.082,15.5a.622.622,0,0,1,.168-.049q4.178.013,8.355.031a4.019,4.019,0,0,1,2.873,1.187c.818.8,1.62,1.609,2.436,2.408.337.33.685.651,1.039.964.174.154.371.281.536.4.326-.309.735-.689,1.137-1.076,1.4-1.341,2.8-2.672,4.179-4.03q4.974-4.9,9.928-9.83,1.122-1.111,2.251-2.215a4.31,4.31,0,0,1,3.154-1.3c2.561.013,5.123,0,7.685,0h.692c-.185.207-.366.432-.57.633q-3.2,3.157-6.41,6.308c-1.683,1.66-3.353,3.334-5.039,4.991Q27.235,19.089,21.969,24.25a4.5,4.5,0,0,1-3.353,1.343c-2.66-.017-5.32.01-7.979,0a.935.935,0,0,1-.574-.275c-2.527-2.481-5.04-4.978-7.565-7.462-.724-.713-1.474-1.4-2.217-2.094A1.349,1.349,0,0,0,0,15.6L.082,15.5Z" transform="translate(0 -1.985)" fill="#fff"/>
    <path id="Path_5378" data-name="Path 5378" d="M65.187,17.4c-.416.406-.785.766-1.153,1.127q-2.818,2.762-5.64,5.521a.553.553,0,0,1-.347.149q-4.915.012-9.83.006c-.05,0-.1-.007-.194-.013.1-.105.169-.181.242-.254,1.716-1.7,3.456-3.38,5.139-5.114a4.591,4.591,0,0,1,3.38-1.432c2.739-.032,5.479-.011,8.218-.011C65.037,17.382,65.071,17.39,65.187,17.4Z" transform="translate(-37.699 -14.068)" fill="#fff"/>
    <path id="Path_5379" data-name="Path 5379" d="M143.772,66.347q0-.6,0-1.193.005-4.172.012-8.345a.962.962,0,0,1,.25-.757c1.591-1.563,3.167-3.141,4.76-4.7.577-.565,1.188-1.1,1.785-1.645,0,.224,0,.464,0,.7,0,2.48-.015,4.959.015,7.438a4.07,4.07,0,0,1-1.228,3.026c-1.768,1.789-3.559,3.557-5.341,5.332-.056.056-.12.1-.18.156Z" transform="translate(-112.862 -39.447)" fill="#fff"/>
  </g>
</svg>
