<svg id="national-business-aviation-association-nbaa-vector-logo" xmlns="http://www.w3.org/2000/svg" width="121.414" height="21.488" viewBox="0 0 121.414 21.488">
  <g id="Group_5700" data-name="Group 5700" transform="translate(0)">
    <g id="Group_5699" data-name="Group 5699" transform="translate(0)">
      <g id="Group_5697" data-name="Group 5697">
        <path id="Path_5256" data-name="Path 5256" d="M37.1,271.256c4.229-3.825,12.385-5.848,19.629-3.116-6.091-.486-16.857,2.226-19.629,3.116" transform="translate(-34.069 -266.881)" fill="#fff"/>
        <path id="Path_5257" data-name="Path 5257" d="M25.9,281.167c3.6-1.032,19-5.181,24.263-2.712A13.729,13.729,0,0,1,52.83,280.8c-7.629-3.238-26.813,2.044-28.23,2.712a8.073,8.073,0,0,1,1.3-2.347" transform="translate(-24.099 -275.497)" fill="#fff"/>
        <path id="Path_5258" data-name="Path 5258" d="M22.28,297.375c5.181-1.821,23.494-6.354,29.748-2.307a19.358,19.358,0,0,1,.85,2.509c-5.585-5.484-27.7.465-30.7,1.943a6.507,6.507,0,0,1,.1-2.145" transform="translate(-22.123 -288.062)" fill="#fff"/>
        <path id="Path_5259" data-name="Path 5259" d="M22.4,322.428c3.46.789,26.874,1.943,30.8-.729a11.248,11.248,0,0,1-.465,2.388c-3.8,2.61-27.6,1.194-29.707.567a13.19,13.19,0,0,1-.627-2.226" transform="translate(-22.344 -310.606)" fill="#fff"/>
        <path id="Path_5260" data-name="Path 5260" d="M28.7,339.867c3.076.465,25.923,1.578,28.533-.567a10.647,10.647,0,0,1-2.449,2.934c-3.663.992-23.171.465-24.2-.223a11.511,11.511,0,0,1-1.882-2.145" transform="translate(-27.369 -324.645)" fill="#fff"/>
        <path id="Path_5261" data-name="Path 5261" d="M45.7,358.9c4.189.668,17.343.89,20.864.223-4.735,3.319-15.036,3.8-20.864-.223" transform="translate(-40.929 -340.279)" fill="#fff"/>
      </g>
      <path id="Path_5262" data-name="Path 5262" d="M213.8,286.7h2.772l12.2,10.422V286.7h2.509v13.4H228.9l-12.587-10.746V300.1H213.8Z" transform="translate(-175.011 -282.689)" fill="#fff"/>
      <g id="Group_5698" data-name="Group 5698" transform="translate(60.806 3.829)">
        <path id="Path_5263" data-name="Path 5263" d="M334.2,297.911c1.659,0,2.914-.324,2.914-1.922,0-1.4-1.153-1.841-2.914-1.841h-8.965v3.764ZM334.135,292c1.72,0,2.469-.425,2.469-1.558,0-1.154-.769-1.558-2.469-1.558h-8.884V292Zm-11.515-5.3h11.332c3.137,0,5.261.89,5.261,3.44a2.909,2.909,0,0,1-1.558,2.772,3.594,3.594,0,0,1,2.044,3.3c0,2.509-2.024,3.865-5.261,3.865H322.6V286.7Z" transform="translate(-322.6 -286.518)" fill="#fff"/>
        <path id="Path_5264" data-name="Path 5264" d="M429.208,291.972v-2.55c.061-1.052,1.032-1.477,2.671-1.477h7.346c1.72,0,2.611.425,2.611,1.558v2.449H429.208Zm15.076-2.772c0-2.509-2.145-3.4-5.282-3.4h-6.941c-3.137,0-5.262.89-5.262,3.4h0v10.078h2.449v-5.12h12.668v5.12h2.449l-.081-10.078Z" transform="translate(-405.714 -285.8)" fill="#fff"/>
        <path id="Path_5265" data-name="Path 5265" d="M537.788,291.972v-2.55c.061-1.052,1.032-1.477,2.671-1.477h7.366c1.72,0,2.61.425,2.61,1.558v2.449H537.768v.02Zm15.1-2.772c0-2.509-2.145-3.4-5.282-3.4h-6.941c-3.137,0-5.261.89-5.261,3.4h0v10.078h2.449v-5.12H550.5v5.12h2.449l-.061-10.078Z" transform="translate(-492.337 -285.8)" fill="#fff"/>
      </g>
    </g>
  </g>
</svg>
