<?xml version="1.0" encoding="utf-8"?>
<svg version="1.1" id="Layer_1" xmlns="http://www.w3.org/2000/svg" xmlns:xlink="http://www.w3.org/1999/xlink" x="0px" y="0px"
	 viewBox="0 0 649.1 195.8" style="enable-background:new 0 0 649.1 195.8;" xml:space="preserve">
<style type="text/css">
	.st0{fill:#FFFFFF;}
	.st1{fill:#FFFFFF;}
</style>
<polygon class="st0" points="7.3,160.9 7.3,5.5 1,0.2 37.8,0.2 96.6,131.5 151.2,1.2 190.1,1.2 184.8,6.5 184.8,163 190.1,168.3 
	156.5,168.3 161.7,162 161.7,29.6 97.7,167.2 88.2,167.2 25.2,28.6 25.2,159.9 32.5,167.2 0,168.3 "/>
<polygon class="st1" points="198.5,0.2 274.1,0.2 274.1,22.2 266.8,16 195.3,16 "/>
<polygon class="st1" points="201.7,168.3 277.3,168.3 277.3,146.2 269.9,152.5 198.5,152.5 "/>
<polygon class="st1" points="199.5,72.7 259.4,72.7 266.8,65.3 266.8,95.8 259.4,89.5 199.5,89.5 "/>
<path class="st0" d="M382.6,80c0,0,35.6-1.1,28.4-44.7c0,0-2-30.8-37.5-35.1l-75.2,1l5.1,6.4v154.2l-5.1,7.4h84.3
	c0,0,42.7-5.3,40.7-51.1C423.3,118.2,423.3,85.3,382.6,80 M325.6,20.4c0,0,27.3-2.1,46.2,0c18.9,2.1,19.4,21.8,19.4,21.8
	c0,31.4-22.6,31.4-22.6,31.4h-43V20.4z M374.5,153.3h-50V89.7c0,0,31.6-2.5,53.6,0c21.9,2.6,22.5,26.1,22.5,26.1
	C400.7,153.3,374.5,153.3,374.5,153.3"/>
<path class="st0" d="M578.7,169.3l-7.3-4.2L508.2,0.2h-30l4.2,8.4l-58,155.5l-6.2,3.2h32.1l-5.2-6.3l16.6-49.4h66.4l17.6,49.4
	l-3.5,8.4H578.7z M494.3,98.1l-26.6,0.2l13-36.8l13-36.8l13.6,36.6L521,97.9L494.3,98.1z"/>
<polygon class="st1" points="542,34.9 552.5,7.6 544.8,0.2 580.5,0.2 643.9,164.1 649.1,168.8 612.3,168.8 616.5,165.1 599.2,112.6 
	573.5,112.6 568.7,97.9 592.4,97.9 564.5,25.4 553,56.4 "/>
<rect y="190.6" class="st1" width="649.1" height="5.2"/>
<polygon class="st0" points="600.3,4.1 600.3,0 618.6,0 618.6,4.1 611.9,4.1 611.9,22.3 607,22.3 607,4.1 "/>
<polygon class="st0" points="628.1,0 633.3,15.4 633.4,15.4 638.3,0 645.2,0 645.2,22.3 640.6,22.3 640.6,6.5 640.6,6.5 635.1,22.3 
	631.3,22.3 625.8,6.7 625.8,6.7 625.8,22.3 621.2,22.3 621.2,0 "/>
</svg>
