<svg width="13" height="13" viewBox="0 0 13 13" fill="none" xmlns="http://www.w3.org/2000/svg">
<path d="M2.15235 11.531C2.09274 11.8875 2.4701 12.1559 2.78733 11.9827L5.82471 10.3243C5.95412 10.2536 6.11058 10.2536 6.23999 10.3243L9.28077 11.9846C9.59739 12.1575 9.97427 11.8903 9.91599 11.5343L9.32571 7.92857C9.30349 7.79281 9.34705 7.65456 9.44309 7.55608L11.9438 4.99168C12.19 4.73922 12.0475 4.31409 11.699 4.26087L8.26661 3.73688C8.12348 3.71503 8.00073 3.62313 7.93945 3.49195L6.4249 0.249956C6.26925 -0.08323 5.79545 -0.0832299 5.6398 0.249956L4.12525 3.49195C4.06397 3.62313 3.94121 3.71503 3.79808 3.73688L0.368364 4.26047C0.0192749 4.31377 -0.122864 4.73988 0.124322 4.99207L2.63664 7.5553C2.73357 7.6542 2.77739 7.79347 2.75455 7.93005L2.15235 11.531Z" fill="#FFD000"/>
</svg>
