<svg width="415" height="415" viewBox="0 0 415 415" fill="none" xmlns="http://www.w3.org/2000/svg">
<g clip-path="url(#clip0_6776_443)">
<path d="M21.4244 414.668C15.9622 414.668 10.5 412.59 6.35001 408.409C-1.98125 400.078 -1.98125 386.571 6.35001 378.239L378.341 6.24845C386.672 -2.08282 400.179 -2.08282 408.51 6.24845C416.842 14.5797 416.842 28.0868 408.51 36.4232L36.5248 408.409C32.3435 412.564 26.8814 414.668 21.4244 414.668Z" fill="#E5E5E5"/>
<path d="M393.441 414.668C387.979 414.668 382.522 412.59 378.367 408.409L6.35001 36.4232C-1.98125 28.0868 -1.98125 14.5797 6.35001 6.24845C14.6813 -2.08282 28.1883 -2.08282 36.5248 6.24845L408.51 378.239C416.842 386.571 416.842 400.078 408.51 408.409C404.329 412.564 398.872 414.668 393.441 414.668Z" fill="#E5E5E5"/>
</g>
<defs>
<clipPath id="clip0_6776_443">
<rect width="414.667" height="414.667" fill="white"/>
</clipPath>
</defs>
</svg>
